G04 #@! TF.GenerationSoftware,KiCad,Pcbnew,(5.1.0-rc1-103-gc65c7d3de)*
G04 #@! TF.CreationDate,2019-08-30T11:30:51+02:00
G04 #@! TF.ProjectId,pinballControlUnit,70696e62-616c-46c4-936f-6e74726f6c55,rev?*
G04 #@! TF.SameCoordinates,Original*
G04 #@! TF.FileFunction,Soldermask,Bot*
G04 #@! TF.FilePolarity,Negative*
%FSLAX46Y46*%
G04 Gerber Fmt 4.6, Leading zero omitted, Abs format (unit mm)*
G04 Created by KiCad (PCBNEW (5.1.0-rc1-103-gc65c7d3de)) date 2019-08-30 11:30:51*
%MOMM*%
%LPD*%
G04 APERTURE LIST*
%ADD10C,0.100000*%
G04 APERTURE END LIST*
D10*
G36*
X68368241Y-105839760D02*
G01*
X68632305Y-105949139D01*
X68869958Y-106107934D01*
X69072066Y-106310042D01*
X69230861Y-106547695D01*
X69340240Y-106811759D01*
X69396000Y-107092088D01*
X69396000Y-107377912D01*
X69340240Y-107658241D01*
X69230861Y-107922305D01*
X69072066Y-108159958D01*
X68869958Y-108362066D01*
X68632305Y-108520861D01*
X68368241Y-108630240D01*
X68087912Y-108686000D01*
X67802088Y-108686000D01*
X67521759Y-108630240D01*
X67257695Y-108520861D01*
X67020042Y-108362066D01*
X66817934Y-108159958D01*
X66659139Y-107922305D01*
X66549760Y-107658241D01*
X66494000Y-107377912D01*
X66494000Y-107092088D01*
X66549760Y-106811759D01*
X66659139Y-106547695D01*
X66817934Y-106310042D01*
X67020042Y-106107934D01*
X67257695Y-105949139D01*
X67521759Y-105839760D01*
X67802088Y-105784000D01*
X68087912Y-105784000D01*
X68368241Y-105839760D01*
X68368241Y-105839760D01*
G37*
G36*
X69396000Y-103686000D02*
G01*
X66494000Y-103686000D01*
X66494000Y-100784000D01*
X69396000Y-100784000D01*
X69396000Y-103686000D01*
X69396000Y-103686000D01*
G37*
G36*
X100440442Y-100070518D02*
G01*
X100506627Y-100077037D01*
X100676466Y-100128557D01*
X100832991Y-100212222D01*
X100868729Y-100241552D01*
X100970186Y-100324814D01*
X101053448Y-100426271D01*
X101082778Y-100462009D01*
X101166443Y-100618534D01*
X101217963Y-100788373D01*
X101235359Y-100965000D01*
X101217963Y-101141627D01*
X101166443Y-101311466D01*
X101082778Y-101467991D01*
X101053448Y-101503729D01*
X100970186Y-101605186D01*
X100868729Y-101688448D01*
X100832991Y-101717778D01*
X100676466Y-101801443D01*
X100506627Y-101852963D01*
X100440443Y-101859481D01*
X100374260Y-101866000D01*
X100285740Y-101866000D01*
X100219558Y-101859482D01*
X100153373Y-101852963D01*
X99983534Y-101801443D01*
X99827009Y-101717778D01*
X99791271Y-101688448D01*
X99689814Y-101605186D01*
X99606552Y-101503729D01*
X99577222Y-101467991D01*
X99493557Y-101311466D01*
X99442037Y-101141627D01*
X99424641Y-100965000D01*
X99442037Y-100788373D01*
X99493557Y-100618534D01*
X99577222Y-100462009D01*
X99606552Y-100426271D01*
X99689814Y-100324814D01*
X99791271Y-100241552D01*
X99827009Y-100212222D01*
X99983534Y-100128557D01*
X100153373Y-100077037D01*
X100219557Y-100070519D01*
X100285740Y-100064000D01*
X100374260Y-100064000D01*
X100440442Y-100070518D01*
X100440442Y-100070518D01*
G37*
G36*
X98691000Y-101866000D02*
G01*
X96889000Y-101866000D01*
X96889000Y-100064000D01*
X98691000Y-100064000D01*
X98691000Y-101866000D01*
X98691000Y-101866000D01*
G37*
G36*
X92976000Y-101866000D02*
G01*
X91174000Y-101866000D01*
X91174000Y-100064000D01*
X92976000Y-100064000D01*
X92976000Y-101866000D01*
X92976000Y-101866000D01*
G37*
G36*
X89645442Y-100070518D02*
G01*
X89711627Y-100077037D01*
X89881466Y-100128557D01*
X90037991Y-100212222D01*
X90073729Y-100241552D01*
X90175186Y-100324814D01*
X90258448Y-100426271D01*
X90287778Y-100462009D01*
X90371443Y-100618534D01*
X90422963Y-100788373D01*
X90440359Y-100965000D01*
X90422963Y-101141627D01*
X90371443Y-101311466D01*
X90287778Y-101467991D01*
X90258448Y-101503729D01*
X90175186Y-101605186D01*
X90073729Y-101688448D01*
X90037991Y-101717778D01*
X89881466Y-101801443D01*
X89711627Y-101852963D01*
X89645443Y-101859481D01*
X89579260Y-101866000D01*
X89490740Y-101866000D01*
X89424558Y-101859482D01*
X89358373Y-101852963D01*
X89188534Y-101801443D01*
X89032009Y-101717778D01*
X88996271Y-101688448D01*
X88894814Y-101605186D01*
X88811552Y-101503729D01*
X88782222Y-101467991D01*
X88698557Y-101311466D01*
X88647037Y-101141627D01*
X88629641Y-100965000D01*
X88647037Y-100788373D01*
X88698557Y-100618534D01*
X88782222Y-100462009D01*
X88811552Y-100426271D01*
X88894814Y-100324814D01*
X88996271Y-100241552D01*
X89032009Y-100212222D01*
X89188534Y-100128557D01*
X89358373Y-100077037D01*
X89424557Y-100070519D01*
X89490740Y-100064000D01*
X89579260Y-100064000D01*
X89645442Y-100070518D01*
X89645442Y-100070518D01*
G37*
G36*
X105520442Y-100070518D02*
G01*
X105586627Y-100077037D01*
X105756466Y-100128557D01*
X105912991Y-100212222D01*
X105948729Y-100241552D01*
X106050186Y-100324814D01*
X106133448Y-100426271D01*
X106162778Y-100462009D01*
X106246443Y-100618534D01*
X106297963Y-100788373D01*
X106315359Y-100965000D01*
X106297963Y-101141627D01*
X106246443Y-101311466D01*
X106162778Y-101467991D01*
X106133448Y-101503729D01*
X106050186Y-101605186D01*
X105948729Y-101688448D01*
X105912991Y-101717778D01*
X105756466Y-101801443D01*
X105586627Y-101852963D01*
X105520443Y-101859481D01*
X105454260Y-101866000D01*
X105365740Y-101866000D01*
X105299558Y-101859482D01*
X105233373Y-101852963D01*
X105063534Y-101801443D01*
X104907009Y-101717778D01*
X104871271Y-101688448D01*
X104769814Y-101605186D01*
X104686552Y-101503729D01*
X104657222Y-101467991D01*
X104573557Y-101311466D01*
X104522037Y-101141627D01*
X104504641Y-100965000D01*
X104522037Y-100788373D01*
X104573557Y-100618534D01*
X104657222Y-100462009D01*
X104686552Y-100426271D01*
X104769814Y-100324814D01*
X104871271Y-100241552D01*
X104907009Y-100212222D01*
X105063534Y-100128557D01*
X105233373Y-100077037D01*
X105299557Y-100070519D01*
X105365740Y-100064000D01*
X105454260Y-100064000D01*
X105520442Y-100070518D01*
X105520442Y-100070518D01*
G37*
G36*
X102980442Y-100070518D02*
G01*
X103046627Y-100077037D01*
X103216466Y-100128557D01*
X103372991Y-100212222D01*
X103408729Y-100241552D01*
X103510186Y-100324814D01*
X103593448Y-100426271D01*
X103622778Y-100462009D01*
X103706443Y-100618534D01*
X103757963Y-100788373D01*
X103775359Y-100965000D01*
X103757963Y-101141627D01*
X103706443Y-101311466D01*
X103622778Y-101467991D01*
X103593448Y-101503729D01*
X103510186Y-101605186D01*
X103408729Y-101688448D01*
X103372991Y-101717778D01*
X103216466Y-101801443D01*
X103046627Y-101852963D01*
X102980443Y-101859481D01*
X102914260Y-101866000D01*
X102825740Y-101866000D01*
X102759558Y-101859482D01*
X102693373Y-101852963D01*
X102523534Y-101801443D01*
X102367009Y-101717778D01*
X102331271Y-101688448D01*
X102229814Y-101605186D01*
X102146552Y-101503729D01*
X102117222Y-101467991D01*
X102033557Y-101311466D01*
X101982037Y-101141627D01*
X101964641Y-100965000D01*
X101982037Y-100788373D01*
X102033557Y-100618534D01*
X102117222Y-100462009D01*
X102146552Y-100426271D01*
X102229814Y-100324814D01*
X102331271Y-100241552D01*
X102367009Y-100212222D01*
X102523534Y-100128557D01*
X102693373Y-100077037D01*
X102759557Y-100070519D01*
X102825740Y-100064000D01*
X102914260Y-100064000D01*
X102980442Y-100070518D01*
X102980442Y-100070518D01*
G37*
G36*
X87740443Y-94990519D02*
G01*
X87806627Y-94997037D01*
X87976466Y-95048557D01*
X88132991Y-95132222D01*
X88168729Y-95161552D01*
X88270186Y-95244814D01*
X88353448Y-95346271D01*
X88382778Y-95382009D01*
X88466443Y-95538534D01*
X88517963Y-95708373D01*
X88535359Y-95885000D01*
X88517963Y-96061627D01*
X88466443Y-96231466D01*
X88382778Y-96387991D01*
X88353448Y-96423729D01*
X88270186Y-96525186D01*
X88168729Y-96608448D01*
X88132991Y-96637778D01*
X87976466Y-96721443D01*
X87806627Y-96772963D01*
X87740442Y-96779482D01*
X87674260Y-96786000D01*
X87585740Y-96786000D01*
X87519558Y-96779482D01*
X87453373Y-96772963D01*
X87283534Y-96721443D01*
X87127009Y-96637778D01*
X87091271Y-96608448D01*
X86989814Y-96525186D01*
X86906552Y-96423729D01*
X86877222Y-96387991D01*
X86793557Y-96231466D01*
X86742037Y-96061627D01*
X86724641Y-95885000D01*
X86742037Y-95708373D01*
X86793557Y-95538534D01*
X86877222Y-95382009D01*
X86906552Y-95346271D01*
X86989814Y-95244814D01*
X87091271Y-95161552D01*
X87127009Y-95132222D01*
X87283534Y-95048557D01*
X87453373Y-94997037D01*
X87519557Y-94990519D01*
X87585740Y-94984000D01*
X87674260Y-94984000D01*
X87740443Y-94990519D01*
X87740443Y-94990519D01*
G37*
G36*
X116471000Y-96786000D02*
G01*
X114669000Y-96786000D01*
X114669000Y-94984000D01*
X116471000Y-94984000D01*
X116471000Y-96786000D01*
X116471000Y-96786000D01*
G37*
G36*
X68368241Y-93774760D02*
G01*
X68632305Y-93884139D01*
X68869958Y-94042934D01*
X69072066Y-94245042D01*
X69230861Y-94482695D01*
X69340240Y-94746759D01*
X69396000Y-95027088D01*
X69396000Y-95312912D01*
X69340240Y-95593241D01*
X69230861Y-95857305D01*
X69072066Y-96094958D01*
X68869958Y-96297066D01*
X68632305Y-96455861D01*
X68368241Y-96565240D01*
X68087912Y-96621000D01*
X67802088Y-96621000D01*
X67521759Y-96565240D01*
X67257695Y-96455861D01*
X67020042Y-96297066D01*
X66817934Y-96094958D01*
X66659139Y-95857305D01*
X66549760Y-95593241D01*
X66494000Y-95312912D01*
X66494000Y-95027088D01*
X66549760Y-94746759D01*
X66659139Y-94482695D01*
X66817934Y-94245042D01*
X67020042Y-94042934D01*
X67257695Y-93884139D01*
X67521759Y-93774760D01*
X67802088Y-93719000D01*
X68087912Y-93719000D01*
X68368241Y-93774760D01*
X68368241Y-93774760D01*
G37*
G36*
X87740443Y-92450519D02*
G01*
X87806627Y-92457037D01*
X87976466Y-92508557D01*
X88132991Y-92592222D01*
X88168729Y-92621552D01*
X88270186Y-92704814D01*
X88353448Y-92806271D01*
X88382778Y-92842009D01*
X88466443Y-92998534D01*
X88517963Y-93168373D01*
X88535359Y-93345000D01*
X88517963Y-93521627D01*
X88466443Y-93691466D01*
X88382778Y-93847991D01*
X88353448Y-93883729D01*
X88270186Y-93985186D01*
X88168729Y-94068448D01*
X88132991Y-94097778D01*
X87976466Y-94181443D01*
X87806627Y-94232963D01*
X87740443Y-94239481D01*
X87674260Y-94246000D01*
X87585740Y-94246000D01*
X87519557Y-94239481D01*
X87453373Y-94232963D01*
X87283534Y-94181443D01*
X87127009Y-94097778D01*
X87091271Y-94068448D01*
X86989814Y-93985186D01*
X86906552Y-93883729D01*
X86877222Y-93847991D01*
X86793557Y-93691466D01*
X86742037Y-93521627D01*
X86724641Y-93345000D01*
X86742037Y-93168373D01*
X86793557Y-92998534D01*
X86877222Y-92842009D01*
X86906552Y-92806271D01*
X86989814Y-92704814D01*
X87091271Y-92621552D01*
X87127009Y-92592222D01*
X87283534Y-92508557D01*
X87453373Y-92457037D01*
X87519557Y-92450519D01*
X87585740Y-92444000D01*
X87674260Y-92444000D01*
X87740443Y-92450519D01*
X87740443Y-92450519D01*
G37*
G36*
X115680443Y-92450519D02*
G01*
X115746627Y-92457037D01*
X115916466Y-92508557D01*
X116072991Y-92592222D01*
X116108729Y-92621552D01*
X116210186Y-92704814D01*
X116293448Y-92806271D01*
X116322778Y-92842009D01*
X116406443Y-92998534D01*
X116457963Y-93168373D01*
X116475359Y-93345000D01*
X116457963Y-93521627D01*
X116406443Y-93691466D01*
X116322778Y-93847991D01*
X116293448Y-93883729D01*
X116210186Y-93985186D01*
X116108729Y-94068448D01*
X116072991Y-94097778D01*
X115916466Y-94181443D01*
X115746627Y-94232963D01*
X115680443Y-94239481D01*
X115614260Y-94246000D01*
X115525740Y-94246000D01*
X115459557Y-94239481D01*
X115393373Y-94232963D01*
X115223534Y-94181443D01*
X115067009Y-94097778D01*
X115031271Y-94068448D01*
X114929814Y-93985186D01*
X114846552Y-93883729D01*
X114817222Y-93847991D01*
X114733557Y-93691466D01*
X114682037Y-93521627D01*
X114664641Y-93345000D01*
X114682037Y-93168373D01*
X114733557Y-92998534D01*
X114817222Y-92842009D01*
X114846552Y-92806271D01*
X114929814Y-92704814D01*
X115031271Y-92621552D01*
X115067009Y-92592222D01*
X115223534Y-92508557D01*
X115393373Y-92457037D01*
X115459557Y-92450519D01*
X115525740Y-92444000D01*
X115614260Y-92444000D01*
X115680443Y-92450519D01*
X115680443Y-92450519D01*
G37*
G36*
X87740442Y-89910518D02*
G01*
X87806627Y-89917037D01*
X87976466Y-89968557D01*
X88132991Y-90052222D01*
X88168729Y-90081552D01*
X88270186Y-90164814D01*
X88353448Y-90266271D01*
X88382778Y-90302009D01*
X88466443Y-90458534D01*
X88517963Y-90628373D01*
X88535359Y-90805000D01*
X88517963Y-90981627D01*
X88466443Y-91151466D01*
X88382778Y-91307991D01*
X88353448Y-91343729D01*
X88270186Y-91445186D01*
X88168729Y-91528448D01*
X88132991Y-91557778D01*
X87976466Y-91641443D01*
X87806627Y-91692963D01*
X87740442Y-91699482D01*
X87674260Y-91706000D01*
X87585740Y-91706000D01*
X87519558Y-91699482D01*
X87453373Y-91692963D01*
X87283534Y-91641443D01*
X87127009Y-91557778D01*
X87091271Y-91528448D01*
X86989814Y-91445186D01*
X86906552Y-91343729D01*
X86877222Y-91307991D01*
X86793557Y-91151466D01*
X86742037Y-90981627D01*
X86724641Y-90805000D01*
X86742037Y-90628373D01*
X86793557Y-90458534D01*
X86877222Y-90302009D01*
X86906552Y-90266271D01*
X86989814Y-90164814D01*
X87091271Y-90081552D01*
X87127009Y-90052222D01*
X87283534Y-89968557D01*
X87453373Y-89917037D01*
X87519558Y-89910518D01*
X87585740Y-89904000D01*
X87674260Y-89904000D01*
X87740442Y-89910518D01*
X87740442Y-89910518D01*
G37*
G36*
X115680442Y-89910518D02*
G01*
X115746627Y-89917037D01*
X115916466Y-89968557D01*
X116072991Y-90052222D01*
X116108729Y-90081552D01*
X116210186Y-90164814D01*
X116293448Y-90266271D01*
X116322778Y-90302009D01*
X116406443Y-90458534D01*
X116457963Y-90628373D01*
X116475359Y-90805000D01*
X116457963Y-90981627D01*
X116406443Y-91151466D01*
X116322778Y-91307991D01*
X116293448Y-91343729D01*
X116210186Y-91445186D01*
X116108729Y-91528448D01*
X116072991Y-91557778D01*
X115916466Y-91641443D01*
X115746627Y-91692963D01*
X115680442Y-91699482D01*
X115614260Y-91706000D01*
X115525740Y-91706000D01*
X115459558Y-91699482D01*
X115393373Y-91692963D01*
X115223534Y-91641443D01*
X115067009Y-91557778D01*
X115031271Y-91528448D01*
X114929814Y-91445186D01*
X114846552Y-91343729D01*
X114817222Y-91307991D01*
X114733557Y-91151466D01*
X114682037Y-90981627D01*
X114664641Y-90805000D01*
X114682037Y-90628373D01*
X114733557Y-90458534D01*
X114817222Y-90302009D01*
X114846552Y-90266271D01*
X114929814Y-90164814D01*
X115031271Y-90081552D01*
X115067009Y-90052222D01*
X115223534Y-89968557D01*
X115393373Y-89917037D01*
X115459558Y-89910518D01*
X115525740Y-89904000D01*
X115614260Y-89904000D01*
X115680442Y-89910518D01*
X115680442Y-89910518D01*
G37*
G36*
X69396000Y-91621000D02*
G01*
X66494000Y-91621000D01*
X66494000Y-88719000D01*
X69396000Y-88719000D01*
X69396000Y-91621000D01*
X69396000Y-91621000D01*
G37*
G36*
X115680443Y-87370519D02*
G01*
X115746627Y-87377037D01*
X115916466Y-87428557D01*
X116072991Y-87512222D01*
X116108729Y-87541552D01*
X116210186Y-87624814D01*
X116293448Y-87726271D01*
X116322778Y-87762009D01*
X116406443Y-87918534D01*
X116457963Y-88088373D01*
X116475359Y-88265000D01*
X116457963Y-88441627D01*
X116406443Y-88611466D01*
X116322778Y-88767991D01*
X116293448Y-88803729D01*
X116210186Y-88905186D01*
X116108729Y-88988448D01*
X116072991Y-89017778D01*
X115916466Y-89101443D01*
X115746627Y-89152963D01*
X115680443Y-89159481D01*
X115614260Y-89166000D01*
X115525740Y-89166000D01*
X115459557Y-89159481D01*
X115393373Y-89152963D01*
X115223534Y-89101443D01*
X115067009Y-89017778D01*
X115031271Y-88988448D01*
X114929814Y-88905186D01*
X114846552Y-88803729D01*
X114817222Y-88767991D01*
X114733557Y-88611466D01*
X114682037Y-88441627D01*
X114664641Y-88265000D01*
X114682037Y-88088373D01*
X114733557Y-87918534D01*
X114817222Y-87762009D01*
X114846552Y-87726271D01*
X114929814Y-87624814D01*
X115031271Y-87541552D01*
X115067009Y-87512222D01*
X115223534Y-87428557D01*
X115393373Y-87377037D01*
X115459557Y-87370519D01*
X115525740Y-87364000D01*
X115614260Y-87364000D01*
X115680443Y-87370519D01*
X115680443Y-87370519D01*
G37*
G36*
X87740443Y-87370519D02*
G01*
X87806627Y-87377037D01*
X87976466Y-87428557D01*
X88132991Y-87512222D01*
X88168729Y-87541552D01*
X88270186Y-87624814D01*
X88353448Y-87726271D01*
X88382778Y-87762009D01*
X88466443Y-87918534D01*
X88517963Y-88088373D01*
X88535359Y-88265000D01*
X88517963Y-88441627D01*
X88466443Y-88611466D01*
X88382778Y-88767991D01*
X88353448Y-88803729D01*
X88270186Y-88905186D01*
X88168729Y-88988448D01*
X88132991Y-89017778D01*
X87976466Y-89101443D01*
X87806627Y-89152963D01*
X87740443Y-89159481D01*
X87674260Y-89166000D01*
X87585740Y-89166000D01*
X87519557Y-89159481D01*
X87453373Y-89152963D01*
X87283534Y-89101443D01*
X87127009Y-89017778D01*
X87091271Y-88988448D01*
X86989814Y-88905186D01*
X86906552Y-88803729D01*
X86877222Y-88767991D01*
X86793557Y-88611466D01*
X86742037Y-88441627D01*
X86724641Y-88265000D01*
X86742037Y-88088373D01*
X86793557Y-87918534D01*
X86877222Y-87762009D01*
X86906552Y-87726271D01*
X86989814Y-87624814D01*
X87091271Y-87541552D01*
X87127009Y-87512222D01*
X87283534Y-87428557D01*
X87453373Y-87377037D01*
X87519557Y-87370519D01*
X87585740Y-87364000D01*
X87674260Y-87364000D01*
X87740443Y-87370519D01*
X87740443Y-87370519D01*
G37*
G36*
X115680443Y-84830519D02*
G01*
X115746627Y-84837037D01*
X115916466Y-84888557D01*
X116072991Y-84972222D01*
X116108729Y-85001552D01*
X116210186Y-85084814D01*
X116293448Y-85186271D01*
X116322778Y-85222009D01*
X116406443Y-85378534D01*
X116457963Y-85548373D01*
X116475359Y-85725000D01*
X116457963Y-85901627D01*
X116406443Y-86071466D01*
X116322778Y-86227991D01*
X116293448Y-86263729D01*
X116210186Y-86365186D01*
X116108729Y-86448448D01*
X116072991Y-86477778D01*
X115916466Y-86561443D01*
X115746627Y-86612963D01*
X115680442Y-86619482D01*
X115614260Y-86626000D01*
X115525740Y-86626000D01*
X115459558Y-86619482D01*
X115393373Y-86612963D01*
X115223534Y-86561443D01*
X115067009Y-86477778D01*
X115031271Y-86448448D01*
X114929814Y-86365186D01*
X114846552Y-86263729D01*
X114817222Y-86227991D01*
X114733557Y-86071466D01*
X114682037Y-85901627D01*
X114664641Y-85725000D01*
X114682037Y-85548373D01*
X114733557Y-85378534D01*
X114817222Y-85222009D01*
X114846552Y-85186271D01*
X114929814Y-85084814D01*
X115031271Y-85001552D01*
X115067009Y-84972222D01*
X115223534Y-84888557D01*
X115393373Y-84837037D01*
X115459557Y-84830519D01*
X115525740Y-84824000D01*
X115614260Y-84824000D01*
X115680443Y-84830519D01*
X115680443Y-84830519D01*
G37*
G36*
X87740443Y-84830519D02*
G01*
X87806627Y-84837037D01*
X87976466Y-84888557D01*
X88132991Y-84972222D01*
X88168729Y-85001552D01*
X88270186Y-85084814D01*
X88353448Y-85186271D01*
X88382778Y-85222009D01*
X88466443Y-85378534D01*
X88517963Y-85548373D01*
X88535359Y-85725000D01*
X88517963Y-85901627D01*
X88466443Y-86071466D01*
X88382778Y-86227991D01*
X88353448Y-86263729D01*
X88270186Y-86365186D01*
X88168729Y-86448448D01*
X88132991Y-86477778D01*
X87976466Y-86561443D01*
X87806627Y-86612963D01*
X87740442Y-86619482D01*
X87674260Y-86626000D01*
X87585740Y-86626000D01*
X87519558Y-86619482D01*
X87453373Y-86612963D01*
X87283534Y-86561443D01*
X87127009Y-86477778D01*
X87091271Y-86448448D01*
X86989814Y-86365186D01*
X86906552Y-86263729D01*
X86877222Y-86227991D01*
X86793557Y-86071466D01*
X86742037Y-85901627D01*
X86724641Y-85725000D01*
X86742037Y-85548373D01*
X86793557Y-85378534D01*
X86877222Y-85222009D01*
X86906552Y-85186271D01*
X86989814Y-85084814D01*
X87091271Y-85001552D01*
X87127009Y-84972222D01*
X87283534Y-84888557D01*
X87453373Y-84837037D01*
X87519557Y-84830519D01*
X87585740Y-84824000D01*
X87674260Y-84824000D01*
X87740443Y-84830519D01*
X87740443Y-84830519D01*
G37*
G36*
X68368241Y-81709760D02*
G01*
X68632305Y-81819139D01*
X68869958Y-81977934D01*
X69072066Y-82180042D01*
X69230861Y-82417695D01*
X69340240Y-82681759D01*
X69396000Y-82962088D01*
X69396000Y-83247912D01*
X69340240Y-83528241D01*
X69230861Y-83792305D01*
X69072066Y-84029958D01*
X68869958Y-84232066D01*
X68632305Y-84390861D01*
X68368241Y-84500240D01*
X68087912Y-84556000D01*
X67802088Y-84556000D01*
X67521759Y-84500240D01*
X67257695Y-84390861D01*
X67020042Y-84232066D01*
X66817934Y-84029958D01*
X66659139Y-83792305D01*
X66549760Y-83528241D01*
X66494000Y-83247912D01*
X66494000Y-82962088D01*
X66549760Y-82681759D01*
X66659139Y-82417695D01*
X66817934Y-82180042D01*
X67020042Y-81977934D01*
X67257695Y-81819139D01*
X67521759Y-81709760D01*
X67802088Y-81654000D01*
X68087912Y-81654000D01*
X68368241Y-81709760D01*
X68368241Y-81709760D01*
G37*
G36*
X115680443Y-82290519D02*
G01*
X115746627Y-82297037D01*
X115916466Y-82348557D01*
X116072991Y-82432222D01*
X116108729Y-82461552D01*
X116210186Y-82544814D01*
X116293448Y-82646271D01*
X116322778Y-82682009D01*
X116406443Y-82838534D01*
X116457963Y-83008373D01*
X116475359Y-83185000D01*
X116457963Y-83361627D01*
X116406443Y-83531466D01*
X116322778Y-83687991D01*
X116293448Y-83723729D01*
X116210186Y-83825186D01*
X116108729Y-83908448D01*
X116072991Y-83937778D01*
X115916466Y-84021443D01*
X115746627Y-84072963D01*
X115680443Y-84079481D01*
X115614260Y-84086000D01*
X115525740Y-84086000D01*
X115459557Y-84079481D01*
X115393373Y-84072963D01*
X115223534Y-84021443D01*
X115067009Y-83937778D01*
X115031271Y-83908448D01*
X114929814Y-83825186D01*
X114846552Y-83723729D01*
X114817222Y-83687991D01*
X114733557Y-83531466D01*
X114682037Y-83361627D01*
X114664641Y-83185000D01*
X114682037Y-83008373D01*
X114733557Y-82838534D01*
X114817222Y-82682009D01*
X114846552Y-82646271D01*
X114929814Y-82544814D01*
X115031271Y-82461552D01*
X115067009Y-82432222D01*
X115223534Y-82348557D01*
X115393373Y-82297037D01*
X115459557Y-82290519D01*
X115525740Y-82284000D01*
X115614260Y-82284000D01*
X115680443Y-82290519D01*
X115680443Y-82290519D01*
G37*
G36*
X87740443Y-82290519D02*
G01*
X87806627Y-82297037D01*
X87976466Y-82348557D01*
X88132991Y-82432222D01*
X88168729Y-82461552D01*
X88270186Y-82544814D01*
X88353448Y-82646271D01*
X88382778Y-82682009D01*
X88466443Y-82838534D01*
X88517963Y-83008373D01*
X88535359Y-83185000D01*
X88517963Y-83361627D01*
X88466443Y-83531466D01*
X88382778Y-83687991D01*
X88353448Y-83723729D01*
X88270186Y-83825186D01*
X88168729Y-83908448D01*
X88132991Y-83937778D01*
X87976466Y-84021443D01*
X87806627Y-84072963D01*
X87740443Y-84079481D01*
X87674260Y-84086000D01*
X87585740Y-84086000D01*
X87519557Y-84079481D01*
X87453373Y-84072963D01*
X87283534Y-84021443D01*
X87127009Y-83937778D01*
X87091271Y-83908448D01*
X86989814Y-83825186D01*
X86906552Y-83723729D01*
X86877222Y-83687991D01*
X86793557Y-83531466D01*
X86742037Y-83361627D01*
X86724641Y-83185000D01*
X86742037Y-83008373D01*
X86793557Y-82838534D01*
X86877222Y-82682009D01*
X86906552Y-82646271D01*
X86989814Y-82544814D01*
X87091271Y-82461552D01*
X87127009Y-82432222D01*
X87283534Y-82348557D01*
X87453373Y-82297037D01*
X87519557Y-82290519D01*
X87585740Y-82284000D01*
X87674260Y-82284000D01*
X87740443Y-82290519D01*
X87740443Y-82290519D01*
G37*
G36*
X115680442Y-79750518D02*
G01*
X115746627Y-79757037D01*
X115916466Y-79808557D01*
X116072991Y-79892222D01*
X116108729Y-79921552D01*
X116210186Y-80004814D01*
X116293448Y-80106271D01*
X116322778Y-80142009D01*
X116406443Y-80298534D01*
X116457963Y-80468373D01*
X116475359Y-80645000D01*
X116457963Y-80821627D01*
X116406443Y-80991466D01*
X116322778Y-81147991D01*
X116293448Y-81183729D01*
X116210186Y-81285186D01*
X116108729Y-81368448D01*
X116072991Y-81397778D01*
X115916466Y-81481443D01*
X115746627Y-81532963D01*
X115680442Y-81539482D01*
X115614260Y-81546000D01*
X115525740Y-81546000D01*
X115459558Y-81539482D01*
X115393373Y-81532963D01*
X115223534Y-81481443D01*
X115067009Y-81397778D01*
X115031271Y-81368448D01*
X114929814Y-81285186D01*
X114846552Y-81183729D01*
X114817222Y-81147991D01*
X114733557Y-80991466D01*
X114682037Y-80821627D01*
X114664641Y-80645000D01*
X114682037Y-80468373D01*
X114733557Y-80298534D01*
X114817222Y-80142009D01*
X114846552Y-80106271D01*
X114929814Y-80004814D01*
X115031271Y-79921552D01*
X115067009Y-79892222D01*
X115223534Y-79808557D01*
X115393373Y-79757037D01*
X115459558Y-79750518D01*
X115525740Y-79744000D01*
X115614260Y-79744000D01*
X115680442Y-79750518D01*
X115680442Y-79750518D01*
G37*
G36*
X87740442Y-79750518D02*
G01*
X87806627Y-79757037D01*
X87976466Y-79808557D01*
X88132991Y-79892222D01*
X88168729Y-79921552D01*
X88270186Y-80004814D01*
X88353448Y-80106271D01*
X88382778Y-80142009D01*
X88466443Y-80298534D01*
X88517963Y-80468373D01*
X88535359Y-80645000D01*
X88517963Y-80821627D01*
X88466443Y-80991466D01*
X88382778Y-81147991D01*
X88353448Y-81183729D01*
X88270186Y-81285186D01*
X88168729Y-81368448D01*
X88132991Y-81397778D01*
X87976466Y-81481443D01*
X87806627Y-81532963D01*
X87740442Y-81539482D01*
X87674260Y-81546000D01*
X87585740Y-81546000D01*
X87519558Y-81539482D01*
X87453373Y-81532963D01*
X87283534Y-81481443D01*
X87127009Y-81397778D01*
X87091271Y-81368448D01*
X86989814Y-81285186D01*
X86906552Y-81183729D01*
X86877222Y-81147991D01*
X86793557Y-80991466D01*
X86742037Y-80821627D01*
X86724641Y-80645000D01*
X86742037Y-80468373D01*
X86793557Y-80298534D01*
X86877222Y-80142009D01*
X86906552Y-80106271D01*
X86989814Y-80004814D01*
X87091271Y-79921552D01*
X87127009Y-79892222D01*
X87283534Y-79808557D01*
X87453373Y-79757037D01*
X87519558Y-79750518D01*
X87585740Y-79744000D01*
X87674260Y-79744000D01*
X87740442Y-79750518D01*
X87740442Y-79750518D01*
G37*
G36*
X69396000Y-79556000D02*
G01*
X66494000Y-79556000D01*
X66494000Y-76654000D01*
X69396000Y-76654000D01*
X69396000Y-79556000D01*
X69396000Y-79556000D01*
G37*
G36*
X115680443Y-77210519D02*
G01*
X115746627Y-77217037D01*
X115916466Y-77268557D01*
X116072991Y-77352222D01*
X116108729Y-77381552D01*
X116210186Y-77464814D01*
X116293448Y-77566271D01*
X116322778Y-77602009D01*
X116406443Y-77758534D01*
X116457963Y-77928373D01*
X116475359Y-78105000D01*
X116457963Y-78281627D01*
X116406443Y-78451466D01*
X116322778Y-78607991D01*
X116293448Y-78643729D01*
X116210186Y-78745186D01*
X116108729Y-78828448D01*
X116072991Y-78857778D01*
X115916466Y-78941443D01*
X115746627Y-78992963D01*
X115680443Y-78999481D01*
X115614260Y-79006000D01*
X115525740Y-79006000D01*
X115459557Y-78999481D01*
X115393373Y-78992963D01*
X115223534Y-78941443D01*
X115067009Y-78857778D01*
X115031271Y-78828448D01*
X114929814Y-78745186D01*
X114846552Y-78643729D01*
X114817222Y-78607991D01*
X114733557Y-78451466D01*
X114682037Y-78281627D01*
X114664641Y-78105000D01*
X114682037Y-77928373D01*
X114733557Y-77758534D01*
X114817222Y-77602009D01*
X114846552Y-77566271D01*
X114929814Y-77464814D01*
X115031271Y-77381552D01*
X115067009Y-77352222D01*
X115223534Y-77268557D01*
X115393373Y-77217037D01*
X115459557Y-77210519D01*
X115525740Y-77204000D01*
X115614260Y-77204000D01*
X115680443Y-77210519D01*
X115680443Y-77210519D01*
G37*
G36*
X88531000Y-79006000D02*
G01*
X86729000Y-79006000D01*
X86729000Y-77204000D01*
X88531000Y-77204000D01*
X88531000Y-79006000D01*
X88531000Y-79006000D01*
G37*
G36*
X100440443Y-72130519D02*
G01*
X100506627Y-72137037D01*
X100676466Y-72188557D01*
X100832991Y-72272222D01*
X100868729Y-72301552D01*
X100970186Y-72384814D01*
X101053448Y-72486271D01*
X101082778Y-72522009D01*
X101166443Y-72678534D01*
X101217963Y-72848373D01*
X101235359Y-73025000D01*
X101217963Y-73201627D01*
X101166443Y-73371466D01*
X101082778Y-73527991D01*
X101053448Y-73563729D01*
X100970186Y-73665186D01*
X100868729Y-73748448D01*
X100832991Y-73777778D01*
X100676466Y-73861443D01*
X100506627Y-73912963D01*
X100440443Y-73919481D01*
X100374260Y-73926000D01*
X100285740Y-73926000D01*
X100219557Y-73919481D01*
X100153373Y-73912963D01*
X99983534Y-73861443D01*
X99827009Y-73777778D01*
X99791271Y-73748448D01*
X99689814Y-73665186D01*
X99606552Y-73563729D01*
X99577222Y-73527991D01*
X99493557Y-73371466D01*
X99442037Y-73201627D01*
X99424641Y-73025000D01*
X99442037Y-72848373D01*
X99493557Y-72678534D01*
X99577222Y-72522009D01*
X99606552Y-72486271D01*
X99689814Y-72384814D01*
X99791271Y-72301552D01*
X99827009Y-72272222D01*
X99983534Y-72188557D01*
X100153373Y-72137037D01*
X100219557Y-72130519D01*
X100285740Y-72124000D01*
X100374260Y-72124000D01*
X100440443Y-72130519D01*
X100440443Y-72130519D01*
G37*
G36*
X92820443Y-72130519D02*
G01*
X92886627Y-72137037D01*
X93056466Y-72188557D01*
X93212991Y-72272222D01*
X93248729Y-72301552D01*
X93350186Y-72384814D01*
X93433448Y-72486271D01*
X93462778Y-72522009D01*
X93546443Y-72678534D01*
X93597963Y-72848373D01*
X93615359Y-73025000D01*
X93597963Y-73201627D01*
X93546443Y-73371466D01*
X93462778Y-73527991D01*
X93433448Y-73563729D01*
X93350186Y-73665186D01*
X93248729Y-73748448D01*
X93212991Y-73777778D01*
X93056466Y-73861443D01*
X92886627Y-73912963D01*
X92820443Y-73919481D01*
X92754260Y-73926000D01*
X92665740Y-73926000D01*
X92599557Y-73919481D01*
X92533373Y-73912963D01*
X92363534Y-73861443D01*
X92207009Y-73777778D01*
X92171271Y-73748448D01*
X92069814Y-73665186D01*
X91986552Y-73563729D01*
X91957222Y-73527991D01*
X91873557Y-73371466D01*
X91822037Y-73201627D01*
X91804641Y-73025000D01*
X91822037Y-72848373D01*
X91873557Y-72678534D01*
X91957222Y-72522009D01*
X91986552Y-72486271D01*
X92069814Y-72384814D01*
X92171271Y-72301552D01*
X92207009Y-72272222D01*
X92363534Y-72188557D01*
X92533373Y-72137037D01*
X92599557Y-72130519D01*
X92665740Y-72124000D01*
X92754260Y-72124000D01*
X92820443Y-72130519D01*
X92820443Y-72130519D01*
G37*
G36*
X95360443Y-72130519D02*
G01*
X95426627Y-72137037D01*
X95596466Y-72188557D01*
X95752991Y-72272222D01*
X95788729Y-72301552D01*
X95890186Y-72384814D01*
X95973448Y-72486271D01*
X96002778Y-72522009D01*
X96086443Y-72678534D01*
X96137963Y-72848373D01*
X96155359Y-73025000D01*
X96137963Y-73201627D01*
X96086443Y-73371466D01*
X96002778Y-73527991D01*
X95973448Y-73563729D01*
X95890186Y-73665186D01*
X95788729Y-73748448D01*
X95752991Y-73777778D01*
X95596466Y-73861443D01*
X95426627Y-73912963D01*
X95360443Y-73919481D01*
X95294260Y-73926000D01*
X95205740Y-73926000D01*
X95139557Y-73919481D01*
X95073373Y-73912963D01*
X94903534Y-73861443D01*
X94747009Y-73777778D01*
X94711271Y-73748448D01*
X94609814Y-73665186D01*
X94526552Y-73563729D01*
X94497222Y-73527991D01*
X94413557Y-73371466D01*
X94362037Y-73201627D01*
X94344641Y-73025000D01*
X94362037Y-72848373D01*
X94413557Y-72678534D01*
X94497222Y-72522009D01*
X94526552Y-72486271D01*
X94609814Y-72384814D01*
X94711271Y-72301552D01*
X94747009Y-72272222D01*
X94903534Y-72188557D01*
X95073373Y-72137037D01*
X95139557Y-72130519D01*
X95205740Y-72124000D01*
X95294260Y-72124000D01*
X95360443Y-72130519D01*
X95360443Y-72130519D01*
G37*
G36*
X97900443Y-72130519D02*
G01*
X97966627Y-72137037D01*
X98136466Y-72188557D01*
X98292991Y-72272222D01*
X98328729Y-72301552D01*
X98430186Y-72384814D01*
X98513448Y-72486271D01*
X98542778Y-72522009D01*
X98626443Y-72678534D01*
X98677963Y-72848373D01*
X98695359Y-73025000D01*
X98677963Y-73201627D01*
X98626443Y-73371466D01*
X98542778Y-73527991D01*
X98513448Y-73563729D01*
X98430186Y-73665186D01*
X98328729Y-73748448D01*
X98292991Y-73777778D01*
X98136466Y-73861443D01*
X97966627Y-73912963D01*
X97900443Y-73919481D01*
X97834260Y-73926000D01*
X97745740Y-73926000D01*
X97679557Y-73919481D01*
X97613373Y-73912963D01*
X97443534Y-73861443D01*
X97287009Y-73777778D01*
X97251271Y-73748448D01*
X97149814Y-73665186D01*
X97066552Y-73563729D01*
X97037222Y-73527991D01*
X96953557Y-73371466D01*
X96902037Y-73201627D01*
X96884641Y-73025000D01*
X96902037Y-72848373D01*
X96953557Y-72678534D01*
X97037222Y-72522009D01*
X97066552Y-72486271D01*
X97149814Y-72384814D01*
X97251271Y-72301552D01*
X97287009Y-72272222D01*
X97443534Y-72188557D01*
X97613373Y-72137037D01*
X97679557Y-72130519D01*
X97745740Y-72124000D01*
X97834260Y-72124000D01*
X97900443Y-72130519D01*
X97900443Y-72130519D01*
G37*
G36*
X102980443Y-72130519D02*
G01*
X103046627Y-72137037D01*
X103216466Y-72188557D01*
X103372991Y-72272222D01*
X103408729Y-72301552D01*
X103510186Y-72384814D01*
X103593448Y-72486271D01*
X103622778Y-72522009D01*
X103706443Y-72678534D01*
X103757963Y-72848373D01*
X103775359Y-73025000D01*
X103757963Y-73201627D01*
X103706443Y-73371466D01*
X103622778Y-73527991D01*
X103593448Y-73563729D01*
X103510186Y-73665186D01*
X103408729Y-73748448D01*
X103372991Y-73777778D01*
X103216466Y-73861443D01*
X103046627Y-73912963D01*
X102980443Y-73919481D01*
X102914260Y-73926000D01*
X102825740Y-73926000D01*
X102759557Y-73919481D01*
X102693373Y-73912963D01*
X102523534Y-73861443D01*
X102367009Y-73777778D01*
X102331271Y-73748448D01*
X102229814Y-73665186D01*
X102146552Y-73563729D01*
X102117222Y-73527991D01*
X102033557Y-73371466D01*
X101982037Y-73201627D01*
X101964641Y-73025000D01*
X101982037Y-72848373D01*
X102033557Y-72678534D01*
X102117222Y-72522009D01*
X102146552Y-72486271D01*
X102229814Y-72384814D01*
X102331271Y-72301552D01*
X102367009Y-72272222D01*
X102523534Y-72188557D01*
X102693373Y-72137037D01*
X102759557Y-72130519D01*
X102825740Y-72124000D01*
X102914260Y-72124000D01*
X102980443Y-72130519D01*
X102980443Y-72130519D01*
G37*
G36*
X111391000Y-73926000D02*
G01*
X109589000Y-73926000D01*
X109589000Y-72124000D01*
X111391000Y-72124000D01*
X111391000Y-73926000D01*
X111391000Y-73926000D01*
G37*
G36*
X108060443Y-72130519D02*
G01*
X108126627Y-72137037D01*
X108296466Y-72188557D01*
X108452991Y-72272222D01*
X108488729Y-72301552D01*
X108590186Y-72384814D01*
X108673448Y-72486271D01*
X108702778Y-72522009D01*
X108786443Y-72678534D01*
X108837963Y-72848373D01*
X108855359Y-73025000D01*
X108837963Y-73201627D01*
X108786443Y-73371466D01*
X108702778Y-73527991D01*
X108673448Y-73563729D01*
X108590186Y-73665186D01*
X108488729Y-73748448D01*
X108452991Y-73777778D01*
X108296466Y-73861443D01*
X108126627Y-73912963D01*
X108060443Y-73919481D01*
X107994260Y-73926000D01*
X107905740Y-73926000D01*
X107839557Y-73919481D01*
X107773373Y-73912963D01*
X107603534Y-73861443D01*
X107447009Y-73777778D01*
X107411271Y-73748448D01*
X107309814Y-73665186D01*
X107226552Y-73563729D01*
X107197222Y-73527991D01*
X107113557Y-73371466D01*
X107062037Y-73201627D01*
X107044641Y-73025000D01*
X107062037Y-72848373D01*
X107113557Y-72678534D01*
X107197222Y-72522009D01*
X107226552Y-72486271D01*
X107309814Y-72384814D01*
X107411271Y-72301552D01*
X107447009Y-72272222D01*
X107603534Y-72188557D01*
X107773373Y-72137037D01*
X107839557Y-72130519D01*
X107905740Y-72124000D01*
X107994260Y-72124000D01*
X108060443Y-72130519D01*
X108060443Y-72130519D01*
G37*
G36*
X105520443Y-72130519D02*
G01*
X105586627Y-72137037D01*
X105756466Y-72188557D01*
X105912991Y-72272222D01*
X105948729Y-72301552D01*
X106050186Y-72384814D01*
X106133448Y-72486271D01*
X106162778Y-72522009D01*
X106246443Y-72678534D01*
X106297963Y-72848373D01*
X106315359Y-73025000D01*
X106297963Y-73201627D01*
X106246443Y-73371466D01*
X106162778Y-73527991D01*
X106133448Y-73563729D01*
X106050186Y-73665186D01*
X105948729Y-73748448D01*
X105912991Y-73777778D01*
X105756466Y-73861443D01*
X105586627Y-73912963D01*
X105520443Y-73919481D01*
X105454260Y-73926000D01*
X105365740Y-73926000D01*
X105299557Y-73919481D01*
X105233373Y-73912963D01*
X105063534Y-73861443D01*
X104907009Y-73777778D01*
X104871271Y-73748448D01*
X104769814Y-73665186D01*
X104686552Y-73563729D01*
X104657222Y-73527991D01*
X104573557Y-73371466D01*
X104522037Y-73201627D01*
X104504641Y-73025000D01*
X104522037Y-72848373D01*
X104573557Y-72678534D01*
X104657222Y-72522009D01*
X104686552Y-72486271D01*
X104769814Y-72384814D01*
X104871271Y-72301552D01*
X104907009Y-72272222D01*
X105063534Y-72188557D01*
X105233373Y-72137037D01*
X105299557Y-72130519D01*
X105365740Y-72124000D01*
X105454260Y-72124000D01*
X105520443Y-72130519D01*
X105520443Y-72130519D01*
G37*
G36*
X68368241Y-69644760D02*
G01*
X68632305Y-69754139D01*
X68869958Y-69912934D01*
X69072066Y-70115042D01*
X69230861Y-70352695D01*
X69340240Y-70616759D01*
X69396000Y-70897088D01*
X69396000Y-71182912D01*
X69340240Y-71463241D01*
X69230861Y-71727305D01*
X69072066Y-71964958D01*
X68869958Y-72167066D01*
X68632305Y-72325861D01*
X68368241Y-72435240D01*
X68087912Y-72491000D01*
X67802088Y-72491000D01*
X67521759Y-72435240D01*
X67257695Y-72325861D01*
X67020042Y-72167066D01*
X66817934Y-71964958D01*
X66659139Y-71727305D01*
X66549760Y-71463241D01*
X66494000Y-71182912D01*
X66494000Y-70897088D01*
X66549760Y-70616759D01*
X66659139Y-70352695D01*
X66817934Y-70115042D01*
X67020042Y-69912934D01*
X67257695Y-69754139D01*
X67521759Y-69644760D01*
X67802088Y-69589000D01*
X68087912Y-69589000D01*
X68368241Y-69644760D01*
X68368241Y-69644760D01*
G37*
G36*
X130883512Y-68318927D02*
G01*
X131032812Y-68348624D01*
X131196784Y-68416544D01*
X131344354Y-68515147D01*
X131469853Y-68640646D01*
X131568456Y-68788216D01*
X131636376Y-68952188D01*
X131671000Y-69126259D01*
X131671000Y-69303741D01*
X131636376Y-69477812D01*
X131568456Y-69641784D01*
X131469853Y-69789354D01*
X131344354Y-69914853D01*
X131196784Y-70013456D01*
X131032812Y-70081376D01*
X130883512Y-70111073D01*
X130858742Y-70116000D01*
X130681258Y-70116000D01*
X130656488Y-70111073D01*
X130507188Y-70081376D01*
X130343216Y-70013456D01*
X130195646Y-69914853D01*
X130070147Y-69789354D01*
X129971544Y-69641784D01*
X129903624Y-69477812D01*
X129869000Y-69303741D01*
X129869000Y-69126259D01*
X129903624Y-68952188D01*
X129971544Y-68788216D01*
X130070147Y-68640646D01*
X130195646Y-68515147D01*
X130343216Y-68416544D01*
X130507188Y-68348624D01*
X130656488Y-68318927D01*
X130681258Y-68314000D01*
X130858742Y-68314000D01*
X130883512Y-68318927D01*
X130883512Y-68318927D01*
G37*
G36*
X123883512Y-68318927D02*
G01*
X124032812Y-68348624D01*
X124196784Y-68416544D01*
X124344354Y-68515147D01*
X124469853Y-68640646D01*
X124568456Y-68788216D01*
X124636376Y-68952188D01*
X124671000Y-69126259D01*
X124671000Y-69303741D01*
X124636376Y-69477812D01*
X124568456Y-69641784D01*
X124469853Y-69789354D01*
X124344354Y-69914853D01*
X124196784Y-70013456D01*
X124032812Y-70081376D01*
X123883512Y-70111073D01*
X123858742Y-70116000D01*
X123681258Y-70116000D01*
X123656488Y-70111073D01*
X123507188Y-70081376D01*
X123343216Y-70013456D01*
X123195646Y-69914853D01*
X123070147Y-69789354D01*
X122971544Y-69641784D01*
X122903624Y-69477812D01*
X122869000Y-69303741D01*
X122869000Y-69126259D01*
X122903624Y-68952188D01*
X122971544Y-68788216D01*
X123070147Y-68640646D01*
X123195646Y-68515147D01*
X123343216Y-68416544D01*
X123507188Y-68348624D01*
X123656488Y-68318927D01*
X123681258Y-68314000D01*
X123858742Y-68314000D01*
X123883512Y-68318927D01*
X123883512Y-68318927D01*
G37*
G36*
X69396000Y-67491000D02*
G01*
X66494000Y-67491000D01*
X66494000Y-64589000D01*
X69396000Y-64589000D01*
X69396000Y-67491000D01*
X69396000Y-67491000D01*
G37*
G36*
X106311000Y-65671000D02*
G01*
X104509000Y-65671000D01*
X104509000Y-63869000D01*
X106311000Y-63869000D01*
X106311000Y-65671000D01*
X106311000Y-65671000D01*
G37*
G36*
X102980442Y-63875518D02*
G01*
X103046627Y-63882037D01*
X103216466Y-63933557D01*
X103372991Y-64017222D01*
X103408729Y-64046552D01*
X103510186Y-64129814D01*
X103593448Y-64231271D01*
X103622778Y-64267009D01*
X103706443Y-64423534D01*
X103757963Y-64593373D01*
X103775359Y-64770000D01*
X103757963Y-64946627D01*
X103706443Y-65116466D01*
X103622778Y-65272991D01*
X103593448Y-65308729D01*
X103510186Y-65410186D01*
X103408729Y-65493448D01*
X103372991Y-65522778D01*
X103216466Y-65606443D01*
X103046627Y-65657963D01*
X102980442Y-65664482D01*
X102914260Y-65671000D01*
X102825740Y-65671000D01*
X102759558Y-65664482D01*
X102693373Y-65657963D01*
X102523534Y-65606443D01*
X102367009Y-65522778D01*
X102331271Y-65493448D01*
X102229814Y-65410186D01*
X102146552Y-65308729D01*
X102117222Y-65272991D01*
X102033557Y-65116466D01*
X101982037Y-64946627D01*
X101964641Y-64770000D01*
X101982037Y-64593373D01*
X102033557Y-64423534D01*
X102117222Y-64267009D01*
X102146552Y-64231271D01*
X102229814Y-64129814D01*
X102331271Y-64046552D01*
X102367009Y-64017222D01*
X102523534Y-63933557D01*
X102693373Y-63882037D01*
X102759558Y-63875518D01*
X102825740Y-63869000D01*
X102914260Y-63869000D01*
X102980442Y-63875518D01*
X102980442Y-63875518D01*
G37*
G36*
X97900442Y-63875518D02*
G01*
X97966627Y-63882037D01*
X98136466Y-63933557D01*
X98292991Y-64017222D01*
X98328729Y-64046552D01*
X98430186Y-64129814D01*
X98513448Y-64231271D01*
X98542778Y-64267009D01*
X98626443Y-64423534D01*
X98677963Y-64593373D01*
X98695359Y-64770000D01*
X98677963Y-64946627D01*
X98626443Y-65116466D01*
X98542778Y-65272991D01*
X98513448Y-65308729D01*
X98430186Y-65410186D01*
X98328729Y-65493448D01*
X98292991Y-65522778D01*
X98136466Y-65606443D01*
X97966627Y-65657963D01*
X97900442Y-65664482D01*
X97834260Y-65671000D01*
X97745740Y-65671000D01*
X97679558Y-65664482D01*
X97613373Y-65657963D01*
X97443534Y-65606443D01*
X97287009Y-65522778D01*
X97251271Y-65493448D01*
X97149814Y-65410186D01*
X97066552Y-65308729D01*
X97037222Y-65272991D01*
X96953557Y-65116466D01*
X96902037Y-64946627D01*
X96884641Y-64770000D01*
X96902037Y-64593373D01*
X96953557Y-64423534D01*
X97037222Y-64267009D01*
X97066552Y-64231271D01*
X97149814Y-64129814D01*
X97251271Y-64046552D01*
X97287009Y-64017222D01*
X97443534Y-63933557D01*
X97613373Y-63882037D01*
X97679558Y-63875518D01*
X97745740Y-63869000D01*
X97834260Y-63869000D01*
X97900442Y-63875518D01*
X97900442Y-63875518D01*
G37*
G36*
X95360442Y-63875518D02*
G01*
X95426627Y-63882037D01*
X95596466Y-63933557D01*
X95752991Y-64017222D01*
X95788729Y-64046552D01*
X95890186Y-64129814D01*
X95973448Y-64231271D01*
X96002778Y-64267009D01*
X96086443Y-64423534D01*
X96137963Y-64593373D01*
X96155359Y-64770000D01*
X96137963Y-64946627D01*
X96086443Y-65116466D01*
X96002778Y-65272991D01*
X95973448Y-65308729D01*
X95890186Y-65410186D01*
X95788729Y-65493448D01*
X95752991Y-65522778D01*
X95596466Y-65606443D01*
X95426627Y-65657963D01*
X95360442Y-65664482D01*
X95294260Y-65671000D01*
X95205740Y-65671000D01*
X95139558Y-65664482D01*
X95073373Y-65657963D01*
X94903534Y-65606443D01*
X94747009Y-65522778D01*
X94711271Y-65493448D01*
X94609814Y-65410186D01*
X94526552Y-65308729D01*
X94497222Y-65272991D01*
X94413557Y-65116466D01*
X94362037Y-64946627D01*
X94344641Y-64770000D01*
X94362037Y-64593373D01*
X94413557Y-64423534D01*
X94497222Y-64267009D01*
X94526552Y-64231271D01*
X94609814Y-64129814D01*
X94711271Y-64046552D01*
X94747009Y-64017222D01*
X94903534Y-63933557D01*
X95073373Y-63882037D01*
X95139558Y-63875518D01*
X95205740Y-63869000D01*
X95294260Y-63869000D01*
X95360442Y-63875518D01*
X95360442Y-63875518D01*
G37*
G36*
X92820442Y-63875518D02*
G01*
X92886627Y-63882037D01*
X93056466Y-63933557D01*
X93212991Y-64017222D01*
X93248729Y-64046552D01*
X93350186Y-64129814D01*
X93433448Y-64231271D01*
X93462778Y-64267009D01*
X93546443Y-64423534D01*
X93597963Y-64593373D01*
X93615359Y-64770000D01*
X93597963Y-64946627D01*
X93546443Y-65116466D01*
X93462778Y-65272991D01*
X93433448Y-65308729D01*
X93350186Y-65410186D01*
X93248729Y-65493448D01*
X93212991Y-65522778D01*
X93056466Y-65606443D01*
X92886627Y-65657963D01*
X92820442Y-65664482D01*
X92754260Y-65671000D01*
X92665740Y-65671000D01*
X92599558Y-65664482D01*
X92533373Y-65657963D01*
X92363534Y-65606443D01*
X92207009Y-65522778D01*
X92171271Y-65493448D01*
X92069814Y-65410186D01*
X91986552Y-65308729D01*
X91957222Y-65272991D01*
X91873557Y-65116466D01*
X91822037Y-64946627D01*
X91804641Y-64770000D01*
X91822037Y-64593373D01*
X91873557Y-64423534D01*
X91957222Y-64267009D01*
X91986552Y-64231271D01*
X92069814Y-64129814D01*
X92171271Y-64046552D01*
X92207009Y-64017222D01*
X92363534Y-63933557D01*
X92533373Y-63882037D01*
X92599558Y-63875518D01*
X92665740Y-63869000D01*
X92754260Y-63869000D01*
X92820442Y-63875518D01*
X92820442Y-63875518D01*
G37*
G36*
X113296000Y-65671000D02*
G01*
X111494000Y-65671000D01*
X111494000Y-63869000D01*
X113296000Y-63869000D01*
X113296000Y-65671000D01*
X113296000Y-65671000D01*
G37*
G36*
X115045442Y-63875518D02*
G01*
X115111627Y-63882037D01*
X115281466Y-63933557D01*
X115437991Y-64017222D01*
X115473729Y-64046552D01*
X115575186Y-64129814D01*
X115658448Y-64231271D01*
X115687778Y-64267009D01*
X115771443Y-64423534D01*
X115822963Y-64593373D01*
X115840359Y-64770000D01*
X115822963Y-64946627D01*
X115771443Y-65116466D01*
X115687778Y-65272991D01*
X115658448Y-65308729D01*
X115575186Y-65410186D01*
X115473729Y-65493448D01*
X115437991Y-65522778D01*
X115281466Y-65606443D01*
X115111627Y-65657963D01*
X115045442Y-65664482D01*
X114979260Y-65671000D01*
X114890740Y-65671000D01*
X114824558Y-65664482D01*
X114758373Y-65657963D01*
X114588534Y-65606443D01*
X114432009Y-65522778D01*
X114396271Y-65493448D01*
X114294814Y-65410186D01*
X114211552Y-65308729D01*
X114182222Y-65272991D01*
X114098557Y-65116466D01*
X114047037Y-64946627D01*
X114029641Y-64770000D01*
X114047037Y-64593373D01*
X114098557Y-64423534D01*
X114182222Y-64267009D01*
X114211552Y-64231271D01*
X114294814Y-64129814D01*
X114396271Y-64046552D01*
X114432009Y-64017222D01*
X114588534Y-63933557D01*
X114758373Y-63882037D01*
X114824558Y-63875518D01*
X114890740Y-63869000D01*
X114979260Y-63869000D01*
X115045442Y-63875518D01*
X115045442Y-63875518D01*
G37*
G36*
X100440442Y-63875518D02*
G01*
X100506627Y-63882037D01*
X100676466Y-63933557D01*
X100832991Y-64017222D01*
X100868729Y-64046552D01*
X100970186Y-64129814D01*
X101053448Y-64231271D01*
X101082778Y-64267009D01*
X101166443Y-64423534D01*
X101217963Y-64593373D01*
X101235359Y-64770000D01*
X101217963Y-64946627D01*
X101166443Y-65116466D01*
X101082778Y-65272991D01*
X101053448Y-65308729D01*
X100970186Y-65410186D01*
X100868729Y-65493448D01*
X100832991Y-65522778D01*
X100676466Y-65606443D01*
X100506627Y-65657963D01*
X100440442Y-65664482D01*
X100374260Y-65671000D01*
X100285740Y-65671000D01*
X100219558Y-65664482D01*
X100153373Y-65657963D01*
X99983534Y-65606443D01*
X99827009Y-65522778D01*
X99791271Y-65493448D01*
X99689814Y-65410186D01*
X99606552Y-65308729D01*
X99577222Y-65272991D01*
X99493557Y-65116466D01*
X99442037Y-64946627D01*
X99424641Y-64770000D01*
X99442037Y-64593373D01*
X99493557Y-64423534D01*
X99577222Y-64267009D01*
X99606552Y-64231271D01*
X99689814Y-64129814D01*
X99791271Y-64046552D01*
X99827009Y-64017222D01*
X99983534Y-63933557D01*
X100153373Y-63882037D01*
X100219558Y-63875518D01*
X100285740Y-63869000D01*
X100374260Y-63869000D01*
X100440442Y-63875518D01*
X100440442Y-63875518D01*
G37*
M02*
