G04 #@! TF.GenerationSoftware,KiCad,Pcbnew,(5.1.0-rc1-103-gc65c7d3de)*
G04 #@! TF.CreationDate,2019-08-30T11:30:51+02:00
G04 #@! TF.ProjectId,pinballControlUnit,70696e62-616c-46c4-936f-6e74726f6c55,rev?*
G04 #@! TF.SameCoordinates,Original*
G04 #@! TF.FileFunction,Soldermask,Top*
G04 #@! TF.FilePolarity,Negative*
%FSLAX46Y46*%
G04 Gerber Fmt 4.6, Leading zero omitted, Abs format (unit mm)*
G04 Created by KiCad (PCBNEW (5.1.0-rc1-103-gc65c7d3de)) date 2019-08-30 11:30:51*
%MOMM*%
%LPD*%
G04 APERTURE LIST*
%ADD10C,0.100000*%
G04 APERTURE END LIST*
D10*
G36*
X125044468Y-109623565D02*
G01*
X125083138Y-109635296D01*
X125118777Y-109654346D01*
X125150017Y-109679983D01*
X125175654Y-109711223D01*
X125194704Y-109746862D01*
X125206435Y-109785532D01*
X125211000Y-109831888D01*
X125211000Y-110483112D01*
X125206435Y-110529468D01*
X125194704Y-110568138D01*
X125175654Y-110603777D01*
X125150017Y-110635017D01*
X125118777Y-110660654D01*
X125083138Y-110679704D01*
X125044468Y-110691435D01*
X124998112Y-110696000D01*
X123921888Y-110696000D01*
X123875532Y-110691435D01*
X123836862Y-110679704D01*
X123801223Y-110660654D01*
X123769983Y-110635017D01*
X123744346Y-110603777D01*
X123725296Y-110568138D01*
X123713565Y-110529468D01*
X123709000Y-110483112D01*
X123709000Y-109831888D01*
X123713565Y-109785532D01*
X123725296Y-109746862D01*
X123744346Y-109711223D01*
X123769983Y-109679983D01*
X123801223Y-109654346D01*
X123836862Y-109635296D01*
X123875532Y-109623565D01*
X123921888Y-109619000D01*
X124998112Y-109619000D01*
X125044468Y-109623565D01*
X125044468Y-109623565D01*
G37*
G36*
X136881000Y-109631000D02*
G01*
X135229000Y-109631000D01*
X135229000Y-108229000D01*
X136881000Y-108229000D01*
X136881000Y-109631000D01*
X136881000Y-109631000D01*
G37*
G36*
X128931000Y-109631000D02*
G01*
X127279000Y-109631000D01*
X127279000Y-108229000D01*
X128931000Y-108229000D01*
X128931000Y-109631000D01*
X128931000Y-109631000D01*
G37*
G36*
X125044468Y-107748565D02*
G01*
X125083138Y-107760296D01*
X125118777Y-107779346D01*
X125150017Y-107804983D01*
X125175654Y-107836223D01*
X125194704Y-107871862D01*
X125206435Y-107910532D01*
X125211000Y-107956888D01*
X125211000Y-108608112D01*
X125206435Y-108654468D01*
X125194704Y-108693138D01*
X125175654Y-108728777D01*
X125150017Y-108760017D01*
X125118777Y-108785654D01*
X125083138Y-108804704D01*
X125044468Y-108816435D01*
X124998112Y-108821000D01*
X123921888Y-108821000D01*
X123875532Y-108816435D01*
X123836862Y-108804704D01*
X123801223Y-108785654D01*
X123769983Y-108760017D01*
X123744346Y-108728777D01*
X123725296Y-108693138D01*
X123713565Y-108654468D01*
X123709000Y-108608112D01*
X123709000Y-107956888D01*
X123713565Y-107910532D01*
X123725296Y-107871862D01*
X123744346Y-107836223D01*
X123769983Y-107804983D01*
X123801223Y-107779346D01*
X123836862Y-107760296D01*
X123875532Y-107748565D01*
X123921888Y-107744000D01*
X124998112Y-107744000D01*
X125044468Y-107748565D01*
X125044468Y-107748565D01*
G37*
G36*
X68368241Y-105839760D02*
G01*
X68632305Y-105949139D01*
X68869958Y-106107934D01*
X69072066Y-106310042D01*
X69230861Y-106547695D01*
X69340240Y-106811759D01*
X69396000Y-107092088D01*
X69396000Y-107377912D01*
X69340240Y-107658241D01*
X69230861Y-107922305D01*
X69072066Y-108159958D01*
X68869958Y-108362066D01*
X68632305Y-108520861D01*
X68368241Y-108630240D01*
X68087912Y-108686000D01*
X67802088Y-108686000D01*
X67521759Y-108630240D01*
X67257695Y-108520861D01*
X67020042Y-108362066D01*
X66817934Y-108159958D01*
X66659139Y-107922305D01*
X66549760Y-107658241D01*
X66494000Y-107377912D01*
X66494000Y-107092088D01*
X66549760Y-106811759D01*
X66659139Y-106547695D01*
X66817934Y-106310042D01*
X67020042Y-106107934D01*
X67257695Y-105949139D01*
X67521759Y-105839760D01*
X67802088Y-105784000D01*
X68087912Y-105784000D01*
X68368241Y-105839760D01*
X68368241Y-105839760D01*
G37*
G36*
X92131000Y-107091000D02*
G01*
X91379000Y-107091000D01*
X91379000Y-105929000D01*
X92131000Y-105929000D01*
X92131000Y-107091000D01*
X92131000Y-107091000D01*
G37*
G36*
X90231000Y-107091000D02*
G01*
X89479000Y-107091000D01*
X89479000Y-105929000D01*
X90231000Y-105929000D01*
X90231000Y-107091000D01*
X90231000Y-107091000D01*
G37*
G36*
X95199468Y-105813565D02*
G01*
X95238138Y-105825296D01*
X95273777Y-105844346D01*
X95305017Y-105869983D01*
X95330654Y-105901223D01*
X95349704Y-105936862D01*
X95361435Y-105975532D01*
X95366000Y-106021888D01*
X95366000Y-106673112D01*
X95361435Y-106719468D01*
X95349704Y-106758138D01*
X95330654Y-106793777D01*
X95305017Y-106825017D01*
X95273777Y-106850654D01*
X95238138Y-106869704D01*
X95199468Y-106881435D01*
X95153112Y-106886000D01*
X94076888Y-106886000D01*
X94030532Y-106881435D01*
X93991862Y-106869704D01*
X93956223Y-106850654D01*
X93924983Y-106825017D01*
X93899346Y-106793777D01*
X93880296Y-106758138D01*
X93868565Y-106719468D01*
X93864000Y-106673112D01*
X93864000Y-106021888D01*
X93868565Y-105975532D01*
X93880296Y-105936862D01*
X93899346Y-105901223D01*
X93924983Y-105869983D01*
X93956223Y-105844346D01*
X93991862Y-105825296D01*
X94030532Y-105813565D01*
X94076888Y-105809000D01*
X95153112Y-105809000D01*
X95199468Y-105813565D01*
X95199468Y-105813565D01*
G37*
G36*
X83134468Y-105178565D02*
G01*
X83173138Y-105190296D01*
X83208777Y-105209346D01*
X83240017Y-105234983D01*
X83265654Y-105266223D01*
X83284704Y-105301862D01*
X83296435Y-105340532D01*
X83301000Y-105386888D01*
X83301000Y-106038112D01*
X83296435Y-106084468D01*
X83284704Y-106123138D01*
X83265654Y-106158777D01*
X83240017Y-106190017D01*
X83208777Y-106215654D01*
X83173138Y-106234704D01*
X83134468Y-106246435D01*
X83088112Y-106251000D01*
X82011888Y-106251000D01*
X81965532Y-106246435D01*
X81926862Y-106234704D01*
X81891223Y-106215654D01*
X81859983Y-106190017D01*
X81834346Y-106158777D01*
X81815296Y-106123138D01*
X81803565Y-106084468D01*
X81799000Y-106038112D01*
X81799000Y-105386888D01*
X81803565Y-105340532D01*
X81815296Y-105301862D01*
X81834346Y-105266223D01*
X81859983Y-105234983D01*
X81891223Y-105209346D01*
X81926862Y-105190296D01*
X81965532Y-105178565D01*
X82011888Y-105174000D01*
X83088112Y-105174000D01*
X83134468Y-105178565D01*
X83134468Y-105178565D01*
G37*
G36*
X125044468Y-105178565D02*
G01*
X125083138Y-105190296D01*
X125118777Y-105209346D01*
X125150017Y-105234983D01*
X125175654Y-105266223D01*
X125194704Y-105301862D01*
X125206435Y-105340532D01*
X125211000Y-105386888D01*
X125211000Y-106038112D01*
X125206435Y-106084468D01*
X125194704Y-106123138D01*
X125175654Y-106158777D01*
X125150017Y-106190017D01*
X125118777Y-106215654D01*
X125083138Y-106234704D01*
X125044468Y-106246435D01*
X124998112Y-106251000D01*
X123921888Y-106251000D01*
X123875532Y-106246435D01*
X123836862Y-106234704D01*
X123801223Y-106215654D01*
X123769983Y-106190017D01*
X123744346Y-106158777D01*
X123725296Y-106123138D01*
X123713565Y-106084468D01*
X123709000Y-106038112D01*
X123709000Y-105386888D01*
X123713565Y-105340532D01*
X123725296Y-105301862D01*
X123744346Y-105266223D01*
X123769983Y-105234983D01*
X123801223Y-105209346D01*
X123836862Y-105190296D01*
X123875532Y-105178565D01*
X123921888Y-105174000D01*
X124998112Y-105174000D01*
X125044468Y-105178565D01*
X125044468Y-105178565D01*
G37*
G36*
X122504468Y-105178565D02*
G01*
X122543138Y-105190296D01*
X122578777Y-105209346D01*
X122610017Y-105234983D01*
X122635654Y-105266223D01*
X122654704Y-105301862D01*
X122666435Y-105340532D01*
X122671000Y-105386888D01*
X122671000Y-106038112D01*
X122666435Y-106084468D01*
X122654704Y-106123138D01*
X122635654Y-106158777D01*
X122610017Y-106190017D01*
X122578777Y-106215654D01*
X122543138Y-106234704D01*
X122504468Y-106246435D01*
X122458112Y-106251000D01*
X121381888Y-106251000D01*
X121335532Y-106246435D01*
X121296862Y-106234704D01*
X121261223Y-106215654D01*
X121229983Y-106190017D01*
X121204346Y-106158777D01*
X121185296Y-106123138D01*
X121173565Y-106084468D01*
X121169000Y-106038112D01*
X121169000Y-105386888D01*
X121173565Y-105340532D01*
X121185296Y-105301862D01*
X121204346Y-105266223D01*
X121229983Y-105234983D01*
X121261223Y-105209346D01*
X121296862Y-105190296D01*
X121335532Y-105178565D01*
X121381888Y-105174000D01*
X122458112Y-105174000D01*
X122504468Y-105178565D01*
X122504468Y-105178565D01*
G37*
G36*
X80600000Y-106140000D02*
G01*
X78150000Y-106140000D01*
X78150000Y-105210000D01*
X80600000Y-105210000D01*
X80600000Y-106140000D01*
X80600000Y-106140000D01*
G37*
G36*
X128931000Y-105131000D02*
G01*
X127279000Y-105131000D01*
X127279000Y-103729000D01*
X128931000Y-103729000D01*
X128931000Y-105131000D01*
X128931000Y-105131000D01*
G37*
G36*
X136881000Y-105131000D02*
G01*
X135229000Y-105131000D01*
X135229000Y-103729000D01*
X136881000Y-103729000D01*
X136881000Y-105131000D01*
X136881000Y-105131000D01*
G37*
G36*
X95199468Y-103938565D02*
G01*
X95238138Y-103950296D01*
X95273777Y-103969346D01*
X95305017Y-103994983D01*
X95330654Y-104026223D01*
X95349704Y-104061862D01*
X95361435Y-104100532D01*
X95366000Y-104146888D01*
X95366000Y-104798112D01*
X95361435Y-104844468D01*
X95349704Y-104883138D01*
X95330654Y-104918777D01*
X95305017Y-104950017D01*
X95273777Y-104975654D01*
X95238138Y-104994704D01*
X95199468Y-105006435D01*
X95153112Y-105011000D01*
X94076888Y-105011000D01*
X94030532Y-105006435D01*
X93991862Y-104994704D01*
X93956223Y-104975654D01*
X93924983Y-104950017D01*
X93899346Y-104918777D01*
X93880296Y-104883138D01*
X93868565Y-104844468D01*
X93864000Y-104798112D01*
X93864000Y-104146888D01*
X93868565Y-104100532D01*
X93880296Y-104061862D01*
X93899346Y-104026223D01*
X93924983Y-103994983D01*
X93956223Y-103969346D01*
X93991862Y-103950296D01*
X94030532Y-103938565D01*
X94076888Y-103934000D01*
X95153112Y-103934000D01*
X95199468Y-103938565D01*
X95199468Y-103938565D01*
G37*
G36*
X92131000Y-104891000D02*
G01*
X89479000Y-104891000D01*
X89479000Y-103729000D01*
X92131000Y-103729000D01*
X92131000Y-104891000D01*
X92131000Y-104891000D01*
G37*
G36*
X80600000Y-103015623D02*
G01*
X80586611Y-103026611D01*
X80571066Y-103045553D01*
X80559515Y-103067164D01*
X80552402Y-103090613D01*
X80550000Y-103114999D01*
X80550000Y-104710000D01*
X78200000Y-104710000D01*
X78200000Y-103114999D01*
X78197598Y-103090613D01*
X78190485Y-103067164D01*
X78178934Y-103045553D01*
X78163389Y-103026611D01*
X78150000Y-103015623D01*
X78150000Y-102140000D01*
X80600000Y-102140000D01*
X80600000Y-103015623D01*
X80600000Y-103015623D01*
G37*
G36*
X122504468Y-103303565D02*
G01*
X122543138Y-103315296D01*
X122578777Y-103334346D01*
X122610017Y-103359983D01*
X122635654Y-103391223D01*
X122654704Y-103426862D01*
X122666435Y-103465532D01*
X122671000Y-103511888D01*
X122671000Y-104163112D01*
X122666435Y-104209468D01*
X122654704Y-104248138D01*
X122635654Y-104283777D01*
X122610017Y-104315017D01*
X122578777Y-104340654D01*
X122543138Y-104359704D01*
X122504468Y-104371435D01*
X122458112Y-104376000D01*
X121381888Y-104376000D01*
X121335532Y-104371435D01*
X121296862Y-104359704D01*
X121261223Y-104340654D01*
X121229983Y-104315017D01*
X121204346Y-104283777D01*
X121185296Y-104248138D01*
X121173565Y-104209468D01*
X121169000Y-104163112D01*
X121169000Y-103511888D01*
X121173565Y-103465532D01*
X121185296Y-103426862D01*
X121204346Y-103391223D01*
X121229983Y-103359983D01*
X121261223Y-103334346D01*
X121296862Y-103315296D01*
X121335532Y-103303565D01*
X121381888Y-103299000D01*
X122458112Y-103299000D01*
X122504468Y-103303565D01*
X122504468Y-103303565D01*
G37*
G36*
X83134468Y-103303565D02*
G01*
X83173138Y-103315296D01*
X83208777Y-103334346D01*
X83240017Y-103359983D01*
X83265654Y-103391223D01*
X83284704Y-103426862D01*
X83296435Y-103465532D01*
X83301000Y-103511888D01*
X83301000Y-104163112D01*
X83296435Y-104209468D01*
X83284704Y-104248138D01*
X83265654Y-104283777D01*
X83240017Y-104315017D01*
X83208777Y-104340654D01*
X83173138Y-104359704D01*
X83134468Y-104371435D01*
X83088112Y-104376000D01*
X82011888Y-104376000D01*
X81965532Y-104371435D01*
X81926862Y-104359704D01*
X81891223Y-104340654D01*
X81859983Y-104315017D01*
X81834346Y-104283777D01*
X81815296Y-104248138D01*
X81803565Y-104209468D01*
X81799000Y-104163112D01*
X81799000Y-103511888D01*
X81803565Y-103465532D01*
X81815296Y-103426862D01*
X81834346Y-103391223D01*
X81859983Y-103359983D01*
X81891223Y-103334346D01*
X81926862Y-103315296D01*
X81965532Y-103303565D01*
X82011888Y-103299000D01*
X83088112Y-103299000D01*
X83134468Y-103303565D01*
X83134468Y-103303565D01*
G37*
G36*
X125044468Y-103303565D02*
G01*
X125083138Y-103315296D01*
X125118777Y-103334346D01*
X125150017Y-103359983D01*
X125175654Y-103391223D01*
X125194704Y-103426862D01*
X125206435Y-103465532D01*
X125211000Y-103511888D01*
X125211000Y-104163112D01*
X125206435Y-104209468D01*
X125194704Y-104248138D01*
X125175654Y-104283777D01*
X125150017Y-104315017D01*
X125118777Y-104340654D01*
X125083138Y-104359704D01*
X125044468Y-104371435D01*
X124998112Y-104376000D01*
X123921888Y-104376000D01*
X123875532Y-104371435D01*
X123836862Y-104359704D01*
X123801223Y-104340654D01*
X123769983Y-104315017D01*
X123744346Y-104283777D01*
X123725296Y-104248138D01*
X123713565Y-104209468D01*
X123709000Y-104163112D01*
X123709000Y-103511888D01*
X123713565Y-103465532D01*
X123725296Y-103426862D01*
X123744346Y-103391223D01*
X123769983Y-103359983D01*
X123801223Y-103334346D01*
X123836862Y-103315296D01*
X123875532Y-103303565D01*
X123921888Y-103299000D01*
X124998112Y-103299000D01*
X125044468Y-103303565D01*
X125044468Y-103303565D01*
G37*
G36*
X69396000Y-103686000D02*
G01*
X66494000Y-103686000D01*
X66494000Y-100784000D01*
X69396000Y-100784000D01*
X69396000Y-103686000D01*
X69396000Y-103686000D01*
G37*
G36*
X100440442Y-100070518D02*
G01*
X100506627Y-100077037D01*
X100676466Y-100128557D01*
X100832991Y-100212222D01*
X100868729Y-100241552D01*
X100970186Y-100324814D01*
X101053448Y-100426271D01*
X101082778Y-100462009D01*
X101166443Y-100618534D01*
X101217963Y-100788373D01*
X101235359Y-100965000D01*
X101217963Y-101141627D01*
X101166443Y-101311466D01*
X101082778Y-101467991D01*
X101053448Y-101503729D01*
X100970186Y-101605186D01*
X100881292Y-101678138D01*
X100832991Y-101717778D01*
X100676466Y-101801443D01*
X100506627Y-101852963D01*
X100440443Y-101859481D01*
X100374260Y-101866000D01*
X100285740Y-101866000D01*
X100219558Y-101859482D01*
X100153373Y-101852963D01*
X99983534Y-101801443D01*
X99827009Y-101717778D01*
X99778708Y-101678138D01*
X99689814Y-101605186D01*
X99606552Y-101503729D01*
X99577222Y-101467991D01*
X99493557Y-101311466D01*
X99442037Y-101141627D01*
X99424641Y-100965000D01*
X99442037Y-100788373D01*
X99493557Y-100618534D01*
X99577222Y-100462009D01*
X99606552Y-100426271D01*
X99689814Y-100324814D01*
X99791271Y-100241552D01*
X99827009Y-100212222D01*
X99983534Y-100128557D01*
X100153373Y-100077037D01*
X100219557Y-100070519D01*
X100285740Y-100064000D01*
X100374260Y-100064000D01*
X100440442Y-100070518D01*
X100440442Y-100070518D01*
G37*
G36*
X102980442Y-100070518D02*
G01*
X103046627Y-100077037D01*
X103216466Y-100128557D01*
X103372991Y-100212222D01*
X103408729Y-100241552D01*
X103510186Y-100324814D01*
X103593448Y-100426271D01*
X103622778Y-100462009D01*
X103706443Y-100618534D01*
X103757963Y-100788373D01*
X103775359Y-100965000D01*
X103757963Y-101141627D01*
X103706443Y-101311466D01*
X103622778Y-101467991D01*
X103593448Y-101503729D01*
X103510186Y-101605186D01*
X103421292Y-101678138D01*
X103372991Y-101717778D01*
X103216466Y-101801443D01*
X103046627Y-101852963D01*
X102980443Y-101859481D01*
X102914260Y-101866000D01*
X102825740Y-101866000D01*
X102759558Y-101859482D01*
X102693373Y-101852963D01*
X102523534Y-101801443D01*
X102367009Y-101717778D01*
X102318708Y-101678138D01*
X102229814Y-101605186D01*
X102146552Y-101503729D01*
X102117222Y-101467991D01*
X102033557Y-101311466D01*
X101982037Y-101141627D01*
X101964641Y-100965000D01*
X101982037Y-100788373D01*
X102033557Y-100618534D01*
X102117222Y-100462009D01*
X102146552Y-100426271D01*
X102229814Y-100324814D01*
X102331271Y-100241552D01*
X102367009Y-100212222D01*
X102523534Y-100128557D01*
X102693373Y-100077037D01*
X102759557Y-100070519D01*
X102825740Y-100064000D01*
X102914260Y-100064000D01*
X102980442Y-100070518D01*
X102980442Y-100070518D01*
G37*
G36*
X105520442Y-100070518D02*
G01*
X105586627Y-100077037D01*
X105756466Y-100128557D01*
X105912991Y-100212222D01*
X105948729Y-100241552D01*
X106050186Y-100324814D01*
X106133448Y-100426271D01*
X106162778Y-100462009D01*
X106246443Y-100618534D01*
X106297963Y-100788373D01*
X106315359Y-100965000D01*
X106297963Y-101141627D01*
X106246443Y-101311466D01*
X106162778Y-101467991D01*
X106133448Y-101503729D01*
X106050186Y-101605186D01*
X105961292Y-101678138D01*
X105912991Y-101717778D01*
X105756466Y-101801443D01*
X105586627Y-101852963D01*
X105520443Y-101859481D01*
X105454260Y-101866000D01*
X105365740Y-101866000D01*
X105299558Y-101859482D01*
X105233373Y-101852963D01*
X105063534Y-101801443D01*
X104907009Y-101717778D01*
X104858708Y-101678138D01*
X104769814Y-101605186D01*
X104686552Y-101503729D01*
X104657222Y-101467991D01*
X104573557Y-101311466D01*
X104522037Y-101141627D01*
X104504641Y-100965000D01*
X104522037Y-100788373D01*
X104573557Y-100618534D01*
X104657222Y-100462009D01*
X104686552Y-100426271D01*
X104769814Y-100324814D01*
X104871271Y-100241552D01*
X104907009Y-100212222D01*
X105063534Y-100128557D01*
X105233373Y-100077037D01*
X105299557Y-100070519D01*
X105365740Y-100064000D01*
X105454260Y-100064000D01*
X105520442Y-100070518D01*
X105520442Y-100070518D01*
G37*
G36*
X92976000Y-101866000D02*
G01*
X91174000Y-101866000D01*
X91174000Y-100064000D01*
X92976000Y-100064000D01*
X92976000Y-101866000D01*
X92976000Y-101866000D01*
G37*
G36*
X89645442Y-100070518D02*
G01*
X89711627Y-100077037D01*
X89881466Y-100128557D01*
X90037991Y-100212222D01*
X90073729Y-100241552D01*
X90175186Y-100324814D01*
X90258448Y-100426271D01*
X90287778Y-100462009D01*
X90371443Y-100618534D01*
X90422963Y-100788373D01*
X90440359Y-100965000D01*
X90422963Y-101141627D01*
X90371443Y-101311466D01*
X90287778Y-101467991D01*
X90258448Y-101503729D01*
X90175186Y-101605186D01*
X90086292Y-101678138D01*
X90037991Y-101717778D01*
X89881466Y-101801443D01*
X89711627Y-101852963D01*
X89645443Y-101859481D01*
X89579260Y-101866000D01*
X89490740Y-101866000D01*
X89424558Y-101859482D01*
X89358373Y-101852963D01*
X89188534Y-101801443D01*
X89032009Y-101717778D01*
X88983708Y-101678138D01*
X88894814Y-101605186D01*
X88811552Y-101503729D01*
X88782222Y-101467991D01*
X88698557Y-101311466D01*
X88647037Y-101141627D01*
X88629641Y-100965000D01*
X88647037Y-100788373D01*
X88698557Y-100618534D01*
X88782222Y-100462009D01*
X88811552Y-100426271D01*
X88894814Y-100324814D01*
X88996271Y-100241552D01*
X89032009Y-100212222D01*
X89188534Y-100128557D01*
X89358373Y-100077037D01*
X89424557Y-100070519D01*
X89490740Y-100064000D01*
X89579260Y-100064000D01*
X89645442Y-100070518D01*
X89645442Y-100070518D01*
G37*
G36*
X98691000Y-101866000D02*
G01*
X96889000Y-101866000D01*
X96889000Y-100064000D01*
X98691000Y-100064000D01*
X98691000Y-101866000D01*
X98691000Y-101866000D01*
G37*
G36*
X125044468Y-100733565D02*
G01*
X125083138Y-100745296D01*
X125118777Y-100764346D01*
X125150017Y-100789983D01*
X125175654Y-100821223D01*
X125194704Y-100856862D01*
X125206435Y-100895532D01*
X125211000Y-100941888D01*
X125211000Y-101593112D01*
X125206435Y-101639468D01*
X125194704Y-101678138D01*
X125175654Y-101713777D01*
X125150017Y-101745017D01*
X125118777Y-101770654D01*
X125083138Y-101789704D01*
X125044468Y-101801435D01*
X124998112Y-101806000D01*
X123921888Y-101806000D01*
X123875532Y-101801435D01*
X123836862Y-101789704D01*
X123801223Y-101770654D01*
X123769983Y-101745017D01*
X123744346Y-101713777D01*
X123725296Y-101678138D01*
X123713565Y-101639468D01*
X123709000Y-101593112D01*
X123709000Y-100941888D01*
X123713565Y-100895532D01*
X123725296Y-100856862D01*
X123744346Y-100821223D01*
X123769983Y-100789983D01*
X123801223Y-100764346D01*
X123836862Y-100745296D01*
X123875532Y-100733565D01*
X123921888Y-100729000D01*
X124998112Y-100729000D01*
X125044468Y-100733565D01*
X125044468Y-100733565D01*
G37*
G36*
X128931000Y-100741000D02*
G01*
X127279000Y-100741000D01*
X127279000Y-99339000D01*
X128931000Y-99339000D01*
X128931000Y-100741000D01*
X128931000Y-100741000D01*
G37*
G36*
X136881000Y-100741000D02*
G01*
X135229000Y-100741000D01*
X135229000Y-99339000D01*
X136881000Y-99339000D01*
X136881000Y-100741000D01*
X136881000Y-100741000D01*
G37*
G36*
X125044468Y-98858565D02*
G01*
X125083138Y-98870296D01*
X125118777Y-98889346D01*
X125150017Y-98914983D01*
X125175654Y-98946223D01*
X125194704Y-98981862D01*
X125206435Y-99020532D01*
X125211000Y-99066888D01*
X125211000Y-99718112D01*
X125206435Y-99764468D01*
X125194704Y-99803138D01*
X125175654Y-99838777D01*
X125150017Y-99870017D01*
X125118777Y-99895654D01*
X125083138Y-99914704D01*
X125044468Y-99926435D01*
X124998112Y-99931000D01*
X123921888Y-99931000D01*
X123875532Y-99926435D01*
X123836862Y-99914704D01*
X123801223Y-99895654D01*
X123769983Y-99870017D01*
X123744346Y-99838777D01*
X123725296Y-99803138D01*
X123713565Y-99764468D01*
X123709000Y-99718112D01*
X123709000Y-99066888D01*
X123713565Y-99020532D01*
X123725296Y-98981862D01*
X123744346Y-98946223D01*
X123769983Y-98914983D01*
X123801223Y-98889346D01*
X123836862Y-98870296D01*
X123875532Y-98858565D01*
X123921888Y-98854000D01*
X124998112Y-98854000D01*
X125044468Y-98858565D01*
X125044468Y-98858565D01*
G37*
G36*
X122504468Y-96288565D02*
G01*
X122543138Y-96300296D01*
X122578777Y-96319346D01*
X122610017Y-96344983D01*
X122635654Y-96376223D01*
X122654704Y-96411862D01*
X122666435Y-96450532D01*
X122671000Y-96496888D01*
X122671000Y-97148112D01*
X122666435Y-97194468D01*
X122654704Y-97233138D01*
X122635654Y-97268777D01*
X122610017Y-97300017D01*
X122578777Y-97325654D01*
X122543138Y-97344704D01*
X122504468Y-97356435D01*
X122458112Y-97361000D01*
X121381888Y-97361000D01*
X121335532Y-97356435D01*
X121296862Y-97344704D01*
X121261223Y-97325654D01*
X121229983Y-97300017D01*
X121204346Y-97268777D01*
X121185296Y-97233138D01*
X121173565Y-97194468D01*
X121169000Y-97148112D01*
X121169000Y-96496888D01*
X121173565Y-96450532D01*
X121185296Y-96411862D01*
X121204346Y-96376223D01*
X121229983Y-96344983D01*
X121261223Y-96319346D01*
X121296862Y-96300296D01*
X121335532Y-96288565D01*
X121381888Y-96284000D01*
X122458112Y-96284000D01*
X122504468Y-96288565D01*
X122504468Y-96288565D01*
G37*
G36*
X125044468Y-96288565D02*
G01*
X125083138Y-96300296D01*
X125118777Y-96319346D01*
X125150017Y-96344983D01*
X125175654Y-96376223D01*
X125194704Y-96411862D01*
X125206435Y-96450532D01*
X125211000Y-96496888D01*
X125211000Y-97148112D01*
X125206435Y-97194468D01*
X125194704Y-97233138D01*
X125175654Y-97268777D01*
X125150017Y-97300017D01*
X125118777Y-97325654D01*
X125083138Y-97344704D01*
X125044468Y-97356435D01*
X124998112Y-97361000D01*
X123921888Y-97361000D01*
X123875532Y-97356435D01*
X123836862Y-97344704D01*
X123801223Y-97325654D01*
X123769983Y-97300017D01*
X123744346Y-97268777D01*
X123725296Y-97233138D01*
X123713565Y-97194468D01*
X123709000Y-97148112D01*
X123709000Y-96496888D01*
X123713565Y-96450532D01*
X123725296Y-96411862D01*
X123744346Y-96376223D01*
X123769983Y-96344983D01*
X123801223Y-96319346D01*
X123836862Y-96300296D01*
X123875532Y-96288565D01*
X123921888Y-96284000D01*
X124998112Y-96284000D01*
X125044468Y-96288565D01*
X125044468Y-96288565D01*
G37*
G36*
X87740443Y-94990519D02*
G01*
X87806627Y-94997037D01*
X87976466Y-95048557D01*
X88132991Y-95132222D01*
X88168729Y-95161552D01*
X88270186Y-95244814D01*
X88353448Y-95346271D01*
X88382778Y-95382009D01*
X88466443Y-95538534D01*
X88517963Y-95708373D01*
X88535359Y-95885000D01*
X88517963Y-96061627D01*
X88466443Y-96231466D01*
X88382778Y-96387991D01*
X88369916Y-96403663D01*
X88270186Y-96525186D01*
X88168729Y-96608448D01*
X88132991Y-96637778D01*
X87976466Y-96721443D01*
X87806627Y-96772963D01*
X87740442Y-96779482D01*
X87674260Y-96786000D01*
X87585740Y-96786000D01*
X87519558Y-96779482D01*
X87453373Y-96772963D01*
X87283534Y-96721443D01*
X87127009Y-96637778D01*
X87091271Y-96608448D01*
X86989814Y-96525186D01*
X86890084Y-96403663D01*
X86877222Y-96387991D01*
X86793557Y-96231466D01*
X86742037Y-96061627D01*
X86724641Y-95885000D01*
X86742037Y-95708373D01*
X86793557Y-95538534D01*
X86877222Y-95382009D01*
X86906552Y-95346271D01*
X86989814Y-95244814D01*
X87091271Y-95161552D01*
X87127009Y-95132222D01*
X87283534Y-95048557D01*
X87453373Y-94997037D01*
X87519557Y-94990519D01*
X87585740Y-94984000D01*
X87674260Y-94984000D01*
X87740443Y-94990519D01*
X87740443Y-94990519D01*
G37*
G36*
X116471000Y-96786000D02*
G01*
X114669000Y-96786000D01*
X114669000Y-94984000D01*
X116471000Y-94984000D01*
X116471000Y-96786000D01*
X116471000Y-96786000D01*
G37*
G36*
X68368241Y-93774760D02*
G01*
X68632305Y-93884139D01*
X68869958Y-94042934D01*
X69072066Y-94245042D01*
X69230861Y-94482695D01*
X69340240Y-94746759D01*
X69396000Y-95027088D01*
X69396000Y-95312912D01*
X69340240Y-95593241D01*
X69230861Y-95857305D01*
X69072066Y-96094958D01*
X68869958Y-96297066D01*
X68632305Y-96455861D01*
X68368241Y-96565240D01*
X68087912Y-96621000D01*
X67802088Y-96621000D01*
X67521759Y-96565240D01*
X67257695Y-96455861D01*
X67020042Y-96297066D01*
X66817934Y-96094958D01*
X66659139Y-95857305D01*
X66549760Y-95593241D01*
X66494000Y-95312912D01*
X66494000Y-95027088D01*
X66549760Y-94746759D01*
X66659139Y-94482695D01*
X66817934Y-94245042D01*
X67020042Y-94042934D01*
X67257695Y-93884139D01*
X67521759Y-93774760D01*
X67802088Y-93719000D01*
X68087912Y-93719000D01*
X68368241Y-93774760D01*
X68368241Y-93774760D01*
G37*
G36*
X128931000Y-96241000D02*
G01*
X127279000Y-96241000D01*
X127279000Y-94839000D01*
X128931000Y-94839000D01*
X128931000Y-96241000D01*
X128931000Y-96241000D01*
G37*
G36*
X136881000Y-96241000D02*
G01*
X135229000Y-96241000D01*
X135229000Y-94839000D01*
X136881000Y-94839000D01*
X136881000Y-96241000D01*
X136881000Y-96241000D01*
G37*
G36*
X122504468Y-94413565D02*
G01*
X122543138Y-94425296D01*
X122578777Y-94444346D01*
X122610017Y-94469983D01*
X122635654Y-94501223D01*
X122654704Y-94536862D01*
X122666435Y-94575532D01*
X122671000Y-94621888D01*
X122671000Y-95273112D01*
X122666435Y-95319468D01*
X122654704Y-95358138D01*
X122635654Y-95393777D01*
X122610017Y-95425017D01*
X122578777Y-95450654D01*
X122543138Y-95469704D01*
X122504468Y-95481435D01*
X122458112Y-95486000D01*
X121381888Y-95486000D01*
X121335532Y-95481435D01*
X121296862Y-95469704D01*
X121261223Y-95450654D01*
X121229983Y-95425017D01*
X121204346Y-95393777D01*
X121185296Y-95358138D01*
X121173565Y-95319468D01*
X121169000Y-95273112D01*
X121169000Y-94621888D01*
X121173565Y-94575532D01*
X121185296Y-94536862D01*
X121204346Y-94501223D01*
X121229983Y-94469983D01*
X121261223Y-94444346D01*
X121296862Y-94425296D01*
X121335532Y-94413565D01*
X121381888Y-94409000D01*
X122458112Y-94409000D01*
X122504468Y-94413565D01*
X122504468Y-94413565D01*
G37*
G36*
X125044468Y-94413565D02*
G01*
X125083138Y-94425296D01*
X125118777Y-94444346D01*
X125150017Y-94469983D01*
X125175654Y-94501223D01*
X125194704Y-94536862D01*
X125206435Y-94575532D01*
X125211000Y-94621888D01*
X125211000Y-95273112D01*
X125206435Y-95319468D01*
X125194704Y-95358138D01*
X125175654Y-95393777D01*
X125150017Y-95425017D01*
X125118777Y-95450654D01*
X125083138Y-95469704D01*
X125044468Y-95481435D01*
X124998112Y-95486000D01*
X123921888Y-95486000D01*
X123875532Y-95481435D01*
X123836862Y-95469704D01*
X123801223Y-95450654D01*
X123769983Y-95425017D01*
X123744346Y-95393777D01*
X123725296Y-95358138D01*
X123713565Y-95319468D01*
X123709000Y-95273112D01*
X123709000Y-94621888D01*
X123713565Y-94575532D01*
X123725296Y-94536862D01*
X123744346Y-94501223D01*
X123769983Y-94469983D01*
X123801223Y-94444346D01*
X123836862Y-94425296D01*
X123875532Y-94413565D01*
X123921888Y-94409000D01*
X124998112Y-94409000D01*
X125044468Y-94413565D01*
X125044468Y-94413565D01*
G37*
G36*
X87740443Y-92450519D02*
G01*
X87806627Y-92457037D01*
X87976466Y-92508557D01*
X88132991Y-92592222D01*
X88168729Y-92621552D01*
X88270186Y-92704814D01*
X88338567Y-92788138D01*
X88382778Y-92842009D01*
X88466443Y-92998534D01*
X88517963Y-93168373D01*
X88535359Y-93345000D01*
X88517963Y-93521627D01*
X88466443Y-93691466D01*
X88382778Y-93847991D01*
X88353448Y-93883729D01*
X88270186Y-93985186D01*
X88181292Y-94058138D01*
X88132991Y-94097778D01*
X87976466Y-94181443D01*
X87806627Y-94232963D01*
X87740443Y-94239481D01*
X87674260Y-94246000D01*
X87585740Y-94246000D01*
X87519557Y-94239481D01*
X87453373Y-94232963D01*
X87283534Y-94181443D01*
X87127009Y-94097778D01*
X87078708Y-94058138D01*
X86989814Y-93985186D01*
X86906552Y-93883729D01*
X86877222Y-93847991D01*
X86793557Y-93691466D01*
X86742037Y-93521627D01*
X86724641Y-93345000D01*
X86742037Y-93168373D01*
X86793557Y-92998534D01*
X86877222Y-92842009D01*
X86921433Y-92788138D01*
X86989814Y-92704814D01*
X87091271Y-92621552D01*
X87127009Y-92592222D01*
X87283534Y-92508557D01*
X87453373Y-92457037D01*
X87519557Y-92450519D01*
X87585740Y-92444000D01*
X87674260Y-92444000D01*
X87740443Y-92450519D01*
X87740443Y-92450519D01*
G37*
G36*
X115680443Y-92450519D02*
G01*
X115746627Y-92457037D01*
X115916466Y-92508557D01*
X116072991Y-92592222D01*
X116108729Y-92621552D01*
X116210186Y-92704814D01*
X116278567Y-92788138D01*
X116322778Y-92842009D01*
X116406443Y-92998534D01*
X116457963Y-93168373D01*
X116475359Y-93345000D01*
X116457963Y-93521627D01*
X116406443Y-93691466D01*
X116322778Y-93847991D01*
X116293448Y-93883729D01*
X116210186Y-93985186D01*
X116121292Y-94058138D01*
X116072991Y-94097778D01*
X115916466Y-94181443D01*
X115746627Y-94232963D01*
X115680443Y-94239481D01*
X115614260Y-94246000D01*
X115525740Y-94246000D01*
X115459557Y-94239481D01*
X115393373Y-94232963D01*
X115223534Y-94181443D01*
X115067009Y-94097778D01*
X115018708Y-94058138D01*
X114929814Y-93985186D01*
X114846552Y-93883729D01*
X114817222Y-93847991D01*
X114733557Y-93691466D01*
X114682037Y-93521627D01*
X114664641Y-93345000D01*
X114682037Y-93168373D01*
X114733557Y-92998534D01*
X114817222Y-92842009D01*
X114861433Y-92788138D01*
X114929814Y-92704814D01*
X115031271Y-92621552D01*
X115067009Y-92592222D01*
X115223534Y-92508557D01*
X115393373Y-92457037D01*
X115459557Y-92450519D01*
X115525740Y-92444000D01*
X115614260Y-92444000D01*
X115680443Y-92450519D01*
X115680443Y-92450519D01*
G37*
G36*
X83134468Y-93113565D02*
G01*
X83173138Y-93125296D01*
X83208777Y-93144346D01*
X83240017Y-93169983D01*
X83265654Y-93201223D01*
X83284704Y-93236862D01*
X83296435Y-93275532D01*
X83301000Y-93321888D01*
X83301000Y-93973112D01*
X83296435Y-94019468D01*
X83284704Y-94058138D01*
X83265654Y-94093777D01*
X83240017Y-94125017D01*
X83208777Y-94150654D01*
X83173138Y-94169704D01*
X83134468Y-94181435D01*
X83088112Y-94186000D01*
X82011888Y-94186000D01*
X81965532Y-94181435D01*
X81926862Y-94169704D01*
X81891223Y-94150654D01*
X81859983Y-94125017D01*
X81834346Y-94093777D01*
X81815296Y-94058138D01*
X81803565Y-94019468D01*
X81799000Y-93973112D01*
X81799000Y-93321888D01*
X81803565Y-93275532D01*
X81815296Y-93236862D01*
X81834346Y-93201223D01*
X81859983Y-93169983D01*
X81891223Y-93144346D01*
X81926862Y-93125296D01*
X81965532Y-93113565D01*
X82011888Y-93109000D01*
X83088112Y-93109000D01*
X83134468Y-93113565D01*
X83134468Y-93113565D01*
G37*
G36*
X80600000Y-94075000D02*
G01*
X78150000Y-94075000D01*
X78150000Y-93145000D01*
X80600000Y-93145000D01*
X80600000Y-94075000D01*
X80600000Y-94075000D01*
G37*
G36*
X125044468Y-91843565D02*
G01*
X125083138Y-91855296D01*
X125118777Y-91874346D01*
X125150017Y-91899983D01*
X125175654Y-91931223D01*
X125194704Y-91966862D01*
X125206435Y-92005532D01*
X125211000Y-92051888D01*
X125211000Y-92703112D01*
X125206435Y-92749468D01*
X125194704Y-92788138D01*
X125175654Y-92823777D01*
X125150017Y-92855017D01*
X125118777Y-92880654D01*
X125083138Y-92899704D01*
X125044468Y-92911435D01*
X124998112Y-92916000D01*
X123921888Y-92916000D01*
X123875532Y-92911435D01*
X123836862Y-92899704D01*
X123801223Y-92880654D01*
X123769983Y-92855017D01*
X123744346Y-92823777D01*
X123725296Y-92788138D01*
X123713565Y-92749468D01*
X123709000Y-92703112D01*
X123709000Y-92051888D01*
X123713565Y-92005532D01*
X123725296Y-91966862D01*
X123744346Y-91931223D01*
X123769983Y-91899983D01*
X123801223Y-91874346D01*
X123836862Y-91855296D01*
X123875532Y-91843565D01*
X123921888Y-91839000D01*
X124998112Y-91839000D01*
X125044468Y-91843565D01*
X125044468Y-91843565D01*
G37*
G36*
X80600000Y-90950623D02*
G01*
X80586611Y-90961611D01*
X80571066Y-90980553D01*
X80559515Y-91002164D01*
X80552402Y-91025613D01*
X80550000Y-91049999D01*
X80550000Y-92645000D01*
X78200000Y-92645000D01*
X78200000Y-91049999D01*
X78197598Y-91025613D01*
X78190485Y-91002164D01*
X78178934Y-90980553D01*
X78163389Y-90961611D01*
X78150000Y-90950623D01*
X78150000Y-90075000D01*
X80600000Y-90075000D01*
X80600000Y-90950623D01*
X80600000Y-90950623D01*
G37*
G36*
X83134468Y-91238565D02*
G01*
X83173138Y-91250296D01*
X83208777Y-91269346D01*
X83240017Y-91294983D01*
X83265654Y-91326223D01*
X83284704Y-91361862D01*
X83296435Y-91400532D01*
X83301000Y-91446888D01*
X83301000Y-92098112D01*
X83296435Y-92144468D01*
X83284704Y-92183138D01*
X83265654Y-92218777D01*
X83240017Y-92250017D01*
X83208777Y-92275654D01*
X83173138Y-92294704D01*
X83134468Y-92306435D01*
X83088112Y-92311000D01*
X82011888Y-92311000D01*
X81965532Y-92306435D01*
X81926862Y-92294704D01*
X81891223Y-92275654D01*
X81859983Y-92250017D01*
X81834346Y-92218777D01*
X81815296Y-92183138D01*
X81803565Y-92144468D01*
X81799000Y-92098112D01*
X81799000Y-91446888D01*
X81803565Y-91400532D01*
X81815296Y-91361862D01*
X81834346Y-91326223D01*
X81859983Y-91294983D01*
X81891223Y-91269346D01*
X81926862Y-91250296D01*
X81965532Y-91238565D01*
X82011888Y-91234000D01*
X83088112Y-91234000D01*
X83134468Y-91238565D01*
X83134468Y-91238565D01*
G37*
G36*
X136881000Y-91851000D02*
G01*
X135229000Y-91851000D01*
X135229000Y-90449000D01*
X136881000Y-90449000D01*
X136881000Y-91851000D01*
X136881000Y-91851000D01*
G37*
G36*
X128931000Y-91851000D02*
G01*
X127279000Y-91851000D01*
X127279000Y-90449000D01*
X128931000Y-90449000D01*
X128931000Y-91851000D01*
X128931000Y-91851000D01*
G37*
G36*
X115680442Y-89910518D02*
G01*
X115746627Y-89917037D01*
X115916466Y-89968557D01*
X116072991Y-90052222D01*
X116077866Y-90056223D01*
X116210186Y-90164814D01*
X116266349Y-90233250D01*
X116322778Y-90302009D01*
X116406443Y-90458534D01*
X116457963Y-90628373D01*
X116475359Y-90805000D01*
X116457963Y-90981627D01*
X116406443Y-91151466D01*
X116322778Y-91307991D01*
X116318781Y-91312861D01*
X116210186Y-91445186D01*
X116108729Y-91528448D01*
X116072991Y-91557778D01*
X115916466Y-91641443D01*
X115746627Y-91692963D01*
X115680442Y-91699482D01*
X115614260Y-91706000D01*
X115525740Y-91706000D01*
X115459558Y-91699482D01*
X115393373Y-91692963D01*
X115223534Y-91641443D01*
X115067009Y-91557778D01*
X115031271Y-91528448D01*
X114929814Y-91445186D01*
X114821219Y-91312861D01*
X114817222Y-91307991D01*
X114733557Y-91151466D01*
X114682037Y-90981627D01*
X114664641Y-90805000D01*
X114682037Y-90628373D01*
X114733557Y-90458534D01*
X114817222Y-90302009D01*
X114873651Y-90233250D01*
X114929814Y-90164814D01*
X115062134Y-90056223D01*
X115067009Y-90052222D01*
X115223534Y-89968557D01*
X115393373Y-89917037D01*
X115459558Y-89910518D01*
X115525740Y-89904000D01*
X115614260Y-89904000D01*
X115680442Y-89910518D01*
X115680442Y-89910518D01*
G37*
G36*
X87740442Y-89910518D02*
G01*
X87806627Y-89917037D01*
X87976466Y-89968557D01*
X88132991Y-90052222D01*
X88137866Y-90056223D01*
X88270186Y-90164814D01*
X88326349Y-90233250D01*
X88382778Y-90302009D01*
X88466443Y-90458534D01*
X88517963Y-90628373D01*
X88535359Y-90805000D01*
X88517963Y-90981627D01*
X88466443Y-91151466D01*
X88382778Y-91307991D01*
X88378781Y-91312861D01*
X88270186Y-91445186D01*
X88168729Y-91528448D01*
X88132991Y-91557778D01*
X87976466Y-91641443D01*
X87806627Y-91692963D01*
X87740442Y-91699482D01*
X87674260Y-91706000D01*
X87585740Y-91706000D01*
X87519558Y-91699482D01*
X87453373Y-91692963D01*
X87283534Y-91641443D01*
X87127009Y-91557778D01*
X87091271Y-91528448D01*
X86989814Y-91445186D01*
X86881219Y-91312861D01*
X86877222Y-91307991D01*
X86793557Y-91151466D01*
X86742037Y-90981627D01*
X86724641Y-90805000D01*
X86742037Y-90628373D01*
X86793557Y-90458534D01*
X86877222Y-90302009D01*
X86933651Y-90233250D01*
X86989814Y-90164814D01*
X87122134Y-90056223D01*
X87127009Y-90052222D01*
X87283534Y-89968557D01*
X87453373Y-89917037D01*
X87519558Y-89910518D01*
X87585740Y-89904000D01*
X87674260Y-89904000D01*
X87740442Y-89910518D01*
X87740442Y-89910518D01*
G37*
G36*
X69396000Y-91621000D02*
G01*
X66494000Y-91621000D01*
X66494000Y-88719000D01*
X69396000Y-88719000D01*
X69396000Y-91621000D01*
X69396000Y-91621000D01*
G37*
G36*
X125044468Y-89968565D02*
G01*
X125083138Y-89980296D01*
X125118777Y-89999346D01*
X125150017Y-90024983D01*
X125175654Y-90056223D01*
X125194704Y-90091862D01*
X125206435Y-90130532D01*
X125211000Y-90176888D01*
X125211000Y-90828112D01*
X125206435Y-90874468D01*
X125194704Y-90913138D01*
X125175654Y-90948777D01*
X125150017Y-90980017D01*
X125118777Y-91005654D01*
X125083138Y-91024704D01*
X125044468Y-91036435D01*
X124998112Y-91041000D01*
X123921888Y-91041000D01*
X123875532Y-91036435D01*
X123836862Y-91024704D01*
X123801223Y-91005654D01*
X123769983Y-90980017D01*
X123744346Y-90948777D01*
X123725296Y-90913138D01*
X123713565Y-90874468D01*
X123709000Y-90828112D01*
X123709000Y-90176888D01*
X123713565Y-90130532D01*
X123725296Y-90091862D01*
X123744346Y-90056223D01*
X123769983Y-90024983D01*
X123801223Y-89999346D01*
X123836862Y-89980296D01*
X123875532Y-89968565D01*
X123921888Y-89964000D01*
X124998112Y-89964000D01*
X125044468Y-89968565D01*
X125044468Y-89968565D01*
G37*
G36*
X115673472Y-87369832D02*
G01*
X115746627Y-87377037D01*
X115916466Y-87428557D01*
X116072991Y-87512222D01*
X116084737Y-87521862D01*
X116210186Y-87624814D01*
X116293448Y-87726271D01*
X116322778Y-87762009D01*
X116406443Y-87918534D01*
X116457963Y-88088373D01*
X116475359Y-88265000D01*
X116457963Y-88441627D01*
X116421145Y-88563000D01*
X116406442Y-88611468D01*
X116364611Y-88689728D01*
X116322778Y-88767991D01*
X116293448Y-88803729D01*
X116210186Y-88905186D01*
X116108729Y-88988448D01*
X116072991Y-89017778D01*
X115916466Y-89101443D01*
X115746627Y-89152963D01*
X115680443Y-89159481D01*
X115614260Y-89166000D01*
X115525740Y-89166000D01*
X115459557Y-89159481D01*
X115393373Y-89152963D01*
X115223534Y-89101443D01*
X115067009Y-89017778D01*
X115031271Y-88988448D01*
X114929814Y-88905186D01*
X114846552Y-88803729D01*
X114817222Y-88767991D01*
X114775389Y-88689728D01*
X114733558Y-88611468D01*
X114718855Y-88563000D01*
X114682037Y-88441627D01*
X114664641Y-88265000D01*
X114682037Y-88088373D01*
X114733557Y-87918534D01*
X114817222Y-87762009D01*
X114846552Y-87726271D01*
X114929814Y-87624814D01*
X115055263Y-87521862D01*
X115067009Y-87512222D01*
X115223534Y-87428557D01*
X115393373Y-87377037D01*
X115466528Y-87369832D01*
X115525740Y-87364000D01*
X115614260Y-87364000D01*
X115673472Y-87369832D01*
X115673472Y-87369832D01*
G37*
G36*
X87733472Y-87369832D02*
G01*
X87806627Y-87377037D01*
X87976466Y-87428557D01*
X88132991Y-87512222D01*
X88144737Y-87521862D01*
X88270186Y-87624814D01*
X88353448Y-87726271D01*
X88382778Y-87762009D01*
X88466443Y-87918534D01*
X88517963Y-88088373D01*
X88535359Y-88265000D01*
X88517963Y-88441627D01*
X88481145Y-88563000D01*
X88466442Y-88611468D01*
X88424611Y-88689728D01*
X88382778Y-88767991D01*
X88353448Y-88803729D01*
X88270186Y-88905186D01*
X88168729Y-88988448D01*
X88132991Y-89017778D01*
X87976466Y-89101443D01*
X87806627Y-89152963D01*
X87740443Y-89159481D01*
X87674260Y-89166000D01*
X87585740Y-89166000D01*
X87519557Y-89159481D01*
X87453373Y-89152963D01*
X87283534Y-89101443D01*
X87127009Y-89017778D01*
X87091271Y-88988448D01*
X86989814Y-88905186D01*
X86906552Y-88803729D01*
X86877222Y-88767991D01*
X86835389Y-88689728D01*
X86793558Y-88611468D01*
X86778855Y-88563000D01*
X86742037Y-88441627D01*
X86724641Y-88265000D01*
X86742037Y-88088373D01*
X86793557Y-87918534D01*
X86877222Y-87762009D01*
X86906552Y-87726271D01*
X86989814Y-87624814D01*
X87115263Y-87521862D01*
X87127009Y-87512222D01*
X87283534Y-87428557D01*
X87453373Y-87377037D01*
X87526528Y-87369832D01*
X87585740Y-87364000D01*
X87674260Y-87364000D01*
X87733472Y-87369832D01*
X87733472Y-87369832D01*
G37*
G36*
X100245355Y-82800083D02*
G01*
X100250029Y-82801501D01*
X100254330Y-82803800D01*
X100260702Y-82809029D01*
X100281076Y-82822643D01*
X100303715Y-82832020D01*
X100327749Y-82836800D01*
X100352253Y-82836800D01*
X100376286Y-82832019D01*
X100398925Y-82822642D01*
X100419298Y-82809029D01*
X100425670Y-82803800D01*
X100429971Y-82801501D01*
X100434645Y-82800083D01*
X100445641Y-82799000D01*
X100734359Y-82799000D01*
X100745355Y-82800083D01*
X100750029Y-82801501D01*
X100754330Y-82803800D01*
X100760702Y-82809029D01*
X100781076Y-82822643D01*
X100803715Y-82832020D01*
X100827749Y-82836800D01*
X100852253Y-82836800D01*
X100876286Y-82832019D01*
X100898925Y-82822642D01*
X100919298Y-82809029D01*
X100925670Y-82803800D01*
X100929971Y-82801501D01*
X100934645Y-82800083D01*
X100945641Y-82799000D01*
X101234359Y-82799000D01*
X101245355Y-82800083D01*
X101250029Y-82801501D01*
X101254330Y-82803800D01*
X101260702Y-82809029D01*
X101281076Y-82822643D01*
X101303715Y-82832020D01*
X101327749Y-82836800D01*
X101352253Y-82836800D01*
X101376286Y-82832019D01*
X101398925Y-82822642D01*
X101419298Y-82809029D01*
X101425670Y-82803800D01*
X101429971Y-82801501D01*
X101434645Y-82800083D01*
X101445641Y-82799000D01*
X101734359Y-82799000D01*
X101745355Y-82800083D01*
X101750029Y-82801501D01*
X101754330Y-82803800D01*
X101760702Y-82809029D01*
X101781076Y-82822643D01*
X101803715Y-82832020D01*
X101827749Y-82836800D01*
X101852253Y-82836800D01*
X101876286Y-82832019D01*
X101898925Y-82822642D01*
X101919298Y-82809029D01*
X101925670Y-82803800D01*
X101929971Y-82801501D01*
X101934645Y-82800083D01*
X101945641Y-82799000D01*
X102234359Y-82799000D01*
X102245355Y-82800083D01*
X102250029Y-82801501D01*
X102254330Y-82803800D01*
X102260702Y-82809029D01*
X102281076Y-82822643D01*
X102303715Y-82832020D01*
X102327749Y-82836800D01*
X102352253Y-82836800D01*
X102376286Y-82832019D01*
X102398925Y-82822642D01*
X102419298Y-82809029D01*
X102425670Y-82803800D01*
X102429971Y-82801501D01*
X102434645Y-82800083D01*
X102445641Y-82799000D01*
X102734359Y-82799000D01*
X102745355Y-82800083D01*
X102750029Y-82801501D01*
X102754330Y-82803800D01*
X102760702Y-82809029D01*
X102781076Y-82822643D01*
X102803715Y-82832020D01*
X102827749Y-82836800D01*
X102852253Y-82836800D01*
X102876286Y-82832019D01*
X102898925Y-82822642D01*
X102919298Y-82809029D01*
X102925670Y-82803800D01*
X102929971Y-82801501D01*
X102934645Y-82800083D01*
X102945641Y-82799000D01*
X103234359Y-82799000D01*
X103245355Y-82800083D01*
X103250029Y-82801501D01*
X103254330Y-82803800D01*
X103260702Y-82809029D01*
X103281076Y-82822643D01*
X103303715Y-82832020D01*
X103327749Y-82836800D01*
X103352253Y-82836800D01*
X103376286Y-82832019D01*
X103398925Y-82822642D01*
X103419298Y-82809029D01*
X103425670Y-82803800D01*
X103429971Y-82801501D01*
X103434645Y-82800083D01*
X103445641Y-82799000D01*
X103734359Y-82799000D01*
X103745355Y-82800083D01*
X103750029Y-82801501D01*
X103754331Y-82803800D01*
X103758104Y-82806896D01*
X103761200Y-82810669D01*
X103763499Y-82814971D01*
X103764917Y-82819645D01*
X103766000Y-82830641D01*
X103766000Y-83674001D01*
X103768402Y-83698387D01*
X103775515Y-83721836D01*
X103787066Y-83743447D01*
X103802611Y-83762389D01*
X103821553Y-83777934D01*
X103843164Y-83789485D01*
X103866613Y-83796598D01*
X103890999Y-83799000D01*
X104734359Y-83799000D01*
X104745355Y-83800083D01*
X104750029Y-83801501D01*
X104754331Y-83803800D01*
X104758104Y-83806896D01*
X104761200Y-83810669D01*
X104763499Y-83814971D01*
X104764917Y-83819645D01*
X104766000Y-83830641D01*
X104766000Y-84119359D01*
X104764917Y-84130355D01*
X104763499Y-84135029D01*
X104761200Y-84139330D01*
X104755971Y-84145702D01*
X104742357Y-84166076D01*
X104732980Y-84188715D01*
X104728200Y-84212749D01*
X104728200Y-84237253D01*
X104732981Y-84261286D01*
X104742358Y-84283925D01*
X104755971Y-84304298D01*
X104761200Y-84310670D01*
X104763499Y-84314971D01*
X104764917Y-84319645D01*
X104766000Y-84330641D01*
X104766000Y-84619359D01*
X104764917Y-84630355D01*
X104763499Y-84635029D01*
X104761200Y-84639330D01*
X104755971Y-84645702D01*
X104742357Y-84666076D01*
X104732980Y-84688715D01*
X104728200Y-84712749D01*
X104728200Y-84737253D01*
X104732981Y-84761286D01*
X104742358Y-84783925D01*
X104755971Y-84804298D01*
X104761200Y-84810670D01*
X104763499Y-84814971D01*
X104764917Y-84819645D01*
X104766000Y-84830641D01*
X104766000Y-85119359D01*
X104764917Y-85130355D01*
X104763499Y-85135029D01*
X104761200Y-85139330D01*
X104755971Y-85145702D01*
X104742357Y-85166076D01*
X104732980Y-85188715D01*
X104728200Y-85212749D01*
X104728200Y-85237253D01*
X104732981Y-85261286D01*
X104742358Y-85283925D01*
X104755971Y-85304298D01*
X104761200Y-85310670D01*
X104763499Y-85314971D01*
X104764917Y-85319645D01*
X104766000Y-85330641D01*
X104766000Y-85619359D01*
X104764917Y-85630355D01*
X104763499Y-85635029D01*
X104761200Y-85639330D01*
X104755971Y-85645702D01*
X104742357Y-85666076D01*
X104732980Y-85688715D01*
X104728200Y-85712749D01*
X104728200Y-85737253D01*
X104732981Y-85761286D01*
X104742358Y-85783925D01*
X104755971Y-85804298D01*
X104761200Y-85810670D01*
X104763499Y-85814971D01*
X104764917Y-85819645D01*
X104766000Y-85830641D01*
X104766000Y-86119359D01*
X104764917Y-86130355D01*
X104763499Y-86135029D01*
X104761200Y-86139330D01*
X104755971Y-86145702D01*
X104742357Y-86166076D01*
X104732980Y-86188715D01*
X104728200Y-86212749D01*
X104728200Y-86237253D01*
X104732981Y-86261286D01*
X104742358Y-86283925D01*
X104755971Y-86304298D01*
X104761200Y-86310670D01*
X104763499Y-86314971D01*
X104764917Y-86319645D01*
X104766000Y-86330641D01*
X104766000Y-86619359D01*
X104764917Y-86630355D01*
X104763499Y-86635029D01*
X104761200Y-86639330D01*
X104755971Y-86645702D01*
X104742357Y-86666076D01*
X104732980Y-86688715D01*
X104728200Y-86712749D01*
X104728200Y-86737253D01*
X104732981Y-86761286D01*
X104742358Y-86783925D01*
X104755971Y-86804298D01*
X104761200Y-86810670D01*
X104763499Y-86814971D01*
X104764917Y-86819645D01*
X104766000Y-86830641D01*
X104766000Y-87119359D01*
X104764917Y-87130355D01*
X104763499Y-87135029D01*
X104761200Y-87139330D01*
X104755971Y-87145702D01*
X104742357Y-87166076D01*
X104732980Y-87188715D01*
X104728200Y-87212749D01*
X104728200Y-87237253D01*
X104732981Y-87261286D01*
X104742358Y-87283925D01*
X104755971Y-87304298D01*
X104761200Y-87310670D01*
X104763499Y-87314971D01*
X104764917Y-87319645D01*
X104766000Y-87330641D01*
X104766000Y-87619359D01*
X104764917Y-87630355D01*
X104763499Y-87635029D01*
X104761200Y-87639331D01*
X104758104Y-87643104D01*
X104754331Y-87646200D01*
X104750029Y-87648499D01*
X104745355Y-87649917D01*
X104734359Y-87651000D01*
X103890999Y-87651000D01*
X103866613Y-87653402D01*
X103843164Y-87660515D01*
X103821553Y-87672066D01*
X103802611Y-87687611D01*
X103787066Y-87706553D01*
X103775515Y-87728164D01*
X103768402Y-87751613D01*
X103766000Y-87775999D01*
X103766000Y-88619359D01*
X103764917Y-88630355D01*
X103763499Y-88635029D01*
X103761200Y-88639331D01*
X103758104Y-88643104D01*
X103754331Y-88646200D01*
X103750029Y-88648499D01*
X103745355Y-88649917D01*
X103734359Y-88651000D01*
X103445641Y-88651000D01*
X103434645Y-88649917D01*
X103429971Y-88648499D01*
X103425670Y-88646200D01*
X103419298Y-88640971D01*
X103398924Y-88627357D01*
X103376285Y-88617980D01*
X103352251Y-88613200D01*
X103327747Y-88613200D01*
X103303714Y-88617981D01*
X103281075Y-88627358D01*
X103260702Y-88640971D01*
X103254330Y-88646200D01*
X103250029Y-88648499D01*
X103245355Y-88649917D01*
X103234359Y-88651000D01*
X102945641Y-88651000D01*
X102934645Y-88649917D01*
X102929971Y-88648499D01*
X102925670Y-88646200D01*
X102919298Y-88640971D01*
X102898924Y-88627357D01*
X102876285Y-88617980D01*
X102852251Y-88613200D01*
X102827747Y-88613200D01*
X102803714Y-88617981D01*
X102781075Y-88627358D01*
X102760702Y-88640971D01*
X102754330Y-88646200D01*
X102750029Y-88648499D01*
X102745355Y-88649917D01*
X102734359Y-88651000D01*
X102445641Y-88651000D01*
X102434645Y-88649917D01*
X102429971Y-88648499D01*
X102425670Y-88646200D01*
X102419298Y-88640971D01*
X102398924Y-88627357D01*
X102376285Y-88617980D01*
X102352251Y-88613200D01*
X102327747Y-88613200D01*
X102303714Y-88617981D01*
X102281075Y-88627358D01*
X102260702Y-88640971D01*
X102254330Y-88646200D01*
X102250029Y-88648499D01*
X102245355Y-88649917D01*
X102234359Y-88651000D01*
X101945641Y-88651000D01*
X101934645Y-88649917D01*
X101929971Y-88648499D01*
X101925670Y-88646200D01*
X101919298Y-88640971D01*
X101898924Y-88627357D01*
X101876285Y-88617980D01*
X101852251Y-88613200D01*
X101827747Y-88613200D01*
X101803714Y-88617981D01*
X101781075Y-88627358D01*
X101760702Y-88640971D01*
X101754330Y-88646200D01*
X101750029Y-88648499D01*
X101745355Y-88649917D01*
X101734359Y-88651000D01*
X101445641Y-88651000D01*
X101434645Y-88649917D01*
X101429971Y-88648499D01*
X101425670Y-88646200D01*
X101419298Y-88640971D01*
X101398924Y-88627357D01*
X101376285Y-88617980D01*
X101352251Y-88613200D01*
X101327747Y-88613200D01*
X101303714Y-88617981D01*
X101281075Y-88627358D01*
X101260702Y-88640971D01*
X101254330Y-88646200D01*
X101250029Y-88648499D01*
X101245355Y-88649917D01*
X101234359Y-88651000D01*
X100945641Y-88651000D01*
X100934645Y-88649917D01*
X100929971Y-88648499D01*
X100925670Y-88646200D01*
X100919298Y-88640971D01*
X100898924Y-88627357D01*
X100876285Y-88617980D01*
X100852251Y-88613200D01*
X100827747Y-88613200D01*
X100803714Y-88617981D01*
X100781075Y-88627358D01*
X100760702Y-88640971D01*
X100754330Y-88646200D01*
X100750029Y-88648499D01*
X100745355Y-88649917D01*
X100734359Y-88651000D01*
X100445641Y-88651000D01*
X100434645Y-88649917D01*
X100429971Y-88648499D01*
X100425670Y-88646200D01*
X100419298Y-88640971D01*
X100398924Y-88627357D01*
X100376285Y-88617980D01*
X100352251Y-88613200D01*
X100327747Y-88613200D01*
X100303714Y-88617981D01*
X100281075Y-88627358D01*
X100260702Y-88640971D01*
X100254330Y-88646200D01*
X100250029Y-88648499D01*
X100245355Y-88649917D01*
X100234359Y-88651000D01*
X99945641Y-88651000D01*
X99934645Y-88649917D01*
X99929971Y-88648499D01*
X99925669Y-88646200D01*
X99921896Y-88643104D01*
X99918800Y-88639331D01*
X99916501Y-88635029D01*
X99915083Y-88630355D01*
X99914000Y-88619359D01*
X99914000Y-87775999D01*
X99911598Y-87751613D01*
X99904485Y-87728164D01*
X99892934Y-87706553D01*
X99877389Y-87687611D01*
X99858447Y-87672066D01*
X99836836Y-87660515D01*
X99813387Y-87653402D01*
X99789001Y-87651000D01*
X98945641Y-87651000D01*
X98934645Y-87649917D01*
X98929971Y-87648499D01*
X98925669Y-87646200D01*
X98921896Y-87643104D01*
X98918800Y-87639331D01*
X98916501Y-87635029D01*
X98915083Y-87630355D01*
X98914000Y-87619359D01*
X98914000Y-87330641D01*
X98915083Y-87319645D01*
X98916501Y-87314971D01*
X98918800Y-87310670D01*
X98924029Y-87304298D01*
X98937643Y-87283924D01*
X98947020Y-87261285D01*
X98951800Y-87237251D01*
X98951800Y-87212747D01*
X98947019Y-87188714D01*
X98937642Y-87166075D01*
X98924029Y-87145702D01*
X98918800Y-87139330D01*
X98916501Y-87135029D01*
X98915083Y-87130355D01*
X98914000Y-87119359D01*
X98914000Y-86830641D01*
X98915083Y-86819645D01*
X98916501Y-86814971D01*
X98918800Y-86810670D01*
X98924029Y-86804298D01*
X98937643Y-86783924D01*
X98947020Y-86761285D01*
X98951800Y-86737251D01*
X98951800Y-86712747D01*
X98947019Y-86688714D01*
X98937642Y-86666075D01*
X98924029Y-86645702D01*
X98918800Y-86639330D01*
X98916501Y-86635029D01*
X98915083Y-86630355D01*
X98914000Y-86619359D01*
X98914000Y-86330641D01*
X98915083Y-86319645D01*
X98916501Y-86314971D01*
X98918800Y-86310670D01*
X98924029Y-86304298D01*
X98937643Y-86283924D01*
X98947020Y-86261285D01*
X98951800Y-86237251D01*
X98951800Y-86212747D01*
X98947019Y-86188714D01*
X98937642Y-86166075D01*
X98924029Y-86145702D01*
X98918800Y-86139330D01*
X98916501Y-86135029D01*
X98915083Y-86130355D01*
X98914000Y-86119359D01*
X98914000Y-85830641D01*
X98915083Y-85819645D01*
X98916501Y-85814971D01*
X98918800Y-85810670D01*
X98924029Y-85804298D01*
X98937643Y-85783924D01*
X98947020Y-85761285D01*
X98951800Y-85737251D01*
X98951800Y-85712747D01*
X98947019Y-85688714D01*
X98937642Y-85666075D01*
X98924029Y-85645702D01*
X98918800Y-85639330D01*
X98916501Y-85635029D01*
X98915083Y-85630355D01*
X98914000Y-85619359D01*
X98914000Y-85330641D01*
X98915083Y-85319645D01*
X98916501Y-85314971D01*
X98918800Y-85310670D01*
X98924029Y-85304298D01*
X98937643Y-85283924D01*
X98947020Y-85261285D01*
X98951800Y-85237251D01*
X98951800Y-85212747D01*
X98947019Y-85188714D01*
X98937642Y-85166075D01*
X98924029Y-85145702D01*
X98918800Y-85139330D01*
X98916501Y-85135029D01*
X98915083Y-85130355D01*
X98914000Y-85119359D01*
X98914000Y-84830641D01*
X98915083Y-84819645D01*
X98916501Y-84814971D01*
X98918800Y-84810670D01*
X98924029Y-84804298D01*
X98937643Y-84783924D01*
X98947020Y-84761285D01*
X98951800Y-84737251D01*
X98951800Y-84712747D01*
X98947019Y-84688714D01*
X98937642Y-84666075D01*
X98924029Y-84645702D01*
X98918800Y-84639330D01*
X98916501Y-84635029D01*
X98915083Y-84630355D01*
X98914000Y-84619359D01*
X98914000Y-84330641D01*
X98915083Y-84319645D01*
X98916501Y-84314971D01*
X98918800Y-84310670D01*
X98924029Y-84304298D01*
X98937643Y-84283924D01*
X98947020Y-84261285D01*
X98951800Y-84237251D01*
X98951800Y-84212749D01*
X99853200Y-84212749D01*
X99853200Y-84237253D01*
X99857981Y-84261286D01*
X99867358Y-84283925D01*
X99880971Y-84304298D01*
X99886200Y-84310670D01*
X99888499Y-84314971D01*
X99889917Y-84319645D01*
X99891000Y-84330641D01*
X99891000Y-84619359D01*
X99889917Y-84630355D01*
X99888499Y-84635029D01*
X99886200Y-84639330D01*
X99880971Y-84645702D01*
X99867357Y-84666076D01*
X99857980Y-84688715D01*
X99853200Y-84712749D01*
X99853200Y-84737253D01*
X99857981Y-84761286D01*
X99867358Y-84783925D01*
X99880971Y-84804298D01*
X99886200Y-84810670D01*
X99888499Y-84814971D01*
X99889917Y-84819645D01*
X99891000Y-84830641D01*
X99891000Y-85119359D01*
X99889917Y-85130355D01*
X99888499Y-85135029D01*
X99886200Y-85139330D01*
X99880971Y-85145702D01*
X99867357Y-85166076D01*
X99857980Y-85188715D01*
X99853200Y-85212749D01*
X99853200Y-85237253D01*
X99857981Y-85261286D01*
X99867358Y-85283925D01*
X99880971Y-85304298D01*
X99886200Y-85310670D01*
X99888499Y-85314971D01*
X99889917Y-85319645D01*
X99891000Y-85330641D01*
X99891000Y-85619359D01*
X99889917Y-85630355D01*
X99888499Y-85635029D01*
X99886200Y-85639330D01*
X99880971Y-85645702D01*
X99867357Y-85666076D01*
X99857980Y-85688715D01*
X99853200Y-85712749D01*
X99853200Y-85737253D01*
X99857981Y-85761286D01*
X99867358Y-85783925D01*
X99880971Y-85804298D01*
X99886200Y-85810670D01*
X99888499Y-85814971D01*
X99889917Y-85819645D01*
X99891000Y-85830641D01*
X99891000Y-86119359D01*
X99889917Y-86130355D01*
X99888499Y-86135029D01*
X99886200Y-86139330D01*
X99880971Y-86145702D01*
X99867357Y-86166076D01*
X99857980Y-86188715D01*
X99853200Y-86212749D01*
X99853200Y-86237253D01*
X99857981Y-86261286D01*
X99867358Y-86283925D01*
X99880971Y-86304298D01*
X99886200Y-86310670D01*
X99888499Y-86314971D01*
X99889917Y-86319645D01*
X99891000Y-86330641D01*
X99891000Y-86619359D01*
X99889917Y-86630355D01*
X99888499Y-86635029D01*
X99886200Y-86639330D01*
X99880971Y-86645702D01*
X99867357Y-86666076D01*
X99857980Y-86688715D01*
X99853200Y-86712749D01*
X99853200Y-86737253D01*
X99857981Y-86761286D01*
X99867358Y-86783925D01*
X99880971Y-86804298D01*
X99886200Y-86810670D01*
X99888499Y-86814971D01*
X99889917Y-86819645D01*
X99891000Y-86830641D01*
X99891000Y-87119359D01*
X99889917Y-87130355D01*
X99888499Y-87135029D01*
X99886200Y-87139330D01*
X99880971Y-87145702D01*
X99867357Y-87166076D01*
X99857980Y-87188715D01*
X99853200Y-87212749D01*
X99853200Y-87237253D01*
X99857981Y-87261286D01*
X99867358Y-87283925D01*
X99880971Y-87304298D01*
X99886200Y-87310670D01*
X99888499Y-87314971D01*
X99889917Y-87319645D01*
X99891000Y-87330641D01*
X99891000Y-87549001D01*
X99893402Y-87573387D01*
X99900515Y-87596836D01*
X99912066Y-87618447D01*
X99927611Y-87637389D01*
X99946553Y-87652934D01*
X99968164Y-87664485D01*
X99991613Y-87671598D01*
X100015999Y-87674000D01*
X100234359Y-87674000D01*
X100245355Y-87675083D01*
X100250029Y-87676501D01*
X100254330Y-87678800D01*
X100260702Y-87684029D01*
X100281076Y-87697643D01*
X100303715Y-87707020D01*
X100327749Y-87711800D01*
X100352253Y-87711800D01*
X100376286Y-87707019D01*
X100398925Y-87697642D01*
X100419298Y-87684029D01*
X100425670Y-87678800D01*
X100429971Y-87676501D01*
X100434645Y-87675083D01*
X100445641Y-87674000D01*
X100734359Y-87674000D01*
X100745355Y-87675083D01*
X100750029Y-87676501D01*
X100754330Y-87678800D01*
X100760702Y-87684029D01*
X100781076Y-87697643D01*
X100803715Y-87707020D01*
X100827749Y-87711800D01*
X100852253Y-87711800D01*
X100876286Y-87707019D01*
X100898925Y-87697642D01*
X100919298Y-87684029D01*
X100925670Y-87678800D01*
X100929971Y-87676501D01*
X100934645Y-87675083D01*
X100945641Y-87674000D01*
X101234359Y-87674000D01*
X101245355Y-87675083D01*
X101250029Y-87676501D01*
X101254330Y-87678800D01*
X101260702Y-87684029D01*
X101281076Y-87697643D01*
X101303715Y-87707020D01*
X101327749Y-87711800D01*
X101352253Y-87711800D01*
X101376286Y-87707019D01*
X101398925Y-87697642D01*
X101419298Y-87684029D01*
X101425670Y-87678800D01*
X101429971Y-87676501D01*
X101434645Y-87675083D01*
X101445641Y-87674000D01*
X101734359Y-87674000D01*
X101745355Y-87675083D01*
X101750029Y-87676501D01*
X101754330Y-87678800D01*
X101760702Y-87684029D01*
X101781076Y-87697643D01*
X101803715Y-87707020D01*
X101827749Y-87711800D01*
X101852253Y-87711800D01*
X101876286Y-87707019D01*
X101898925Y-87697642D01*
X101919298Y-87684029D01*
X101925670Y-87678800D01*
X101929971Y-87676501D01*
X101934645Y-87675083D01*
X101945641Y-87674000D01*
X102234359Y-87674000D01*
X102245355Y-87675083D01*
X102250029Y-87676501D01*
X102254330Y-87678800D01*
X102260702Y-87684029D01*
X102281076Y-87697643D01*
X102303715Y-87707020D01*
X102327749Y-87711800D01*
X102352253Y-87711800D01*
X102376286Y-87707019D01*
X102398925Y-87697642D01*
X102419298Y-87684029D01*
X102425670Y-87678800D01*
X102429971Y-87676501D01*
X102434645Y-87675083D01*
X102445641Y-87674000D01*
X102734359Y-87674000D01*
X102745355Y-87675083D01*
X102750029Y-87676501D01*
X102754330Y-87678800D01*
X102760702Y-87684029D01*
X102781076Y-87697643D01*
X102803715Y-87707020D01*
X102827749Y-87711800D01*
X102852253Y-87711800D01*
X102876286Y-87707019D01*
X102898925Y-87697642D01*
X102919298Y-87684029D01*
X102925670Y-87678800D01*
X102929971Y-87676501D01*
X102934645Y-87675083D01*
X102945641Y-87674000D01*
X103234359Y-87674000D01*
X103245355Y-87675083D01*
X103250029Y-87676501D01*
X103254330Y-87678800D01*
X103260702Y-87684029D01*
X103281076Y-87697643D01*
X103303715Y-87707020D01*
X103327749Y-87711800D01*
X103352253Y-87711800D01*
X103376286Y-87707019D01*
X103398925Y-87697642D01*
X103419298Y-87684029D01*
X103425670Y-87678800D01*
X103429971Y-87676501D01*
X103434645Y-87675083D01*
X103445641Y-87674000D01*
X103664001Y-87674000D01*
X103688387Y-87671598D01*
X103711836Y-87664485D01*
X103733447Y-87652934D01*
X103752389Y-87637389D01*
X103767934Y-87618447D01*
X103779485Y-87596836D01*
X103786598Y-87573387D01*
X103789000Y-87549001D01*
X103789000Y-87330641D01*
X103790083Y-87319645D01*
X103791501Y-87314971D01*
X103793800Y-87310670D01*
X103799029Y-87304298D01*
X103812643Y-87283924D01*
X103822020Y-87261285D01*
X103826800Y-87237251D01*
X103826800Y-87212747D01*
X103822019Y-87188714D01*
X103812642Y-87166075D01*
X103799029Y-87145702D01*
X103793800Y-87139330D01*
X103791501Y-87135029D01*
X103790083Y-87130355D01*
X103789000Y-87119359D01*
X103789000Y-86830641D01*
X103790083Y-86819645D01*
X103791501Y-86814971D01*
X103793800Y-86810670D01*
X103799029Y-86804298D01*
X103812643Y-86783924D01*
X103822020Y-86761285D01*
X103826800Y-86737251D01*
X103826800Y-86712747D01*
X103822019Y-86688714D01*
X103812642Y-86666075D01*
X103799029Y-86645702D01*
X103793800Y-86639330D01*
X103791501Y-86635029D01*
X103790083Y-86630355D01*
X103789000Y-86619359D01*
X103789000Y-86330641D01*
X103790083Y-86319645D01*
X103791501Y-86314971D01*
X103793800Y-86310670D01*
X103799029Y-86304298D01*
X103812643Y-86283924D01*
X103822020Y-86261285D01*
X103826800Y-86237251D01*
X103826800Y-86212747D01*
X103822019Y-86188714D01*
X103812642Y-86166075D01*
X103799029Y-86145702D01*
X103793800Y-86139330D01*
X103791501Y-86135029D01*
X103790083Y-86130355D01*
X103789000Y-86119359D01*
X103789000Y-85830641D01*
X103790083Y-85819645D01*
X103791501Y-85814971D01*
X103793800Y-85810670D01*
X103799029Y-85804298D01*
X103812643Y-85783924D01*
X103822020Y-85761285D01*
X103826800Y-85737251D01*
X103826800Y-85712747D01*
X103822019Y-85688714D01*
X103812642Y-85666075D01*
X103799029Y-85645702D01*
X103793800Y-85639330D01*
X103791501Y-85635029D01*
X103790083Y-85630355D01*
X103789000Y-85619359D01*
X103789000Y-85330641D01*
X103790083Y-85319645D01*
X103791501Y-85314971D01*
X103793800Y-85310670D01*
X103799029Y-85304298D01*
X103812643Y-85283924D01*
X103822020Y-85261285D01*
X103826800Y-85237251D01*
X103826800Y-85212747D01*
X103822019Y-85188714D01*
X103812642Y-85166075D01*
X103799029Y-85145702D01*
X103793800Y-85139330D01*
X103791501Y-85135029D01*
X103790083Y-85130355D01*
X103789000Y-85119359D01*
X103789000Y-84830641D01*
X103790083Y-84819645D01*
X103791501Y-84814971D01*
X103793800Y-84810670D01*
X103799029Y-84804298D01*
X103812643Y-84783924D01*
X103822020Y-84761285D01*
X103826800Y-84737251D01*
X103826800Y-84712747D01*
X103822019Y-84688714D01*
X103812642Y-84666075D01*
X103799029Y-84645702D01*
X103793800Y-84639330D01*
X103791501Y-84635029D01*
X103790083Y-84630355D01*
X103789000Y-84619359D01*
X103789000Y-84330641D01*
X103790083Y-84319645D01*
X103791501Y-84314971D01*
X103793800Y-84310670D01*
X103799029Y-84304298D01*
X103812643Y-84283924D01*
X103822020Y-84261285D01*
X103826800Y-84237251D01*
X103826800Y-84212747D01*
X103822019Y-84188714D01*
X103812642Y-84166075D01*
X103799029Y-84145702D01*
X103793800Y-84139330D01*
X103791501Y-84135029D01*
X103790083Y-84130355D01*
X103789000Y-84119359D01*
X103789000Y-83900999D01*
X103786598Y-83876613D01*
X103779485Y-83853164D01*
X103767934Y-83831553D01*
X103752389Y-83812611D01*
X103733447Y-83797066D01*
X103711836Y-83785515D01*
X103688387Y-83778402D01*
X103664001Y-83776000D01*
X103445641Y-83776000D01*
X103434645Y-83774917D01*
X103429971Y-83773499D01*
X103425670Y-83771200D01*
X103419298Y-83765971D01*
X103398924Y-83752357D01*
X103376285Y-83742980D01*
X103352251Y-83738200D01*
X103327747Y-83738200D01*
X103303714Y-83742981D01*
X103281075Y-83752358D01*
X103260702Y-83765971D01*
X103254330Y-83771200D01*
X103250029Y-83773499D01*
X103245355Y-83774917D01*
X103234359Y-83776000D01*
X102945641Y-83776000D01*
X102934645Y-83774917D01*
X102929971Y-83773499D01*
X102925670Y-83771200D01*
X102919298Y-83765971D01*
X102898924Y-83752357D01*
X102876285Y-83742980D01*
X102852251Y-83738200D01*
X102827747Y-83738200D01*
X102803714Y-83742981D01*
X102781075Y-83752358D01*
X102760702Y-83765971D01*
X102754330Y-83771200D01*
X102750029Y-83773499D01*
X102745355Y-83774917D01*
X102734359Y-83776000D01*
X102445641Y-83776000D01*
X102434645Y-83774917D01*
X102429971Y-83773499D01*
X102425670Y-83771200D01*
X102419298Y-83765971D01*
X102398924Y-83752357D01*
X102376285Y-83742980D01*
X102352251Y-83738200D01*
X102327747Y-83738200D01*
X102303714Y-83742981D01*
X102281075Y-83752358D01*
X102260702Y-83765971D01*
X102254330Y-83771200D01*
X102250029Y-83773499D01*
X102245355Y-83774917D01*
X102234359Y-83776000D01*
X101945641Y-83776000D01*
X101934645Y-83774917D01*
X101929971Y-83773499D01*
X101925670Y-83771200D01*
X101919298Y-83765971D01*
X101898924Y-83752357D01*
X101876285Y-83742980D01*
X101852251Y-83738200D01*
X101827747Y-83738200D01*
X101803714Y-83742981D01*
X101781075Y-83752358D01*
X101760702Y-83765971D01*
X101754330Y-83771200D01*
X101750029Y-83773499D01*
X101745355Y-83774917D01*
X101734359Y-83776000D01*
X101445641Y-83776000D01*
X101434645Y-83774917D01*
X101429971Y-83773499D01*
X101425670Y-83771200D01*
X101419298Y-83765971D01*
X101398924Y-83752357D01*
X101376285Y-83742980D01*
X101352251Y-83738200D01*
X101327747Y-83738200D01*
X101303714Y-83742981D01*
X101281075Y-83752358D01*
X101260702Y-83765971D01*
X101254330Y-83771200D01*
X101250029Y-83773499D01*
X101245355Y-83774917D01*
X101234359Y-83776000D01*
X100945641Y-83776000D01*
X100934645Y-83774917D01*
X100929971Y-83773499D01*
X100925670Y-83771200D01*
X100919298Y-83765971D01*
X100898924Y-83752357D01*
X100876285Y-83742980D01*
X100852251Y-83738200D01*
X100827747Y-83738200D01*
X100803714Y-83742981D01*
X100781075Y-83752358D01*
X100760702Y-83765971D01*
X100754330Y-83771200D01*
X100750029Y-83773499D01*
X100745355Y-83774917D01*
X100734359Y-83776000D01*
X100445641Y-83776000D01*
X100434645Y-83774917D01*
X100429971Y-83773499D01*
X100425670Y-83771200D01*
X100419298Y-83765971D01*
X100398924Y-83752357D01*
X100376285Y-83742980D01*
X100352251Y-83738200D01*
X100327747Y-83738200D01*
X100303714Y-83742981D01*
X100281075Y-83752358D01*
X100260702Y-83765971D01*
X100254330Y-83771200D01*
X100250029Y-83773499D01*
X100245355Y-83774917D01*
X100234359Y-83776000D01*
X100015999Y-83776000D01*
X99991613Y-83778402D01*
X99968164Y-83785515D01*
X99946553Y-83797066D01*
X99927611Y-83812611D01*
X99912066Y-83831553D01*
X99900515Y-83853164D01*
X99893402Y-83876613D01*
X99891000Y-83900999D01*
X99891000Y-84119359D01*
X99889917Y-84130355D01*
X99888499Y-84135029D01*
X99886200Y-84139330D01*
X99880971Y-84145702D01*
X99867357Y-84166076D01*
X99857980Y-84188715D01*
X99853200Y-84212749D01*
X98951800Y-84212749D01*
X98951800Y-84212747D01*
X98947019Y-84188714D01*
X98937642Y-84166075D01*
X98924029Y-84145702D01*
X98918800Y-84139330D01*
X98916501Y-84135029D01*
X98915083Y-84130355D01*
X98914000Y-84119359D01*
X98914000Y-83830641D01*
X98915083Y-83819645D01*
X98916501Y-83814971D01*
X98918800Y-83810669D01*
X98921896Y-83806896D01*
X98925669Y-83803800D01*
X98929971Y-83801501D01*
X98934645Y-83800083D01*
X98945641Y-83799000D01*
X99789001Y-83799000D01*
X99813387Y-83796598D01*
X99836836Y-83789485D01*
X99858447Y-83777934D01*
X99877389Y-83762389D01*
X99892934Y-83743447D01*
X99904485Y-83721836D01*
X99911598Y-83698387D01*
X99914000Y-83674001D01*
X99914000Y-82830641D01*
X99915083Y-82819645D01*
X99916501Y-82814971D01*
X99918800Y-82810669D01*
X99921896Y-82806896D01*
X99925669Y-82803800D01*
X99929971Y-82801501D01*
X99934645Y-82800083D01*
X99945641Y-82799000D01*
X100234359Y-82799000D01*
X100245355Y-82800083D01*
X100245355Y-82800083D01*
G37*
G36*
X103317417Y-84127540D02*
G01*
X103346081Y-84136235D01*
X103372495Y-84150354D01*
X103395646Y-84169354D01*
X103414646Y-84192505D01*
X103428765Y-84218919D01*
X103437460Y-84247583D01*
X103441000Y-84283527D01*
X103441000Y-87166473D01*
X103437460Y-87202417D01*
X103428765Y-87231081D01*
X103414646Y-87257495D01*
X103395646Y-87280646D01*
X103372495Y-87299646D01*
X103346081Y-87313765D01*
X103317417Y-87322460D01*
X103281473Y-87326000D01*
X100398527Y-87326000D01*
X100362583Y-87322460D01*
X100333919Y-87313765D01*
X100307505Y-87299646D01*
X100284354Y-87280646D01*
X100265354Y-87257495D01*
X100251235Y-87231081D01*
X100242540Y-87202417D01*
X100239000Y-87166473D01*
X100239000Y-84283527D01*
X100242540Y-84247583D01*
X100251235Y-84218919D01*
X100265354Y-84192505D01*
X100284354Y-84169354D01*
X100307505Y-84150354D01*
X100333919Y-84136235D01*
X100362583Y-84127540D01*
X100398527Y-84124000D01*
X103281473Y-84124000D01*
X103317417Y-84127540D01*
X103317417Y-84127540D01*
G37*
G36*
X122504468Y-87398565D02*
G01*
X122543138Y-87410296D01*
X122578777Y-87429346D01*
X122610017Y-87454983D01*
X122635654Y-87486223D01*
X122654704Y-87521862D01*
X122666435Y-87560532D01*
X122671000Y-87606888D01*
X122671000Y-88258112D01*
X122666435Y-88304468D01*
X122654704Y-88343138D01*
X122635654Y-88378777D01*
X122610017Y-88410017D01*
X122578777Y-88435654D01*
X122543138Y-88454704D01*
X122504468Y-88466435D01*
X122458112Y-88471000D01*
X121381888Y-88471000D01*
X121335532Y-88466435D01*
X121296862Y-88454704D01*
X121261223Y-88435654D01*
X121229983Y-88410017D01*
X121204346Y-88378777D01*
X121185296Y-88343138D01*
X121173565Y-88304468D01*
X121169000Y-88258112D01*
X121169000Y-87606888D01*
X121173565Y-87560532D01*
X121185296Y-87521862D01*
X121204346Y-87486223D01*
X121229983Y-87454983D01*
X121261223Y-87429346D01*
X121296862Y-87410296D01*
X121335532Y-87398565D01*
X121381888Y-87394000D01*
X122458112Y-87394000D01*
X122504468Y-87398565D01*
X122504468Y-87398565D01*
G37*
G36*
X125044468Y-87398565D02*
G01*
X125083138Y-87410296D01*
X125118777Y-87429346D01*
X125150017Y-87454983D01*
X125175654Y-87486223D01*
X125194704Y-87521862D01*
X125206435Y-87560532D01*
X125211000Y-87606888D01*
X125211000Y-88258112D01*
X125206435Y-88304468D01*
X125194704Y-88343138D01*
X125175654Y-88378777D01*
X125150017Y-88410017D01*
X125118777Y-88435654D01*
X125083138Y-88454704D01*
X125044468Y-88466435D01*
X124998112Y-88471000D01*
X123921888Y-88471000D01*
X123875532Y-88466435D01*
X123836862Y-88454704D01*
X123801223Y-88435654D01*
X123769983Y-88410017D01*
X123744346Y-88378777D01*
X123725296Y-88343138D01*
X123713565Y-88304468D01*
X123709000Y-88258112D01*
X123709000Y-87606888D01*
X123713565Y-87560532D01*
X123725296Y-87521862D01*
X123744346Y-87486223D01*
X123769983Y-87454983D01*
X123801223Y-87429346D01*
X123836862Y-87410296D01*
X123875532Y-87398565D01*
X123921888Y-87394000D01*
X124998112Y-87394000D01*
X125044468Y-87398565D01*
X125044468Y-87398565D01*
G37*
G36*
X128931000Y-87351000D02*
G01*
X127279000Y-87351000D01*
X127279000Y-85949000D01*
X128931000Y-85949000D01*
X128931000Y-87351000D01*
X128931000Y-87351000D01*
G37*
G36*
X136881000Y-87351000D02*
G01*
X135229000Y-87351000D01*
X135229000Y-85949000D01*
X136881000Y-85949000D01*
X136881000Y-87351000D01*
X136881000Y-87351000D01*
G37*
G36*
X115680443Y-84830519D02*
G01*
X115746627Y-84837037D01*
X115916466Y-84888557D01*
X116072991Y-84972222D01*
X116108729Y-85001552D01*
X116210186Y-85084814D01*
X116276874Y-85166075D01*
X116322778Y-85222009D01*
X116406443Y-85378534D01*
X116457963Y-85548373D01*
X116475359Y-85725000D01*
X116457963Y-85901627D01*
X116406443Y-86071466D01*
X116322778Y-86227991D01*
X116295454Y-86261285D01*
X116210186Y-86365186D01*
X116131467Y-86429788D01*
X116072991Y-86477778D01*
X115916466Y-86561443D01*
X115746627Y-86612963D01*
X115681686Y-86619359D01*
X115614260Y-86626000D01*
X115525740Y-86626000D01*
X115458314Y-86619359D01*
X115393373Y-86612963D01*
X115223534Y-86561443D01*
X115067009Y-86477778D01*
X115008533Y-86429788D01*
X114929814Y-86365186D01*
X114844546Y-86261285D01*
X114817222Y-86227991D01*
X114733557Y-86071466D01*
X114682037Y-85901627D01*
X114664641Y-85725000D01*
X114682037Y-85548373D01*
X114733557Y-85378534D01*
X114817222Y-85222009D01*
X114863126Y-85166075D01*
X114929814Y-85084814D01*
X115031271Y-85001552D01*
X115067009Y-84972222D01*
X115223534Y-84888557D01*
X115393373Y-84837037D01*
X115459557Y-84830519D01*
X115525740Y-84824000D01*
X115614260Y-84824000D01*
X115680443Y-84830519D01*
X115680443Y-84830519D01*
G37*
G36*
X87740443Y-84830519D02*
G01*
X87806627Y-84837037D01*
X87976466Y-84888557D01*
X88132991Y-84972222D01*
X88168729Y-85001552D01*
X88270186Y-85084814D01*
X88336874Y-85166075D01*
X88382778Y-85222009D01*
X88466443Y-85378534D01*
X88517963Y-85548373D01*
X88535359Y-85725000D01*
X88517963Y-85901627D01*
X88466443Y-86071466D01*
X88382778Y-86227991D01*
X88355454Y-86261285D01*
X88270186Y-86365186D01*
X88191467Y-86429788D01*
X88132991Y-86477778D01*
X87976466Y-86561443D01*
X87806627Y-86612963D01*
X87741686Y-86619359D01*
X87674260Y-86626000D01*
X87585740Y-86626000D01*
X87518314Y-86619359D01*
X87453373Y-86612963D01*
X87283534Y-86561443D01*
X87127009Y-86477778D01*
X87068533Y-86429788D01*
X86989814Y-86365186D01*
X86904546Y-86261285D01*
X86877222Y-86227991D01*
X86793557Y-86071466D01*
X86742037Y-85901627D01*
X86724641Y-85725000D01*
X86742037Y-85548373D01*
X86793557Y-85378534D01*
X86877222Y-85222009D01*
X86923126Y-85166075D01*
X86989814Y-85084814D01*
X87091271Y-85001552D01*
X87127009Y-84972222D01*
X87283534Y-84888557D01*
X87453373Y-84837037D01*
X87519557Y-84830519D01*
X87585740Y-84824000D01*
X87674260Y-84824000D01*
X87740443Y-84830519D01*
X87740443Y-84830519D01*
G37*
G36*
X122504468Y-85523565D02*
G01*
X122543138Y-85535296D01*
X122578777Y-85554346D01*
X122610017Y-85579983D01*
X122635654Y-85611223D01*
X122654704Y-85646862D01*
X122666435Y-85685532D01*
X122671000Y-85731888D01*
X122671000Y-86383112D01*
X122666435Y-86429468D01*
X122654704Y-86468138D01*
X122635654Y-86503777D01*
X122610017Y-86535017D01*
X122578777Y-86560654D01*
X122543138Y-86579704D01*
X122504468Y-86591435D01*
X122458112Y-86596000D01*
X121381888Y-86596000D01*
X121335532Y-86591435D01*
X121296862Y-86579704D01*
X121261223Y-86560654D01*
X121229983Y-86535017D01*
X121204346Y-86503777D01*
X121185296Y-86468138D01*
X121173565Y-86429468D01*
X121169000Y-86383112D01*
X121169000Y-85731888D01*
X121173565Y-85685532D01*
X121185296Y-85646862D01*
X121204346Y-85611223D01*
X121229983Y-85579983D01*
X121261223Y-85554346D01*
X121296862Y-85535296D01*
X121335532Y-85523565D01*
X121381888Y-85519000D01*
X122458112Y-85519000D01*
X122504468Y-85523565D01*
X122504468Y-85523565D01*
G37*
G36*
X125044468Y-85523565D02*
G01*
X125083138Y-85535296D01*
X125118777Y-85554346D01*
X125150017Y-85579983D01*
X125175654Y-85611223D01*
X125194704Y-85646862D01*
X125206435Y-85685532D01*
X125211000Y-85731888D01*
X125211000Y-86383112D01*
X125206435Y-86429468D01*
X125194704Y-86468138D01*
X125175654Y-86503777D01*
X125150017Y-86535017D01*
X125118777Y-86560654D01*
X125083138Y-86579704D01*
X125044468Y-86591435D01*
X124998112Y-86596000D01*
X123921888Y-86596000D01*
X123875532Y-86591435D01*
X123836862Y-86579704D01*
X123801223Y-86560654D01*
X123769983Y-86535017D01*
X123744346Y-86503777D01*
X123725296Y-86468138D01*
X123713565Y-86429468D01*
X123709000Y-86383112D01*
X123709000Y-85731888D01*
X123713565Y-85685532D01*
X123725296Y-85646862D01*
X123744346Y-85611223D01*
X123769983Y-85579983D01*
X123801223Y-85554346D01*
X123836862Y-85535296D01*
X123875532Y-85523565D01*
X123921888Y-85519000D01*
X124998112Y-85519000D01*
X125044468Y-85523565D01*
X125044468Y-85523565D01*
G37*
G36*
X95834468Y-84223565D02*
G01*
X95873138Y-84235296D01*
X95908777Y-84254346D01*
X95940017Y-84279983D01*
X95965654Y-84311223D01*
X95984704Y-84346862D01*
X95996435Y-84385532D01*
X96001000Y-84431888D01*
X96001000Y-85083112D01*
X95996435Y-85129468D01*
X95984704Y-85168138D01*
X95965654Y-85203777D01*
X95940017Y-85235017D01*
X95908777Y-85260654D01*
X95873138Y-85279704D01*
X95834468Y-85291435D01*
X95788112Y-85296000D01*
X94711888Y-85296000D01*
X94665532Y-85291435D01*
X94626862Y-85279704D01*
X94591223Y-85260654D01*
X94559983Y-85235017D01*
X94534346Y-85203777D01*
X94515296Y-85168138D01*
X94503565Y-85129468D01*
X94499000Y-85083112D01*
X94499000Y-84431888D01*
X94503565Y-84385532D01*
X94515296Y-84346862D01*
X94534346Y-84311223D01*
X94559983Y-84279983D01*
X94591223Y-84254346D01*
X94626862Y-84235296D01*
X94665532Y-84223565D01*
X94711888Y-84219000D01*
X95788112Y-84219000D01*
X95834468Y-84223565D01*
X95834468Y-84223565D01*
G37*
G36*
X68368241Y-81709760D02*
G01*
X68632305Y-81819139D01*
X68869958Y-81977934D01*
X69072066Y-82180042D01*
X69230861Y-82417695D01*
X69340240Y-82681759D01*
X69396000Y-82962088D01*
X69396000Y-83247912D01*
X69340240Y-83528241D01*
X69230861Y-83792305D01*
X69072066Y-84029958D01*
X68869958Y-84232066D01*
X68632305Y-84390861D01*
X68368241Y-84500240D01*
X68087912Y-84556000D01*
X67802088Y-84556000D01*
X67521759Y-84500240D01*
X67257695Y-84390861D01*
X67020042Y-84232066D01*
X66817934Y-84029958D01*
X66659139Y-83792305D01*
X66549760Y-83528241D01*
X66494000Y-83247912D01*
X66494000Y-82962088D01*
X66549760Y-82681759D01*
X66659139Y-82417695D01*
X66817934Y-82180042D01*
X67020042Y-81977934D01*
X67257695Y-81819139D01*
X67521759Y-81709760D01*
X67802088Y-81654000D01*
X68087912Y-81654000D01*
X68368241Y-81709760D01*
X68368241Y-81709760D01*
G37*
G36*
X87740443Y-82290519D02*
G01*
X87806627Y-82297037D01*
X87976466Y-82348557D01*
X88132991Y-82432222D01*
X88137866Y-82436223D01*
X88270186Y-82544814D01*
X88326349Y-82613250D01*
X88382778Y-82682009D01*
X88382779Y-82682011D01*
X88457949Y-82822642D01*
X88466443Y-82838534D01*
X88517963Y-83008373D01*
X88535359Y-83185000D01*
X88517963Y-83361627D01*
X88466443Y-83531466D01*
X88382778Y-83687991D01*
X88374246Y-83698387D01*
X88270186Y-83825186D01*
X88194864Y-83887000D01*
X88132991Y-83937778D01*
X87976466Y-84021443D01*
X87806627Y-84072963D01*
X87740443Y-84079481D01*
X87674260Y-84086000D01*
X87585740Y-84086000D01*
X87519557Y-84079481D01*
X87453373Y-84072963D01*
X87283534Y-84021443D01*
X87127009Y-83937778D01*
X87065136Y-83887000D01*
X86989814Y-83825186D01*
X86885754Y-83698387D01*
X86877222Y-83687991D01*
X86793557Y-83531466D01*
X86742037Y-83361627D01*
X86724641Y-83185000D01*
X86742037Y-83008373D01*
X86793557Y-82838534D01*
X86802052Y-82822642D01*
X86877221Y-82682011D01*
X86877222Y-82682009D01*
X86933651Y-82613250D01*
X86989814Y-82544814D01*
X87122134Y-82436223D01*
X87127009Y-82432222D01*
X87283534Y-82348557D01*
X87453373Y-82297037D01*
X87519557Y-82290519D01*
X87585740Y-82284000D01*
X87674260Y-82284000D01*
X87740443Y-82290519D01*
X87740443Y-82290519D01*
G37*
G36*
X115680443Y-82290519D02*
G01*
X115746627Y-82297037D01*
X115916466Y-82348557D01*
X116072991Y-82432222D01*
X116077866Y-82436223D01*
X116210186Y-82544814D01*
X116266349Y-82613250D01*
X116322778Y-82682009D01*
X116322779Y-82682011D01*
X116397949Y-82822642D01*
X116406443Y-82838534D01*
X116457963Y-83008373D01*
X116475359Y-83185000D01*
X116457963Y-83361627D01*
X116406443Y-83531466D01*
X116322778Y-83687991D01*
X116314246Y-83698387D01*
X116210186Y-83825186D01*
X116134864Y-83887000D01*
X116072991Y-83937778D01*
X115916466Y-84021443D01*
X115746627Y-84072963D01*
X115680443Y-84079481D01*
X115614260Y-84086000D01*
X115525740Y-84086000D01*
X115459557Y-84079481D01*
X115393373Y-84072963D01*
X115223534Y-84021443D01*
X115067009Y-83937778D01*
X115005136Y-83887000D01*
X114929814Y-83825186D01*
X114825754Y-83698387D01*
X114817222Y-83687991D01*
X114733557Y-83531466D01*
X114682037Y-83361627D01*
X114664641Y-83185000D01*
X114682037Y-83008373D01*
X114733557Y-82838534D01*
X114742052Y-82822642D01*
X114817221Y-82682011D01*
X114817222Y-82682009D01*
X114873651Y-82613250D01*
X114929814Y-82544814D01*
X115062134Y-82436223D01*
X115067009Y-82432222D01*
X115223534Y-82348557D01*
X115393373Y-82297037D01*
X115459557Y-82290519D01*
X115525740Y-82284000D01*
X115614260Y-82284000D01*
X115680443Y-82290519D01*
X115680443Y-82290519D01*
G37*
G36*
X125044468Y-82953565D02*
G01*
X125083138Y-82965296D01*
X125118777Y-82984346D01*
X125150017Y-83009983D01*
X125175654Y-83041223D01*
X125194704Y-83076862D01*
X125206435Y-83115532D01*
X125211000Y-83161888D01*
X125211000Y-83813112D01*
X125206435Y-83859468D01*
X125194704Y-83898138D01*
X125175654Y-83933777D01*
X125150017Y-83965017D01*
X125118777Y-83990654D01*
X125083138Y-84009704D01*
X125044468Y-84021435D01*
X124998112Y-84026000D01*
X123921888Y-84026000D01*
X123875532Y-84021435D01*
X123836862Y-84009704D01*
X123801223Y-83990654D01*
X123769983Y-83965017D01*
X123744346Y-83933777D01*
X123725296Y-83898138D01*
X123713565Y-83859468D01*
X123709000Y-83813112D01*
X123709000Y-83161888D01*
X123713565Y-83115532D01*
X123725296Y-83076862D01*
X123744346Y-83041223D01*
X123769983Y-83009983D01*
X123801223Y-82984346D01*
X123836862Y-82965296D01*
X123875532Y-82953565D01*
X123921888Y-82949000D01*
X124998112Y-82949000D01*
X125044468Y-82953565D01*
X125044468Y-82953565D01*
G37*
G36*
X95834468Y-82348565D02*
G01*
X95873138Y-82360296D01*
X95908777Y-82379346D01*
X95940017Y-82404983D01*
X95965654Y-82436223D01*
X95984704Y-82471862D01*
X95996435Y-82510532D01*
X96001000Y-82556888D01*
X96001000Y-83208112D01*
X95996435Y-83254468D01*
X95984704Y-83293138D01*
X95965654Y-83328777D01*
X95940017Y-83360017D01*
X95908777Y-83385654D01*
X95873138Y-83404704D01*
X95834468Y-83416435D01*
X95788112Y-83421000D01*
X94711888Y-83421000D01*
X94665532Y-83416435D01*
X94626862Y-83404704D01*
X94591223Y-83385654D01*
X94559983Y-83360017D01*
X94534346Y-83328777D01*
X94515296Y-83293138D01*
X94503565Y-83254468D01*
X94499000Y-83208112D01*
X94499000Y-82556888D01*
X94503565Y-82510532D01*
X94515296Y-82471862D01*
X94534346Y-82436223D01*
X94559983Y-82404983D01*
X94591223Y-82379346D01*
X94626862Y-82360296D01*
X94665532Y-82348565D01*
X94711888Y-82344000D01*
X95788112Y-82344000D01*
X95834468Y-82348565D01*
X95834468Y-82348565D01*
G37*
G36*
X136881000Y-82961000D02*
G01*
X135229000Y-82961000D01*
X135229000Y-81559000D01*
X136881000Y-81559000D01*
X136881000Y-82961000D01*
X136881000Y-82961000D01*
G37*
G36*
X128931000Y-82961000D02*
G01*
X127279000Y-82961000D01*
X127279000Y-81559000D01*
X128931000Y-81559000D01*
X128931000Y-82961000D01*
X128931000Y-82961000D01*
G37*
G36*
X125044468Y-81078565D02*
G01*
X125083138Y-81090296D01*
X125118777Y-81109346D01*
X125150017Y-81134983D01*
X125175654Y-81166223D01*
X125194704Y-81201862D01*
X125206435Y-81240532D01*
X125211000Y-81286888D01*
X125211000Y-81938112D01*
X125206435Y-81984468D01*
X125194704Y-82023138D01*
X125175654Y-82058777D01*
X125150017Y-82090017D01*
X125118777Y-82115654D01*
X125083138Y-82134704D01*
X125044468Y-82146435D01*
X124998112Y-82151000D01*
X123921888Y-82151000D01*
X123875532Y-82146435D01*
X123836862Y-82134704D01*
X123801223Y-82115654D01*
X123769983Y-82090017D01*
X123744346Y-82058777D01*
X123725296Y-82023138D01*
X123713565Y-81984468D01*
X123709000Y-81938112D01*
X123709000Y-81286888D01*
X123713565Y-81240532D01*
X123725296Y-81201862D01*
X123744346Y-81166223D01*
X123769983Y-81134983D01*
X123801223Y-81109346D01*
X123836862Y-81090296D01*
X123875532Y-81078565D01*
X123921888Y-81074000D01*
X124998112Y-81074000D01*
X125044468Y-81078565D01*
X125044468Y-81078565D01*
G37*
G36*
X83134468Y-81048565D02*
G01*
X83173138Y-81060296D01*
X83208777Y-81079346D01*
X83240017Y-81104983D01*
X83265654Y-81136223D01*
X83284704Y-81171862D01*
X83296435Y-81210532D01*
X83301000Y-81256888D01*
X83301000Y-81908112D01*
X83296435Y-81954468D01*
X83284704Y-81993138D01*
X83265654Y-82028777D01*
X83240017Y-82060017D01*
X83208777Y-82085654D01*
X83173138Y-82104704D01*
X83134468Y-82116435D01*
X83088112Y-82121000D01*
X82011888Y-82121000D01*
X81965532Y-82116435D01*
X81926862Y-82104704D01*
X81891223Y-82085654D01*
X81859983Y-82060017D01*
X81834346Y-82028777D01*
X81815296Y-81993138D01*
X81803565Y-81954468D01*
X81799000Y-81908112D01*
X81799000Y-81256888D01*
X81803565Y-81210532D01*
X81815296Y-81171862D01*
X81834346Y-81136223D01*
X81859983Y-81104983D01*
X81891223Y-81079346D01*
X81926862Y-81060296D01*
X81965532Y-81048565D01*
X82011888Y-81044000D01*
X83088112Y-81044000D01*
X83134468Y-81048565D01*
X83134468Y-81048565D01*
G37*
G36*
X80600000Y-82010000D02*
G01*
X78150000Y-82010000D01*
X78150000Y-81080000D01*
X80600000Y-81080000D01*
X80600000Y-82010000D01*
X80600000Y-82010000D01*
G37*
G36*
X115680442Y-79750518D02*
G01*
X115746627Y-79757037D01*
X115916466Y-79808557D01*
X116072991Y-79892222D01*
X116108729Y-79921552D01*
X116210186Y-80004814D01*
X116293448Y-80106271D01*
X116322778Y-80142009D01*
X116406443Y-80298534D01*
X116457963Y-80468373D01*
X116475359Y-80645000D01*
X116457963Y-80821627D01*
X116406443Y-80991466D01*
X116322778Y-81147991D01*
X116318781Y-81152861D01*
X116210186Y-81285186D01*
X116108729Y-81368448D01*
X116072991Y-81397778D01*
X115916466Y-81481443D01*
X115746627Y-81532963D01*
X115680442Y-81539482D01*
X115614260Y-81546000D01*
X115525740Y-81546000D01*
X115459558Y-81539482D01*
X115393373Y-81532963D01*
X115223534Y-81481443D01*
X115067009Y-81397778D01*
X115031271Y-81368448D01*
X114929814Y-81285186D01*
X114821219Y-81152861D01*
X114817222Y-81147991D01*
X114733557Y-80991466D01*
X114682037Y-80821627D01*
X114664641Y-80645000D01*
X114682037Y-80468373D01*
X114733557Y-80298534D01*
X114817222Y-80142009D01*
X114846552Y-80106271D01*
X114929814Y-80004814D01*
X115031271Y-79921552D01*
X115067009Y-79892222D01*
X115223534Y-79808557D01*
X115393373Y-79757037D01*
X115459558Y-79750518D01*
X115525740Y-79744000D01*
X115614260Y-79744000D01*
X115680442Y-79750518D01*
X115680442Y-79750518D01*
G37*
G36*
X87740442Y-79750518D02*
G01*
X87806627Y-79757037D01*
X87976466Y-79808557D01*
X88132991Y-79892222D01*
X88168729Y-79921552D01*
X88270186Y-80004814D01*
X88353448Y-80106271D01*
X88382778Y-80142009D01*
X88466443Y-80298534D01*
X88517963Y-80468373D01*
X88535359Y-80645000D01*
X88517963Y-80821627D01*
X88466443Y-80991466D01*
X88382778Y-81147991D01*
X88378781Y-81152861D01*
X88270186Y-81285186D01*
X88168729Y-81368448D01*
X88132991Y-81397778D01*
X87976466Y-81481443D01*
X87806627Y-81532963D01*
X87740442Y-81539482D01*
X87674260Y-81546000D01*
X87585740Y-81546000D01*
X87519558Y-81539482D01*
X87453373Y-81532963D01*
X87283534Y-81481443D01*
X87127009Y-81397778D01*
X87091271Y-81368448D01*
X86989814Y-81285186D01*
X86881219Y-81152861D01*
X86877222Y-81147991D01*
X86793557Y-80991466D01*
X86742037Y-80821627D01*
X86724641Y-80645000D01*
X86742037Y-80468373D01*
X86793557Y-80298534D01*
X86877222Y-80142009D01*
X86906552Y-80106271D01*
X86989814Y-80004814D01*
X87091271Y-79921552D01*
X87127009Y-79892222D01*
X87283534Y-79808557D01*
X87453373Y-79757037D01*
X87519558Y-79750518D01*
X87585740Y-79744000D01*
X87674260Y-79744000D01*
X87740442Y-79750518D01*
X87740442Y-79750518D01*
G37*
G36*
X80600000Y-78885623D02*
G01*
X80586611Y-78896611D01*
X80571066Y-78915553D01*
X80559515Y-78937164D01*
X80552402Y-78960613D01*
X80550000Y-78984999D01*
X80550000Y-80580000D01*
X78200000Y-80580000D01*
X78200000Y-78984999D01*
X78197598Y-78960613D01*
X78190485Y-78937164D01*
X78178934Y-78915553D01*
X78163389Y-78896611D01*
X78150000Y-78885623D01*
X78150000Y-78010000D01*
X80600000Y-78010000D01*
X80600000Y-78885623D01*
X80600000Y-78885623D01*
G37*
G36*
X83134468Y-79173565D02*
G01*
X83173138Y-79185296D01*
X83208777Y-79204346D01*
X83240017Y-79229983D01*
X83265654Y-79261223D01*
X83284704Y-79296862D01*
X83296435Y-79335532D01*
X83301000Y-79381888D01*
X83301000Y-80033112D01*
X83296435Y-80079468D01*
X83284704Y-80118138D01*
X83265654Y-80153777D01*
X83240017Y-80185017D01*
X83208777Y-80210654D01*
X83173138Y-80229704D01*
X83134468Y-80241435D01*
X83088112Y-80246000D01*
X82011888Y-80246000D01*
X81965532Y-80241435D01*
X81926862Y-80229704D01*
X81891223Y-80210654D01*
X81859983Y-80185017D01*
X81834346Y-80153777D01*
X81815296Y-80118138D01*
X81803565Y-80079468D01*
X81799000Y-80033112D01*
X81799000Y-79381888D01*
X81803565Y-79335532D01*
X81815296Y-79296862D01*
X81834346Y-79261223D01*
X81859983Y-79229983D01*
X81891223Y-79204346D01*
X81926862Y-79185296D01*
X81965532Y-79173565D01*
X82011888Y-79169000D01*
X83088112Y-79169000D01*
X83134468Y-79173565D01*
X83134468Y-79173565D01*
G37*
G36*
X122504468Y-78508565D02*
G01*
X122543138Y-78520296D01*
X122578777Y-78539346D01*
X122610017Y-78564983D01*
X122635654Y-78596223D01*
X122654704Y-78631862D01*
X122666435Y-78670532D01*
X122671000Y-78716888D01*
X122671000Y-79368112D01*
X122666435Y-79414468D01*
X122654704Y-79453138D01*
X122635654Y-79488777D01*
X122610017Y-79520017D01*
X122578777Y-79545654D01*
X122543138Y-79564704D01*
X122504468Y-79576435D01*
X122458112Y-79581000D01*
X121381888Y-79581000D01*
X121335532Y-79576435D01*
X121296862Y-79564704D01*
X121261223Y-79545654D01*
X121229983Y-79520017D01*
X121204346Y-79488777D01*
X121185296Y-79453138D01*
X121173565Y-79414468D01*
X121169000Y-79368112D01*
X121169000Y-78716888D01*
X121173565Y-78670532D01*
X121185296Y-78631862D01*
X121204346Y-78596223D01*
X121229983Y-78564983D01*
X121261223Y-78539346D01*
X121296862Y-78520296D01*
X121335532Y-78508565D01*
X121381888Y-78504000D01*
X122458112Y-78504000D01*
X122504468Y-78508565D01*
X122504468Y-78508565D01*
G37*
G36*
X125044468Y-78508565D02*
G01*
X125083138Y-78520296D01*
X125118777Y-78539346D01*
X125150017Y-78564983D01*
X125175654Y-78596223D01*
X125194704Y-78631862D01*
X125206435Y-78670532D01*
X125211000Y-78716888D01*
X125211000Y-79368112D01*
X125206435Y-79414468D01*
X125194704Y-79453138D01*
X125175654Y-79488777D01*
X125150017Y-79520017D01*
X125118777Y-79545654D01*
X125083138Y-79564704D01*
X125044468Y-79576435D01*
X124998112Y-79581000D01*
X123921888Y-79581000D01*
X123875532Y-79576435D01*
X123836862Y-79564704D01*
X123801223Y-79545654D01*
X123769983Y-79520017D01*
X123744346Y-79488777D01*
X123725296Y-79453138D01*
X123713565Y-79414468D01*
X123709000Y-79368112D01*
X123709000Y-78716888D01*
X123713565Y-78670532D01*
X123725296Y-78631862D01*
X123744346Y-78596223D01*
X123769983Y-78564983D01*
X123801223Y-78539346D01*
X123836862Y-78520296D01*
X123875532Y-78508565D01*
X123921888Y-78504000D01*
X124998112Y-78504000D01*
X125044468Y-78508565D01*
X125044468Y-78508565D01*
G37*
G36*
X69396000Y-79556000D02*
G01*
X66494000Y-79556000D01*
X66494000Y-76654000D01*
X69396000Y-76654000D01*
X69396000Y-79556000D01*
X69396000Y-79556000D01*
G37*
G36*
X88531000Y-79006000D02*
G01*
X86729000Y-79006000D01*
X86729000Y-77204000D01*
X88531000Y-77204000D01*
X88531000Y-79006000D01*
X88531000Y-79006000D01*
G37*
G36*
X115680443Y-77210519D02*
G01*
X115746627Y-77217037D01*
X115916466Y-77268557D01*
X116072991Y-77352222D01*
X116108729Y-77381552D01*
X116210186Y-77464814D01*
X116293448Y-77566271D01*
X116322778Y-77602009D01*
X116406443Y-77758534D01*
X116457963Y-77928373D01*
X116475359Y-78105000D01*
X116457963Y-78281627D01*
X116406443Y-78451466D01*
X116322778Y-78607991D01*
X116303187Y-78631862D01*
X116210186Y-78745186D01*
X116108729Y-78828448D01*
X116072991Y-78857778D01*
X116072989Y-78857779D01*
X115924472Y-78937164D01*
X115916466Y-78941443D01*
X115746627Y-78992963D01*
X115680443Y-78999481D01*
X115614260Y-79006000D01*
X115525740Y-79006000D01*
X115459557Y-78999481D01*
X115393373Y-78992963D01*
X115223534Y-78941443D01*
X115215529Y-78937164D01*
X115067011Y-78857779D01*
X115067009Y-78857778D01*
X115031271Y-78828448D01*
X114929814Y-78745186D01*
X114836813Y-78631862D01*
X114817222Y-78607991D01*
X114733557Y-78451466D01*
X114682037Y-78281627D01*
X114664641Y-78105000D01*
X114682037Y-77928373D01*
X114733557Y-77758534D01*
X114817222Y-77602009D01*
X114846552Y-77566271D01*
X114929814Y-77464814D01*
X115031271Y-77381552D01*
X115067009Y-77352222D01*
X115223534Y-77268557D01*
X115393373Y-77217037D01*
X115459557Y-77210519D01*
X115525740Y-77204000D01*
X115614260Y-77204000D01*
X115680443Y-77210519D01*
X115680443Y-77210519D01*
G37*
G36*
X128931000Y-78461000D02*
G01*
X127279000Y-78461000D01*
X127279000Y-77059000D01*
X128931000Y-77059000D01*
X128931000Y-78461000D01*
X128931000Y-78461000D01*
G37*
G36*
X136881000Y-78461000D02*
G01*
X135229000Y-78461000D01*
X135229000Y-77059000D01*
X136881000Y-77059000D01*
X136881000Y-78461000D01*
X136881000Y-78461000D01*
G37*
G36*
X125044468Y-76633565D02*
G01*
X125083138Y-76645296D01*
X125118777Y-76664346D01*
X125150017Y-76689983D01*
X125175654Y-76721223D01*
X125194704Y-76756862D01*
X125206435Y-76795532D01*
X125211000Y-76841888D01*
X125211000Y-77493112D01*
X125206435Y-77539468D01*
X125194704Y-77578138D01*
X125175654Y-77613777D01*
X125150017Y-77645017D01*
X125118777Y-77670654D01*
X125083138Y-77689704D01*
X125044468Y-77701435D01*
X124998112Y-77706000D01*
X123921888Y-77706000D01*
X123875532Y-77701435D01*
X123836862Y-77689704D01*
X123801223Y-77670654D01*
X123769983Y-77645017D01*
X123744346Y-77613777D01*
X123725296Y-77578138D01*
X123713565Y-77539468D01*
X123709000Y-77493112D01*
X123709000Y-76841888D01*
X123713565Y-76795532D01*
X123725296Y-76756862D01*
X123744346Y-76721223D01*
X123769983Y-76689983D01*
X123801223Y-76664346D01*
X123836862Y-76645296D01*
X123875532Y-76633565D01*
X123921888Y-76629000D01*
X124998112Y-76629000D01*
X125044468Y-76633565D01*
X125044468Y-76633565D01*
G37*
G36*
X122504468Y-76633565D02*
G01*
X122543138Y-76645296D01*
X122578777Y-76664346D01*
X122610017Y-76689983D01*
X122635654Y-76721223D01*
X122654704Y-76756862D01*
X122666435Y-76795532D01*
X122671000Y-76841888D01*
X122671000Y-77493112D01*
X122666435Y-77539468D01*
X122654704Y-77578138D01*
X122635654Y-77613777D01*
X122610017Y-77645017D01*
X122578777Y-77670654D01*
X122543138Y-77689704D01*
X122504468Y-77701435D01*
X122458112Y-77706000D01*
X121381888Y-77706000D01*
X121335532Y-77701435D01*
X121296862Y-77689704D01*
X121261223Y-77670654D01*
X121229983Y-77645017D01*
X121204346Y-77613777D01*
X121185296Y-77578138D01*
X121173565Y-77539468D01*
X121169000Y-77493112D01*
X121169000Y-76841888D01*
X121173565Y-76795532D01*
X121185296Y-76756862D01*
X121204346Y-76721223D01*
X121229983Y-76689983D01*
X121261223Y-76664346D01*
X121296862Y-76645296D01*
X121335532Y-76633565D01*
X121381888Y-76629000D01*
X122458112Y-76629000D01*
X122504468Y-76633565D01*
X122504468Y-76633565D01*
G37*
G36*
X131021000Y-74366000D02*
G01*
X128719000Y-74366000D01*
X128719000Y-71464000D01*
X131021000Y-71464000D01*
X131021000Y-74366000D01*
X131021000Y-74366000D01*
G37*
G36*
X95360443Y-72130519D02*
G01*
X95426627Y-72137037D01*
X95596466Y-72188557D01*
X95752991Y-72272222D01*
X95788729Y-72301552D01*
X95890186Y-72384814D01*
X95973448Y-72486271D01*
X96002778Y-72522009D01*
X96086443Y-72678534D01*
X96137963Y-72848373D01*
X96155359Y-73025000D01*
X96137963Y-73201627D01*
X96086443Y-73371466D01*
X96002778Y-73527991D01*
X95973448Y-73563729D01*
X95890186Y-73665186D01*
X95788729Y-73748448D01*
X95752991Y-73777778D01*
X95596466Y-73861443D01*
X95426627Y-73912963D01*
X95360443Y-73919481D01*
X95294260Y-73926000D01*
X95205740Y-73926000D01*
X95139557Y-73919481D01*
X95073373Y-73912963D01*
X94903534Y-73861443D01*
X94747009Y-73777778D01*
X94711271Y-73748448D01*
X94609814Y-73665186D01*
X94526552Y-73563729D01*
X94497222Y-73527991D01*
X94413557Y-73371466D01*
X94362037Y-73201627D01*
X94344641Y-73025000D01*
X94362037Y-72848373D01*
X94413557Y-72678534D01*
X94497222Y-72522009D01*
X94526552Y-72486271D01*
X94609814Y-72384814D01*
X94711271Y-72301552D01*
X94747009Y-72272222D01*
X94903534Y-72188557D01*
X95073373Y-72137037D01*
X95139557Y-72130519D01*
X95205740Y-72124000D01*
X95294260Y-72124000D01*
X95360443Y-72130519D01*
X95360443Y-72130519D01*
G37*
G36*
X97900443Y-72130519D02*
G01*
X97966627Y-72137037D01*
X98136466Y-72188557D01*
X98292991Y-72272222D01*
X98328729Y-72301552D01*
X98430186Y-72384814D01*
X98513448Y-72486271D01*
X98542778Y-72522009D01*
X98626443Y-72678534D01*
X98677963Y-72848373D01*
X98695359Y-73025000D01*
X98677963Y-73201627D01*
X98626443Y-73371466D01*
X98542778Y-73527991D01*
X98513448Y-73563729D01*
X98430186Y-73665186D01*
X98328729Y-73748448D01*
X98292991Y-73777778D01*
X98136466Y-73861443D01*
X97966627Y-73912963D01*
X97900443Y-73919481D01*
X97834260Y-73926000D01*
X97745740Y-73926000D01*
X97679557Y-73919481D01*
X97613373Y-73912963D01*
X97443534Y-73861443D01*
X97287009Y-73777778D01*
X97251271Y-73748448D01*
X97149814Y-73665186D01*
X97066552Y-73563729D01*
X97037222Y-73527991D01*
X96953557Y-73371466D01*
X96902037Y-73201627D01*
X96884641Y-73025000D01*
X96902037Y-72848373D01*
X96953557Y-72678534D01*
X97037222Y-72522009D01*
X97066552Y-72486271D01*
X97149814Y-72384814D01*
X97251271Y-72301552D01*
X97287009Y-72272222D01*
X97443534Y-72188557D01*
X97613373Y-72137037D01*
X97679557Y-72130519D01*
X97745740Y-72124000D01*
X97834260Y-72124000D01*
X97900443Y-72130519D01*
X97900443Y-72130519D01*
G37*
G36*
X100440443Y-72130519D02*
G01*
X100506627Y-72137037D01*
X100676466Y-72188557D01*
X100832991Y-72272222D01*
X100868729Y-72301552D01*
X100970186Y-72384814D01*
X101053448Y-72486271D01*
X101082778Y-72522009D01*
X101166443Y-72678534D01*
X101217963Y-72848373D01*
X101235359Y-73025000D01*
X101217963Y-73201627D01*
X101166443Y-73371466D01*
X101082778Y-73527991D01*
X101053448Y-73563729D01*
X100970186Y-73665186D01*
X100868729Y-73748448D01*
X100832991Y-73777778D01*
X100676466Y-73861443D01*
X100506627Y-73912963D01*
X100440443Y-73919481D01*
X100374260Y-73926000D01*
X100285740Y-73926000D01*
X100219557Y-73919481D01*
X100153373Y-73912963D01*
X99983534Y-73861443D01*
X99827009Y-73777778D01*
X99791271Y-73748448D01*
X99689814Y-73665186D01*
X99606552Y-73563729D01*
X99577222Y-73527991D01*
X99493557Y-73371466D01*
X99442037Y-73201627D01*
X99424641Y-73025000D01*
X99442037Y-72848373D01*
X99493557Y-72678534D01*
X99577222Y-72522009D01*
X99606552Y-72486271D01*
X99689814Y-72384814D01*
X99791271Y-72301552D01*
X99827009Y-72272222D01*
X99983534Y-72188557D01*
X100153373Y-72137037D01*
X100219557Y-72130519D01*
X100285740Y-72124000D01*
X100374260Y-72124000D01*
X100440443Y-72130519D01*
X100440443Y-72130519D01*
G37*
G36*
X92820443Y-72130519D02*
G01*
X92886627Y-72137037D01*
X93056466Y-72188557D01*
X93212991Y-72272222D01*
X93248729Y-72301552D01*
X93350186Y-72384814D01*
X93433448Y-72486271D01*
X93462778Y-72522009D01*
X93546443Y-72678534D01*
X93597963Y-72848373D01*
X93615359Y-73025000D01*
X93597963Y-73201627D01*
X93546443Y-73371466D01*
X93462778Y-73527991D01*
X93433448Y-73563729D01*
X93350186Y-73665186D01*
X93248729Y-73748448D01*
X93212991Y-73777778D01*
X93056466Y-73861443D01*
X92886627Y-73912963D01*
X92820443Y-73919481D01*
X92754260Y-73926000D01*
X92665740Y-73926000D01*
X92599557Y-73919481D01*
X92533373Y-73912963D01*
X92363534Y-73861443D01*
X92207009Y-73777778D01*
X92171271Y-73748448D01*
X92069814Y-73665186D01*
X91986552Y-73563729D01*
X91957222Y-73527991D01*
X91873557Y-73371466D01*
X91822037Y-73201627D01*
X91804641Y-73025000D01*
X91822037Y-72848373D01*
X91873557Y-72678534D01*
X91957222Y-72522009D01*
X91986552Y-72486271D01*
X92069814Y-72384814D01*
X92171271Y-72301552D01*
X92207009Y-72272222D01*
X92363534Y-72188557D01*
X92533373Y-72137037D01*
X92599557Y-72130519D01*
X92665740Y-72124000D01*
X92754260Y-72124000D01*
X92820443Y-72130519D01*
X92820443Y-72130519D01*
G37*
G36*
X111391000Y-73926000D02*
G01*
X109589000Y-73926000D01*
X109589000Y-72124000D01*
X111391000Y-72124000D01*
X111391000Y-73926000D01*
X111391000Y-73926000D01*
G37*
G36*
X108060443Y-72130519D02*
G01*
X108126627Y-72137037D01*
X108296466Y-72188557D01*
X108452991Y-72272222D01*
X108488729Y-72301552D01*
X108590186Y-72384814D01*
X108673448Y-72486271D01*
X108702778Y-72522009D01*
X108786443Y-72678534D01*
X108837963Y-72848373D01*
X108855359Y-73025000D01*
X108837963Y-73201627D01*
X108786443Y-73371466D01*
X108702778Y-73527991D01*
X108673448Y-73563729D01*
X108590186Y-73665186D01*
X108488729Y-73748448D01*
X108452991Y-73777778D01*
X108296466Y-73861443D01*
X108126627Y-73912963D01*
X108060443Y-73919481D01*
X107994260Y-73926000D01*
X107905740Y-73926000D01*
X107839557Y-73919481D01*
X107773373Y-73912963D01*
X107603534Y-73861443D01*
X107447009Y-73777778D01*
X107411271Y-73748448D01*
X107309814Y-73665186D01*
X107226552Y-73563729D01*
X107197222Y-73527991D01*
X107113557Y-73371466D01*
X107062037Y-73201627D01*
X107044641Y-73025000D01*
X107062037Y-72848373D01*
X107113557Y-72678534D01*
X107197222Y-72522009D01*
X107226552Y-72486271D01*
X107309814Y-72384814D01*
X107411271Y-72301552D01*
X107447009Y-72272222D01*
X107603534Y-72188557D01*
X107773373Y-72137037D01*
X107839557Y-72130519D01*
X107905740Y-72124000D01*
X107994260Y-72124000D01*
X108060443Y-72130519D01*
X108060443Y-72130519D01*
G37*
G36*
X105520443Y-72130519D02*
G01*
X105586627Y-72137037D01*
X105756466Y-72188557D01*
X105912991Y-72272222D01*
X105948729Y-72301552D01*
X106050186Y-72384814D01*
X106133448Y-72486271D01*
X106162778Y-72522009D01*
X106246443Y-72678534D01*
X106297963Y-72848373D01*
X106315359Y-73025000D01*
X106297963Y-73201627D01*
X106246443Y-73371466D01*
X106162778Y-73527991D01*
X106133448Y-73563729D01*
X106050186Y-73665186D01*
X105948729Y-73748448D01*
X105912991Y-73777778D01*
X105756466Y-73861443D01*
X105586627Y-73912963D01*
X105520443Y-73919481D01*
X105454260Y-73926000D01*
X105365740Y-73926000D01*
X105299557Y-73919481D01*
X105233373Y-73912963D01*
X105063534Y-73861443D01*
X104907009Y-73777778D01*
X104871271Y-73748448D01*
X104769814Y-73665186D01*
X104686552Y-73563729D01*
X104657222Y-73527991D01*
X104573557Y-73371466D01*
X104522037Y-73201627D01*
X104504641Y-73025000D01*
X104522037Y-72848373D01*
X104573557Y-72678534D01*
X104657222Y-72522009D01*
X104686552Y-72486271D01*
X104769814Y-72384814D01*
X104871271Y-72301552D01*
X104907009Y-72272222D01*
X105063534Y-72188557D01*
X105233373Y-72137037D01*
X105299557Y-72130519D01*
X105365740Y-72124000D01*
X105454260Y-72124000D01*
X105520443Y-72130519D01*
X105520443Y-72130519D01*
G37*
G36*
X102980443Y-72130519D02*
G01*
X103046627Y-72137037D01*
X103216466Y-72188557D01*
X103372991Y-72272222D01*
X103408729Y-72301552D01*
X103510186Y-72384814D01*
X103593448Y-72486271D01*
X103622778Y-72522009D01*
X103706443Y-72678534D01*
X103757963Y-72848373D01*
X103775359Y-73025000D01*
X103757963Y-73201627D01*
X103706443Y-73371466D01*
X103622778Y-73527991D01*
X103593448Y-73563729D01*
X103510186Y-73665186D01*
X103408729Y-73748448D01*
X103372991Y-73777778D01*
X103216466Y-73861443D01*
X103046627Y-73912963D01*
X102980443Y-73919481D01*
X102914260Y-73926000D01*
X102825740Y-73926000D01*
X102759557Y-73919481D01*
X102693373Y-73912963D01*
X102523534Y-73861443D01*
X102367009Y-73777778D01*
X102331271Y-73748448D01*
X102229814Y-73665186D01*
X102146552Y-73563729D01*
X102117222Y-73527991D01*
X102033557Y-73371466D01*
X101982037Y-73201627D01*
X101964641Y-73025000D01*
X101982037Y-72848373D01*
X102033557Y-72678534D01*
X102117222Y-72522009D01*
X102146552Y-72486271D01*
X102229814Y-72384814D01*
X102331271Y-72301552D01*
X102367009Y-72272222D01*
X102523534Y-72188557D01*
X102693373Y-72137037D01*
X102759557Y-72130519D01*
X102825740Y-72124000D01*
X102914260Y-72124000D01*
X102980443Y-72130519D01*
X102980443Y-72130519D01*
G37*
G36*
X68368241Y-69644760D02*
G01*
X68632305Y-69754139D01*
X68869958Y-69912934D01*
X69072066Y-70115042D01*
X69230861Y-70352695D01*
X69340240Y-70616759D01*
X69396000Y-70897088D01*
X69396000Y-71182912D01*
X69340240Y-71463241D01*
X69230861Y-71727305D01*
X69072066Y-71964958D01*
X68869958Y-72167066D01*
X68632305Y-72325861D01*
X68368241Y-72435240D01*
X68087912Y-72491000D01*
X67802088Y-72491000D01*
X67521759Y-72435240D01*
X67257695Y-72325861D01*
X67020042Y-72167066D01*
X66817934Y-71964958D01*
X66659139Y-71727305D01*
X66549760Y-71463241D01*
X66494000Y-71182912D01*
X66494000Y-70897088D01*
X66549760Y-70616759D01*
X66659139Y-70352695D01*
X66817934Y-70115042D01*
X67020042Y-69912934D01*
X67257695Y-69754139D01*
X67521759Y-69644760D01*
X67802088Y-69589000D01*
X68087912Y-69589000D01*
X68368241Y-69644760D01*
X68368241Y-69644760D01*
G37*
G36*
X103454468Y-69618565D02*
G01*
X103493138Y-69630296D01*
X103528777Y-69649346D01*
X103560017Y-69674983D01*
X103585654Y-69706223D01*
X103604704Y-69741862D01*
X103616435Y-69780532D01*
X103621000Y-69826888D01*
X103621000Y-70478112D01*
X103616435Y-70524468D01*
X103604704Y-70563138D01*
X103585654Y-70598777D01*
X103560017Y-70630017D01*
X103528777Y-70655654D01*
X103493138Y-70674704D01*
X103454468Y-70686435D01*
X103408112Y-70691000D01*
X102331888Y-70691000D01*
X102285532Y-70686435D01*
X102246862Y-70674704D01*
X102211223Y-70655654D01*
X102179983Y-70630017D01*
X102154346Y-70598777D01*
X102135296Y-70563138D01*
X102123565Y-70524468D01*
X102119000Y-70478112D01*
X102119000Y-69826888D01*
X102123565Y-69780532D01*
X102135296Y-69741862D01*
X102154346Y-69706223D01*
X102179983Y-69674983D01*
X102211223Y-69649346D01*
X102246862Y-69630296D01*
X102285532Y-69618565D01*
X102331888Y-69614000D01*
X103408112Y-69614000D01*
X103454468Y-69618565D01*
X103454468Y-69618565D01*
G37*
G36*
X100914468Y-69618565D02*
G01*
X100953138Y-69630296D01*
X100988777Y-69649346D01*
X101020017Y-69674983D01*
X101045654Y-69706223D01*
X101064704Y-69741862D01*
X101076435Y-69780532D01*
X101081000Y-69826888D01*
X101081000Y-70478112D01*
X101076435Y-70524468D01*
X101064704Y-70563138D01*
X101045654Y-70598777D01*
X101020017Y-70630017D01*
X100988777Y-70655654D01*
X100953138Y-70674704D01*
X100914468Y-70686435D01*
X100868112Y-70691000D01*
X99791888Y-70691000D01*
X99745532Y-70686435D01*
X99706862Y-70674704D01*
X99671223Y-70655654D01*
X99639983Y-70630017D01*
X99614346Y-70598777D01*
X99595296Y-70563138D01*
X99583565Y-70524468D01*
X99579000Y-70478112D01*
X99579000Y-69826888D01*
X99583565Y-69780532D01*
X99595296Y-69741862D01*
X99614346Y-69706223D01*
X99639983Y-69674983D01*
X99671223Y-69649346D01*
X99706862Y-69630296D01*
X99745532Y-69618565D01*
X99791888Y-69614000D01*
X100868112Y-69614000D01*
X100914468Y-69618565D01*
X100914468Y-69618565D01*
G37*
G36*
X98374468Y-69618565D02*
G01*
X98413138Y-69630296D01*
X98448777Y-69649346D01*
X98480017Y-69674983D01*
X98505654Y-69706223D01*
X98524704Y-69741862D01*
X98536435Y-69780532D01*
X98541000Y-69826888D01*
X98541000Y-70478112D01*
X98536435Y-70524468D01*
X98524704Y-70563138D01*
X98505654Y-70598777D01*
X98480017Y-70630017D01*
X98448777Y-70655654D01*
X98413138Y-70674704D01*
X98374468Y-70686435D01*
X98328112Y-70691000D01*
X97251888Y-70691000D01*
X97205532Y-70686435D01*
X97166862Y-70674704D01*
X97131223Y-70655654D01*
X97099983Y-70630017D01*
X97074346Y-70598777D01*
X97055296Y-70563138D01*
X97043565Y-70524468D01*
X97039000Y-70478112D01*
X97039000Y-69826888D01*
X97043565Y-69780532D01*
X97055296Y-69741862D01*
X97074346Y-69706223D01*
X97099983Y-69674983D01*
X97131223Y-69649346D01*
X97166862Y-69630296D01*
X97205532Y-69618565D01*
X97251888Y-69614000D01*
X98328112Y-69614000D01*
X98374468Y-69618565D01*
X98374468Y-69618565D01*
G37*
G36*
X95834468Y-69618565D02*
G01*
X95873138Y-69630296D01*
X95908777Y-69649346D01*
X95940017Y-69674983D01*
X95965654Y-69706223D01*
X95984704Y-69741862D01*
X95996435Y-69780532D01*
X96001000Y-69826888D01*
X96001000Y-70478112D01*
X95996435Y-70524468D01*
X95984704Y-70563138D01*
X95965654Y-70598777D01*
X95940017Y-70630017D01*
X95908777Y-70655654D01*
X95873138Y-70674704D01*
X95834468Y-70686435D01*
X95788112Y-70691000D01*
X94711888Y-70691000D01*
X94665532Y-70686435D01*
X94626862Y-70674704D01*
X94591223Y-70655654D01*
X94559983Y-70630017D01*
X94534346Y-70598777D01*
X94515296Y-70563138D01*
X94503565Y-70524468D01*
X94499000Y-70478112D01*
X94499000Y-69826888D01*
X94503565Y-69780532D01*
X94515296Y-69741862D01*
X94534346Y-69706223D01*
X94559983Y-69674983D01*
X94591223Y-69649346D01*
X94626862Y-69630296D01*
X94665532Y-69618565D01*
X94711888Y-69614000D01*
X95788112Y-69614000D01*
X95834468Y-69618565D01*
X95834468Y-69618565D01*
G37*
G36*
X130883512Y-68318927D02*
G01*
X131032812Y-68348624D01*
X131196784Y-68416544D01*
X131344354Y-68515147D01*
X131469853Y-68640646D01*
X131568456Y-68788216D01*
X131636376Y-68952188D01*
X131671000Y-69126259D01*
X131671000Y-69303741D01*
X131636376Y-69477812D01*
X131568456Y-69641784D01*
X131469853Y-69789354D01*
X131344354Y-69914853D01*
X131196784Y-70013456D01*
X131032812Y-70081376D01*
X130883512Y-70111073D01*
X130858742Y-70116000D01*
X130681258Y-70116000D01*
X130656488Y-70111073D01*
X130507188Y-70081376D01*
X130343216Y-70013456D01*
X130195646Y-69914853D01*
X130070147Y-69789354D01*
X129971544Y-69641784D01*
X129903624Y-69477812D01*
X129869000Y-69303741D01*
X129869000Y-69126259D01*
X129903624Y-68952188D01*
X129971544Y-68788216D01*
X130070147Y-68640646D01*
X130195646Y-68515147D01*
X130343216Y-68416544D01*
X130507188Y-68348624D01*
X130656488Y-68318927D01*
X130681258Y-68314000D01*
X130858742Y-68314000D01*
X130883512Y-68318927D01*
X130883512Y-68318927D01*
G37*
G36*
X123883512Y-68318927D02*
G01*
X124032812Y-68348624D01*
X124196784Y-68416544D01*
X124344354Y-68515147D01*
X124469853Y-68640646D01*
X124568456Y-68788216D01*
X124636376Y-68952188D01*
X124671000Y-69126259D01*
X124671000Y-69303741D01*
X124636376Y-69477812D01*
X124568456Y-69641784D01*
X124469853Y-69789354D01*
X124344354Y-69914853D01*
X124196784Y-70013456D01*
X124032812Y-70081376D01*
X123883512Y-70111073D01*
X123858742Y-70116000D01*
X123681258Y-70116000D01*
X123656488Y-70111073D01*
X123507188Y-70081376D01*
X123343216Y-70013456D01*
X123195646Y-69914853D01*
X123070147Y-69789354D01*
X122971544Y-69641784D01*
X122903624Y-69477812D01*
X122869000Y-69303741D01*
X122869000Y-69126259D01*
X122903624Y-68952188D01*
X122971544Y-68788216D01*
X123070147Y-68640646D01*
X123195646Y-68515147D01*
X123343216Y-68416544D01*
X123507188Y-68348624D01*
X123656488Y-68318927D01*
X123681258Y-68314000D01*
X123858742Y-68314000D01*
X123883512Y-68318927D01*
X123883512Y-68318927D01*
G37*
G36*
X83134468Y-68983565D02*
G01*
X83173138Y-68995296D01*
X83208777Y-69014346D01*
X83240017Y-69039983D01*
X83265654Y-69071223D01*
X83284704Y-69106862D01*
X83296435Y-69145532D01*
X83301000Y-69191888D01*
X83301000Y-69843112D01*
X83296435Y-69889468D01*
X83284704Y-69928138D01*
X83265654Y-69963777D01*
X83240017Y-69995017D01*
X83208777Y-70020654D01*
X83173138Y-70039704D01*
X83134468Y-70051435D01*
X83088112Y-70056000D01*
X82011888Y-70056000D01*
X81965532Y-70051435D01*
X81926862Y-70039704D01*
X81891223Y-70020654D01*
X81859983Y-69995017D01*
X81834346Y-69963777D01*
X81815296Y-69928138D01*
X81803565Y-69889468D01*
X81799000Y-69843112D01*
X81799000Y-69191888D01*
X81803565Y-69145532D01*
X81815296Y-69106862D01*
X81834346Y-69071223D01*
X81859983Y-69039983D01*
X81891223Y-69014346D01*
X81926862Y-68995296D01*
X81965532Y-68983565D01*
X82011888Y-68979000D01*
X83088112Y-68979000D01*
X83134468Y-68983565D01*
X83134468Y-68983565D01*
G37*
G36*
X80600000Y-69945000D02*
G01*
X78150000Y-69945000D01*
X78150000Y-69015000D01*
X80600000Y-69015000D01*
X80600000Y-69945000D01*
X80600000Y-69945000D01*
G37*
G36*
X103454468Y-67743565D02*
G01*
X103493138Y-67755296D01*
X103528777Y-67774346D01*
X103560017Y-67799983D01*
X103585654Y-67831223D01*
X103604704Y-67866862D01*
X103616435Y-67905532D01*
X103621000Y-67951888D01*
X103621000Y-68603112D01*
X103616435Y-68649468D01*
X103604704Y-68688138D01*
X103585654Y-68723777D01*
X103560017Y-68755017D01*
X103528777Y-68780654D01*
X103493138Y-68799704D01*
X103454468Y-68811435D01*
X103408112Y-68816000D01*
X102331888Y-68816000D01*
X102285532Y-68811435D01*
X102246862Y-68799704D01*
X102211223Y-68780654D01*
X102179983Y-68755017D01*
X102154346Y-68723777D01*
X102135296Y-68688138D01*
X102123565Y-68649468D01*
X102119000Y-68603112D01*
X102119000Y-67951888D01*
X102123565Y-67905532D01*
X102135296Y-67866862D01*
X102154346Y-67831223D01*
X102179983Y-67799983D01*
X102211223Y-67774346D01*
X102246862Y-67755296D01*
X102285532Y-67743565D01*
X102331888Y-67739000D01*
X103408112Y-67739000D01*
X103454468Y-67743565D01*
X103454468Y-67743565D01*
G37*
G36*
X100914468Y-67743565D02*
G01*
X100953138Y-67755296D01*
X100988777Y-67774346D01*
X101020017Y-67799983D01*
X101045654Y-67831223D01*
X101064704Y-67866862D01*
X101076435Y-67905532D01*
X101081000Y-67951888D01*
X101081000Y-68603112D01*
X101076435Y-68649468D01*
X101064704Y-68688138D01*
X101045654Y-68723777D01*
X101020017Y-68755017D01*
X100988777Y-68780654D01*
X100953138Y-68799704D01*
X100914468Y-68811435D01*
X100868112Y-68816000D01*
X99791888Y-68816000D01*
X99745532Y-68811435D01*
X99706862Y-68799704D01*
X99671223Y-68780654D01*
X99639983Y-68755017D01*
X99614346Y-68723777D01*
X99595296Y-68688138D01*
X99583565Y-68649468D01*
X99579000Y-68603112D01*
X99579000Y-67951888D01*
X99583565Y-67905532D01*
X99595296Y-67866862D01*
X99614346Y-67831223D01*
X99639983Y-67799983D01*
X99671223Y-67774346D01*
X99706862Y-67755296D01*
X99745532Y-67743565D01*
X99791888Y-67739000D01*
X100868112Y-67739000D01*
X100914468Y-67743565D01*
X100914468Y-67743565D01*
G37*
G36*
X98374468Y-67743565D02*
G01*
X98413138Y-67755296D01*
X98448777Y-67774346D01*
X98480017Y-67799983D01*
X98505654Y-67831223D01*
X98524704Y-67866862D01*
X98536435Y-67905532D01*
X98541000Y-67951888D01*
X98541000Y-68603112D01*
X98536435Y-68649468D01*
X98524704Y-68688138D01*
X98505654Y-68723777D01*
X98480017Y-68755017D01*
X98448777Y-68780654D01*
X98413138Y-68799704D01*
X98374468Y-68811435D01*
X98328112Y-68816000D01*
X97251888Y-68816000D01*
X97205532Y-68811435D01*
X97166862Y-68799704D01*
X97131223Y-68780654D01*
X97099983Y-68755017D01*
X97074346Y-68723777D01*
X97055296Y-68688138D01*
X97043565Y-68649468D01*
X97039000Y-68603112D01*
X97039000Y-67951888D01*
X97043565Y-67905532D01*
X97055296Y-67866862D01*
X97074346Y-67831223D01*
X97099983Y-67799983D01*
X97131223Y-67774346D01*
X97166862Y-67755296D01*
X97205532Y-67743565D01*
X97251888Y-67739000D01*
X98328112Y-67739000D01*
X98374468Y-67743565D01*
X98374468Y-67743565D01*
G37*
G36*
X95834468Y-67743565D02*
G01*
X95873138Y-67755296D01*
X95908777Y-67774346D01*
X95940017Y-67799983D01*
X95965654Y-67831223D01*
X95984704Y-67866862D01*
X95996435Y-67905532D01*
X96001000Y-67951888D01*
X96001000Y-68603112D01*
X95996435Y-68649468D01*
X95984704Y-68688138D01*
X95965654Y-68723777D01*
X95940017Y-68755017D01*
X95908777Y-68780654D01*
X95873138Y-68799704D01*
X95834468Y-68811435D01*
X95788112Y-68816000D01*
X94711888Y-68816000D01*
X94665532Y-68811435D01*
X94626862Y-68799704D01*
X94591223Y-68780654D01*
X94559983Y-68755017D01*
X94534346Y-68723777D01*
X94515296Y-68688138D01*
X94503565Y-68649468D01*
X94499000Y-68603112D01*
X94499000Y-67951888D01*
X94503565Y-67905532D01*
X94515296Y-67866862D01*
X94534346Y-67831223D01*
X94559983Y-67799983D01*
X94591223Y-67774346D01*
X94626862Y-67755296D01*
X94665532Y-67743565D01*
X94711888Y-67739000D01*
X95788112Y-67739000D01*
X95834468Y-67743565D01*
X95834468Y-67743565D01*
G37*
G36*
X80600000Y-66820623D02*
G01*
X80586611Y-66831611D01*
X80571066Y-66850553D01*
X80559515Y-66872164D01*
X80552402Y-66895613D01*
X80550000Y-66919999D01*
X80550000Y-68515000D01*
X78200000Y-68515000D01*
X78200000Y-66919999D01*
X78197598Y-66895613D01*
X78190485Y-66872164D01*
X78178934Y-66850553D01*
X78163389Y-66831611D01*
X78150000Y-66820623D01*
X78150000Y-65945000D01*
X80600000Y-65945000D01*
X80600000Y-66820623D01*
X80600000Y-66820623D01*
G37*
G36*
X83134468Y-67108565D02*
G01*
X83173138Y-67120296D01*
X83208777Y-67139346D01*
X83240017Y-67164983D01*
X83265654Y-67196223D01*
X83284704Y-67231862D01*
X83296435Y-67270532D01*
X83301000Y-67316888D01*
X83301000Y-67968112D01*
X83296435Y-68014468D01*
X83284704Y-68053138D01*
X83265654Y-68088777D01*
X83240017Y-68120017D01*
X83208777Y-68145654D01*
X83173138Y-68164704D01*
X83134468Y-68176435D01*
X83088112Y-68181000D01*
X82011888Y-68181000D01*
X81965532Y-68176435D01*
X81926862Y-68164704D01*
X81891223Y-68145654D01*
X81859983Y-68120017D01*
X81834346Y-68088777D01*
X81815296Y-68053138D01*
X81803565Y-68014468D01*
X81799000Y-67968112D01*
X81799000Y-67316888D01*
X81803565Y-67270532D01*
X81815296Y-67231862D01*
X81834346Y-67196223D01*
X81859983Y-67164983D01*
X81891223Y-67139346D01*
X81926862Y-67120296D01*
X81965532Y-67108565D01*
X82011888Y-67104000D01*
X83088112Y-67104000D01*
X83134468Y-67108565D01*
X83134468Y-67108565D01*
G37*
G36*
X69396000Y-67491000D02*
G01*
X66494000Y-67491000D01*
X66494000Y-64589000D01*
X69396000Y-64589000D01*
X69396000Y-67491000D01*
X69396000Y-67491000D01*
G37*
G36*
X133021000Y-66966000D02*
G01*
X130719000Y-66966000D01*
X130719000Y-64064000D01*
X133021000Y-64064000D01*
X133021000Y-66966000D01*
X133021000Y-66966000D01*
G37*
G36*
X123921000Y-66966000D02*
G01*
X121019000Y-66966000D01*
X121019000Y-64064000D01*
X123921000Y-64064000D01*
X123921000Y-66966000D01*
X123921000Y-66966000D01*
G37*
G36*
X102980442Y-63875518D02*
G01*
X103046627Y-63882037D01*
X103216466Y-63933557D01*
X103372991Y-64017222D01*
X103408729Y-64046552D01*
X103510186Y-64129814D01*
X103593448Y-64231271D01*
X103622778Y-64267009D01*
X103706443Y-64423534D01*
X103757963Y-64593373D01*
X103775359Y-64770000D01*
X103757963Y-64946627D01*
X103706443Y-65116466D01*
X103622778Y-65272991D01*
X103593448Y-65308729D01*
X103510186Y-65410186D01*
X103408729Y-65493448D01*
X103372991Y-65522778D01*
X103216466Y-65606443D01*
X103046627Y-65657963D01*
X102980442Y-65664482D01*
X102914260Y-65671000D01*
X102825740Y-65671000D01*
X102759558Y-65664482D01*
X102693373Y-65657963D01*
X102523534Y-65606443D01*
X102367009Y-65522778D01*
X102331271Y-65493448D01*
X102229814Y-65410186D01*
X102146552Y-65308729D01*
X102117222Y-65272991D01*
X102033557Y-65116466D01*
X101982037Y-64946627D01*
X101964641Y-64770000D01*
X101982037Y-64593373D01*
X102033557Y-64423534D01*
X102117222Y-64267009D01*
X102146552Y-64231271D01*
X102229814Y-64129814D01*
X102331271Y-64046552D01*
X102367009Y-64017222D01*
X102523534Y-63933557D01*
X102693373Y-63882037D01*
X102759558Y-63875518D01*
X102825740Y-63869000D01*
X102914260Y-63869000D01*
X102980442Y-63875518D01*
X102980442Y-63875518D01*
G37*
G36*
X100440442Y-63875518D02*
G01*
X100506627Y-63882037D01*
X100676466Y-63933557D01*
X100832991Y-64017222D01*
X100868729Y-64046552D01*
X100970186Y-64129814D01*
X101053448Y-64231271D01*
X101082778Y-64267009D01*
X101166443Y-64423534D01*
X101217963Y-64593373D01*
X101235359Y-64770000D01*
X101217963Y-64946627D01*
X101166443Y-65116466D01*
X101082778Y-65272991D01*
X101053448Y-65308729D01*
X100970186Y-65410186D01*
X100868729Y-65493448D01*
X100832991Y-65522778D01*
X100676466Y-65606443D01*
X100506627Y-65657963D01*
X100440442Y-65664482D01*
X100374260Y-65671000D01*
X100285740Y-65671000D01*
X100219558Y-65664482D01*
X100153373Y-65657963D01*
X99983534Y-65606443D01*
X99827009Y-65522778D01*
X99791271Y-65493448D01*
X99689814Y-65410186D01*
X99606552Y-65308729D01*
X99577222Y-65272991D01*
X99493557Y-65116466D01*
X99442037Y-64946627D01*
X99424641Y-64770000D01*
X99442037Y-64593373D01*
X99493557Y-64423534D01*
X99577222Y-64267009D01*
X99606552Y-64231271D01*
X99689814Y-64129814D01*
X99791271Y-64046552D01*
X99827009Y-64017222D01*
X99983534Y-63933557D01*
X100153373Y-63882037D01*
X100219558Y-63875518D01*
X100285740Y-63869000D01*
X100374260Y-63869000D01*
X100440442Y-63875518D01*
X100440442Y-63875518D01*
G37*
G36*
X97900442Y-63875518D02*
G01*
X97966627Y-63882037D01*
X98136466Y-63933557D01*
X98292991Y-64017222D01*
X98328729Y-64046552D01*
X98430186Y-64129814D01*
X98513448Y-64231271D01*
X98542778Y-64267009D01*
X98626443Y-64423534D01*
X98677963Y-64593373D01*
X98695359Y-64770000D01*
X98677963Y-64946627D01*
X98626443Y-65116466D01*
X98542778Y-65272991D01*
X98513448Y-65308729D01*
X98430186Y-65410186D01*
X98328729Y-65493448D01*
X98292991Y-65522778D01*
X98136466Y-65606443D01*
X97966627Y-65657963D01*
X97900442Y-65664482D01*
X97834260Y-65671000D01*
X97745740Y-65671000D01*
X97679558Y-65664482D01*
X97613373Y-65657963D01*
X97443534Y-65606443D01*
X97287009Y-65522778D01*
X97251271Y-65493448D01*
X97149814Y-65410186D01*
X97066552Y-65308729D01*
X97037222Y-65272991D01*
X96953557Y-65116466D01*
X96902037Y-64946627D01*
X96884641Y-64770000D01*
X96902037Y-64593373D01*
X96953557Y-64423534D01*
X97037222Y-64267009D01*
X97066552Y-64231271D01*
X97149814Y-64129814D01*
X97251271Y-64046552D01*
X97287009Y-64017222D01*
X97443534Y-63933557D01*
X97613373Y-63882037D01*
X97679558Y-63875518D01*
X97745740Y-63869000D01*
X97834260Y-63869000D01*
X97900442Y-63875518D01*
X97900442Y-63875518D01*
G37*
G36*
X95360442Y-63875518D02*
G01*
X95426627Y-63882037D01*
X95596466Y-63933557D01*
X95752991Y-64017222D01*
X95788729Y-64046552D01*
X95890186Y-64129814D01*
X95973448Y-64231271D01*
X96002778Y-64267009D01*
X96086443Y-64423534D01*
X96137963Y-64593373D01*
X96155359Y-64770000D01*
X96137963Y-64946627D01*
X96086443Y-65116466D01*
X96002778Y-65272991D01*
X95973448Y-65308729D01*
X95890186Y-65410186D01*
X95788729Y-65493448D01*
X95752991Y-65522778D01*
X95596466Y-65606443D01*
X95426627Y-65657963D01*
X95360442Y-65664482D01*
X95294260Y-65671000D01*
X95205740Y-65671000D01*
X95139558Y-65664482D01*
X95073373Y-65657963D01*
X94903534Y-65606443D01*
X94747009Y-65522778D01*
X94711271Y-65493448D01*
X94609814Y-65410186D01*
X94526552Y-65308729D01*
X94497222Y-65272991D01*
X94413557Y-65116466D01*
X94362037Y-64946627D01*
X94344641Y-64770000D01*
X94362037Y-64593373D01*
X94413557Y-64423534D01*
X94497222Y-64267009D01*
X94526552Y-64231271D01*
X94609814Y-64129814D01*
X94711271Y-64046552D01*
X94747009Y-64017222D01*
X94903534Y-63933557D01*
X95073373Y-63882037D01*
X95139558Y-63875518D01*
X95205740Y-63869000D01*
X95294260Y-63869000D01*
X95360442Y-63875518D01*
X95360442Y-63875518D01*
G37*
G36*
X92820442Y-63875518D02*
G01*
X92886627Y-63882037D01*
X93056466Y-63933557D01*
X93212991Y-64017222D01*
X93248729Y-64046552D01*
X93350186Y-64129814D01*
X93433448Y-64231271D01*
X93462778Y-64267009D01*
X93546443Y-64423534D01*
X93597963Y-64593373D01*
X93615359Y-64770000D01*
X93597963Y-64946627D01*
X93546443Y-65116466D01*
X93462778Y-65272991D01*
X93433448Y-65308729D01*
X93350186Y-65410186D01*
X93248729Y-65493448D01*
X93212991Y-65522778D01*
X93056466Y-65606443D01*
X92886627Y-65657963D01*
X92820442Y-65664482D01*
X92754260Y-65671000D01*
X92665740Y-65671000D01*
X92599558Y-65664482D01*
X92533373Y-65657963D01*
X92363534Y-65606443D01*
X92207009Y-65522778D01*
X92171271Y-65493448D01*
X92069814Y-65410186D01*
X91986552Y-65308729D01*
X91957222Y-65272991D01*
X91873557Y-65116466D01*
X91822037Y-64946627D01*
X91804641Y-64770000D01*
X91822037Y-64593373D01*
X91873557Y-64423534D01*
X91957222Y-64267009D01*
X91986552Y-64231271D01*
X92069814Y-64129814D01*
X92171271Y-64046552D01*
X92207009Y-64017222D01*
X92363534Y-63933557D01*
X92533373Y-63882037D01*
X92599558Y-63875518D01*
X92665740Y-63869000D01*
X92754260Y-63869000D01*
X92820442Y-63875518D01*
X92820442Y-63875518D01*
G37*
G36*
X106311000Y-65671000D02*
G01*
X104509000Y-65671000D01*
X104509000Y-63869000D01*
X106311000Y-63869000D01*
X106311000Y-65671000D01*
X106311000Y-65671000D01*
G37*
G36*
X115045442Y-63875518D02*
G01*
X115111627Y-63882037D01*
X115281466Y-63933557D01*
X115437991Y-64017222D01*
X115473729Y-64046552D01*
X115575186Y-64129814D01*
X115658448Y-64231271D01*
X115687778Y-64267009D01*
X115771443Y-64423534D01*
X115822963Y-64593373D01*
X115840359Y-64770000D01*
X115822963Y-64946627D01*
X115771443Y-65116466D01*
X115687778Y-65272991D01*
X115658448Y-65308729D01*
X115575186Y-65410186D01*
X115473729Y-65493448D01*
X115437991Y-65522778D01*
X115281466Y-65606443D01*
X115111627Y-65657963D01*
X115045442Y-65664482D01*
X114979260Y-65671000D01*
X114890740Y-65671000D01*
X114824558Y-65664482D01*
X114758373Y-65657963D01*
X114588534Y-65606443D01*
X114432009Y-65522778D01*
X114396271Y-65493448D01*
X114294814Y-65410186D01*
X114211552Y-65308729D01*
X114182222Y-65272991D01*
X114098557Y-65116466D01*
X114047037Y-64946627D01*
X114029641Y-64770000D01*
X114047037Y-64593373D01*
X114098557Y-64423534D01*
X114182222Y-64267009D01*
X114211552Y-64231271D01*
X114294814Y-64129814D01*
X114396271Y-64046552D01*
X114432009Y-64017222D01*
X114588534Y-63933557D01*
X114758373Y-63882037D01*
X114824558Y-63875518D01*
X114890740Y-63869000D01*
X114979260Y-63869000D01*
X115045442Y-63875518D01*
X115045442Y-63875518D01*
G37*
G36*
X113296000Y-65671000D02*
G01*
X111494000Y-65671000D01*
X111494000Y-63869000D01*
X113296000Y-63869000D01*
X113296000Y-65671000D01*
X113296000Y-65671000D01*
G37*
M02*
