M48
; DRILL file {KiCad (5.1.0-rc1-103-gc65c7d3de)} date 2019 August 30, Friday 11:32:00
; FORMAT={-:-/ absolute / inch / decimal}
; #@! TF.CreationDate,2019-08-30T11:32:00+02:00
; #@! TF.GenerationSoftware,Kicad,Pcbnew,(5.1.0-rc1-103-gc65c7d3de)
; #@! TF.FileFunction,Plated,1,2,PTH
FMAT,2
INCH
T1C0.0157
T2C0.0315
T3C0.0394
T4C0.0551
%
G90
G05
T1
X3.25Y-2.8
X3.3Y-3.675
X3.3Y-4.15
X3.3165Y-3.2
X3.725Y-3.2
X3.75Y-3.425
X3.775Y-3.2
X3.8215Y-3.375
X3.827Y-3.336
X3.85Y-3.625
X4.05Y-3.65
X4.1742Y-3.3258
X4.225Y-3.325
X4.225Y-3.525
X4.375Y-3.375
X4.4028Y-3.3472
X4.45Y-3.525
X4.6673Y-3.0327
X4.8Y-3.325
X4.9Y-3.6955
X4.975Y-4.05
X5.2Y-3.175
X5.2Y-3.575
X5.2Y-3.925
X5.2Y-4.25
T2
X3.6721Y-3.2155
X4.3199Y-3.3602
X4.725Y-3.15
T3
X4.55Y-3.075
X4.55Y-3.175
X4.55Y-3.275
X4.55Y-3.375
X4.55Y-3.475
X4.55Y-3.575
X4.55Y-3.675
X4.55Y-3.775
X3.65Y-2.875
X3.75Y-2.875
X3.85Y-2.875
X3.95Y-2.875
X4.05Y-2.875
X4.15Y-2.875
X4.25Y-2.875
X4.35Y-2.875
X3.525Y-3.975
X3.625Y-3.975
X3.65Y-2.55
X3.75Y-2.55
X3.85Y-2.55
X3.95Y-2.55
X4.05Y-2.55
X4.15Y-2.55
X3.85Y-3.975
X3.95Y-3.975
X4.05Y-3.975
X4.15Y-3.975
X4.425Y-2.55
X4.525Y-2.55
X3.45Y-3.075
X3.45Y-3.175
X3.45Y-3.275
X3.45Y-3.375
X3.45Y-3.475
X3.45Y-3.575
X3.45Y-3.675
X3.45Y-3.775
T4
X2.675Y-3.075
X2.675Y-3.2719
X2.675Y-4.025
X2.675Y-4.2219
X2.675Y-2.6
X2.675Y-2.7969
X2.675Y-3.55
X2.675Y-3.7469
T0
M30
