G04 #@! TF.GenerationSoftware,KiCad,Pcbnew,(5.1.0-rc1-103-gc65c7d3de)*
G04 #@! TF.CreationDate,2019-09-26T12:21:13+02:00
G04 #@! TF.ProjectId,pinballControlUnit,70696e62-616c-46c4-936f-6e74726f6c55,2*
G04 #@! TF.SameCoordinates,Original*
G04 #@! TF.FileFunction,Copper,L2,Bot*
G04 #@! TF.FilePolarity,Positive*
%FSLAX46Y46*%
G04 Gerber Fmt 4.6, Leading zero omitted, Abs format (unit mm)*
G04 Created by KiCad (PCBNEW (5.1.0-rc1-103-gc65c7d3de)) date 2019-09-26 12:21:13*
%MOMM*%
%LPD*%
G04 APERTURE LIST*
%ADD10O,1.700000X1.700000*%
%ADD11R,1.700000X1.700000*%
%ADD12R,2.800000X2.800000*%
%ADD13C,2.800000*%
%ADD14C,1.600000*%
%ADD15C,0.800000*%
%ADD16C,0.500000*%
%ADD17C,0.250000*%
%ADD18C,0.254000*%
G04 APERTURE END LIST*
D10*
X94615000Y-66675000D03*
X97155000Y-66675000D03*
X99695000Y-66675000D03*
X102235000Y-66675000D03*
X104775000Y-66675000D03*
X107315000Y-66675000D03*
X109855000Y-66675000D03*
D11*
X112395000Y-66675000D03*
D10*
X112395000Y-94615000D03*
X109855000Y-94615000D03*
X107315000Y-94615000D03*
X104775000Y-94615000D03*
X102235000Y-94615000D03*
X99695000Y-94615000D03*
X97155000Y-94615000D03*
D11*
X94615000Y-94615000D03*
D10*
X122555000Y-94615000D03*
D11*
X125095000Y-94615000D03*
D10*
X125730000Y-71755000D03*
X125730000Y-74295000D03*
X125730000Y-76835000D03*
X125730000Y-79375000D03*
X125730000Y-81915000D03*
D11*
X125730000Y-84455000D03*
D10*
X117475000Y-71755000D03*
X117475000Y-74295000D03*
X117475000Y-76835000D03*
X117475000Y-79375000D03*
X117475000Y-81915000D03*
X117475000Y-84455000D03*
X117475000Y-86995000D03*
D11*
X117475000Y-89535000D03*
D10*
X20320000Y-105410000D03*
D11*
X20320000Y-107950000D03*
D12*
X76835000Y-105410000D03*
D13*
X81835000Y-105410000D03*
D11*
X88900000Y-66675000D03*
D10*
X86360000Y-66675000D03*
X83820000Y-66675000D03*
X81280000Y-66675000D03*
D12*
X63500000Y-105410000D03*
D13*
X68500000Y-105410000D03*
X55165000Y-105410000D03*
D12*
X50165000Y-105410000D03*
X36830000Y-105410000D03*
D13*
X41830000Y-105410000D03*
D14*
X25400000Y-100330000D03*
X95250000Y-99675000D03*
X104140000Y-103505000D03*
X88900000Y-76835000D03*
X77470000Y-81280000D03*
X106680000Y-86995000D03*
X19050000Y-65405000D03*
X66675000Y-68090000D03*
X53340000Y-68090000D03*
X41910000Y-68090000D03*
X64135000Y-81280000D03*
X50800000Y-81280000D03*
X37465000Y-81280000D03*
X31750000Y-63500000D03*
X80645000Y-75565000D03*
X35560000Y-79375000D03*
X121285000Y-91440000D03*
X98425000Y-92075000D03*
X119380000Y-67310000D03*
X110490000Y-104140000D03*
X104140000Y-98425000D03*
X115004999Y-74712892D03*
X121920000Y-72390000D03*
X88900000Y-98425000D03*
X105570496Y-90009504D03*
X88900000Y-90170000D03*
D15*
X104990000Y-80010000D03*
X86995000Y-73660000D03*
X103432892Y-78177108D03*
X89157346Y-73672651D03*
X104140000Y-77470000D03*
X90170000Y-73660000D03*
X106680000Y-72390000D03*
X106940000Y-77730000D03*
X69215000Y-71845000D03*
X105482108Y-73587892D03*
X106045000Y-78740000D03*
X74295000Y-72480000D03*
X116674002Y-69215000D03*
X104775000Y-74295000D03*
X96449601Y-74202476D03*
X101290002Y-82859998D03*
X100615000Y-85825848D03*
X102870000Y-88900000D03*
X102235000Y-81915000D03*
X38100000Y-69850000D03*
X55245000Y-71210000D03*
X103290000Y-79375000D03*
X88137655Y-73678265D03*
X96520000Y-75199997D03*
X99039990Y-75225001D03*
X96520000Y-76200000D03*
X99890000Y-76005000D03*
D14*
X29845000Y-83820000D03*
X40640000Y-73025000D03*
X53975000Y-73025000D03*
X67310000Y-73025000D03*
X79677500Y-73672500D03*
X34650509Y-75856252D03*
X48260000Y-77470000D03*
X61595000Y-77470000D03*
X74930000Y-77470000D03*
D16*
X115004999Y-72300999D02*
X116850999Y-70454999D01*
X115004999Y-74712892D02*
X115004999Y-72300999D01*
X104140000Y-98425000D02*
X88900000Y-98425000D01*
X89060496Y-90009504D02*
X88900000Y-90170000D01*
X105570496Y-90009504D02*
X89060496Y-90009504D01*
X119984999Y-70454999D02*
X116850999Y-70454999D01*
X121920000Y-72390000D02*
X119984999Y-70454999D01*
D17*
X104590001Y-80409999D02*
X95014999Y-80409999D01*
X104990000Y-80010000D02*
X104590001Y-80409999D01*
X89044999Y-75709999D02*
X86995000Y-73660000D01*
X89440001Y-75709999D02*
X89044999Y-75709999D01*
X94140001Y-80409999D02*
X89440001Y-75709999D01*
X95014999Y-80409999D02*
X94140001Y-80409999D01*
X94054928Y-78177108D02*
X103432892Y-78177108D01*
X93661803Y-78177108D02*
X89157346Y-73672651D01*
X94054928Y-78177108D02*
X93661803Y-78177108D01*
X103740001Y-77070001D02*
X93584231Y-77070001D01*
X104140000Y-77470000D02*
X103740001Y-77070001D01*
X93580001Y-77070001D02*
X90170000Y-73660000D01*
X93584231Y-77070001D02*
X93580001Y-77070001D01*
X106698542Y-72408542D02*
X106680000Y-72390000D01*
X106698542Y-77488542D02*
X106698542Y-72408542D01*
X106940000Y-77730000D02*
X106698542Y-77488542D01*
X106135000Y-71845000D02*
X106680000Y-72390000D01*
X106135000Y-71845000D02*
X106045000Y-71755000D01*
X106045000Y-71755000D02*
X104775000Y-71755000D01*
X104775000Y-71755000D02*
X83820000Y-71755000D01*
X69305000Y-71755000D02*
X69215000Y-71845000D01*
X83820000Y-71755000D02*
X69305000Y-71755000D01*
X105674080Y-73779864D02*
X105482108Y-73587892D01*
X105645001Y-78340001D02*
X105645001Y-73750785D01*
X105645001Y-73750785D02*
X105482108Y-73587892D01*
X106045000Y-78740000D02*
X105645001Y-78340001D01*
X105482108Y-73587892D02*
X104284216Y-72390000D01*
X104284216Y-72390000D02*
X83820000Y-72390000D01*
X74385000Y-72390000D02*
X74295000Y-72480000D01*
X83820000Y-72390000D02*
X74385000Y-72390000D01*
X112395000Y-69215000D02*
X116674002Y-69215000D01*
X110490000Y-69215000D02*
X112395000Y-69215000D01*
X108490001Y-67215001D02*
X110490000Y-69215000D01*
X108490001Y-66110999D02*
X108490001Y-67215001D01*
X107879001Y-65499999D02*
X108490001Y-66110999D01*
X98330001Y-65499999D02*
X107879001Y-65499999D01*
X97155000Y-66675000D02*
X98330001Y-65499999D01*
X96542125Y-74295000D02*
X96449601Y-74202476D01*
X104775000Y-74295000D02*
X96542125Y-74295000D01*
X100615000Y-83535000D02*
X100615000Y-85825848D01*
X101290002Y-82859998D02*
X100615000Y-83535000D01*
X102290005Y-88080007D02*
X102870000Y-88660002D01*
X102870000Y-88660002D02*
X102870000Y-88900000D01*
X102290005Y-82859998D02*
X102290005Y-88080007D01*
X102290005Y-81970005D02*
X102235000Y-81915000D01*
X102290005Y-82859998D02*
X102290005Y-81970005D01*
X95885000Y-70485000D02*
X99695000Y-66675000D01*
X38735000Y-70485000D02*
X95885000Y-70485000D01*
X38100000Y-69850000D02*
X38735000Y-70485000D01*
X102235000Y-66675000D02*
X97790000Y-71120000D01*
X55335000Y-71120000D02*
X55245000Y-71210000D01*
X97790000Y-71120000D02*
X55335000Y-71120000D01*
X102705011Y-79959989D02*
X95201399Y-79959989D01*
X103290000Y-79375000D02*
X102705011Y-79959989D01*
X94419379Y-79959989D02*
X88137655Y-73678265D01*
X95201399Y-79959989D02*
X94419379Y-79959989D01*
X99014986Y-75199997D02*
X99039990Y-75225001D01*
X96520000Y-75199997D02*
X99014986Y-75199997D01*
X99695000Y-76200000D02*
X99890000Y-76005000D01*
X96520000Y-76200000D02*
X99695000Y-76200000D01*
D16*
X53975000Y-73025000D02*
X40640000Y-73025000D01*
X66178630Y-73025000D02*
X53975000Y-73025000D01*
X67310000Y-73025000D02*
X66178630Y-73025000D01*
X79055000Y-74295000D02*
X79677500Y-73672500D01*
X68580000Y-74295000D02*
X79055000Y-74295000D01*
X67310000Y-73025000D02*
X68580000Y-74295000D01*
X29845000Y-78740000D02*
X29845000Y-83820000D01*
X35560000Y-73025000D02*
X29845000Y-78740000D01*
X40640000Y-73025000D02*
X35560000Y-73025000D01*
X36264257Y-77470000D02*
X48260000Y-77470000D01*
X34650509Y-75856252D02*
X36264257Y-77470000D01*
X48260000Y-77470000D02*
X61595000Y-77470000D01*
X61595000Y-77470000D02*
X74930000Y-77470000D01*
D18*
G36*
X128220001Y-109805000D02*
G01*
X17830000Y-109805000D01*
X17830000Y-107100000D01*
X18831928Y-107100000D01*
X18831928Y-108800000D01*
X18844188Y-108924482D01*
X18880498Y-109044180D01*
X18939463Y-109154494D01*
X19018815Y-109251185D01*
X19115506Y-109330537D01*
X19225820Y-109389502D01*
X19345518Y-109425812D01*
X19470000Y-109438072D01*
X21170000Y-109438072D01*
X21294482Y-109425812D01*
X21414180Y-109389502D01*
X21524494Y-109330537D01*
X21621185Y-109251185D01*
X21700537Y-109154494D01*
X21759502Y-109044180D01*
X21795812Y-108924482D01*
X21808072Y-108800000D01*
X21808072Y-107100000D01*
X21795812Y-106975518D01*
X21759502Y-106855820D01*
X21700537Y-106745506D01*
X21621185Y-106648815D01*
X21524494Y-106569463D01*
X21414180Y-106510498D01*
X21333534Y-106486034D01*
X21417588Y-106410269D01*
X21591641Y-106176920D01*
X21716825Y-105914099D01*
X21761476Y-105766890D01*
X21640155Y-105537000D01*
X20447000Y-105537000D01*
X20447000Y-105557000D01*
X20193000Y-105557000D01*
X20193000Y-105537000D01*
X18999845Y-105537000D01*
X18878524Y-105766890D01*
X18923175Y-105914099D01*
X19048359Y-106176920D01*
X19222412Y-106410269D01*
X19306466Y-106486034D01*
X19225820Y-106510498D01*
X19115506Y-106569463D01*
X19018815Y-106648815D01*
X18939463Y-106745506D01*
X18880498Y-106855820D01*
X18844188Y-106975518D01*
X18831928Y-107100000D01*
X17830000Y-107100000D01*
X17830000Y-105053110D01*
X18878524Y-105053110D01*
X18999845Y-105283000D01*
X20193000Y-105283000D01*
X20193000Y-104089186D01*
X20447000Y-104089186D01*
X20447000Y-105283000D01*
X21640155Y-105283000D01*
X21761476Y-105053110D01*
X21716825Y-104905901D01*
X21591641Y-104643080D01*
X21417588Y-104409731D01*
X21201355Y-104214822D01*
X20951252Y-104065843D01*
X20793828Y-104010000D01*
X34791928Y-104010000D01*
X34791928Y-106810000D01*
X34804188Y-106934482D01*
X34840498Y-107054180D01*
X34899463Y-107164494D01*
X34978815Y-107261185D01*
X35075506Y-107340537D01*
X35185820Y-107399502D01*
X35305518Y-107435812D01*
X35430000Y-107448072D01*
X38230000Y-107448072D01*
X38354482Y-107435812D01*
X38474180Y-107399502D01*
X38584494Y-107340537D01*
X38681185Y-107261185D01*
X38760537Y-107164494D01*
X38819502Y-107054180D01*
X38855812Y-106934482D01*
X38866058Y-106830447D01*
X40589158Y-106830447D01*
X40733135Y-107135770D01*
X41090892Y-107316597D01*
X41477053Y-107424155D01*
X41876777Y-107454310D01*
X42274704Y-107405904D01*
X42655540Y-107280795D01*
X42926865Y-107135770D01*
X43070842Y-106830447D01*
X41830000Y-105589605D01*
X40589158Y-106830447D01*
X38866058Y-106830447D01*
X38868072Y-106810000D01*
X38868072Y-105456777D01*
X39785690Y-105456777D01*
X39834096Y-105854704D01*
X39959205Y-106235540D01*
X40104230Y-106506865D01*
X40409553Y-106650842D01*
X41650395Y-105410000D01*
X42009605Y-105410000D01*
X43250447Y-106650842D01*
X43555770Y-106506865D01*
X43736597Y-106149108D01*
X43844155Y-105762947D01*
X43874310Y-105363223D01*
X43825904Y-104965296D01*
X43700795Y-104584460D01*
X43555770Y-104313135D01*
X43250447Y-104169158D01*
X42009605Y-105410000D01*
X41650395Y-105410000D01*
X40409553Y-104169158D01*
X40104230Y-104313135D01*
X39923403Y-104670892D01*
X39815845Y-105057053D01*
X39785690Y-105456777D01*
X38868072Y-105456777D01*
X38868072Y-104010000D01*
X38866059Y-103989553D01*
X40589158Y-103989553D01*
X41830000Y-105230395D01*
X43050395Y-104010000D01*
X48126928Y-104010000D01*
X48126928Y-106810000D01*
X48139188Y-106934482D01*
X48175498Y-107054180D01*
X48234463Y-107164494D01*
X48313815Y-107261185D01*
X48410506Y-107340537D01*
X48520820Y-107399502D01*
X48640518Y-107435812D01*
X48765000Y-107448072D01*
X51565000Y-107448072D01*
X51689482Y-107435812D01*
X51809180Y-107399502D01*
X51919494Y-107340537D01*
X52016185Y-107261185D01*
X52095537Y-107164494D01*
X52154502Y-107054180D01*
X52190812Y-106934482D01*
X52201058Y-106830447D01*
X53924158Y-106830447D01*
X54068135Y-107135770D01*
X54425892Y-107316597D01*
X54812053Y-107424155D01*
X55211777Y-107454310D01*
X55609704Y-107405904D01*
X55990540Y-107280795D01*
X56261865Y-107135770D01*
X56405842Y-106830447D01*
X55165000Y-105589605D01*
X53924158Y-106830447D01*
X52201058Y-106830447D01*
X52203072Y-106810000D01*
X52203072Y-105456777D01*
X53120690Y-105456777D01*
X53169096Y-105854704D01*
X53294205Y-106235540D01*
X53439230Y-106506865D01*
X53744553Y-106650842D01*
X54985395Y-105410000D01*
X55344605Y-105410000D01*
X56585447Y-106650842D01*
X56890770Y-106506865D01*
X57071597Y-106149108D01*
X57179155Y-105762947D01*
X57209310Y-105363223D01*
X57160904Y-104965296D01*
X57035795Y-104584460D01*
X56890770Y-104313135D01*
X56585447Y-104169158D01*
X55344605Y-105410000D01*
X54985395Y-105410000D01*
X53744553Y-104169158D01*
X53439230Y-104313135D01*
X53258403Y-104670892D01*
X53150845Y-105057053D01*
X53120690Y-105456777D01*
X52203072Y-105456777D01*
X52203072Y-104010000D01*
X52201059Y-103989553D01*
X53924158Y-103989553D01*
X55165000Y-105230395D01*
X56385395Y-104010000D01*
X61461928Y-104010000D01*
X61461928Y-106810000D01*
X61474188Y-106934482D01*
X61510498Y-107054180D01*
X61569463Y-107164494D01*
X61648815Y-107261185D01*
X61745506Y-107340537D01*
X61855820Y-107399502D01*
X61975518Y-107435812D01*
X62100000Y-107448072D01*
X64900000Y-107448072D01*
X65024482Y-107435812D01*
X65144180Y-107399502D01*
X65254494Y-107340537D01*
X65351185Y-107261185D01*
X65430537Y-107164494D01*
X65489502Y-107054180D01*
X65525812Y-106934482D01*
X65536058Y-106830447D01*
X67259158Y-106830447D01*
X67403135Y-107135770D01*
X67760892Y-107316597D01*
X68147053Y-107424155D01*
X68546777Y-107454310D01*
X68944704Y-107405904D01*
X69325540Y-107280795D01*
X69596865Y-107135770D01*
X69740842Y-106830447D01*
X68500000Y-105589605D01*
X67259158Y-106830447D01*
X65536058Y-106830447D01*
X65538072Y-106810000D01*
X65538072Y-105456777D01*
X66455690Y-105456777D01*
X66504096Y-105854704D01*
X66629205Y-106235540D01*
X66774230Y-106506865D01*
X67079553Y-106650842D01*
X68320395Y-105410000D01*
X68679605Y-105410000D01*
X69920447Y-106650842D01*
X70225770Y-106506865D01*
X70406597Y-106149108D01*
X70514155Y-105762947D01*
X70544310Y-105363223D01*
X70495904Y-104965296D01*
X70370795Y-104584460D01*
X70225770Y-104313135D01*
X69920447Y-104169158D01*
X68679605Y-105410000D01*
X68320395Y-105410000D01*
X67079553Y-104169158D01*
X66774230Y-104313135D01*
X66593403Y-104670892D01*
X66485845Y-105057053D01*
X66455690Y-105456777D01*
X65538072Y-105456777D01*
X65538072Y-104010000D01*
X65536059Y-103989553D01*
X67259158Y-103989553D01*
X68500000Y-105230395D01*
X69720395Y-104010000D01*
X74796928Y-104010000D01*
X74796928Y-106810000D01*
X74809188Y-106934482D01*
X74845498Y-107054180D01*
X74904463Y-107164494D01*
X74983815Y-107261185D01*
X75080506Y-107340537D01*
X75190820Y-107399502D01*
X75310518Y-107435812D01*
X75435000Y-107448072D01*
X78235000Y-107448072D01*
X78359482Y-107435812D01*
X78479180Y-107399502D01*
X78589494Y-107340537D01*
X78686185Y-107261185D01*
X78765537Y-107164494D01*
X78824502Y-107054180D01*
X78860812Y-106934482D01*
X78871058Y-106830447D01*
X80594158Y-106830447D01*
X80738135Y-107135770D01*
X81095892Y-107316597D01*
X81482053Y-107424155D01*
X81881777Y-107454310D01*
X82279704Y-107405904D01*
X82660540Y-107280795D01*
X82931865Y-107135770D01*
X83075842Y-106830447D01*
X81835000Y-105589605D01*
X80594158Y-106830447D01*
X78871058Y-106830447D01*
X78873072Y-106810000D01*
X78873072Y-105456777D01*
X79790690Y-105456777D01*
X79839096Y-105854704D01*
X79964205Y-106235540D01*
X80109230Y-106506865D01*
X80414553Y-106650842D01*
X81655395Y-105410000D01*
X82014605Y-105410000D01*
X83255447Y-106650842D01*
X83560770Y-106506865D01*
X83741597Y-106149108D01*
X83849155Y-105762947D01*
X83879310Y-105363223D01*
X83830904Y-104965296D01*
X83705795Y-104584460D01*
X83560770Y-104313135D01*
X83255447Y-104169158D01*
X82014605Y-105410000D01*
X81655395Y-105410000D01*
X80414553Y-104169158D01*
X80109230Y-104313135D01*
X79928403Y-104670892D01*
X79820845Y-105057053D01*
X79790690Y-105456777D01*
X78873072Y-105456777D01*
X78873072Y-104010000D01*
X78871059Y-103989553D01*
X80594158Y-103989553D01*
X81835000Y-105230395D01*
X83071655Y-103993740D01*
X113395000Y-103993740D01*
X113395000Y-104286260D01*
X113452068Y-104573158D01*
X113564010Y-104843411D01*
X113726525Y-105086632D01*
X113933368Y-105293475D01*
X114176589Y-105455990D01*
X114446842Y-105567932D01*
X114733740Y-105625000D01*
X115026260Y-105625000D01*
X115313158Y-105567932D01*
X115583411Y-105455990D01*
X115826632Y-105293475D01*
X116033475Y-105086632D01*
X116195990Y-104843411D01*
X116307932Y-104573158D01*
X116365000Y-104286260D01*
X116365000Y-103993740D01*
X120395000Y-103993740D01*
X120395000Y-104286260D01*
X120452068Y-104573158D01*
X120564010Y-104843411D01*
X120726525Y-105086632D01*
X120933368Y-105293475D01*
X121176589Y-105455990D01*
X121446842Y-105567932D01*
X121733740Y-105625000D01*
X122026260Y-105625000D01*
X122313158Y-105567932D01*
X122583411Y-105455990D01*
X122826632Y-105293475D01*
X123033475Y-105086632D01*
X123195990Y-104843411D01*
X123307932Y-104573158D01*
X123365000Y-104286260D01*
X123365000Y-103993740D01*
X123307932Y-103706842D01*
X123195990Y-103436589D01*
X123033475Y-103193368D01*
X122826632Y-102986525D01*
X122583411Y-102824010D01*
X122313158Y-102712068D01*
X122026260Y-102655000D01*
X121733740Y-102655000D01*
X121446842Y-102712068D01*
X121176589Y-102824010D01*
X120933368Y-102986525D01*
X120726525Y-103193368D01*
X120564010Y-103436589D01*
X120452068Y-103706842D01*
X120395000Y-103993740D01*
X116365000Y-103993740D01*
X116307932Y-103706842D01*
X116195990Y-103436589D01*
X116033475Y-103193368D01*
X115826632Y-102986525D01*
X115583411Y-102824010D01*
X115313158Y-102712068D01*
X115026260Y-102655000D01*
X114733740Y-102655000D01*
X114446842Y-102712068D01*
X114176589Y-102824010D01*
X113933368Y-102986525D01*
X113726525Y-103193368D01*
X113564010Y-103436589D01*
X113452068Y-103706842D01*
X113395000Y-103993740D01*
X83071655Y-103993740D01*
X83075842Y-103989553D01*
X82931865Y-103684230D01*
X82574108Y-103503403D01*
X82187947Y-103395845D01*
X81788223Y-103365690D01*
X81390296Y-103414096D01*
X81009460Y-103539205D01*
X80738135Y-103684230D01*
X80594158Y-103989553D01*
X78871059Y-103989553D01*
X78860812Y-103885518D01*
X78824502Y-103765820D01*
X78765537Y-103655506D01*
X78686185Y-103558815D01*
X78589494Y-103479463D01*
X78479180Y-103420498D01*
X78359482Y-103384188D01*
X78235000Y-103371928D01*
X75435000Y-103371928D01*
X75310518Y-103384188D01*
X75190820Y-103420498D01*
X75080506Y-103479463D01*
X74983815Y-103558815D01*
X74904463Y-103655506D01*
X74845498Y-103765820D01*
X74809188Y-103885518D01*
X74796928Y-104010000D01*
X69720395Y-104010000D01*
X69740842Y-103989553D01*
X69596865Y-103684230D01*
X69239108Y-103503403D01*
X68852947Y-103395845D01*
X68453223Y-103365690D01*
X68055296Y-103414096D01*
X67674460Y-103539205D01*
X67403135Y-103684230D01*
X67259158Y-103989553D01*
X65536059Y-103989553D01*
X65525812Y-103885518D01*
X65489502Y-103765820D01*
X65430537Y-103655506D01*
X65351185Y-103558815D01*
X65254494Y-103479463D01*
X65144180Y-103420498D01*
X65024482Y-103384188D01*
X64900000Y-103371928D01*
X62100000Y-103371928D01*
X61975518Y-103384188D01*
X61855820Y-103420498D01*
X61745506Y-103479463D01*
X61648815Y-103558815D01*
X61569463Y-103655506D01*
X61510498Y-103765820D01*
X61474188Y-103885518D01*
X61461928Y-104010000D01*
X56385395Y-104010000D01*
X56405842Y-103989553D01*
X56261865Y-103684230D01*
X55904108Y-103503403D01*
X55517947Y-103395845D01*
X55118223Y-103365690D01*
X54720296Y-103414096D01*
X54339460Y-103539205D01*
X54068135Y-103684230D01*
X53924158Y-103989553D01*
X52201059Y-103989553D01*
X52190812Y-103885518D01*
X52154502Y-103765820D01*
X52095537Y-103655506D01*
X52016185Y-103558815D01*
X51919494Y-103479463D01*
X51809180Y-103420498D01*
X51689482Y-103384188D01*
X51565000Y-103371928D01*
X48765000Y-103371928D01*
X48640518Y-103384188D01*
X48520820Y-103420498D01*
X48410506Y-103479463D01*
X48313815Y-103558815D01*
X48234463Y-103655506D01*
X48175498Y-103765820D01*
X48139188Y-103885518D01*
X48126928Y-104010000D01*
X43050395Y-104010000D01*
X43070842Y-103989553D01*
X42926865Y-103684230D01*
X42569108Y-103503403D01*
X42182947Y-103395845D01*
X41783223Y-103365690D01*
X41385296Y-103414096D01*
X41004460Y-103539205D01*
X40733135Y-103684230D01*
X40589158Y-103989553D01*
X38866059Y-103989553D01*
X38855812Y-103885518D01*
X38819502Y-103765820D01*
X38760537Y-103655506D01*
X38681185Y-103558815D01*
X38584494Y-103479463D01*
X38474180Y-103420498D01*
X38354482Y-103384188D01*
X38230000Y-103371928D01*
X35430000Y-103371928D01*
X35305518Y-103384188D01*
X35185820Y-103420498D01*
X35075506Y-103479463D01*
X34978815Y-103558815D01*
X34899463Y-103655506D01*
X34840498Y-103765820D01*
X34804188Y-103885518D01*
X34791928Y-104010000D01*
X20793828Y-104010000D01*
X20676891Y-103968519D01*
X20447000Y-104089186D01*
X20193000Y-104089186D01*
X19963109Y-103968519D01*
X19688748Y-104065843D01*
X19438645Y-104214822D01*
X19222412Y-104409731D01*
X19048359Y-104643080D01*
X18923175Y-104905901D01*
X18878524Y-105053110D01*
X17830000Y-105053110D01*
X17830000Y-98283665D01*
X87465000Y-98283665D01*
X87465000Y-98566335D01*
X87520147Y-98843574D01*
X87628320Y-99104727D01*
X87785363Y-99339759D01*
X87985241Y-99539637D01*
X88220273Y-99696680D01*
X88481426Y-99804853D01*
X88758665Y-99860000D01*
X89041335Y-99860000D01*
X89318574Y-99804853D01*
X89579727Y-99696680D01*
X89814759Y-99539637D01*
X90014637Y-99339759D01*
X90034521Y-99310000D01*
X103005479Y-99310000D01*
X103025363Y-99339759D01*
X103225241Y-99539637D01*
X103460273Y-99696680D01*
X103721426Y-99804853D01*
X103998665Y-99860000D01*
X104281335Y-99860000D01*
X104558574Y-99804853D01*
X104819727Y-99696680D01*
X105054759Y-99539637D01*
X105254637Y-99339759D01*
X105411680Y-99104727D01*
X105519853Y-98843574D01*
X105575000Y-98566335D01*
X105575000Y-98283665D01*
X105519853Y-98006426D01*
X105411680Y-97745273D01*
X105254637Y-97510241D01*
X105054759Y-97310363D01*
X104819727Y-97153320D01*
X104558574Y-97045147D01*
X104281335Y-96990000D01*
X103998665Y-96990000D01*
X103721426Y-97045147D01*
X103460273Y-97153320D01*
X103225241Y-97310363D01*
X103025363Y-97510241D01*
X103005479Y-97540000D01*
X90034521Y-97540000D01*
X90014637Y-97510241D01*
X89814759Y-97310363D01*
X89579727Y-97153320D01*
X89318574Y-97045147D01*
X89041335Y-96990000D01*
X88758665Y-96990000D01*
X88481426Y-97045147D01*
X88220273Y-97153320D01*
X87985241Y-97310363D01*
X87785363Y-97510241D01*
X87628320Y-97745273D01*
X87520147Y-98006426D01*
X87465000Y-98283665D01*
X17830000Y-98283665D01*
X17830000Y-93765000D01*
X93126928Y-93765000D01*
X93126928Y-95465000D01*
X93139188Y-95589482D01*
X93175498Y-95709180D01*
X93234463Y-95819494D01*
X93313815Y-95916185D01*
X93410506Y-95995537D01*
X93520820Y-96054502D01*
X93640518Y-96090812D01*
X93765000Y-96103072D01*
X95465000Y-96103072D01*
X95589482Y-96090812D01*
X95709180Y-96054502D01*
X95819494Y-95995537D01*
X95916185Y-95916185D01*
X95995537Y-95819494D01*
X96054502Y-95709180D01*
X96075393Y-95640313D01*
X96099866Y-95670134D01*
X96325986Y-95855706D01*
X96583966Y-95993599D01*
X96863889Y-96078513D01*
X97082050Y-96100000D01*
X97227950Y-96100000D01*
X97446111Y-96078513D01*
X97726034Y-95993599D01*
X97984014Y-95855706D01*
X98210134Y-95670134D01*
X98395706Y-95444014D01*
X98425000Y-95389209D01*
X98454294Y-95444014D01*
X98639866Y-95670134D01*
X98865986Y-95855706D01*
X99123966Y-95993599D01*
X99403889Y-96078513D01*
X99622050Y-96100000D01*
X99767950Y-96100000D01*
X99986111Y-96078513D01*
X100266034Y-95993599D01*
X100524014Y-95855706D01*
X100750134Y-95670134D01*
X100935706Y-95444014D01*
X100965000Y-95389209D01*
X100994294Y-95444014D01*
X101179866Y-95670134D01*
X101405986Y-95855706D01*
X101663966Y-95993599D01*
X101943889Y-96078513D01*
X102162050Y-96100000D01*
X102307950Y-96100000D01*
X102526111Y-96078513D01*
X102806034Y-95993599D01*
X103064014Y-95855706D01*
X103290134Y-95670134D01*
X103475706Y-95444014D01*
X103505000Y-95389209D01*
X103534294Y-95444014D01*
X103719866Y-95670134D01*
X103945986Y-95855706D01*
X104203966Y-95993599D01*
X104483889Y-96078513D01*
X104702050Y-96100000D01*
X104847950Y-96100000D01*
X105066111Y-96078513D01*
X105346034Y-95993599D01*
X105604014Y-95855706D01*
X105830134Y-95670134D01*
X106015706Y-95444014D01*
X106045000Y-95389209D01*
X106074294Y-95444014D01*
X106259866Y-95670134D01*
X106485986Y-95855706D01*
X106743966Y-95993599D01*
X107023889Y-96078513D01*
X107242050Y-96100000D01*
X107387950Y-96100000D01*
X107606111Y-96078513D01*
X107886034Y-95993599D01*
X108144014Y-95855706D01*
X108370134Y-95670134D01*
X108555706Y-95444014D01*
X108585000Y-95389209D01*
X108614294Y-95444014D01*
X108799866Y-95670134D01*
X109025986Y-95855706D01*
X109283966Y-95993599D01*
X109563889Y-96078513D01*
X109782050Y-96100000D01*
X109927950Y-96100000D01*
X110146111Y-96078513D01*
X110426034Y-95993599D01*
X110684014Y-95855706D01*
X110910134Y-95670134D01*
X111095706Y-95444014D01*
X111125000Y-95389209D01*
X111154294Y-95444014D01*
X111339866Y-95670134D01*
X111565986Y-95855706D01*
X111823966Y-95993599D01*
X112103889Y-96078513D01*
X112322050Y-96100000D01*
X112467950Y-96100000D01*
X112686111Y-96078513D01*
X112966034Y-95993599D01*
X113224014Y-95855706D01*
X113450134Y-95670134D01*
X113635706Y-95444014D01*
X113773599Y-95186034D01*
X113858513Y-94906111D01*
X113887185Y-94615000D01*
X121062815Y-94615000D01*
X121091487Y-94906111D01*
X121176401Y-95186034D01*
X121314294Y-95444014D01*
X121499866Y-95670134D01*
X121725986Y-95855706D01*
X121983966Y-95993599D01*
X122263889Y-96078513D01*
X122482050Y-96100000D01*
X122627950Y-96100000D01*
X122846111Y-96078513D01*
X123126034Y-95993599D01*
X123384014Y-95855706D01*
X123610134Y-95670134D01*
X123634607Y-95640313D01*
X123655498Y-95709180D01*
X123714463Y-95819494D01*
X123793815Y-95916185D01*
X123890506Y-95995537D01*
X124000820Y-96054502D01*
X124120518Y-96090812D01*
X124245000Y-96103072D01*
X125945000Y-96103072D01*
X126069482Y-96090812D01*
X126189180Y-96054502D01*
X126299494Y-95995537D01*
X126396185Y-95916185D01*
X126475537Y-95819494D01*
X126534502Y-95709180D01*
X126570812Y-95589482D01*
X126583072Y-95465000D01*
X126583072Y-93765000D01*
X126570812Y-93640518D01*
X126534502Y-93520820D01*
X126475537Y-93410506D01*
X126396185Y-93313815D01*
X126299494Y-93234463D01*
X126189180Y-93175498D01*
X126069482Y-93139188D01*
X125945000Y-93126928D01*
X124245000Y-93126928D01*
X124120518Y-93139188D01*
X124000820Y-93175498D01*
X123890506Y-93234463D01*
X123793815Y-93313815D01*
X123714463Y-93410506D01*
X123655498Y-93520820D01*
X123634607Y-93589687D01*
X123610134Y-93559866D01*
X123384014Y-93374294D01*
X123126034Y-93236401D01*
X122846111Y-93151487D01*
X122627950Y-93130000D01*
X122482050Y-93130000D01*
X122263889Y-93151487D01*
X121983966Y-93236401D01*
X121725986Y-93374294D01*
X121499866Y-93559866D01*
X121314294Y-93785986D01*
X121176401Y-94043966D01*
X121091487Y-94323889D01*
X121062815Y-94615000D01*
X113887185Y-94615000D01*
X113858513Y-94323889D01*
X113773599Y-94043966D01*
X113635706Y-93785986D01*
X113450134Y-93559866D01*
X113224014Y-93374294D01*
X112966034Y-93236401D01*
X112686111Y-93151487D01*
X112467950Y-93130000D01*
X112322050Y-93130000D01*
X112103889Y-93151487D01*
X111823966Y-93236401D01*
X111565986Y-93374294D01*
X111339866Y-93559866D01*
X111154294Y-93785986D01*
X111125000Y-93840791D01*
X111095706Y-93785986D01*
X110910134Y-93559866D01*
X110684014Y-93374294D01*
X110426034Y-93236401D01*
X110146111Y-93151487D01*
X109927950Y-93130000D01*
X109782050Y-93130000D01*
X109563889Y-93151487D01*
X109283966Y-93236401D01*
X109025986Y-93374294D01*
X108799866Y-93559866D01*
X108614294Y-93785986D01*
X108585000Y-93840791D01*
X108555706Y-93785986D01*
X108370134Y-93559866D01*
X108144014Y-93374294D01*
X107886034Y-93236401D01*
X107606111Y-93151487D01*
X107387950Y-93130000D01*
X107242050Y-93130000D01*
X107023889Y-93151487D01*
X106743966Y-93236401D01*
X106485986Y-93374294D01*
X106259866Y-93559866D01*
X106074294Y-93785986D01*
X106045000Y-93840791D01*
X106015706Y-93785986D01*
X105830134Y-93559866D01*
X105604014Y-93374294D01*
X105346034Y-93236401D01*
X105066111Y-93151487D01*
X104847950Y-93130000D01*
X104702050Y-93130000D01*
X104483889Y-93151487D01*
X104203966Y-93236401D01*
X103945986Y-93374294D01*
X103719866Y-93559866D01*
X103534294Y-93785986D01*
X103505000Y-93840791D01*
X103475706Y-93785986D01*
X103290134Y-93559866D01*
X103064014Y-93374294D01*
X102806034Y-93236401D01*
X102526111Y-93151487D01*
X102307950Y-93130000D01*
X102162050Y-93130000D01*
X101943889Y-93151487D01*
X101663966Y-93236401D01*
X101405986Y-93374294D01*
X101179866Y-93559866D01*
X100994294Y-93785986D01*
X100965000Y-93840791D01*
X100935706Y-93785986D01*
X100750134Y-93559866D01*
X100524014Y-93374294D01*
X100266034Y-93236401D01*
X99986111Y-93151487D01*
X99767950Y-93130000D01*
X99622050Y-93130000D01*
X99403889Y-93151487D01*
X99123966Y-93236401D01*
X98865986Y-93374294D01*
X98639866Y-93559866D01*
X98454294Y-93785986D01*
X98425000Y-93840791D01*
X98395706Y-93785986D01*
X98210134Y-93559866D01*
X97984014Y-93374294D01*
X97726034Y-93236401D01*
X97446111Y-93151487D01*
X97227950Y-93130000D01*
X97082050Y-93130000D01*
X96863889Y-93151487D01*
X96583966Y-93236401D01*
X96325986Y-93374294D01*
X96099866Y-93559866D01*
X96075393Y-93589687D01*
X96054502Y-93520820D01*
X95995537Y-93410506D01*
X95916185Y-93313815D01*
X95819494Y-93234463D01*
X95709180Y-93175498D01*
X95589482Y-93139188D01*
X95465000Y-93126928D01*
X93765000Y-93126928D01*
X93640518Y-93139188D01*
X93520820Y-93175498D01*
X93410506Y-93234463D01*
X93313815Y-93313815D01*
X93234463Y-93410506D01*
X93175498Y-93520820D01*
X93139188Y-93640518D01*
X93126928Y-93765000D01*
X17830000Y-93765000D01*
X17830000Y-83678665D01*
X28410000Y-83678665D01*
X28410000Y-83961335D01*
X28465147Y-84238574D01*
X28573320Y-84499727D01*
X28730363Y-84734759D01*
X28930241Y-84934637D01*
X29165273Y-85091680D01*
X29426426Y-85199853D01*
X29703665Y-85255000D01*
X29986335Y-85255000D01*
X30263574Y-85199853D01*
X30524727Y-85091680D01*
X30759759Y-84934637D01*
X30959637Y-84734759D01*
X31116680Y-84499727D01*
X31224853Y-84238574D01*
X31280000Y-83961335D01*
X31280000Y-83678665D01*
X31224853Y-83401426D01*
X31116680Y-83140273D01*
X30959637Y-82905241D01*
X30759759Y-82705363D01*
X30730000Y-82685479D01*
X30730000Y-79106578D01*
X33355916Y-76480662D01*
X33378829Y-76535979D01*
X33535872Y-76771011D01*
X33735750Y-76970889D01*
X33970782Y-77127932D01*
X34231935Y-77236105D01*
X34509174Y-77291252D01*
X34791844Y-77291252D01*
X34826948Y-77284269D01*
X35607727Y-78065049D01*
X35635440Y-78098817D01*
X35669208Y-78126530D01*
X35669210Y-78126532D01*
X35697473Y-78149727D01*
X35770198Y-78209411D01*
X35923944Y-78291589D01*
X36090767Y-78342195D01*
X36220780Y-78355000D01*
X36220790Y-78355000D01*
X36264256Y-78359281D01*
X36307722Y-78355000D01*
X47125479Y-78355000D01*
X47145363Y-78384759D01*
X47345241Y-78584637D01*
X47580273Y-78741680D01*
X47841426Y-78849853D01*
X48118665Y-78905000D01*
X48401335Y-78905000D01*
X48678574Y-78849853D01*
X48939727Y-78741680D01*
X49174759Y-78584637D01*
X49374637Y-78384759D01*
X49394521Y-78355000D01*
X60460479Y-78355000D01*
X60480363Y-78384759D01*
X60680241Y-78584637D01*
X60915273Y-78741680D01*
X61176426Y-78849853D01*
X61453665Y-78905000D01*
X61736335Y-78905000D01*
X62013574Y-78849853D01*
X62274727Y-78741680D01*
X62509759Y-78584637D01*
X62709637Y-78384759D01*
X62729521Y-78355000D01*
X73795479Y-78355000D01*
X73815363Y-78384759D01*
X74015241Y-78584637D01*
X74250273Y-78741680D01*
X74511426Y-78849853D01*
X74788665Y-78905000D01*
X75071335Y-78905000D01*
X75348574Y-78849853D01*
X75609727Y-78741680D01*
X75844759Y-78584637D01*
X76044637Y-78384759D01*
X76201680Y-78149727D01*
X76309853Y-77888574D01*
X76365000Y-77611335D01*
X76365000Y-77328665D01*
X76309853Y-77051426D01*
X76201680Y-76790273D01*
X76044637Y-76555241D01*
X75844759Y-76355363D01*
X75609727Y-76198320D01*
X75348574Y-76090147D01*
X75071335Y-76035000D01*
X74788665Y-76035000D01*
X74511426Y-76090147D01*
X74250273Y-76198320D01*
X74015241Y-76355363D01*
X73815363Y-76555241D01*
X73795479Y-76585000D01*
X62729521Y-76585000D01*
X62709637Y-76555241D01*
X62509759Y-76355363D01*
X62274727Y-76198320D01*
X62013574Y-76090147D01*
X61736335Y-76035000D01*
X61453665Y-76035000D01*
X61176426Y-76090147D01*
X60915273Y-76198320D01*
X60680241Y-76355363D01*
X60480363Y-76555241D01*
X60460479Y-76585000D01*
X49394521Y-76585000D01*
X49374637Y-76555241D01*
X49174759Y-76355363D01*
X48939727Y-76198320D01*
X48678574Y-76090147D01*
X48401335Y-76035000D01*
X48118665Y-76035000D01*
X47841426Y-76090147D01*
X47580273Y-76198320D01*
X47345241Y-76355363D01*
X47145363Y-76555241D01*
X47125479Y-76585000D01*
X36630836Y-76585000D01*
X36078526Y-76032691D01*
X36085509Y-75997587D01*
X36085509Y-75714917D01*
X36030362Y-75437678D01*
X35922189Y-75176525D01*
X35765146Y-74941493D01*
X35565268Y-74741615D01*
X35330236Y-74584572D01*
X35274920Y-74561659D01*
X35926579Y-73910000D01*
X39505479Y-73910000D01*
X39525363Y-73939759D01*
X39725241Y-74139637D01*
X39960273Y-74296680D01*
X40221426Y-74404853D01*
X40498665Y-74460000D01*
X40781335Y-74460000D01*
X41058574Y-74404853D01*
X41319727Y-74296680D01*
X41554759Y-74139637D01*
X41754637Y-73939759D01*
X41774521Y-73910000D01*
X52840479Y-73910000D01*
X52860363Y-73939759D01*
X53060241Y-74139637D01*
X53295273Y-74296680D01*
X53556426Y-74404853D01*
X53833665Y-74460000D01*
X54116335Y-74460000D01*
X54393574Y-74404853D01*
X54654727Y-74296680D01*
X54889759Y-74139637D01*
X55089637Y-73939759D01*
X55109521Y-73910000D01*
X66175479Y-73910000D01*
X66195363Y-73939759D01*
X66395241Y-74139637D01*
X66630273Y-74296680D01*
X66891426Y-74404853D01*
X67168665Y-74460000D01*
X67451335Y-74460000D01*
X67486439Y-74453017D01*
X67923470Y-74890049D01*
X67951183Y-74923817D01*
X67984951Y-74951530D01*
X67984953Y-74951532D01*
X68024585Y-74984057D01*
X68085941Y-75034411D01*
X68239687Y-75116589D01*
X68406510Y-75167195D01*
X68536523Y-75180000D01*
X68536533Y-75180000D01*
X68579999Y-75184281D01*
X68623465Y-75180000D01*
X79011531Y-75180000D01*
X79055000Y-75184281D01*
X79098469Y-75180000D01*
X79098477Y-75180000D01*
X79228490Y-75167195D01*
X79395313Y-75116589D01*
X79445907Y-75089546D01*
X79536165Y-75107500D01*
X79818835Y-75107500D01*
X80096074Y-75052353D01*
X80357227Y-74944180D01*
X80592259Y-74787137D01*
X80792137Y-74587259D01*
X80949180Y-74352227D01*
X81057353Y-74091074D01*
X81112500Y-73813835D01*
X81112500Y-73531165D01*
X81057353Y-73253926D01*
X81014305Y-73150000D01*
X86090987Y-73150000D01*
X86077795Y-73169744D01*
X85999774Y-73358102D01*
X85960000Y-73558061D01*
X85960000Y-73761939D01*
X85999774Y-73961898D01*
X86077795Y-74150256D01*
X86191063Y-74319774D01*
X86335226Y-74463937D01*
X86504744Y-74577205D01*
X86693102Y-74655226D01*
X86893061Y-74695000D01*
X86955199Y-74695000D01*
X88481204Y-76221007D01*
X88504998Y-76250000D01*
X88533991Y-76273794D01*
X88533995Y-76273798D01*
X88604684Y-76331810D01*
X88620723Y-76344973D01*
X88752752Y-76415545D01*
X88896013Y-76459002D01*
X89007666Y-76469999D01*
X89007675Y-76469999D01*
X89044998Y-76473675D01*
X89082321Y-76469999D01*
X89125200Y-76469999D01*
X93576202Y-80921002D01*
X93600000Y-80950000D01*
X93715725Y-81044973D01*
X93847754Y-81115545D01*
X93991015Y-81159002D01*
X94102668Y-81169999D01*
X94102676Y-81169999D01*
X94140001Y-81173675D01*
X94177326Y-81169999D01*
X101516290Y-81169999D01*
X101431063Y-81255226D01*
X101317795Y-81424744D01*
X101239774Y-81613102D01*
X101200000Y-81813061D01*
X101200000Y-81824998D01*
X101188063Y-81824998D01*
X100988104Y-81864772D01*
X100799746Y-81942793D01*
X100630228Y-82056061D01*
X100486065Y-82200224D01*
X100372797Y-82369742D01*
X100294776Y-82558100D01*
X100255002Y-82758059D01*
X100255002Y-82820197D01*
X100104002Y-82971197D01*
X100074999Y-82994999D01*
X100019871Y-83062174D01*
X99980026Y-83110724D01*
X99952674Y-83161896D01*
X99909454Y-83242754D01*
X99865997Y-83386015D01*
X99855000Y-83497668D01*
X99855000Y-83497678D01*
X99851324Y-83535000D01*
X99855000Y-83572323D01*
X99855001Y-85122136D01*
X99811063Y-85166074D01*
X99697795Y-85335592D01*
X99619774Y-85523950D01*
X99580000Y-85723909D01*
X99580000Y-85927787D01*
X99619774Y-86127746D01*
X99697795Y-86316104D01*
X99811063Y-86485622D01*
X99955226Y-86629785D01*
X100124744Y-86743053D01*
X100313102Y-86821074D01*
X100513061Y-86860848D01*
X100716939Y-86860848D01*
X100916898Y-86821074D01*
X101105256Y-86743053D01*
X101274774Y-86629785D01*
X101418937Y-86485622D01*
X101530006Y-86319396D01*
X101530006Y-88042675D01*
X101526329Y-88080007D01*
X101530006Y-88117340D01*
X101541003Y-88228993D01*
X101554185Y-88272449D01*
X101584459Y-88372253D01*
X101655031Y-88504283D01*
X101712661Y-88574504D01*
X101750005Y-88620008D01*
X101779003Y-88643806D01*
X101851302Y-88716105D01*
X101835000Y-88798061D01*
X101835000Y-89001939D01*
X101859379Y-89124504D01*
X89883900Y-89124504D01*
X89814759Y-89055363D01*
X89579727Y-88898320D01*
X89318574Y-88790147D01*
X89041335Y-88735000D01*
X88758665Y-88735000D01*
X88481426Y-88790147D01*
X88220273Y-88898320D01*
X87985241Y-89055363D01*
X87785363Y-89255241D01*
X87628320Y-89490273D01*
X87520147Y-89751426D01*
X87465000Y-90028665D01*
X87465000Y-90311335D01*
X87520147Y-90588574D01*
X87628320Y-90849727D01*
X87785363Y-91084759D01*
X87985241Y-91284637D01*
X88220273Y-91441680D01*
X88481426Y-91549853D01*
X88758665Y-91605000D01*
X89041335Y-91605000D01*
X89318574Y-91549853D01*
X89579727Y-91441680D01*
X89814759Y-91284637D01*
X90014637Y-91084759D01*
X90141761Y-90894504D01*
X104435975Y-90894504D01*
X104455859Y-90924263D01*
X104655737Y-91124141D01*
X104890769Y-91281184D01*
X105151922Y-91389357D01*
X105429161Y-91444504D01*
X105711831Y-91444504D01*
X105989070Y-91389357D01*
X106250223Y-91281184D01*
X106485255Y-91124141D01*
X106685133Y-90924263D01*
X106842176Y-90689231D01*
X106950349Y-90428078D01*
X107005496Y-90150839D01*
X107005496Y-89868169D01*
X106950349Y-89590930D01*
X106842176Y-89329777D01*
X106685133Y-89094745D01*
X106485255Y-88894867D01*
X106250223Y-88737824D01*
X105989070Y-88629651D01*
X105711831Y-88574504D01*
X105429161Y-88574504D01*
X105151922Y-88629651D01*
X104890769Y-88737824D01*
X104655737Y-88894867D01*
X104455859Y-89094745D01*
X104435975Y-89124504D01*
X103880621Y-89124504D01*
X103905000Y-89001939D01*
X103905000Y-88798061D01*
X103865226Y-88598102D01*
X103787205Y-88409744D01*
X103673937Y-88240226D01*
X103529774Y-88096063D01*
X103360256Y-87982795D01*
X103202072Y-87917273D01*
X103050005Y-87765206D01*
X103050005Y-82558210D01*
X103152205Y-82405256D01*
X103230226Y-82216898D01*
X103270000Y-82016939D01*
X103270000Y-81813061D01*
X103230226Y-81613102D01*
X103152205Y-81424744D01*
X103038937Y-81255226D01*
X102953710Y-81169999D01*
X104552679Y-81169999D01*
X104590001Y-81173675D01*
X104627323Y-81169999D01*
X104627334Y-81169999D01*
X104738987Y-81159002D01*
X104882248Y-81115545D01*
X105014226Y-81045000D01*
X105091939Y-81045000D01*
X105291898Y-81005226D01*
X105480256Y-80927205D01*
X105649774Y-80813937D01*
X105793937Y-80669774D01*
X105907205Y-80500256D01*
X105985226Y-80311898D01*
X106025000Y-80111939D01*
X106025000Y-79908061D01*
X105998533Y-79775000D01*
X106146939Y-79775000D01*
X106346898Y-79735226D01*
X106535256Y-79657205D01*
X106704774Y-79543937D01*
X106848937Y-79399774D01*
X106962205Y-79230256D01*
X107040226Y-79041898D01*
X107080000Y-78841939D01*
X107080000Y-78757429D01*
X107241898Y-78725226D01*
X107430256Y-78647205D01*
X107599774Y-78533937D01*
X107743937Y-78389774D01*
X107857205Y-78220256D01*
X107935226Y-78031898D01*
X107975000Y-77831939D01*
X107975000Y-77628061D01*
X107935226Y-77428102D01*
X107857205Y-77239744D01*
X107743937Y-77070226D01*
X107599774Y-76926063D01*
X107458542Y-76831695D01*
X107458542Y-73075169D01*
X107483937Y-73049774D01*
X107597205Y-72880256D01*
X107675226Y-72691898D01*
X107715000Y-72491939D01*
X107715000Y-72288061D01*
X107675226Y-72088102D01*
X107597205Y-71899744D01*
X107483937Y-71730226D01*
X107339774Y-71586063D01*
X107170256Y-71472795D01*
X106981898Y-71394774D01*
X106781939Y-71355000D01*
X106719801Y-71355000D01*
X106608804Y-71244003D01*
X106585001Y-71214999D01*
X106469276Y-71120026D01*
X106337247Y-71049454D01*
X106193986Y-71005997D01*
X106082333Y-70995000D01*
X106082322Y-70995000D01*
X106045000Y-70991324D01*
X106007678Y-70995000D01*
X98989801Y-70995000D01*
X101869005Y-68115797D01*
X101943889Y-68138513D01*
X102162050Y-68160000D01*
X102307950Y-68160000D01*
X102526111Y-68138513D01*
X102806034Y-68053599D01*
X103064014Y-67915706D01*
X103290134Y-67730134D01*
X103475706Y-67504014D01*
X103505000Y-67449209D01*
X103534294Y-67504014D01*
X103719866Y-67730134D01*
X103945986Y-67915706D01*
X104203966Y-68053599D01*
X104483889Y-68138513D01*
X104702050Y-68160000D01*
X104847950Y-68160000D01*
X105066111Y-68138513D01*
X105346034Y-68053599D01*
X105604014Y-67915706D01*
X105830134Y-67730134D01*
X106015706Y-67504014D01*
X106045000Y-67449209D01*
X106074294Y-67504014D01*
X106259866Y-67730134D01*
X106485986Y-67915706D01*
X106743966Y-68053599D01*
X107023889Y-68138513D01*
X107242050Y-68160000D01*
X107387950Y-68160000D01*
X107606111Y-68138513D01*
X107886034Y-68053599D01*
X108125696Y-67925497D01*
X109926201Y-69726003D01*
X109949999Y-69755001D01*
X110065724Y-69849974D01*
X110197753Y-69920546D01*
X110341014Y-69964003D01*
X110452667Y-69975000D01*
X110452675Y-69975000D01*
X110490000Y-69978676D01*
X110527325Y-69975000D01*
X115970291Y-69975000D01*
X116014228Y-70018937D01*
X116026969Y-70027450D01*
X114409950Y-71644470D01*
X114376183Y-71672182D01*
X114348470Y-71705950D01*
X114348467Y-71705953D01*
X114265589Y-71806940D01*
X114183411Y-71960686D01*
X114132804Y-72127509D01*
X114115718Y-72300999D01*
X114120000Y-72344478D01*
X114119999Y-73578370D01*
X114090240Y-73598255D01*
X113890362Y-73798133D01*
X113733319Y-74033165D01*
X113625146Y-74294318D01*
X113569999Y-74571557D01*
X113569999Y-74854227D01*
X113625146Y-75131466D01*
X113733319Y-75392619D01*
X113890362Y-75627651D01*
X114090240Y-75827529D01*
X114325272Y-75984572D01*
X114586425Y-76092745D01*
X114863664Y-76147892D01*
X115146334Y-76147892D01*
X115423573Y-76092745D01*
X115684726Y-75984572D01*
X115919758Y-75827529D01*
X116119636Y-75627651D01*
X116276679Y-75392619D01*
X116336403Y-75248434D01*
X116419866Y-75350134D01*
X116645986Y-75535706D01*
X116700791Y-75565000D01*
X116645986Y-75594294D01*
X116419866Y-75779866D01*
X116234294Y-76005986D01*
X116096401Y-76263966D01*
X116011487Y-76543889D01*
X115982815Y-76835000D01*
X116011487Y-77126111D01*
X116096401Y-77406034D01*
X116234294Y-77664014D01*
X116419866Y-77890134D01*
X116645986Y-78075706D01*
X116700791Y-78105000D01*
X116645986Y-78134294D01*
X116419866Y-78319866D01*
X116234294Y-78545986D01*
X116096401Y-78803966D01*
X116011487Y-79083889D01*
X115982815Y-79375000D01*
X116011487Y-79666111D01*
X116096401Y-79946034D01*
X116234294Y-80204014D01*
X116419866Y-80430134D01*
X116645986Y-80615706D01*
X116700791Y-80645000D01*
X116645986Y-80674294D01*
X116419866Y-80859866D01*
X116234294Y-81085986D01*
X116096401Y-81343966D01*
X116011487Y-81623889D01*
X115982815Y-81915000D01*
X116011487Y-82206111D01*
X116096401Y-82486034D01*
X116234294Y-82744014D01*
X116419866Y-82970134D01*
X116645986Y-83155706D01*
X116700791Y-83185000D01*
X116645986Y-83214294D01*
X116419866Y-83399866D01*
X116234294Y-83625986D01*
X116096401Y-83883966D01*
X116011487Y-84163889D01*
X115982815Y-84455000D01*
X116011487Y-84746111D01*
X116096401Y-85026034D01*
X116234294Y-85284014D01*
X116419866Y-85510134D01*
X116645986Y-85695706D01*
X116700791Y-85725000D01*
X116645986Y-85754294D01*
X116419866Y-85939866D01*
X116234294Y-86165986D01*
X116096401Y-86423966D01*
X116011487Y-86703889D01*
X115982815Y-86995000D01*
X116011487Y-87286111D01*
X116096401Y-87566034D01*
X116234294Y-87824014D01*
X116419866Y-88050134D01*
X116449687Y-88074607D01*
X116380820Y-88095498D01*
X116270506Y-88154463D01*
X116173815Y-88233815D01*
X116094463Y-88330506D01*
X116035498Y-88440820D01*
X115999188Y-88560518D01*
X115986928Y-88685000D01*
X115986928Y-90385000D01*
X115999188Y-90509482D01*
X116035498Y-90629180D01*
X116094463Y-90739494D01*
X116173815Y-90836185D01*
X116270506Y-90915537D01*
X116380820Y-90974502D01*
X116500518Y-91010812D01*
X116625000Y-91023072D01*
X118325000Y-91023072D01*
X118449482Y-91010812D01*
X118569180Y-90974502D01*
X118679494Y-90915537D01*
X118776185Y-90836185D01*
X118855537Y-90739494D01*
X118914502Y-90629180D01*
X118950812Y-90509482D01*
X118963072Y-90385000D01*
X118963072Y-88685000D01*
X118950812Y-88560518D01*
X118914502Y-88440820D01*
X118855537Y-88330506D01*
X118776185Y-88233815D01*
X118679494Y-88154463D01*
X118569180Y-88095498D01*
X118500313Y-88074607D01*
X118530134Y-88050134D01*
X118715706Y-87824014D01*
X118853599Y-87566034D01*
X118938513Y-87286111D01*
X118967185Y-86995000D01*
X118938513Y-86703889D01*
X118853599Y-86423966D01*
X118715706Y-86165986D01*
X118530134Y-85939866D01*
X118304014Y-85754294D01*
X118249209Y-85725000D01*
X118304014Y-85695706D01*
X118530134Y-85510134D01*
X118715706Y-85284014D01*
X118853599Y-85026034D01*
X118938513Y-84746111D01*
X118967185Y-84455000D01*
X118938513Y-84163889D01*
X118853599Y-83883966D01*
X118715706Y-83625986D01*
X118530134Y-83399866D01*
X118304014Y-83214294D01*
X118249209Y-83185000D01*
X118304014Y-83155706D01*
X118530134Y-82970134D01*
X118715706Y-82744014D01*
X118853599Y-82486034D01*
X118938513Y-82206111D01*
X118967185Y-81915000D01*
X118938513Y-81623889D01*
X118853599Y-81343966D01*
X118715706Y-81085986D01*
X118530134Y-80859866D01*
X118304014Y-80674294D01*
X118249209Y-80645000D01*
X118304014Y-80615706D01*
X118530134Y-80430134D01*
X118715706Y-80204014D01*
X118853599Y-79946034D01*
X118938513Y-79666111D01*
X118967185Y-79375000D01*
X118938513Y-79083889D01*
X118853599Y-78803966D01*
X118715706Y-78545986D01*
X118530134Y-78319866D01*
X118304014Y-78134294D01*
X118249209Y-78105000D01*
X118304014Y-78075706D01*
X118530134Y-77890134D01*
X118715706Y-77664014D01*
X118853599Y-77406034D01*
X118938513Y-77126111D01*
X118967185Y-76835000D01*
X118938513Y-76543889D01*
X118853599Y-76263966D01*
X118715706Y-76005986D01*
X118530134Y-75779866D01*
X118304014Y-75594294D01*
X118249209Y-75565000D01*
X118304014Y-75535706D01*
X118530134Y-75350134D01*
X118715706Y-75124014D01*
X118853599Y-74866034D01*
X118938513Y-74586111D01*
X118967185Y-74295000D01*
X124237815Y-74295000D01*
X124266487Y-74586111D01*
X124351401Y-74866034D01*
X124489294Y-75124014D01*
X124674866Y-75350134D01*
X124900986Y-75535706D01*
X124955791Y-75565000D01*
X124900986Y-75594294D01*
X124674866Y-75779866D01*
X124489294Y-76005986D01*
X124351401Y-76263966D01*
X124266487Y-76543889D01*
X124237815Y-76835000D01*
X124266487Y-77126111D01*
X124351401Y-77406034D01*
X124489294Y-77664014D01*
X124674866Y-77890134D01*
X124900986Y-78075706D01*
X124955791Y-78105000D01*
X124900986Y-78134294D01*
X124674866Y-78319866D01*
X124489294Y-78545986D01*
X124351401Y-78803966D01*
X124266487Y-79083889D01*
X124237815Y-79375000D01*
X124266487Y-79666111D01*
X124351401Y-79946034D01*
X124489294Y-80204014D01*
X124674866Y-80430134D01*
X124900986Y-80615706D01*
X124955791Y-80645000D01*
X124900986Y-80674294D01*
X124674866Y-80859866D01*
X124489294Y-81085986D01*
X124351401Y-81343966D01*
X124266487Y-81623889D01*
X124237815Y-81915000D01*
X124266487Y-82206111D01*
X124351401Y-82486034D01*
X124489294Y-82744014D01*
X124674866Y-82970134D01*
X124704687Y-82994607D01*
X124635820Y-83015498D01*
X124525506Y-83074463D01*
X124428815Y-83153815D01*
X124349463Y-83250506D01*
X124290498Y-83360820D01*
X124254188Y-83480518D01*
X124241928Y-83605000D01*
X124241928Y-85305000D01*
X124254188Y-85429482D01*
X124290498Y-85549180D01*
X124349463Y-85659494D01*
X124428815Y-85756185D01*
X124525506Y-85835537D01*
X124635820Y-85894502D01*
X124755518Y-85930812D01*
X124880000Y-85943072D01*
X126580000Y-85943072D01*
X126704482Y-85930812D01*
X126824180Y-85894502D01*
X126934494Y-85835537D01*
X127031185Y-85756185D01*
X127110537Y-85659494D01*
X127169502Y-85549180D01*
X127205812Y-85429482D01*
X127218072Y-85305000D01*
X127218072Y-83605000D01*
X127205812Y-83480518D01*
X127169502Y-83360820D01*
X127110537Y-83250506D01*
X127031185Y-83153815D01*
X126934494Y-83074463D01*
X126824180Y-83015498D01*
X126755313Y-82994607D01*
X126785134Y-82970134D01*
X126970706Y-82744014D01*
X127108599Y-82486034D01*
X127193513Y-82206111D01*
X127222185Y-81915000D01*
X127193513Y-81623889D01*
X127108599Y-81343966D01*
X126970706Y-81085986D01*
X126785134Y-80859866D01*
X126559014Y-80674294D01*
X126504209Y-80645000D01*
X126559014Y-80615706D01*
X126785134Y-80430134D01*
X126970706Y-80204014D01*
X127108599Y-79946034D01*
X127193513Y-79666111D01*
X127222185Y-79375000D01*
X127193513Y-79083889D01*
X127108599Y-78803966D01*
X126970706Y-78545986D01*
X126785134Y-78319866D01*
X126559014Y-78134294D01*
X126504209Y-78105000D01*
X126559014Y-78075706D01*
X126785134Y-77890134D01*
X126970706Y-77664014D01*
X127108599Y-77406034D01*
X127193513Y-77126111D01*
X127222185Y-76835000D01*
X127193513Y-76543889D01*
X127108599Y-76263966D01*
X126970706Y-76005986D01*
X126785134Y-75779866D01*
X126559014Y-75594294D01*
X126504209Y-75565000D01*
X126559014Y-75535706D01*
X126785134Y-75350134D01*
X126970706Y-75124014D01*
X127108599Y-74866034D01*
X127193513Y-74586111D01*
X127222185Y-74295000D01*
X127193513Y-74003889D01*
X127108599Y-73723966D01*
X126970706Y-73465986D01*
X126785134Y-73239866D01*
X126559014Y-73054294D01*
X126494477Y-73019799D01*
X126611355Y-72950178D01*
X126827588Y-72755269D01*
X127001641Y-72521920D01*
X127126825Y-72259099D01*
X127171476Y-72111890D01*
X127050155Y-71882000D01*
X125857000Y-71882000D01*
X125857000Y-71902000D01*
X125603000Y-71902000D01*
X125603000Y-71882000D01*
X124409845Y-71882000D01*
X124288524Y-72111890D01*
X124333175Y-72259099D01*
X124458359Y-72521920D01*
X124632412Y-72755269D01*
X124848645Y-72950178D01*
X124965523Y-73019799D01*
X124900986Y-73054294D01*
X124674866Y-73239866D01*
X124489294Y-73465986D01*
X124351401Y-73723966D01*
X124266487Y-74003889D01*
X124237815Y-74295000D01*
X118967185Y-74295000D01*
X118938513Y-74003889D01*
X118853599Y-73723966D01*
X118715706Y-73465986D01*
X118530134Y-73239866D01*
X118304014Y-73054294D01*
X118249209Y-73025000D01*
X118304014Y-72995706D01*
X118530134Y-72810134D01*
X118715706Y-72584014D01*
X118853599Y-72326034D01*
X118938513Y-72046111D01*
X118967185Y-71755000D01*
X118938513Y-71463889D01*
X118900931Y-71339999D01*
X119618421Y-71339999D01*
X120491983Y-72213561D01*
X120485000Y-72248665D01*
X120485000Y-72531335D01*
X120540147Y-72808574D01*
X120648320Y-73069727D01*
X120805363Y-73304759D01*
X121005241Y-73504637D01*
X121240273Y-73661680D01*
X121501426Y-73769853D01*
X121778665Y-73825000D01*
X122061335Y-73825000D01*
X122338574Y-73769853D01*
X122599727Y-73661680D01*
X122834759Y-73504637D01*
X123034637Y-73304759D01*
X123191680Y-73069727D01*
X123299853Y-72808574D01*
X123355000Y-72531335D01*
X123355000Y-72248665D01*
X123299853Y-71971426D01*
X123191680Y-71710273D01*
X123034637Y-71475241D01*
X122957506Y-71398110D01*
X124288524Y-71398110D01*
X124409845Y-71628000D01*
X125603000Y-71628000D01*
X125603000Y-70434186D01*
X125857000Y-70434186D01*
X125857000Y-71628000D01*
X127050155Y-71628000D01*
X127171476Y-71398110D01*
X127126825Y-71250901D01*
X127001641Y-70988080D01*
X126827588Y-70754731D01*
X126611355Y-70559822D01*
X126361252Y-70410843D01*
X126086891Y-70313519D01*
X125857000Y-70434186D01*
X125603000Y-70434186D01*
X125373109Y-70313519D01*
X125098748Y-70410843D01*
X124848645Y-70559822D01*
X124632412Y-70754731D01*
X124458359Y-70988080D01*
X124333175Y-71250901D01*
X124288524Y-71398110D01*
X122957506Y-71398110D01*
X122834759Y-71275363D01*
X122599727Y-71118320D01*
X122338574Y-71010147D01*
X122061335Y-70955000D01*
X121778665Y-70955000D01*
X121743561Y-70961983D01*
X120641533Y-69859955D01*
X120613816Y-69826182D01*
X120479058Y-69715588D01*
X120325312Y-69633410D01*
X120158489Y-69582804D01*
X120028476Y-69569999D01*
X120028468Y-69569999D01*
X119984999Y-69565718D01*
X119941530Y-69569999D01*
X117647233Y-69569999D01*
X117669228Y-69516898D01*
X117709002Y-69316939D01*
X117709002Y-69113061D01*
X117669228Y-68913102D01*
X117591207Y-68724744D01*
X117477939Y-68555226D01*
X117333776Y-68411063D01*
X117164258Y-68297795D01*
X116975900Y-68219774D01*
X116775941Y-68180000D01*
X116572063Y-68180000D01*
X116372104Y-68219774D01*
X116183746Y-68297795D01*
X116014228Y-68411063D01*
X115970291Y-68455000D01*
X110804802Y-68455000D01*
X110408668Y-68058867D01*
X110426034Y-68053599D01*
X110684014Y-67915706D01*
X110910134Y-67730134D01*
X110934607Y-67700313D01*
X110955498Y-67769180D01*
X111014463Y-67879494D01*
X111093815Y-67976185D01*
X111190506Y-68055537D01*
X111300820Y-68114502D01*
X111420518Y-68150812D01*
X111545000Y-68163072D01*
X113245000Y-68163072D01*
X113369482Y-68150812D01*
X113489180Y-68114502D01*
X113599494Y-68055537D01*
X113696185Y-67976185D01*
X113775537Y-67879494D01*
X113834502Y-67769180D01*
X113870812Y-67649482D01*
X113883072Y-67525000D01*
X113883072Y-65825000D01*
X113870812Y-65700518D01*
X113834502Y-65580820D01*
X113775537Y-65470506D01*
X113696185Y-65373815D01*
X113599494Y-65294463D01*
X113489180Y-65235498D01*
X113369482Y-65199188D01*
X113245000Y-65186928D01*
X111545000Y-65186928D01*
X111420518Y-65199188D01*
X111300820Y-65235498D01*
X111190506Y-65294463D01*
X111093815Y-65373815D01*
X111014463Y-65470506D01*
X110955498Y-65580820D01*
X110934607Y-65649687D01*
X110910134Y-65619866D01*
X110684014Y-65434294D01*
X110426034Y-65296401D01*
X110146111Y-65211487D01*
X109927950Y-65190000D01*
X109782050Y-65190000D01*
X109563889Y-65211487D01*
X109283966Y-65296401D01*
X109025986Y-65434294D01*
X108950252Y-65496447D01*
X108442804Y-64989001D01*
X108419002Y-64959998D01*
X108303277Y-64865025D01*
X108171248Y-64794453D01*
X108027987Y-64750996D01*
X107916334Y-64739999D01*
X107916323Y-64739999D01*
X107879001Y-64736323D01*
X107841679Y-64739999D01*
X98367323Y-64739999D01*
X98330000Y-64736323D01*
X98292677Y-64739999D01*
X98292668Y-64739999D01*
X98181015Y-64750996D01*
X98037754Y-64794453D01*
X97905725Y-64865025D01*
X97790000Y-64959998D01*
X97766202Y-64988996D01*
X97520995Y-65234203D01*
X97446111Y-65211487D01*
X97227950Y-65190000D01*
X97082050Y-65190000D01*
X96863889Y-65211487D01*
X96583966Y-65296401D01*
X96325986Y-65434294D01*
X96099866Y-65619866D01*
X95914294Y-65845986D01*
X95885000Y-65900791D01*
X95855706Y-65845986D01*
X95670134Y-65619866D01*
X95444014Y-65434294D01*
X95186034Y-65296401D01*
X94906111Y-65211487D01*
X94687950Y-65190000D01*
X94542050Y-65190000D01*
X94323889Y-65211487D01*
X94043966Y-65296401D01*
X93785986Y-65434294D01*
X93559866Y-65619866D01*
X93374294Y-65845986D01*
X93236401Y-66103966D01*
X93151487Y-66383889D01*
X93122815Y-66675000D01*
X93151487Y-66966111D01*
X93236401Y-67246034D01*
X93374294Y-67504014D01*
X93559866Y-67730134D01*
X93785986Y-67915706D01*
X94043966Y-68053599D01*
X94323889Y-68138513D01*
X94542050Y-68160000D01*
X94687950Y-68160000D01*
X94906111Y-68138513D01*
X95186034Y-68053599D01*
X95444014Y-67915706D01*
X95670134Y-67730134D01*
X95855706Y-67504014D01*
X95885000Y-67449209D01*
X95914294Y-67504014D01*
X96099866Y-67730134D01*
X96325986Y-67915706D01*
X96583966Y-68053599D01*
X96863889Y-68138513D01*
X97082050Y-68160000D01*
X97135199Y-68160000D01*
X95570199Y-69725000D01*
X39130413Y-69725000D01*
X39095226Y-69548102D01*
X39017205Y-69359744D01*
X38903937Y-69190226D01*
X38759774Y-69046063D01*
X38590256Y-68932795D01*
X38401898Y-68854774D01*
X38201939Y-68815000D01*
X37998061Y-68815000D01*
X37798102Y-68854774D01*
X37609744Y-68932795D01*
X37440226Y-69046063D01*
X37296063Y-69190226D01*
X37182795Y-69359744D01*
X37104774Y-69548102D01*
X37065000Y-69748061D01*
X37065000Y-69951939D01*
X37104774Y-70151898D01*
X37182795Y-70340256D01*
X37296063Y-70509774D01*
X37440226Y-70653937D01*
X37609744Y-70767205D01*
X37798102Y-70845226D01*
X37998061Y-70885000D01*
X38060198Y-70885000D01*
X38171200Y-70996002D01*
X38194999Y-71025001D01*
X38223997Y-71048799D01*
X38310724Y-71119974D01*
X38442753Y-71190546D01*
X38586014Y-71234003D01*
X38735000Y-71248677D01*
X38772333Y-71245000D01*
X54210000Y-71245000D01*
X54210000Y-71311939D01*
X54249774Y-71511898D01*
X54297012Y-71625939D01*
X54116335Y-71590000D01*
X53833665Y-71590000D01*
X53556426Y-71645147D01*
X53295273Y-71753320D01*
X53060241Y-71910363D01*
X52860363Y-72110241D01*
X52840479Y-72140000D01*
X41774521Y-72140000D01*
X41754637Y-72110241D01*
X41554759Y-71910363D01*
X41319727Y-71753320D01*
X41058574Y-71645147D01*
X40781335Y-71590000D01*
X40498665Y-71590000D01*
X40221426Y-71645147D01*
X39960273Y-71753320D01*
X39725241Y-71910363D01*
X39525363Y-72110241D01*
X39505479Y-72140000D01*
X35603469Y-72140000D01*
X35560000Y-72135719D01*
X35516531Y-72140000D01*
X35516523Y-72140000D01*
X35386510Y-72152805D01*
X35219686Y-72203411D01*
X35065941Y-72285589D01*
X34964953Y-72368468D01*
X34964951Y-72368470D01*
X34931183Y-72396183D01*
X34903470Y-72429951D01*
X29249956Y-78083466D01*
X29216183Y-78111183D01*
X29105589Y-78245942D01*
X29023411Y-78399688D01*
X28972805Y-78566511D01*
X28960000Y-78696524D01*
X28960000Y-78696531D01*
X28955719Y-78740000D01*
X28960000Y-78783469D01*
X28960001Y-82685478D01*
X28930241Y-82705363D01*
X28730363Y-82905241D01*
X28573320Y-83140273D01*
X28465147Y-83401426D01*
X28410000Y-83678665D01*
X17830000Y-83678665D01*
X17830000Y-66675000D01*
X79787815Y-66675000D01*
X79816487Y-66966111D01*
X79901401Y-67246034D01*
X80039294Y-67504014D01*
X80224866Y-67730134D01*
X80450986Y-67915706D01*
X80708966Y-68053599D01*
X80988889Y-68138513D01*
X81207050Y-68160000D01*
X81352950Y-68160000D01*
X81571111Y-68138513D01*
X81851034Y-68053599D01*
X82109014Y-67915706D01*
X82335134Y-67730134D01*
X82520706Y-67504014D01*
X82550000Y-67449209D01*
X82579294Y-67504014D01*
X82764866Y-67730134D01*
X82990986Y-67915706D01*
X83248966Y-68053599D01*
X83528889Y-68138513D01*
X83747050Y-68160000D01*
X83892950Y-68160000D01*
X84111111Y-68138513D01*
X84391034Y-68053599D01*
X84649014Y-67915706D01*
X84875134Y-67730134D01*
X85060706Y-67504014D01*
X85090000Y-67449209D01*
X85119294Y-67504014D01*
X85304866Y-67730134D01*
X85530986Y-67915706D01*
X85788966Y-68053599D01*
X86068889Y-68138513D01*
X86287050Y-68160000D01*
X86432950Y-68160000D01*
X86651111Y-68138513D01*
X86931034Y-68053599D01*
X87189014Y-67915706D01*
X87415134Y-67730134D01*
X87439607Y-67700313D01*
X87460498Y-67769180D01*
X87519463Y-67879494D01*
X87598815Y-67976185D01*
X87695506Y-68055537D01*
X87805820Y-68114502D01*
X87925518Y-68150812D01*
X88050000Y-68163072D01*
X89750000Y-68163072D01*
X89874482Y-68150812D01*
X89994180Y-68114502D01*
X90104494Y-68055537D01*
X90201185Y-67976185D01*
X90280537Y-67879494D01*
X90339502Y-67769180D01*
X90375812Y-67649482D01*
X90388072Y-67525000D01*
X90388072Y-65825000D01*
X90375812Y-65700518D01*
X90339502Y-65580820D01*
X90280537Y-65470506D01*
X90201185Y-65373815D01*
X90104494Y-65294463D01*
X89994180Y-65235498D01*
X89874482Y-65199188D01*
X89750000Y-65186928D01*
X88050000Y-65186928D01*
X87925518Y-65199188D01*
X87805820Y-65235498D01*
X87695506Y-65294463D01*
X87598815Y-65373815D01*
X87519463Y-65470506D01*
X87460498Y-65580820D01*
X87439607Y-65649687D01*
X87415134Y-65619866D01*
X87189014Y-65434294D01*
X86931034Y-65296401D01*
X86651111Y-65211487D01*
X86432950Y-65190000D01*
X86287050Y-65190000D01*
X86068889Y-65211487D01*
X85788966Y-65296401D01*
X85530986Y-65434294D01*
X85304866Y-65619866D01*
X85119294Y-65845986D01*
X85090000Y-65900791D01*
X85060706Y-65845986D01*
X84875134Y-65619866D01*
X84649014Y-65434294D01*
X84391034Y-65296401D01*
X84111111Y-65211487D01*
X83892950Y-65190000D01*
X83747050Y-65190000D01*
X83528889Y-65211487D01*
X83248966Y-65296401D01*
X82990986Y-65434294D01*
X82764866Y-65619866D01*
X82579294Y-65845986D01*
X82550000Y-65900791D01*
X82520706Y-65845986D01*
X82335134Y-65619866D01*
X82109014Y-65434294D01*
X81851034Y-65296401D01*
X81571111Y-65211487D01*
X81352950Y-65190000D01*
X81207050Y-65190000D01*
X80988889Y-65211487D01*
X80708966Y-65296401D01*
X80450986Y-65434294D01*
X80224866Y-65619866D01*
X80039294Y-65845986D01*
X79901401Y-66103966D01*
X79816487Y-66383889D01*
X79787815Y-66675000D01*
X17830000Y-66675000D01*
X17830000Y-62280000D01*
X128220000Y-62280000D01*
X128220001Y-109805000D01*
X128220001Y-109805000D01*
G37*
X128220001Y-109805000D02*
X17830000Y-109805000D01*
X17830000Y-107100000D01*
X18831928Y-107100000D01*
X18831928Y-108800000D01*
X18844188Y-108924482D01*
X18880498Y-109044180D01*
X18939463Y-109154494D01*
X19018815Y-109251185D01*
X19115506Y-109330537D01*
X19225820Y-109389502D01*
X19345518Y-109425812D01*
X19470000Y-109438072D01*
X21170000Y-109438072D01*
X21294482Y-109425812D01*
X21414180Y-109389502D01*
X21524494Y-109330537D01*
X21621185Y-109251185D01*
X21700537Y-109154494D01*
X21759502Y-109044180D01*
X21795812Y-108924482D01*
X21808072Y-108800000D01*
X21808072Y-107100000D01*
X21795812Y-106975518D01*
X21759502Y-106855820D01*
X21700537Y-106745506D01*
X21621185Y-106648815D01*
X21524494Y-106569463D01*
X21414180Y-106510498D01*
X21333534Y-106486034D01*
X21417588Y-106410269D01*
X21591641Y-106176920D01*
X21716825Y-105914099D01*
X21761476Y-105766890D01*
X21640155Y-105537000D01*
X20447000Y-105537000D01*
X20447000Y-105557000D01*
X20193000Y-105557000D01*
X20193000Y-105537000D01*
X18999845Y-105537000D01*
X18878524Y-105766890D01*
X18923175Y-105914099D01*
X19048359Y-106176920D01*
X19222412Y-106410269D01*
X19306466Y-106486034D01*
X19225820Y-106510498D01*
X19115506Y-106569463D01*
X19018815Y-106648815D01*
X18939463Y-106745506D01*
X18880498Y-106855820D01*
X18844188Y-106975518D01*
X18831928Y-107100000D01*
X17830000Y-107100000D01*
X17830000Y-105053110D01*
X18878524Y-105053110D01*
X18999845Y-105283000D01*
X20193000Y-105283000D01*
X20193000Y-104089186D01*
X20447000Y-104089186D01*
X20447000Y-105283000D01*
X21640155Y-105283000D01*
X21761476Y-105053110D01*
X21716825Y-104905901D01*
X21591641Y-104643080D01*
X21417588Y-104409731D01*
X21201355Y-104214822D01*
X20951252Y-104065843D01*
X20793828Y-104010000D01*
X34791928Y-104010000D01*
X34791928Y-106810000D01*
X34804188Y-106934482D01*
X34840498Y-107054180D01*
X34899463Y-107164494D01*
X34978815Y-107261185D01*
X35075506Y-107340537D01*
X35185820Y-107399502D01*
X35305518Y-107435812D01*
X35430000Y-107448072D01*
X38230000Y-107448072D01*
X38354482Y-107435812D01*
X38474180Y-107399502D01*
X38584494Y-107340537D01*
X38681185Y-107261185D01*
X38760537Y-107164494D01*
X38819502Y-107054180D01*
X38855812Y-106934482D01*
X38866058Y-106830447D01*
X40589158Y-106830447D01*
X40733135Y-107135770D01*
X41090892Y-107316597D01*
X41477053Y-107424155D01*
X41876777Y-107454310D01*
X42274704Y-107405904D01*
X42655540Y-107280795D01*
X42926865Y-107135770D01*
X43070842Y-106830447D01*
X41830000Y-105589605D01*
X40589158Y-106830447D01*
X38866058Y-106830447D01*
X38868072Y-106810000D01*
X38868072Y-105456777D01*
X39785690Y-105456777D01*
X39834096Y-105854704D01*
X39959205Y-106235540D01*
X40104230Y-106506865D01*
X40409553Y-106650842D01*
X41650395Y-105410000D01*
X42009605Y-105410000D01*
X43250447Y-106650842D01*
X43555770Y-106506865D01*
X43736597Y-106149108D01*
X43844155Y-105762947D01*
X43874310Y-105363223D01*
X43825904Y-104965296D01*
X43700795Y-104584460D01*
X43555770Y-104313135D01*
X43250447Y-104169158D01*
X42009605Y-105410000D01*
X41650395Y-105410000D01*
X40409553Y-104169158D01*
X40104230Y-104313135D01*
X39923403Y-104670892D01*
X39815845Y-105057053D01*
X39785690Y-105456777D01*
X38868072Y-105456777D01*
X38868072Y-104010000D01*
X38866059Y-103989553D01*
X40589158Y-103989553D01*
X41830000Y-105230395D01*
X43050395Y-104010000D01*
X48126928Y-104010000D01*
X48126928Y-106810000D01*
X48139188Y-106934482D01*
X48175498Y-107054180D01*
X48234463Y-107164494D01*
X48313815Y-107261185D01*
X48410506Y-107340537D01*
X48520820Y-107399502D01*
X48640518Y-107435812D01*
X48765000Y-107448072D01*
X51565000Y-107448072D01*
X51689482Y-107435812D01*
X51809180Y-107399502D01*
X51919494Y-107340537D01*
X52016185Y-107261185D01*
X52095537Y-107164494D01*
X52154502Y-107054180D01*
X52190812Y-106934482D01*
X52201058Y-106830447D01*
X53924158Y-106830447D01*
X54068135Y-107135770D01*
X54425892Y-107316597D01*
X54812053Y-107424155D01*
X55211777Y-107454310D01*
X55609704Y-107405904D01*
X55990540Y-107280795D01*
X56261865Y-107135770D01*
X56405842Y-106830447D01*
X55165000Y-105589605D01*
X53924158Y-106830447D01*
X52201058Y-106830447D01*
X52203072Y-106810000D01*
X52203072Y-105456777D01*
X53120690Y-105456777D01*
X53169096Y-105854704D01*
X53294205Y-106235540D01*
X53439230Y-106506865D01*
X53744553Y-106650842D01*
X54985395Y-105410000D01*
X55344605Y-105410000D01*
X56585447Y-106650842D01*
X56890770Y-106506865D01*
X57071597Y-106149108D01*
X57179155Y-105762947D01*
X57209310Y-105363223D01*
X57160904Y-104965296D01*
X57035795Y-104584460D01*
X56890770Y-104313135D01*
X56585447Y-104169158D01*
X55344605Y-105410000D01*
X54985395Y-105410000D01*
X53744553Y-104169158D01*
X53439230Y-104313135D01*
X53258403Y-104670892D01*
X53150845Y-105057053D01*
X53120690Y-105456777D01*
X52203072Y-105456777D01*
X52203072Y-104010000D01*
X52201059Y-103989553D01*
X53924158Y-103989553D01*
X55165000Y-105230395D01*
X56385395Y-104010000D01*
X61461928Y-104010000D01*
X61461928Y-106810000D01*
X61474188Y-106934482D01*
X61510498Y-107054180D01*
X61569463Y-107164494D01*
X61648815Y-107261185D01*
X61745506Y-107340537D01*
X61855820Y-107399502D01*
X61975518Y-107435812D01*
X62100000Y-107448072D01*
X64900000Y-107448072D01*
X65024482Y-107435812D01*
X65144180Y-107399502D01*
X65254494Y-107340537D01*
X65351185Y-107261185D01*
X65430537Y-107164494D01*
X65489502Y-107054180D01*
X65525812Y-106934482D01*
X65536058Y-106830447D01*
X67259158Y-106830447D01*
X67403135Y-107135770D01*
X67760892Y-107316597D01*
X68147053Y-107424155D01*
X68546777Y-107454310D01*
X68944704Y-107405904D01*
X69325540Y-107280795D01*
X69596865Y-107135770D01*
X69740842Y-106830447D01*
X68500000Y-105589605D01*
X67259158Y-106830447D01*
X65536058Y-106830447D01*
X65538072Y-106810000D01*
X65538072Y-105456777D01*
X66455690Y-105456777D01*
X66504096Y-105854704D01*
X66629205Y-106235540D01*
X66774230Y-106506865D01*
X67079553Y-106650842D01*
X68320395Y-105410000D01*
X68679605Y-105410000D01*
X69920447Y-106650842D01*
X70225770Y-106506865D01*
X70406597Y-106149108D01*
X70514155Y-105762947D01*
X70544310Y-105363223D01*
X70495904Y-104965296D01*
X70370795Y-104584460D01*
X70225770Y-104313135D01*
X69920447Y-104169158D01*
X68679605Y-105410000D01*
X68320395Y-105410000D01*
X67079553Y-104169158D01*
X66774230Y-104313135D01*
X66593403Y-104670892D01*
X66485845Y-105057053D01*
X66455690Y-105456777D01*
X65538072Y-105456777D01*
X65538072Y-104010000D01*
X65536059Y-103989553D01*
X67259158Y-103989553D01*
X68500000Y-105230395D01*
X69720395Y-104010000D01*
X74796928Y-104010000D01*
X74796928Y-106810000D01*
X74809188Y-106934482D01*
X74845498Y-107054180D01*
X74904463Y-107164494D01*
X74983815Y-107261185D01*
X75080506Y-107340537D01*
X75190820Y-107399502D01*
X75310518Y-107435812D01*
X75435000Y-107448072D01*
X78235000Y-107448072D01*
X78359482Y-107435812D01*
X78479180Y-107399502D01*
X78589494Y-107340537D01*
X78686185Y-107261185D01*
X78765537Y-107164494D01*
X78824502Y-107054180D01*
X78860812Y-106934482D01*
X78871058Y-106830447D01*
X80594158Y-106830447D01*
X80738135Y-107135770D01*
X81095892Y-107316597D01*
X81482053Y-107424155D01*
X81881777Y-107454310D01*
X82279704Y-107405904D01*
X82660540Y-107280795D01*
X82931865Y-107135770D01*
X83075842Y-106830447D01*
X81835000Y-105589605D01*
X80594158Y-106830447D01*
X78871058Y-106830447D01*
X78873072Y-106810000D01*
X78873072Y-105456777D01*
X79790690Y-105456777D01*
X79839096Y-105854704D01*
X79964205Y-106235540D01*
X80109230Y-106506865D01*
X80414553Y-106650842D01*
X81655395Y-105410000D01*
X82014605Y-105410000D01*
X83255447Y-106650842D01*
X83560770Y-106506865D01*
X83741597Y-106149108D01*
X83849155Y-105762947D01*
X83879310Y-105363223D01*
X83830904Y-104965296D01*
X83705795Y-104584460D01*
X83560770Y-104313135D01*
X83255447Y-104169158D01*
X82014605Y-105410000D01*
X81655395Y-105410000D01*
X80414553Y-104169158D01*
X80109230Y-104313135D01*
X79928403Y-104670892D01*
X79820845Y-105057053D01*
X79790690Y-105456777D01*
X78873072Y-105456777D01*
X78873072Y-104010000D01*
X78871059Y-103989553D01*
X80594158Y-103989553D01*
X81835000Y-105230395D01*
X83071655Y-103993740D01*
X113395000Y-103993740D01*
X113395000Y-104286260D01*
X113452068Y-104573158D01*
X113564010Y-104843411D01*
X113726525Y-105086632D01*
X113933368Y-105293475D01*
X114176589Y-105455990D01*
X114446842Y-105567932D01*
X114733740Y-105625000D01*
X115026260Y-105625000D01*
X115313158Y-105567932D01*
X115583411Y-105455990D01*
X115826632Y-105293475D01*
X116033475Y-105086632D01*
X116195990Y-104843411D01*
X116307932Y-104573158D01*
X116365000Y-104286260D01*
X116365000Y-103993740D01*
X120395000Y-103993740D01*
X120395000Y-104286260D01*
X120452068Y-104573158D01*
X120564010Y-104843411D01*
X120726525Y-105086632D01*
X120933368Y-105293475D01*
X121176589Y-105455990D01*
X121446842Y-105567932D01*
X121733740Y-105625000D01*
X122026260Y-105625000D01*
X122313158Y-105567932D01*
X122583411Y-105455990D01*
X122826632Y-105293475D01*
X123033475Y-105086632D01*
X123195990Y-104843411D01*
X123307932Y-104573158D01*
X123365000Y-104286260D01*
X123365000Y-103993740D01*
X123307932Y-103706842D01*
X123195990Y-103436589D01*
X123033475Y-103193368D01*
X122826632Y-102986525D01*
X122583411Y-102824010D01*
X122313158Y-102712068D01*
X122026260Y-102655000D01*
X121733740Y-102655000D01*
X121446842Y-102712068D01*
X121176589Y-102824010D01*
X120933368Y-102986525D01*
X120726525Y-103193368D01*
X120564010Y-103436589D01*
X120452068Y-103706842D01*
X120395000Y-103993740D01*
X116365000Y-103993740D01*
X116307932Y-103706842D01*
X116195990Y-103436589D01*
X116033475Y-103193368D01*
X115826632Y-102986525D01*
X115583411Y-102824010D01*
X115313158Y-102712068D01*
X115026260Y-102655000D01*
X114733740Y-102655000D01*
X114446842Y-102712068D01*
X114176589Y-102824010D01*
X113933368Y-102986525D01*
X113726525Y-103193368D01*
X113564010Y-103436589D01*
X113452068Y-103706842D01*
X113395000Y-103993740D01*
X83071655Y-103993740D01*
X83075842Y-103989553D01*
X82931865Y-103684230D01*
X82574108Y-103503403D01*
X82187947Y-103395845D01*
X81788223Y-103365690D01*
X81390296Y-103414096D01*
X81009460Y-103539205D01*
X80738135Y-103684230D01*
X80594158Y-103989553D01*
X78871059Y-103989553D01*
X78860812Y-103885518D01*
X78824502Y-103765820D01*
X78765537Y-103655506D01*
X78686185Y-103558815D01*
X78589494Y-103479463D01*
X78479180Y-103420498D01*
X78359482Y-103384188D01*
X78235000Y-103371928D01*
X75435000Y-103371928D01*
X75310518Y-103384188D01*
X75190820Y-103420498D01*
X75080506Y-103479463D01*
X74983815Y-103558815D01*
X74904463Y-103655506D01*
X74845498Y-103765820D01*
X74809188Y-103885518D01*
X74796928Y-104010000D01*
X69720395Y-104010000D01*
X69740842Y-103989553D01*
X69596865Y-103684230D01*
X69239108Y-103503403D01*
X68852947Y-103395845D01*
X68453223Y-103365690D01*
X68055296Y-103414096D01*
X67674460Y-103539205D01*
X67403135Y-103684230D01*
X67259158Y-103989553D01*
X65536059Y-103989553D01*
X65525812Y-103885518D01*
X65489502Y-103765820D01*
X65430537Y-103655506D01*
X65351185Y-103558815D01*
X65254494Y-103479463D01*
X65144180Y-103420498D01*
X65024482Y-103384188D01*
X64900000Y-103371928D01*
X62100000Y-103371928D01*
X61975518Y-103384188D01*
X61855820Y-103420498D01*
X61745506Y-103479463D01*
X61648815Y-103558815D01*
X61569463Y-103655506D01*
X61510498Y-103765820D01*
X61474188Y-103885518D01*
X61461928Y-104010000D01*
X56385395Y-104010000D01*
X56405842Y-103989553D01*
X56261865Y-103684230D01*
X55904108Y-103503403D01*
X55517947Y-103395845D01*
X55118223Y-103365690D01*
X54720296Y-103414096D01*
X54339460Y-103539205D01*
X54068135Y-103684230D01*
X53924158Y-103989553D01*
X52201059Y-103989553D01*
X52190812Y-103885518D01*
X52154502Y-103765820D01*
X52095537Y-103655506D01*
X52016185Y-103558815D01*
X51919494Y-103479463D01*
X51809180Y-103420498D01*
X51689482Y-103384188D01*
X51565000Y-103371928D01*
X48765000Y-103371928D01*
X48640518Y-103384188D01*
X48520820Y-103420498D01*
X48410506Y-103479463D01*
X48313815Y-103558815D01*
X48234463Y-103655506D01*
X48175498Y-103765820D01*
X48139188Y-103885518D01*
X48126928Y-104010000D01*
X43050395Y-104010000D01*
X43070842Y-103989553D01*
X42926865Y-103684230D01*
X42569108Y-103503403D01*
X42182947Y-103395845D01*
X41783223Y-103365690D01*
X41385296Y-103414096D01*
X41004460Y-103539205D01*
X40733135Y-103684230D01*
X40589158Y-103989553D01*
X38866059Y-103989553D01*
X38855812Y-103885518D01*
X38819502Y-103765820D01*
X38760537Y-103655506D01*
X38681185Y-103558815D01*
X38584494Y-103479463D01*
X38474180Y-103420498D01*
X38354482Y-103384188D01*
X38230000Y-103371928D01*
X35430000Y-103371928D01*
X35305518Y-103384188D01*
X35185820Y-103420498D01*
X35075506Y-103479463D01*
X34978815Y-103558815D01*
X34899463Y-103655506D01*
X34840498Y-103765820D01*
X34804188Y-103885518D01*
X34791928Y-104010000D01*
X20793828Y-104010000D01*
X20676891Y-103968519D01*
X20447000Y-104089186D01*
X20193000Y-104089186D01*
X19963109Y-103968519D01*
X19688748Y-104065843D01*
X19438645Y-104214822D01*
X19222412Y-104409731D01*
X19048359Y-104643080D01*
X18923175Y-104905901D01*
X18878524Y-105053110D01*
X17830000Y-105053110D01*
X17830000Y-98283665D01*
X87465000Y-98283665D01*
X87465000Y-98566335D01*
X87520147Y-98843574D01*
X87628320Y-99104727D01*
X87785363Y-99339759D01*
X87985241Y-99539637D01*
X88220273Y-99696680D01*
X88481426Y-99804853D01*
X88758665Y-99860000D01*
X89041335Y-99860000D01*
X89318574Y-99804853D01*
X89579727Y-99696680D01*
X89814759Y-99539637D01*
X90014637Y-99339759D01*
X90034521Y-99310000D01*
X103005479Y-99310000D01*
X103025363Y-99339759D01*
X103225241Y-99539637D01*
X103460273Y-99696680D01*
X103721426Y-99804853D01*
X103998665Y-99860000D01*
X104281335Y-99860000D01*
X104558574Y-99804853D01*
X104819727Y-99696680D01*
X105054759Y-99539637D01*
X105254637Y-99339759D01*
X105411680Y-99104727D01*
X105519853Y-98843574D01*
X105575000Y-98566335D01*
X105575000Y-98283665D01*
X105519853Y-98006426D01*
X105411680Y-97745273D01*
X105254637Y-97510241D01*
X105054759Y-97310363D01*
X104819727Y-97153320D01*
X104558574Y-97045147D01*
X104281335Y-96990000D01*
X103998665Y-96990000D01*
X103721426Y-97045147D01*
X103460273Y-97153320D01*
X103225241Y-97310363D01*
X103025363Y-97510241D01*
X103005479Y-97540000D01*
X90034521Y-97540000D01*
X90014637Y-97510241D01*
X89814759Y-97310363D01*
X89579727Y-97153320D01*
X89318574Y-97045147D01*
X89041335Y-96990000D01*
X88758665Y-96990000D01*
X88481426Y-97045147D01*
X88220273Y-97153320D01*
X87985241Y-97310363D01*
X87785363Y-97510241D01*
X87628320Y-97745273D01*
X87520147Y-98006426D01*
X87465000Y-98283665D01*
X17830000Y-98283665D01*
X17830000Y-93765000D01*
X93126928Y-93765000D01*
X93126928Y-95465000D01*
X93139188Y-95589482D01*
X93175498Y-95709180D01*
X93234463Y-95819494D01*
X93313815Y-95916185D01*
X93410506Y-95995537D01*
X93520820Y-96054502D01*
X93640518Y-96090812D01*
X93765000Y-96103072D01*
X95465000Y-96103072D01*
X95589482Y-96090812D01*
X95709180Y-96054502D01*
X95819494Y-95995537D01*
X95916185Y-95916185D01*
X95995537Y-95819494D01*
X96054502Y-95709180D01*
X96075393Y-95640313D01*
X96099866Y-95670134D01*
X96325986Y-95855706D01*
X96583966Y-95993599D01*
X96863889Y-96078513D01*
X97082050Y-96100000D01*
X97227950Y-96100000D01*
X97446111Y-96078513D01*
X97726034Y-95993599D01*
X97984014Y-95855706D01*
X98210134Y-95670134D01*
X98395706Y-95444014D01*
X98425000Y-95389209D01*
X98454294Y-95444014D01*
X98639866Y-95670134D01*
X98865986Y-95855706D01*
X99123966Y-95993599D01*
X99403889Y-96078513D01*
X99622050Y-96100000D01*
X99767950Y-96100000D01*
X99986111Y-96078513D01*
X100266034Y-95993599D01*
X100524014Y-95855706D01*
X100750134Y-95670134D01*
X100935706Y-95444014D01*
X100965000Y-95389209D01*
X100994294Y-95444014D01*
X101179866Y-95670134D01*
X101405986Y-95855706D01*
X101663966Y-95993599D01*
X101943889Y-96078513D01*
X102162050Y-96100000D01*
X102307950Y-96100000D01*
X102526111Y-96078513D01*
X102806034Y-95993599D01*
X103064014Y-95855706D01*
X103290134Y-95670134D01*
X103475706Y-95444014D01*
X103505000Y-95389209D01*
X103534294Y-95444014D01*
X103719866Y-95670134D01*
X103945986Y-95855706D01*
X104203966Y-95993599D01*
X104483889Y-96078513D01*
X104702050Y-96100000D01*
X104847950Y-96100000D01*
X105066111Y-96078513D01*
X105346034Y-95993599D01*
X105604014Y-95855706D01*
X105830134Y-95670134D01*
X106015706Y-95444014D01*
X106045000Y-95389209D01*
X106074294Y-95444014D01*
X106259866Y-95670134D01*
X106485986Y-95855706D01*
X106743966Y-95993599D01*
X107023889Y-96078513D01*
X107242050Y-96100000D01*
X107387950Y-96100000D01*
X107606111Y-96078513D01*
X107886034Y-95993599D01*
X108144014Y-95855706D01*
X108370134Y-95670134D01*
X108555706Y-95444014D01*
X108585000Y-95389209D01*
X108614294Y-95444014D01*
X108799866Y-95670134D01*
X109025986Y-95855706D01*
X109283966Y-95993599D01*
X109563889Y-96078513D01*
X109782050Y-96100000D01*
X109927950Y-96100000D01*
X110146111Y-96078513D01*
X110426034Y-95993599D01*
X110684014Y-95855706D01*
X110910134Y-95670134D01*
X111095706Y-95444014D01*
X111125000Y-95389209D01*
X111154294Y-95444014D01*
X111339866Y-95670134D01*
X111565986Y-95855706D01*
X111823966Y-95993599D01*
X112103889Y-96078513D01*
X112322050Y-96100000D01*
X112467950Y-96100000D01*
X112686111Y-96078513D01*
X112966034Y-95993599D01*
X113224014Y-95855706D01*
X113450134Y-95670134D01*
X113635706Y-95444014D01*
X113773599Y-95186034D01*
X113858513Y-94906111D01*
X113887185Y-94615000D01*
X121062815Y-94615000D01*
X121091487Y-94906111D01*
X121176401Y-95186034D01*
X121314294Y-95444014D01*
X121499866Y-95670134D01*
X121725986Y-95855706D01*
X121983966Y-95993599D01*
X122263889Y-96078513D01*
X122482050Y-96100000D01*
X122627950Y-96100000D01*
X122846111Y-96078513D01*
X123126034Y-95993599D01*
X123384014Y-95855706D01*
X123610134Y-95670134D01*
X123634607Y-95640313D01*
X123655498Y-95709180D01*
X123714463Y-95819494D01*
X123793815Y-95916185D01*
X123890506Y-95995537D01*
X124000820Y-96054502D01*
X124120518Y-96090812D01*
X124245000Y-96103072D01*
X125945000Y-96103072D01*
X126069482Y-96090812D01*
X126189180Y-96054502D01*
X126299494Y-95995537D01*
X126396185Y-95916185D01*
X126475537Y-95819494D01*
X126534502Y-95709180D01*
X126570812Y-95589482D01*
X126583072Y-95465000D01*
X126583072Y-93765000D01*
X126570812Y-93640518D01*
X126534502Y-93520820D01*
X126475537Y-93410506D01*
X126396185Y-93313815D01*
X126299494Y-93234463D01*
X126189180Y-93175498D01*
X126069482Y-93139188D01*
X125945000Y-93126928D01*
X124245000Y-93126928D01*
X124120518Y-93139188D01*
X124000820Y-93175498D01*
X123890506Y-93234463D01*
X123793815Y-93313815D01*
X123714463Y-93410506D01*
X123655498Y-93520820D01*
X123634607Y-93589687D01*
X123610134Y-93559866D01*
X123384014Y-93374294D01*
X123126034Y-93236401D01*
X122846111Y-93151487D01*
X122627950Y-93130000D01*
X122482050Y-93130000D01*
X122263889Y-93151487D01*
X121983966Y-93236401D01*
X121725986Y-93374294D01*
X121499866Y-93559866D01*
X121314294Y-93785986D01*
X121176401Y-94043966D01*
X121091487Y-94323889D01*
X121062815Y-94615000D01*
X113887185Y-94615000D01*
X113858513Y-94323889D01*
X113773599Y-94043966D01*
X113635706Y-93785986D01*
X113450134Y-93559866D01*
X113224014Y-93374294D01*
X112966034Y-93236401D01*
X112686111Y-93151487D01*
X112467950Y-93130000D01*
X112322050Y-93130000D01*
X112103889Y-93151487D01*
X111823966Y-93236401D01*
X111565986Y-93374294D01*
X111339866Y-93559866D01*
X111154294Y-93785986D01*
X111125000Y-93840791D01*
X111095706Y-93785986D01*
X110910134Y-93559866D01*
X110684014Y-93374294D01*
X110426034Y-93236401D01*
X110146111Y-93151487D01*
X109927950Y-93130000D01*
X109782050Y-93130000D01*
X109563889Y-93151487D01*
X109283966Y-93236401D01*
X109025986Y-93374294D01*
X108799866Y-93559866D01*
X108614294Y-93785986D01*
X108585000Y-93840791D01*
X108555706Y-93785986D01*
X108370134Y-93559866D01*
X108144014Y-93374294D01*
X107886034Y-93236401D01*
X107606111Y-93151487D01*
X107387950Y-93130000D01*
X107242050Y-93130000D01*
X107023889Y-93151487D01*
X106743966Y-93236401D01*
X106485986Y-93374294D01*
X106259866Y-93559866D01*
X106074294Y-93785986D01*
X106045000Y-93840791D01*
X106015706Y-93785986D01*
X105830134Y-93559866D01*
X105604014Y-93374294D01*
X105346034Y-93236401D01*
X105066111Y-93151487D01*
X104847950Y-93130000D01*
X104702050Y-93130000D01*
X104483889Y-93151487D01*
X104203966Y-93236401D01*
X103945986Y-93374294D01*
X103719866Y-93559866D01*
X103534294Y-93785986D01*
X103505000Y-93840791D01*
X103475706Y-93785986D01*
X103290134Y-93559866D01*
X103064014Y-93374294D01*
X102806034Y-93236401D01*
X102526111Y-93151487D01*
X102307950Y-93130000D01*
X102162050Y-93130000D01*
X101943889Y-93151487D01*
X101663966Y-93236401D01*
X101405986Y-93374294D01*
X101179866Y-93559866D01*
X100994294Y-93785986D01*
X100965000Y-93840791D01*
X100935706Y-93785986D01*
X100750134Y-93559866D01*
X100524014Y-93374294D01*
X100266034Y-93236401D01*
X99986111Y-93151487D01*
X99767950Y-93130000D01*
X99622050Y-93130000D01*
X99403889Y-93151487D01*
X99123966Y-93236401D01*
X98865986Y-93374294D01*
X98639866Y-93559866D01*
X98454294Y-93785986D01*
X98425000Y-93840791D01*
X98395706Y-93785986D01*
X98210134Y-93559866D01*
X97984014Y-93374294D01*
X97726034Y-93236401D01*
X97446111Y-93151487D01*
X97227950Y-93130000D01*
X97082050Y-93130000D01*
X96863889Y-93151487D01*
X96583966Y-93236401D01*
X96325986Y-93374294D01*
X96099866Y-93559866D01*
X96075393Y-93589687D01*
X96054502Y-93520820D01*
X95995537Y-93410506D01*
X95916185Y-93313815D01*
X95819494Y-93234463D01*
X95709180Y-93175498D01*
X95589482Y-93139188D01*
X95465000Y-93126928D01*
X93765000Y-93126928D01*
X93640518Y-93139188D01*
X93520820Y-93175498D01*
X93410506Y-93234463D01*
X93313815Y-93313815D01*
X93234463Y-93410506D01*
X93175498Y-93520820D01*
X93139188Y-93640518D01*
X93126928Y-93765000D01*
X17830000Y-93765000D01*
X17830000Y-83678665D01*
X28410000Y-83678665D01*
X28410000Y-83961335D01*
X28465147Y-84238574D01*
X28573320Y-84499727D01*
X28730363Y-84734759D01*
X28930241Y-84934637D01*
X29165273Y-85091680D01*
X29426426Y-85199853D01*
X29703665Y-85255000D01*
X29986335Y-85255000D01*
X30263574Y-85199853D01*
X30524727Y-85091680D01*
X30759759Y-84934637D01*
X30959637Y-84734759D01*
X31116680Y-84499727D01*
X31224853Y-84238574D01*
X31280000Y-83961335D01*
X31280000Y-83678665D01*
X31224853Y-83401426D01*
X31116680Y-83140273D01*
X30959637Y-82905241D01*
X30759759Y-82705363D01*
X30730000Y-82685479D01*
X30730000Y-79106578D01*
X33355916Y-76480662D01*
X33378829Y-76535979D01*
X33535872Y-76771011D01*
X33735750Y-76970889D01*
X33970782Y-77127932D01*
X34231935Y-77236105D01*
X34509174Y-77291252D01*
X34791844Y-77291252D01*
X34826948Y-77284269D01*
X35607727Y-78065049D01*
X35635440Y-78098817D01*
X35669208Y-78126530D01*
X35669210Y-78126532D01*
X35697473Y-78149727D01*
X35770198Y-78209411D01*
X35923944Y-78291589D01*
X36090767Y-78342195D01*
X36220780Y-78355000D01*
X36220790Y-78355000D01*
X36264256Y-78359281D01*
X36307722Y-78355000D01*
X47125479Y-78355000D01*
X47145363Y-78384759D01*
X47345241Y-78584637D01*
X47580273Y-78741680D01*
X47841426Y-78849853D01*
X48118665Y-78905000D01*
X48401335Y-78905000D01*
X48678574Y-78849853D01*
X48939727Y-78741680D01*
X49174759Y-78584637D01*
X49374637Y-78384759D01*
X49394521Y-78355000D01*
X60460479Y-78355000D01*
X60480363Y-78384759D01*
X60680241Y-78584637D01*
X60915273Y-78741680D01*
X61176426Y-78849853D01*
X61453665Y-78905000D01*
X61736335Y-78905000D01*
X62013574Y-78849853D01*
X62274727Y-78741680D01*
X62509759Y-78584637D01*
X62709637Y-78384759D01*
X62729521Y-78355000D01*
X73795479Y-78355000D01*
X73815363Y-78384759D01*
X74015241Y-78584637D01*
X74250273Y-78741680D01*
X74511426Y-78849853D01*
X74788665Y-78905000D01*
X75071335Y-78905000D01*
X75348574Y-78849853D01*
X75609727Y-78741680D01*
X75844759Y-78584637D01*
X76044637Y-78384759D01*
X76201680Y-78149727D01*
X76309853Y-77888574D01*
X76365000Y-77611335D01*
X76365000Y-77328665D01*
X76309853Y-77051426D01*
X76201680Y-76790273D01*
X76044637Y-76555241D01*
X75844759Y-76355363D01*
X75609727Y-76198320D01*
X75348574Y-76090147D01*
X75071335Y-76035000D01*
X74788665Y-76035000D01*
X74511426Y-76090147D01*
X74250273Y-76198320D01*
X74015241Y-76355363D01*
X73815363Y-76555241D01*
X73795479Y-76585000D01*
X62729521Y-76585000D01*
X62709637Y-76555241D01*
X62509759Y-76355363D01*
X62274727Y-76198320D01*
X62013574Y-76090147D01*
X61736335Y-76035000D01*
X61453665Y-76035000D01*
X61176426Y-76090147D01*
X60915273Y-76198320D01*
X60680241Y-76355363D01*
X60480363Y-76555241D01*
X60460479Y-76585000D01*
X49394521Y-76585000D01*
X49374637Y-76555241D01*
X49174759Y-76355363D01*
X48939727Y-76198320D01*
X48678574Y-76090147D01*
X48401335Y-76035000D01*
X48118665Y-76035000D01*
X47841426Y-76090147D01*
X47580273Y-76198320D01*
X47345241Y-76355363D01*
X47145363Y-76555241D01*
X47125479Y-76585000D01*
X36630836Y-76585000D01*
X36078526Y-76032691D01*
X36085509Y-75997587D01*
X36085509Y-75714917D01*
X36030362Y-75437678D01*
X35922189Y-75176525D01*
X35765146Y-74941493D01*
X35565268Y-74741615D01*
X35330236Y-74584572D01*
X35274920Y-74561659D01*
X35926579Y-73910000D01*
X39505479Y-73910000D01*
X39525363Y-73939759D01*
X39725241Y-74139637D01*
X39960273Y-74296680D01*
X40221426Y-74404853D01*
X40498665Y-74460000D01*
X40781335Y-74460000D01*
X41058574Y-74404853D01*
X41319727Y-74296680D01*
X41554759Y-74139637D01*
X41754637Y-73939759D01*
X41774521Y-73910000D01*
X52840479Y-73910000D01*
X52860363Y-73939759D01*
X53060241Y-74139637D01*
X53295273Y-74296680D01*
X53556426Y-74404853D01*
X53833665Y-74460000D01*
X54116335Y-74460000D01*
X54393574Y-74404853D01*
X54654727Y-74296680D01*
X54889759Y-74139637D01*
X55089637Y-73939759D01*
X55109521Y-73910000D01*
X66175479Y-73910000D01*
X66195363Y-73939759D01*
X66395241Y-74139637D01*
X66630273Y-74296680D01*
X66891426Y-74404853D01*
X67168665Y-74460000D01*
X67451335Y-74460000D01*
X67486439Y-74453017D01*
X67923470Y-74890049D01*
X67951183Y-74923817D01*
X67984951Y-74951530D01*
X67984953Y-74951532D01*
X68024585Y-74984057D01*
X68085941Y-75034411D01*
X68239687Y-75116589D01*
X68406510Y-75167195D01*
X68536523Y-75180000D01*
X68536533Y-75180000D01*
X68579999Y-75184281D01*
X68623465Y-75180000D01*
X79011531Y-75180000D01*
X79055000Y-75184281D01*
X79098469Y-75180000D01*
X79098477Y-75180000D01*
X79228490Y-75167195D01*
X79395313Y-75116589D01*
X79445907Y-75089546D01*
X79536165Y-75107500D01*
X79818835Y-75107500D01*
X80096074Y-75052353D01*
X80357227Y-74944180D01*
X80592259Y-74787137D01*
X80792137Y-74587259D01*
X80949180Y-74352227D01*
X81057353Y-74091074D01*
X81112500Y-73813835D01*
X81112500Y-73531165D01*
X81057353Y-73253926D01*
X81014305Y-73150000D01*
X86090987Y-73150000D01*
X86077795Y-73169744D01*
X85999774Y-73358102D01*
X85960000Y-73558061D01*
X85960000Y-73761939D01*
X85999774Y-73961898D01*
X86077795Y-74150256D01*
X86191063Y-74319774D01*
X86335226Y-74463937D01*
X86504744Y-74577205D01*
X86693102Y-74655226D01*
X86893061Y-74695000D01*
X86955199Y-74695000D01*
X88481204Y-76221007D01*
X88504998Y-76250000D01*
X88533991Y-76273794D01*
X88533995Y-76273798D01*
X88604684Y-76331810D01*
X88620723Y-76344973D01*
X88752752Y-76415545D01*
X88896013Y-76459002D01*
X89007666Y-76469999D01*
X89007675Y-76469999D01*
X89044998Y-76473675D01*
X89082321Y-76469999D01*
X89125200Y-76469999D01*
X93576202Y-80921002D01*
X93600000Y-80950000D01*
X93715725Y-81044973D01*
X93847754Y-81115545D01*
X93991015Y-81159002D01*
X94102668Y-81169999D01*
X94102676Y-81169999D01*
X94140001Y-81173675D01*
X94177326Y-81169999D01*
X101516290Y-81169999D01*
X101431063Y-81255226D01*
X101317795Y-81424744D01*
X101239774Y-81613102D01*
X101200000Y-81813061D01*
X101200000Y-81824998D01*
X101188063Y-81824998D01*
X100988104Y-81864772D01*
X100799746Y-81942793D01*
X100630228Y-82056061D01*
X100486065Y-82200224D01*
X100372797Y-82369742D01*
X100294776Y-82558100D01*
X100255002Y-82758059D01*
X100255002Y-82820197D01*
X100104002Y-82971197D01*
X100074999Y-82994999D01*
X100019871Y-83062174D01*
X99980026Y-83110724D01*
X99952674Y-83161896D01*
X99909454Y-83242754D01*
X99865997Y-83386015D01*
X99855000Y-83497668D01*
X99855000Y-83497678D01*
X99851324Y-83535000D01*
X99855000Y-83572323D01*
X99855001Y-85122136D01*
X99811063Y-85166074D01*
X99697795Y-85335592D01*
X99619774Y-85523950D01*
X99580000Y-85723909D01*
X99580000Y-85927787D01*
X99619774Y-86127746D01*
X99697795Y-86316104D01*
X99811063Y-86485622D01*
X99955226Y-86629785D01*
X100124744Y-86743053D01*
X100313102Y-86821074D01*
X100513061Y-86860848D01*
X100716939Y-86860848D01*
X100916898Y-86821074D01*
X101105256Y-86743053D01*
X101274774Y-86629785D01*
X101418937Y-86485622D01*
X101530006Y-86319396D01*
X101530006Y-88042675D01*
X101526329Y-88080007D01*
X101530006Y-88117340D01*
X101541003Y-88228993D01*
X101554185Y-88272449D01*
X101584459Y-88372253D01*
X101655031Y-88504283D01*
X101712661Y-88574504D01*
X101750005Y-88620008D01*
X101779003Y-88643806D01*
X101851302Y-88716105D01*
X101835000Y-88798061D01*
X101835000Y-89001939D01*
X101859379Y-89124504D01*
X89883900Y-89124504D01*
X89814759Y-89055363D01*
X89579727Y-88898320D01*
X89318574Y-88790147D01*
X89041335Y-88735000D01*
X88758665Y-88735000D01*
X88481426Y-88790147D01*
X88220273Y-88898320D01*
X87985241Y-89055363D01*
X87785363Y-89255241D01*
X87628320Y-89490273D01*
X87520147Y-89751426D01*
X87465000Y-90028665D01*
X87465000Y-90311335D01*
X87520147Y-90588574D01*
X87628320Y-90849727D01*
X87785363Y-91084759D01*
X87985241Y-91284637D01*
X88220273Y-91441680D01*
X88481426Y-91549853D01*
X88758665Y-91605000D01*
X89041335Y-91605000D01*
X89318574Y-91549853D01*
X89579727Y-91441680D01*
X89814759Y-91284637D01*
X90014637Y-91084759D01*
X90141761Y-90894504D01*
X104435975Y-90894504D01*
X104455859Y-90924263D01*
X104655737Y-91124141D01*
X104890769Y-91281184D01*
X105151922Y-91389357D01*
X105429161Y-91444504D01*
X105711831Y-91444504D01*
X105989070Y-91389357D01*
X106250223Y-91281184D01*
X106485255Y-91124141D01*
X106685133Y-90924263D01*
X106842176Y-90689231D01*
X106950349Y-90428078D01*
X107005496Y-90150839D01*
X107005496Y-89868169D01*
X106950349Y-89590930D01*
X106842176Y-89329777D01*
X106685133Y-89094745D01*
X106485255Y-88894867D01*
X106250223Y-88737824D01*
X105989070Y-88629651D01*
X105711831Y-88574504D01*
X105429161Y-88574504D01*
X105151922Y-88629651D01*
X104890769Y-88737824D01*
X104655737Y-88894867D01*
X104455859Y-89094745D01*
X104435975Y-89124504D01*
X103880621Y-89124504D01*
X103905000Y-89001939D01*
X103905000Y-88798061D01*
X103865226Y-88598102D01*
X103787205Y-88409744D01*
X103673937Y-88240226D01*
X103529774Y-88096063D01*
X103360256Y-87982795D01*
X103202072Y-87917273D01*
X103050005Y-87765206D01*
X103050005Y-82558210D01*
X103152205Y-82405256D01*
X103230226Y-82216898D01*
X103270000Y-82016939D01*
X103270000Y-81813061D01*
X103230226Y-81613102D01*
X103152205Y-81424744D01*
X103038937Y-81255226D01*
X102953710Y-81169999D01*
X104552679Y-81169999D01*
X104590001Y-81173675D01*
X104627323Y-81169999D01*
X104627334Y-81169999D01*
X104738987Y-81159002D01*
X104882248Y-81115545D01*
X105014226Y-81045000D01*
X105091939Y-81045000D01*
X105291898Y-81005226D01*
X105480256Y-80927205D01*
X105649774Y-80813937D01*
X105793937Y-80669774D01*
X105907205Y-80500256D01*
X105985226Y-80311898D01*
X106025000Y-80111939D01*
X106025000Y-79908061D01*
X105998533Y-79775000D01*
X106146939Y-79775000D01*
X106346898Y-79735226D01*
X106535256Y-79657205D01*
X106704774Y-79543937D01*
X106848937Y-79399774D01*
X106962205Y-79230256D01*
X107040226Y-79041898D01*
X107080000Y-78841939D01*
X107080000Y-78757429D01*
X107241898Y-78725226D01*
X107430256Y-78647205D01*
X107599774Y-78533937D01*
X107743937Y-78389774D01*
X107857205Y-78220256D01*
X107935226Y-78031898D01*
X107975000Y-77831939D01*
X107975000Y-77628061D01*
X107935226Y-77428102D01*
X107857205Y-77239744D01*
X107743937Y-77070226D01*
X107599774Y-76926063D01*
X107458542Y-76831695D01*
X107458542Y-73075169D01*
X107483937Y-73049774D01*
X107597205Y-72880256D01*
X107675226Y-72691898D01*
X107715000Y-72491939D01*
X107715000Y-72288061D01*
X107675226Y-72088102D01*
X107597205Y-71899744D01*
X107483937Y-71730226D01*
X107339774Y-71586063D01*
X107170256Y-71472795D01*
X106981898Y-71394774D01*
X106781939Y-71355000D01*
X106719801Y-71355000D01*
X106608804Y-71244003D01*
X106585001Y-71214999D01*
X106469276Y-71120026D01*
X106337247Y-71049454D01*
X106193986Y-71005997D01*
X106082333Y-70995000D01*
X106082322Y-70995000D01*
X106045000Y-70991324D01*
X106007678Y-70995000D01*
X98989801Y-70995000D01*
X101869005Y-68115797D01*
X101943889Y-68138513D01*
X102162050Y-68160000D01*
X102307950Y-68160000D01*
X102526111Y-68138513D01*
X102806034Y-68053599D01*
X103064014Y-67915706D01*
X103290134Y-67730134D01*
X103475706Y-67504014D01*
X103505000Y-67449209D01*
X103534294Y-67504014D01*
X103719866Y-67730134D01*
X103945986Y-67915706D01*
X104203966Y-68053599D01*
X104483889Y-68138513D01*
X104702050Y-68160000D01*
X104847950Y-68160000D01*
X105066111Y-68138513D01*
X105346034Y-68053599D01*
X105604014Y-67915706D01*
X105830134Y-67730134D01*
X106015706Y-67504014D01*
X106045000Y-67449209D01*
X106074294Y-67504014D01*
X106259866Y-67730134D01*
X106485986Y-67915706D01*
X106743966Y-68053599D01*
X107023889Y-68138513D01*
X107242050Y-68160000D01*
X107387950Y-68160000D01*
X107606111Y-68138513D01*
X107886034Y-68053599D01*
X108125696Y-67925497D01*
X109926201Y-69726003D01*
X109949999Y-69755001D01*
X110065724Y-69849974D01*
X110197753Y-69920546D01*
X110341014Y-69964003D01*
X110452667Y-69975000D01*
X110452675Y-69975000D01*
X110490000Y-69978676D01*
X110527325Y-69975000D01*
X115970291Y-69975000D01*
X116014228Y-70018937D01*
X116026969Y-70027450D01*
X114409950Y-71644470D01*
X114376183Y-71672182D01*
X114348470Y-71705950D01*
X114348467Y-71705953D01*
X114265589Y-71806940D01*
X114183411Y-71960686D01*
X114132804Y-72127509D01*
X114115718Y-72300999D01*
X114120000Y-72344478D01*
X114119999Y-73578370D01*
X114090240Y-73598255D01*
X113890362Y-73798133D01*
X113733319Y-74033165D01*
X113625146Y-74294318D01*
X113569999Y-74571557D01*
X113569999Y-74854227D01*
X113625146Y-75131466D01*
X113733319Y-75392619D01*
X113890362Y-75627651D01*
X114090240Y-75827529D01*
X114325272Y-75984572D01*
X114586425Y-76092745D01*
X114863664Y-76147892D01*
X115146334Y-76147892D01*
X115423573Y-76092745D01*
X115684726Y-75984572D01*
X115919758Y-75827529D01*
X116119636Y-75627651D01*
X116276679Y-75392619D01*
X116336403Y-75248434D01*
X116419866Y-75350134D01*
X116645986Y-75535706D01*
X116700791Y-75565000D01*
X116645986Y-75594294D01*
X116419866Y-75779866D01*
X116234294Y-76005986D01*
X116096401Y-76263966D01*
X116011487Y-76543889D01*
X115982815Y-76835000D01*
X116011487Y-77126111D01*
X116096401Y-77406034D01*
X116234294Y-77664014D01*
X116419866Y-77890134D01*
X116645986Y-78075706D01*
X116700791Y-78105000D01*
X116645986Y-78134294D01*
X116419866Y-78319866D01*
X116234294Y-78545986D01*
X116096401Y-78803966D01*
X116011487Y-79083889D01*
X115982815Y-79375000D01*
X116011487Y-79666111D01*
X116096401Y-79946034D01*
X116234294Y-80204014D01*
X116419866Y-80430134D01*
X116645986Y-80615706D01*
X116700791Y-80645000D01*
X116645986Y-80674294D01*
X116419866Y-80859866D01*
X116234294Y-81085986D01*
X116096401Y-81343966D01*
X116011487Y-81623889D01*
X115982815Y-81915000D01*
X116011487Y-82206111D01*
X116096401Y-82486034D01*
X116234294Y-82744014D01*
X116419866Y-82970134D01*
X116645986Y-83155706D01*
X116700791Y-83185000D01*
X116645986Y-83214294D01*
X116419866Y-83399866D01*
X116234294Y-83625986D01*
X116096401Y-83883966D01*
X116011487Y-84163889D01*
X115982815Y-84455000D01*
X116011487Y-84746111D01*
X116096401Y-85026034D01*
X116234294Y-85284014D01*
X116419866Y-85510134D01*
X116645986Y-85695706D01*
X116700791Y-85725000D01*
X116645986Y-85754294D01*
X116419866Y-85939866D01*
X116234294Y-86165986D01*
X116096401Y-86423966D01*
X116011487Y-86703889D01*
X115982815Y-86995000D01*
X116011487Y-87286111D01*
X116096401Y-87566034D01*
X116234294Y-87824014D01*
X116419866Y-88050134D01*
X116449687Y-88074607D01*
X116380820Y-88095498D01*
X116270506Y-88154463D01*
X116173815Y-88233815D01*
X116094463Y-88330506D01*
X116035498Y-88440820D01*
X115999188Y-88560518D01*
X115986928Y-88685000D01*
X115986928Y-90385000D01*
X115999188Y-90509482D01*
X116035498Y-90629180D01*
X116094463Y-90739494D01*
X116173815Y-90836185D01*
X116270506Y-90915537D01*
X116380820Y-90974502D01*
X116500518Y-91010812D01*
X116625000Y-91023072D01*
X118325000Y-91023072D01*
X118449482Y-91010812D01*
X118569180Y-90974502D01*
X118679494Y-90915537D01*
X118776185Y-90836185D01*
X118855537Y-90739494D01*
X118914502Y-90629180D01*
X118950812Y-90509482D01*
X118963072Y-90385000D01*
X118963072Y-88685000D01*
X118950812Y-88560518D01*
X118914502Y-88440820D01*
X118855537Y-88330506D01*
X118776185Y-88233815D01*
X118679494Y-88154463D01*
X118569180Y-88095498D01*
X118500313Y-88074607D01*
X118530134Y-88050134D01*
X118715706Y-87824014D01*
X118853599Y-87566034D01*
X118938513Y-87286111D01*
X118967185Y-86995000D01*
X118938513Y-86703889D01*
X118853599Y-86423966D01*
X118715706Y-86165986D01*
X118530134Y-85939866D01*
X118304014Y-85754294D01*
X118249209Y-85725000D01*
X118304014Y-85695706D01*
X118530134Y-85510134D01*
X118715706Y-85284014D01*
X118853599Y-85026034D01*
X118938513Y-84746111D01*
X118967185Y-84455000D01*
X118938513Y-84163889D01*
X118853599Y-83883966D01*
X118715706Y-83625986D01*
X118530134Y-83399866D01*
X118304014Y-83214294D01*
X118249209Y-83185000D01*
X118304014Y-83155706D01*
X118530134Y-82970134D01*
X118715706Y-82744014D01*
X118853599Y-82486034D01*
X118938513Y-82206111D01*
X118967185Y-81915000D01*
X118938513Y-81623889D01*
X118853599Y-81343966D01*
X118715706Y-81085986D01*
X118530134Y-80859866D01*
X118304014Y-80674294D01*
X118249209Y-80645000D01*
X118304014Y-80615706D01*
X118530134Y-80430134D01*
X118715706Y-80204014D01*
X118853599Y-79946034D01*
X118938513Y-79666111D01*
X118967185Y-79375000D01*
X118938513Y-79083889D01*
X118853599Y-78803966D01*
X118715706Y-78545986D01*
X118530134Y-78319866D01*
X118304014Y-78134294D01*
X118249209Y-78105000D01*
X118304014Y-78075706D01*
X118530134Y-77890134D01*
X118715706Y-77664014D01*
X118853599Y-77406034D01*
X118938513Y-77126111D01*
X118967185Y-76835000D01*
X118938513Y-76543889D01*
X118853599Y-76263966D01*
X118715706Y-76005986D01*
X118530134Y-75779866D01*
X118304014Y-75594294D01*
X118249209Y-75565000D01*
X118304014Y-75535706D01*
X118530134Y-75350134D01*
X118715706Y-75124014D01*
X118853599Y-74866034D01*
X118938513Y-74586111D01*
X118967185Y-74295000D01*
X124237815Y-74295000D01*
X124266487Y-74586111D01*
X124351401Y-74866034D01*
X124489294Y-75124014D01*
X124674866Y-75350134D01*
X124900986Y-75535706D01*
X124955791Y-75565000D01*
X124900986Y-75594294D01*
X124674866Y-75779866D01*
X124489294Y-76005986D01*
X124351401Y-76263966D01*
X124266487Y-76543889D01*
X124237815Y-76835000D01*
X124266487Y-77126111D01*
X124351401Y-77406034D01*
X124489294Y-77664014D01*
X124674866Y-77890134D01*
X124900986Y-78075706D01*
X124955791Y-78105000D01*
X124900986Y-78134294D01*
X124674866Y-78319866D01*
X124489294Y-78545986D01*
X124351401Y-78803966D01*
X124266487Y-79083889D01*
X124237815Y-79375000D01*
X124266487Y-79666111D01*
X124351401Y-79946034D01*
X124489294Y-80204014D01*
X124674866Y-80430134D01*
X124900986Y-80615706D01*
X124955791Y-80645000D01*
X124900986Y-80674294D01*
X124674866Y-80859866D01*
X124489294Y-81085986D01*
X124351401Y-81343966D01*
X124266487Y-81623889D01*
X124237815Y-81915000D01*
X124266487Y-82206111D01*
X124351401Y-82486034D01*
X124489294Y-82744014D01*
X124674866Y-82970134D01*
X124704687Y-82994607D01*
X124635820Y-83015498D01*
X124525506Y-83074463D01*
X124428815Y-83153815D01*
X124349463Y-83250506D01*
X124290498Y-83360820D01*
X124254188Y-83480518D01*
X124241928Y-83605000D01*
X124241928Y-85305000D01*
X124254188Y-85429482D01*
X124290498Y-85549180D01*
X124349463Y-85659494D01*
X124428815Y-85756185D01*
X124525506Y-85835537D01*
X124635820Y-85894502D01*
X124755518Y-85930812D01*
X124880000Y-85943072D01*
X126580000Y-85943072D01*
X126704482Y-85930812D01*
X126824180Y-85894502D01*
X126934494Y-85835537D01*
X127031185Y-85756185D01*
X127110537Y-85659494D01*
X127169502Y-85549180D01*
X127205812Y-85429482D01*
X127218072Y-85305000D01*
X127218072Y-83605000D01*
X127205812Y-83480518D01*
X127169502Y-83360820D01*
X127110537Y-83250506D01*
X127031185Y-83153815D01*
X126934494Y-83074463D01*
X126824180Y-83015498D01*
X126755313Y-82994607D01*
X126785134Y-82970134D01*
X126970706Y-82744014D01*
X127108599Y-82486034D01*
X127193513Y-82206111D01*
X127222185Y-81915000D01*
X127193513Y-81623889D01*
X127108599Y-81343966D01*
X126970706Y-81085986D01*
X126785134Y-80859866D01*
X126559014Y-80674294D01*
X126504209Y-80645000D01*
X126559014Y-80615706D01*
X126785134Y-80430134D01*
X126970706Y-80204014D01*
X127108599Y-79946034D01*
X127193513Y-79666111D01*
X127222185Y-79375000D01*
X127193513Y-79083889D01*
X127108599Y-78803966D01*
X126970706Y-78545986D01*
X126785134Y-78319866D01*
X126559014Y-78134294D01*
X126504209Y-78105000D01*
X126559014Y-78075706D01*
X126785134Y-77890134D01*
X126970706Y-77664014D01*
X127108599Y-77406034D01*
X127193513Y-77126111D01*
X127222185Y-76835000D01*
X127193513Y-76543889D01*
X127108599Y-76263966D01*
X126970706Y-76005986D01*
X126785134Y-75779866D01*
X126559014Y-75594294D01*
X126504209Y-75565000D01*
X126559014Y-75535706D01*
X126785134Y-75350134D01*
X126970706Y-75124014D01*
X127108599Y-74866034D01*
X127193513Y-74586111D01*
X127222185Y-74295000D01*
X127193513Y-74003889D01*
X127108599Y-73723966D01*
X126970706Y-73465986D01*
X126785134Y-73239866D01*
X126559014Y-73054294D01*
X126494477Y-73019799D01*
X126611355Y-72950178D01*
X126827588Y-72755269D01*
X127001641Y-72521920D01*
X127126825Y-72259099D01*
X127171476Y-72111890D01*
X127050155Y-71882000D01*
X125857000Y-71882000D01*
X125857000Y-71902000D01*
X125603000Y-71902000D01*
X125603000Y-71882000D01*
X124409845Y-71882000D01*
X124288524Y-72111890D01*
X124333175Y-72259099D01*
X124458359Y-72521920D01*
X124632412Y-72755269D01*
X124848645Y-72950178D01*
X124965523Y-73019799D01*
X124900986Y-73054294D01*
X124674866Y-73239866D01*
X124489294Y-73465986D01*
X124351401Y-73723966D01*
X124266487Y-74003889D01*
X124237815Y-74295000D01*
X118967185Y-74295000D01*
X118938513Y-74003889D01*
X118853599Y-73723966D01*
X118715706Y-73465986D01*
X118530134Y-73239866D01*
X118304014Y-73054294D01*
X118249209Y-73025000D01*
X118304014Y-72995706D01*
X118530134Y-72810134D01*
X118715706Y-72584014D01*
X118853599Y-72326034D01*
X118938513Y-72046111D01*
X118967185Y-71755000D01*
X118938513Y-71463889D01*
X118900931Y-71339999D01*
X119618421Y-71339999D01*
X120491983Y-72213561D01*
X120485000Y-72248665D01*
X120485000Y-72531335D01*
X120540147Y-72808574D01*
X120648320Y-73069727D01*
X120805363Y-73304759D01*
X121005241Y-73504637D01*
X121240273Y-73661680D01*
X121501426Y-73769853D01*
X121778665Y-73825000D01*
X122061335Y-73825000D01*
X122338574Y-73769853D01*
X122599727Y-73661680D01*
X122834759Y-73504637D01*
X123034637Y-73304759D01*
X123191680Y-73069727D01*
X123299853Y-72808574D01*
X123355000Y-72531335D01*
X123355000Y-72248665D01*
X123299853Y-71971426D01*
X123191680Y-71710273D01*
X123034637Y-71475241D01*
X122957506Y-71398110D01*
X124288524Y-71398110D01*
X124409845Y-71628000D01*
X125603000Y-71628000D01*
X125603000Y-70434186D01*
X125857000Y-70434186D01*
X125857000Y-71628000D01*
X127050155Y-71628000D01*
X127171476Y-71398110D01*
X127126825Y-71250901D01*
X127001641Y-70988080D01*
X126827588Y-70754731D01*
X126611355Y-70559822D01*
X126361252Y-70410843D01*
X126086891Y-70313519D01*
X125857000Y-70434186D01*
X125603000Y-70434186D01*
X125373109Y-70313519D01*
X125098748Y-70410843D01*
X124848645Y-70559822D01*
X124632412Y-70754731D01*
X124458359Y-70988080D01*
X124333175Y-71250901D01*
X124288524Y-71398110D01*
X122957506Y-71398110D01*
X122834759Y-71275363D01*
X122599727Y-71118320D01*
X122338574Y-71010147D01*
X122061335Y-70955000D01*
X121778665Y-70955000D01*
X121743561Y-70961983D01*
X120641533Y-69859955D01*
X120613816Y-69826182D01*
X120479058Y-69715588D01*
X120325312Y-69633410D01*
X120158489Y-69582804D01*
X120028476Y-69569999D01*
X120028468Y-69569999D01*
X119984999Y-69565718D01*
X119941530Y-69569999D01*
X117647233Y-69569999D01*
X117669228Y-69516898D01*
X117709002Y-69316939D01*
X117709002Y-69113061D01*
X117669228Y-68913102D01*
X117591207Y-68724744D01*
X117477939Y-68555226D01*
X117333776Y-68411063D01*
X117164258Y-68297795D01*
X116975900Y-68219774D01*
X116775941Y-68180000D01*
X116572063Y-68180000D01*
X116372104Y-68219774D01*
X116183746Y-68297795D01*
X116014228Y-68411063D01*
X115970291Y-68455000D01*
X110804802Y-68455000D01*
X110408668Y-68058867D01*
X110426034Y-68053599D01*
X110684014Y-67915706D01*
X110910134Y-67730134D01*
X110934607Y-67700313D01*
X110955498Y-67769180D01*
X111014463Y-67879494D01*
X111093815Y-67976185D01*
X111190506Y-68055537D01*
X111300820Y-68114502D01*
X111420518Y-68150812D01*
X111545000Y-68163072D01*
X113245000Y-68163072D01*
X113369482Y-68150812D01*
X113489180Y-68114502D01*
X113599494Y-68055537D01*
X113696185Y-67976185D01*
X113775537Y-67879494D01*
X113834502Y-67769180D01*
X113870812Y-67649482D01*
X113883072Y-67525000D01*
X113883072Y-65825000D01*
X113870812Y-65700518D01*
X113834502Y-65580820D01*
X113775537Y-65470506D01*
X113696185Y-65373815D01*
X113599494Y-65294463D01*
X113489180Y-65235498D01*
X113369482Y-65199188D01*
X113245000Y-65186928D01*
X111545000Y-65186928D01*
X111420518Y-65199188D01*
X111300820Y-65235498D01*
X111190506Y-65294463D01*
X111093815Y-65373815D01*
X111014463Y-65470506D01*
X110955498Y-65580820D01*
X110934607Y-65649687D01*
X110910134Y-65619866D01*
X110684014Y-65434294D01*
X110426034Y-65296401D01*
X110146111Y-65211487D01*
X109927950Y-65190000D01*
X109782050Y-65190000D01*
X109563889Y-65211487D01*
X109283966Y-65296401D01*
X109025986Y-65434294D01*
X108950252Y-65496447D01*
X108442804Y-64989001D01*
X108419002Y-64959998D01*
X108303277Y-64865025D01*
X108171248Y-64794453D01*
X108027987Y-64750996D01*
X107916334Y-64739999D01*
X107916323Y-64739999D01*
X107879001Y-64736323D01*
X107841679Y-64739999D01*
X98367323Y-64739999D01*
X98330000Y-64736323D01*
X98292677Y-64739999D01*
X98292668Y-64739999D01*
X98181015Y-64750996D01*
X98037754Y-64794453D01*
X97905725Y-64865025D01*
X97790000Y-64959998D01*
X97766202Y-64988996D01*
X97520995Y-65234203D01*
X97446111Y-65211487D01*
X97227950Y-65190000D01*
X97082050Y-65190000D01*
X96863889Y-65211487D01*
X96583966Y-65296401D01*
X96325986Y-65434294D01*
X96099866Y-65619866D01*
X95914294Y-65845986D01*
X95885000Y-65900791D01*
X95855706Y-65845986D01*
X95670134Y-65619866D01*
X95444014Y-65434294D01*
X95186034Y-65296401D01*
X94906111Y-65211487D01*
X94687950Y-65190000D01*
X94542050Y-65190000D01*
X94323889Y-65211487D01*
X94043966Y-65296401D01*
X93785986Y-65434294D01*
X93559866Y-65619866D01*
X93374294Y-65845986D01*
X93236401Y-66103966D01*
X93151487Y-66383889D01*
X93122815Y-66675000D01*
X93151487Y-66966111D01*
X93236401Y-67246034D01*
X93374294Y-67504014D01*
X93559866Y-67730134D01*
X93785986Y-67915706D01*
X94043966Y-68053599D01*
X94323889Y-68138513D01*
X94542050Y-68160000D01*
X94687950Y-68160000D01*
X94906111Y-68138513D01*
X95186034Y-68053599D01*
X95444014Y-67915706D01*
X95670134Y-67730134D01*
X95855706Y-67504014D01*
X95885000Y-67449209D01*
X95914294Y-67504014D01*
X96099866Y-67730134D01*
X96325986Y-67915706D01*
X96583966Y-68053599D01*
X96863889Y-68138513D01*
X97082050Y-68160000D01*
X97135199Y-68160000D01*
X95570199Y-69725000D01*
X39130413Y-69725000D01*
X39095226Y-69548102D01*
X39017205Y-69359744D01*
X38903937Y-69190226D01*
X38759774Y-69046063D01*
X38590256Y-68932795D01*
X38401898Y-68854774D01*
X38201939Y-68815000D01*
X37998061Y-68815000D01*
X37798102Y-68854774D01*
X37609744Y-68932795D01*
X37440226Y-69046063D01*
X37296063Y-69190226D01*
X37182795Y-69359744D01*
X37104774Y-69548102D01*
X37065000Y-69748061D01*
X37065000Y-69951939D01*
X37104774Y-70151898D01*
X37182795Y-70340256D01*
X37296063Y-70509774D01*
X37440226Y-70653937D01*
X37609744Y-70767205D01*
X37798102Y-70845226D01*
X37998061Y-70885000D01*
X38060198Y-70885000D01*
X38171200Y-70996002D01*
X38194999Y-71025001D01*
X38223997Y-71048799D01*
X38310724Y-71119974D01*
X38442753Y-71190546D01*
X38586014Y-71234003D01*
X38735000Y-71248677D01*
X38772333Y-71245000D01*
X54210000Y-71245000D01*
X54210000Y-71311939D01*
X54249774Y-71511898D01*
X54297012Y-71625939D01*
X54116335Y-71590000D01*
X53833665Y-71590000D01*
X53556426Y-71645147D01*
X53295273Y-71753320D01*
X53060241Y-71910363D01*
X52860363Y-72110241D01*
X52840479Y-72140000D01*
X41774521Y-72140000D01*
X41754637Y-72110241D01*
X41554759Y-71910363D01*
X41319727Y-71753320D01*
X41058574Y-71645147D01*
X40781335Y-71590000D01*
X40498665Y-71590000D01*
X40221426Y-71645147D01*
X39960273Y-71753320D01*
X39725241Y-71910363D01*
X39525363Y-72110241D01*
X39505479Y-72140000D01*
X35603469Y-72140000D01*
X35560000Y-72135719D01*
X35516531Y-72140000D01*
X35516523Y-72140000D01*
X35386510Y-72152805D01*
X35219686Y-72203411D01*
X35065941Y-72285589D01*
X34964953Y-72368468D01*
X34964951Y-72368470D01*
X34931183Y-72396183D01*
X34903470Y-72429951D01*
X29249956Y-78083466D01*
X29216183Y-78111183D01*
X29105589Y-78245942D01*
X29023411Y-78399688D01*
X28972805Y-78566511D01*
X28960000Y-78696524D01*
X28960000Y-78696531D01*
X28955719Y-78740000D01*
X28960000Y-78783469D01*
X28960001Y-82685478D01*
X28930241Y-82705363D01*
X28730363Y-82905241D01*
X28573320Y-83140273D01*
X28465147Y-83401426D01*
X28410000Y-83678665D01*
X17830000Y-83678665D01*
X17830000Y-66675000D01*
X79787815Y-66675000D01*
X79816487Y-66966111D01*
X79901401Y-67246034D01*
X80039294Y-67504014D01*
X80224866Y-67730134D01*
X80450986Y-67915706D01*
X80708966Y-68053599D01*
X80988889Y-68138513D01*
X81207050Y-68160000D01*
X81352950Y-68160000D01*
X81571111Y-68138513D01*
X81851034Y-68053599D01*
X82109014Y-67915706D01*
X82335134Y-67730134D01*
X82520706Y-67504014D01*
X82550000Y-67449209D01*
X82579294Y-67504014D01*
X82764866Y-67730134D01*
X82990986Y-67915706D01*
X83248966Y-68053599D01*
X83528889Y-68138513D01*
X83747050Y-68160000D01*
X83892950Y-68160000D01*
X84111111Y-68138513D01*
X84391034Y-68053599D01*
X84649014Y-67915706D01*
X84875134Y-67730134D01*
X85060706Y-67504014D01*
X85090000Y-67449209D01*
X85119294Y-67504014D01*
X85304866Y-67730134D01*
X85530986Y-67915706D01*
X85788966Y-68053599D01*
X86068889Y-68138513D01*
X86287050Y-68160000D01*
X86432950Y-68160000D01*
X86651111Y-68138513D01*
X86931034Y-68053599D01*
X87189014Y-67915706D01*
X87415134Y-67730134D01*
X87439607Y-67700313D01*
X87460498Y-67769180D01*
X87519463Y-67879494D01*
X87598815Y-67976185D01*
X87695506Y-68055537D01*
X87805820Y-68114502D01*
X87925518Y-68150812D01*
X88050000Y-68163072D01*
X89750000Y-68163072D01*
X89874482Y-68150812D01*
X89994180Y-68114502D01*
X90104494Y-68055537D01*
X90201185Y-67976185D01*
X90280537Y-67879494D01*
X90339502Y-67769180D01*
X90375812Y-67649482D01*
X90388072Y-67525000D01*
X90388072Y-65825000D01*
X90375812Y-65700518D01*
X90339502Y-65580820D01*
X90280537Y-65470506D01*
X90201185Y-65373815D01*
X90104494Y-65294463D01*
X89994180Y-65235498D01*
X89874482Y-65199188D01*
X89750000Y-65186928D01*
X88050000Y-65186928D01*
X87925518Y-65199188D01*
X87805820Y-65235498D01*
X87695506Y-65294463D01*
X87598815Y-65373815D01*
X87519463Y-65470506D01*
X87460498Y-65580820D01*
X87439607Y-65649687D01*
X87415134Y-65619866D01*
X87189014Y-65434294D01*
X86931034Y-65296401D01*
X86651111Y-65211487D01*
X86432950Y-65190000D01*
X86287050Y-65190000D01*
X86068889Y-65211487D01*
X85788966Y-65296401D01*
X85530986Y-65434294D01*
X85304866Y-65619866D01*
X85119294Y-65845986D01*
X85090000Y-65900791D01*
X85060706Y-65845986D01*
X84875134Y-65619866D01*
X84649014Y-65434294D01*
X84391034Y-65296401D01*
X84111111Y-65211487D01*
X83892950Y-65190000D01*
X83747050Y-65190000D01*
X83528889Y-65211487D01*
X83248966Y-65296401D01*
X82990986Y-65434294D01*
X82764866Y-65619866D01*
X82579294Y-65845986D01*
X82550000Y-65900791D01*
X82520706Y-65845986D01*
X82335134Y-65619866D01*
X82109014Y-65434294D01*
X81851034Y-65296401D01*
X81571111Y-65211487D01*
X81352950Y-65190000D01*
X81207050Y-65190000D01*
X80988889Y-65211487D01*
X80708966Y-65296401D01*
X80450986Y-65434294D01*
X80224866Y-65619866D01*
X80039294Y-65845986D01*
X79901401Y-66103966D01*
X79816487Y-66383889D01*
X79787815Y-66675000D01*
X17830000Y-66675000D01*
X17830000Y-62280000D01*
X128220000Y-62280000D01*
X128220001Y-109805000D01*
M02*
