G04 #@! TF.GenerationSoftware,KiCad,Pcbnew,(5.1.0-rc1-103-gc65c7d3de)*
G04 #@! TF.CreationDate,2019-09-26T12:21:13+02:00
G04 #@! TF.ProjectId,pinballControlUnit,70696e62-616c-46c4-936f-6e74726f6c55,2*
G04 #@! TF.SameCoordinates,Original*
G04 #@! TF.FileFunction,Legend,Top*
G04 #@! TF.FilePolarity,Positive*
%FSLAX46Y46*%
G04 Gerber Fmt 4.6, Leading zero omitted, Abs format (unit mm)*
G04 Created by KiCad (PCBNEW (5.1.0-rc1-103-gc65c7d3de)) date 2019-09-26 12:21:13*
%MOMM*%
%LPD*%
G04 APERTURE LIST*
%ADD10C,0.300000*%
%ADD11C,0.150000*%
%ADD12C,0.120000*%
G04 APERTURE END LIST*
D10*
X17843571Y-108057142D02*
X18986428Y-108057142D01*
X18415000Y-108628571D02*
X18415000Y-107485714D01*
D11*
X35972857Y-101957142D02*
X35925238Y-102004761D01*
X35782380Y-102052380D01*
X35687142Y-102052380D01*
X35544285Y-102004761D01*
X35449047Y-101909523D01*
X35401428Y-101814285D01*
X35353809Y-101623809D01*
X35353809Y-101480952D01*
X35401428Y-101290476D01*
X35449047Y-101195238D01*
X35544285Y-101100000D01*
X35687142Y-101052380D01*
X35782380Y-101052380D01*
X35925238Y-101100000D01*
X35972857Y-101147619D01*
X36591904Y-101052380D02*
X36782380Y-101052380D01*
X36877619Y-101100000D01*
X36972857Y-101195238D01*
X37020476Y-101385714D01*
X37020476Y-101719047D01*
X36972857Y-101909523D01*
X36877619Y-102004761D01*
X36782380Y-102052380D01*
X36591904Y-102052380D01*
X36496666Y-102004761D01*
X36401428Y-101909523D01*
X36353809Y-101719047D01*
X36353809Y-101385714D01*
X36401428Y-101195238D01*
X36496666Y-101100000D01*
X36591904Y-101052380D01*
X37449047Y-102052380D02*
X37449047Y-101052380D01*
X38401428Y-102052380D02*
X37925238Y-102052380D01*
X37925238Y-101052380D01*
X75977857Y-101957142D02*
X75930238Y-102004761D01*
X75787380Y-102052380D01*
X75692142Y-102052380D01*
X75549285Y-102004761D01*
X75454047Y-101909523D01*
X75406428Y-101814285D01*
X75358809Y-101623809D01*
X75358809Y-101480952D01*
X75406428Y-101290476D01*
X75454047Y-101195238D01*
X75549285Y-101100000D01*
X75692142Y-101052380D01*
X75787380Y-101052380D01*
X75930238Y-101100000D01*
X75977857Y-101147619D01*
X76596904Y-101052380D02*
X76787380Y-101052380D01*
X76882619Y-101100000D01*
X76977857Y-101195238D01*
X77025476Y-101385714D01*
X77025476Y-101719047D01*
X76977857Y-101909523D01*
X76882619Y-102004761D01*
X76787380Y-102052380D01*
X76596904Y-102052380D01*
X76501666Y-102004761D01*
X76406428Y-101909523D01*
X76358809Y-101719047D01*
X76358809Y-101385714D01*
X76406428Y-101195238D01*
X76501666Y-101100000D01*
X76596904Y-101052380D01*
X77454047Y-102052380D02*
X77454047Y-101052380D01*
X78406428Y-102052380D02*
X77930238Y-102052380D01*
X77930238Y-101052380D01*
X62642857Y-101957142D02*
X62595238Y-102004761D01*
X62452380Y-102052380D01*
X62357142Y-102052380D01*
X62214285Y-102004761D01*
X62119047Y-101909523D01*
X62071428Y-101814285D01*
X62023809Y-101623809D01*
X62023809Y-101480952D01*
X62071428Y-101290476D01*
X62119047Y-101195238D01*
X62214285Y-101100000D01*
X62357142Y-101052380D01*
X62452380Y-101052380D01*
X62595238Y-101100000D01*
X62642857Y-101147619D01*
X63261904Y-101052380D02*
X63452380Y-101052380D01*
X63547619Y-101100000D01*
X63642857Y-101195238D01*
X63690476Y-101385714D01*
X63690476Y-101719047D01*
X63642857Y-101909523D01*
X63547619Y-102004761D01*
X63452380Y-102052380D01*
X63261904Y-102052380D01*
X63166666Y-102004761D01*
X63071428Y-101909523D01*
X63023809Y-101719047D01*
X63023809Y-101385714D01*
X63071428Y-101195238D01*
X63166666Y-101100000D01*
X63261904Y-101052380D01*
X64119047Y-102052380D02*
X64119047Y-101052380D01*
X65071428Y-102052380D02*
X64595238Y-102052380D01*
X64595238Y-101052380D01*
X49307857Y-101957142D02*
X49260238Y-102004761D01*
X49117380Y-102052380D01*
X49022142Y-102052380D01*
X48879285Y-102004761D01*
X48784047Y-101909523D01*
X48736428Y-101814285D01*
X48688809Y-101623809D01*
X48688809Y-101480952D01*
X48736428Y-101290476D01*
X48784047Y-101195238D01*
X48879285Y-101100000D01*
X49022142Y-101052380D01*
X49117380Y-101052380D01*
X49260238Y-101100000D01*
X49307857Y-101147619D01*
X49926904Y-101052380D02*
X50117380Y-101052380D01*
X50212619Y-101100000D01*
X50307857Y-101195238D01*
X50355476Y-101385714D01*
X50355476Y-101719047D01*
X50307857Y-101909523D01*
X50212619Y-102004761D01*
X50117380Y-102052380D01*
X49926904Y-102052380D01*
X49831666Y-102004761D01*
X49736428Y-101909523D01*
X49688809Y-101719047D01*
X49688809Y-101385714D01*
X49736428Y-101195238D01*
X49831666Y-101100000D01*
X49926904Y-101052380D01*
X50784047Y-102052380D02*
X50784047Y-101052380D01*
X51736428Y-102052380D02*
X51260238Y-102052380D01*
X51260238Y-101052380D01*
D12*
X32162533Y-67310000D02*
G75*
G03X32162533Y-67310000I-2317533J0D01*
G01*
X32095000Y-69310000D02*
X32095000Y-65310000D01*
X27595000Y-65310000D02*
X27595000Y-69310000D01*
X27595000Y-65310000D02*
X32095000Y-65310000D01*
X27595000Y-69310000D02*
X32095000Y-69310000D01*
X18765000Y-92360000D02*
X18765000Y-80360000D01*
X30765000Y-92360000D02*
X18765000Y-92360000D01*
X30765000Y-80360000D02*
X30765000Y-92360000D01*
X18765000Y-80360000D02*
X30765000Y-80360000D01*
X56440000Y-77093578D02*
X56440000Y-76576422D01*
X57860000Y-77093578D02*
X57860000Y-76576422D01*
X44525000Y-77093578D02*
X44525000Y-76576422D01*
X43105000Y-77093578D02*
X43105000Y-76576422D01*
X71195000Y-77093578D02*
X71195000Y-76576422D01*
X69775000Y-77093578D02*
X69775000Y-76576422D01*
X79080000Y-77180000D02*
X79080000Y-74730000D01*
X75860000Y-75380000D02*
X75860000Y-77180000D01*
X29135000Y-102493578D02*
X29135000Y-101976422D01*
X30555000Y-102493578D02*
X30555000Y-101976422D01*
X89845000Y-105680000D02*
X89845000Y-108365000D01*
X89845000Y-108365000D02*
X91765000Y-108365000D01*
X91765000Y-108365000D02*
X91765000Y-105680000D01*
X44570000Y-86180000D02*
X44570000Y-84680000D01*
X44570000Y-84680000D02*
X42760000Y-84680000D01*
X42760000Y-84680000D02*
X42760000Y-79555000D01*
X34170000Y-86180000D02*
X34170000Y-84680000D01*
X34170000Y-84680000D02*
X35980000Y-84680000D01*
X35980000Y-84680000D02*
X35980000Y-83580000D01*
X24506422Y-94540000D02*
X25023578Y-94540000D01*
X24506422Y-95960000D02*
X25023578Y-95960000D01*
X49190000Y-75300000D02*
X49190000Y-77100000D01*
X52410000Y-77100000D02*
X52410000Y-74650000D01*
X113725000Y-65345000D02*
X113725000Y-66675000D01*
X112395000Y-65345000D02*
X113725000Y-65345000D01*
X111125000Y-65345000D02*
X111125000Y-68005000D01*
X111125000Y-68005000D02*
X93285000Y-68005000D01*
X111125000Y-65345000D02*
X93285000Y-65345000D01*
X93285000Y-65345000D02*
X93285000Y-68005000D01*
X89225000Y-108365000D02*
X89225000Y-105680000D01*
X87305000Y-108365000D02*
X89225000Y-108365000D01*
X87305000Y-105680000D02*
X87305000Y-108365000D01*
X107345000Y-107925000D02*
X104745000Y-107925000D01*
X102595000Y-101625000D02*
X102845000Y-101625000D01*
X102595000Y-107925000D02*
X102595000Y-101625000D01*
X102845000Y-107925000D02*
X102595000Y-107925000D01*
X104745000Y-101625000D02*
X107345000Y-101625000D01*
X109495000Y-107925000D02*
X109245000Y-107925000D01*
X109495000Y-101625000D02*
X109495000Y-107925000D01*
X109245000Y-101625000D02*
X109495000Y-101625000D01*
D11*
X100515000Y-83635000D02*
X100740000Y-83635000D01*
X100515000Y-76385000D02*
X100840000Y-76385000D01*
X107765000Y-76385000D02*
X107440000Y-76385000D01*
X107765000Y-83635000D02*
X107440000Y-83635000D01*
X100515000Y-83635000D02*
X100515000Y-83310000D01*
X107765000Y-83635000D02*
X107765000Y-83310000D01*
X107765000Y-76385000D02*
X107765000Y-76710000D01*
X100515000Y-76385000D02*
X100515000Y-76710000D01*
X100740000Y-83635000D02*
X100740000Y-85060000D01*
D12*
X93285000Y-95945000D02*
X93285000Y-94615000D01*
X94615000Y-95945000D02*
X93285000Y-95945000D01*
X95885000Y-95945000D02*
X95885000Y-93285000D01*
X95885000Y-93285000D02*
X113725000Y-93285000D01*
X95885000Y-95945000D02*
X113725000Y-95945000D01*
X113725000Y-95945000D02*
X113725000Y-93285000D01*
X126425000Y-93285000D02*
X126425000Y-94615000D01*
X125095000Y-93285000D02*
X126425000Y-93285000D01*
X123825000Y-93285000D02*
X123825000Y-95945000D01*
X123825000Y-95945000D02*
X121225000Y-95945000D01*
X123825000Y-93285000D02*
X121225000Y-93285000D01*
X121225000Y-93285000D02*
X121225000Y-95945000D01*
X127060000Y-85785000D02*
X125730000Y-85785000D01*
X127060000Y-84455000D02*
X127060000Y-85785000D01*
X127060000Y-83185000D02*
X124400000Y-83185000D01*
X124400000Y-83185000D02*
X124400000Y-70425000D01*
X127060000Y-83185000D02*
X127060000Y-70425000D01*
X127060000Y-70425000D02*
X124400000Y-70425000D01*
X118805000Y-90865000D02*
X117475000Y-90865000D01*
X118805000Y-89535000D02*
X118805000Y-90865000D01*
X118805000Y-88265000D02*
X116145000Y-88265000D01*
X116145000Y-88265000D02*
X116145000Y-70425000D01*
X118805000Y-88265000D02*
X118805000Y-70425000D01*
X118805000Y-70425000D02*
X116145000Y-70425000D01*
X21650000Y-109280000D02*
X20320000Y-109280000D01*
X21650000Y-107950000D02*
X21650000Y-109280000D01*
X21650000Y-106680000D02*
X18990000Y-106680000D01*
X18990000Y-106680000D02*
X18990000Y-104080000D01*
X21650000Y-106680000D02*
X21650000Y-104080000D01*
X21650000Y-104080000D02*
X18990000Y-104080000D01*
X99090000Y-107925000D02*
X96490000Y-107925000D01*
X94340000Y-101625000D02*
X94590000Y-101625000D01*
X94340000Y-107925000D02*
X94340000Y-101625000D01*
X94590000Y-107925000D02*
X94340000Y-107925000D01*
X96490000Y-101625000D02*
X99090000Y-101625000D01*
X101240000Y-107925000D02*
X100990000Y-107925000D01*
X101240000Y-101625000D02*
X101240000Y-107925000D01*
X100990000Y-101625000D02*
X101240000Y-101625000D01*
X121543578Y-81205000D02*
X121026422Y-81205000D01*
X121543578Y-82625000D02*
X121026422Y-82625000D01*
X121543578Y-73585000D02*
X121026422Y-73585000D01*
X121543578Y-75005000D02*
X121026422Y-75005000D01*
X29135000Y-98166422D02*
X29135000Y-98683578D01*
X30555000Y-98166422D02*
X30555000Y-98683578D01*
X30103578Y-94540000D02*
X29586422Y-94540000D01*
X30103578Y-95960000D02*
X29586422Y-95960000D01*
X21213578Y-62790000D02*
X20696422Y-62790000D01*
X21213578Y-64210000D02*
X20696422Y-64210000D01*
X25658578Y-62790000D02*
X25141422Y-62790000D01*
X25658578Y-64210000D02*
X25141422Y-64210000D01*
X101193578Y-97715000D02*
X100676422Y-97715000D01*
X101193578Y-99135000D02*
X100676422Y-99135000D01*
X107056422Y-99135000D02*
X107573578Y-99135000D01*
X107056422Y-97715000D02*
X107573578Y-97715000D01*
X121680000Y-101040000D02*
X121680000Y-99040000D01*
X124280000Y-101040000D02*
X124280000Y-99040000D01*
X115180000Y-101040000D02*
X121680000Y-101040000D01*
X110780000Y-101040000D02*
X111980000Y-101040000D01*
X110780000Y-107240000D02*
X110780000Y-101040000D01*
X119680000Y-107240000D02*
X110780000Y-107240000D01*
X125480000Y-107240000D02*
X122280000Y-107240000D01*
X125480000Y-106740000D02*
X125480000Y-107240000D01*
X127980000Y-106740000D02*
X125480000Y-106740000D01*
X127980000Y-101540000D02*
X127980000Y-106740000D01*
X125480000Y-101540000D02*
X127980000Y-101540000D01*
X125480000Y-101040000D02*
X125480000Y-101540000D01*
X124280000Y-101040000D02*
X125480000Y-101040000D01*
X104516422Y-87705000D02*
X105033578Y-87705000D01*
X104516422Y-86285000D02*
X105033578Y-86285000D01*
X77530501Y-107048499D02*
G75*
G02X76835000Y-107190000I-695501J1638499D01*
G01*
X78474205Y-104714484D02*
G75*
G02X78474000Y-106106000I-1639205J-695516D01*
G01*
X76139484Y-103770795D02*
G75*
G02X77531000Y-103771000I695516J-1639205D01*
G01*
X75195795Y-106105516D02*
G75*
G02X75196000Y-104714000I1639205J695516D01*
G01*
X76865814Y-107190389D02*
G75*
G02X76139000Y-107049000I-30814J1780389D01*
G01*
X83615000Y-105410000D02*
G75*
G03X83615000Y-105410000I-1780000J0D01*
G01*
X74275000Y-107410000D02*
X84395000Y-107410000D01*
X74275000Y-103410000D02*
X84395000Y-103410000D01*
X74275000Y-102410000D02*
X84395000Y-102410000D01*
X74275000Y-98850000D02*
X84395000Y-98850000D01*
X74275000Y-109470000D02*
X84395000Y-109470000D01*
X74275000Y-98850000D02*
X74275000Y-109470000D01*
X84395000Y-98850000D02*
X84395000Y-109470000D01*
X83185000Y-104277000D02*
X83136000Y-104327000D01*
X80727000Y-106735000D02*
X80703000Y-106760000D01*
X82968000Y-104060000D02*
X82943000Y-104084000D01*
X80535000Y-106493000D02*
X80485000Y-106543000D01*
X74035000Y-107470000D02*
X74035000Y-109710000D01*
X74035000Y-109710000D02*
X76035000Y-109710000D01*
X121543578Y-80085000D02*
X121026422Y-80085000D01*
X121543578Y-78665000D02*
X121026422Y-78665000D01*
X79950000Y-65345000D02*
X79950000Y-68005000D01*
X87630000Y-65345000D02*
X79950000Y-65345000D01*
X87630000Y-68005000D02*
X79950000Y-68005000D01*
X87630000Y-65345000D02*
X87630000Y-68005000D01*
X88900000Y-65345000D02*
X90230000Y-65345000D01*
X90230000Y-65345000D02*
X90230000Y-66675000D01*
X64195501Y-107048499D02*
G75*
G02X63500000Y-107190000I-695501J1638499D01*
G01*
X65139205Y-104714484D02*
G75*
G02X65139000Y-106106000I-1639205J-695516D01*
G01*
X62804484Y-103770795D02*
G75*
G02X64196000Y-103771000I695516J-1639205D01*
G01*
X61860795Y-106105516D02*
G75*
G02X61861000Y-104714000I1639205J695516D01*
G01*
X63530814Y-107190389D02*
G75*
G02X62804000Y-107049000I-30814J1780389D01*
G01*
X70280000Y-105410000D02*
G75*
G03X70280000Y-105410000I-1780000J0D01*
G01*
X60940000Y-107410000D02*
X71060000Y-107410000D01*
X60940000Y-103410000D02*
X71060000Y-103410000D01*
X60940000Y-102410000D02*
X71060000Y-102410000D01*
X60940000Y-98850000D02*
X71060000Y-98850000D01*
X60940000Y-109470000D02*
X71060000Y-109470000D01*
X60940000Y-98850000D02*
X60940000Y-109470000D01*
X71060000Y-98850000D02*
X71060000Y-109470000D01*
X69850000Y-104277000D02*
X69801000Y-104327000D01*
X67392000Y-106735000D02*
X67368000Y-106760000D01*
X69633000Y-104060000D02*
X69608000Y-104084000D01*
X67200000Y-106493000D02*
X67150000Y-106543000D01*
X60700000Y-107470000D02*
X60700000Y-109710000D01*
X60700000Y-109710000D02*
X62700000Y-109710000D01*
X47365000Y-109710000D02*
X49365000Y-109710000D01*
X47365000Y-107470000D02*
X47365000Y-109710000D01*
X53865000Y-106493000D02*
X53815000Y-106543000D01*
X56298000Y-104060000D02*
X56273000Y-104084000D01*
X54057000Y-106735000D02*
X54033000Y-106760000D01*
X56515000Y-104277000D02*
X56466000Y-104327000D01*
X57725000Y-98850000D02*
X57725000Y-109470000D01*
X47605000Y-98850000D02*
X47605000Y-109470000D01*
X47605000Y-109470000D02*
X57725000Y-109470000D01*
X47605000Y-98850000D02*
X57725000Y-98850000D01*
X47605000Y-102410000D02*
X57725000Y-102410000D01*
X47605000Y-103410000D02*
X57725000Y-103410000D01*
X47605000Y-107410000D02*
X57725000Y-107410000D01*
X56945000Y-105410000D02*
G75*
G03X56945000Y-105410000I-1780000J0D01*
G01*
X50195814Y-107190389D02*
G75*
G02X49469000Y-107049000I-30814J1780389D01*
G01*
X48525795Y-106105516D02*
G75*
G02X48526000Y-104714000I1639205J695516D01*
G01*
X49469484Y-103770795D02*
G75*
G02X50861000Y-103771000I695516J-1639205D01*
G01*
X51804205Y-104714484D02*
G75*
G02X51804000Y-106106000I-1639205J-695516D01*
G01*
X50860501Y-107048499D02*
G75*
G02X50165000Y-107190000I-695501J1638499D01*
G01*
X37525501Y-107048499D02*
G75*
G02X36830000Y-107190000I-695501J1638499D01*
G01*
X38469205Y-104714484D02*
G75*
G02X38469000Y-106106000I-1639205J-695516D01*
G01*
X36134484Y-103770795D02*
G75*
G02X37526000Y-103771000I695516J-1639205D01*
G01*
X35190795Y-106105516D02*
G75*
G02X35191000Y-104714000I1639205J695516D01*
G01*
X36860814Y-107190389D02*
G75*
G02X36134000Y-107049000I-30814J1780389D01*
G01*
X43610000Y-105410000D02*
G75*
G03X43610000Y-105410000I-1780000J0D01*
G01*
X34270000Y-107410000D02*
X44390000Y-107410000D01*
X34270000Y-103410000D02*
X44390000Y-103410000D01*
X34270000Y-102410000D02*
X44390000Y-102410000D01*
X34270000Y-98850000D02*
X44390000Y-98850000D01*
X34270000Y-109470000D02*
X44390000Y-109470000D01*
X34270000Y-98850000D02*
X34270000Y-109470000D01*
X44390000Y-98850000D02*
X44390000Y-109470000D01*
X43180000Y-104277000D02*
X43131000Y-104327000D01*
X40722000Y-106735000D02*
X40698000Y-106760000D01*
X42963000Y-104060000D02*
X42938000Y-104084000D01*
X40530000Y-106493000D02*
X40480000Y-106543000D01*
X34030000Y-107470000D02*
X34030000Y-109710000D01*
X34030000Y-109710000D02*
X36030000Y-109710000D01*
X121543578Y-76125000D02*
X121026422Y-76125000D01*
X121543578Y-77545000D02*
X121026422Y-77545000D01*
X90095000Y-102611422D02*
X90095000Y-103128578D01*
X91515000Y-102611422D02*
X91515000Y-103128578D01*
X88975000Y-102611422D02*
X88975000Y-103128578D01*
X87555000Y-102611422D02*
X87555000Y-103128578D01*
X81840000Y-77093578D02*
X81840000Y-76576422D01*
X83260000Y-77093578D02*
X83260000Y-76576422D01*
X20395000Y-68203578D02*
X20395000Y-67686422D01*
X18975000Y-68203578D02*
X18975000Y-67686422D01*
X26745000Y-67051422D02*
X26745000Y-67568578D01*
X25325000Y-67051422D02*
X25325000Y-67568578D01*
X28951422Y-62790000D02*
X29468578Y-62790000D01*
X28951422Y-64210000D02*
X29468578Y-64210000D01*
D11*
X22965000Y-102437500D02*
X23165000Y-102437500D01*
X22965000Y-98287500D02*
X23165000Y-98287500D01*
X28115000Y-98287500D02*
X27915000Y-98287500D01*
X28115000Y-102437500D02*
X27915000Y-102437500D01*
X22965000Y-102437500D02*
X22965000Y-98287500D01*
X28115000Y-102437500D02*
X28115000Y-98287500D01*
X23165000Y-102437500D02*
X23165000Y-103737500D01*
D12*
X21250000Y-66410000D02*
X21250000Y-68210000D01*
X24470000Y-68210000D02*
X24470000Y-65260000D01*
X62525000Y-75300000D02*
X62525000Y-77100000D01*
X65745000Y-77100000D02*
X65745000Y-74650000D01*
X39075000Y-77100000D02*
X39075000Y-74650000D01*
X35855000Y-75300000D02*
X35855000Y-77100000D01*
X84575000Y-86180000D02*
X84575000Y-84680000D01*
X84575000Y-84680000D02*
X82765000Y-84680000D01*
X82765000Y-84680000D02*
X82765000Y-79555000D01*
X74175000Y-86180000D02*
X74175000Y-84680000D01*
X74175000Y-84680000D02*
X75985000Y-84680000D01*
X75985000Y-84680000D02*
X75985000Y-83580000D01*
X62650000Y-84680000D02*
X62650000Y-83580000D01*
X60840000Y-84680000D02*
X62650000Y-84680000D01*
X60840000Y-86180000D02*
X60840000Y-84680000D01*
X69430000Y-84680000D02*
X69430000Y-79555000D01*
X71240000Y-84680000D02*
X69430000Y-84680000D01*
X71240000Y-86180000D02*
X71240000Y-84680000D01*
X49315000Y-84680000D02*
X49315000Y-83580000D01*
X47505000Y-84680000D02*
X49315000Y-84680000D01*
X47505000Y-86180000D02*
X47505000Y-84680000D01*
X56095000Y-84680000D02*
X56095000Y-79555000D01*
X57905000Y-84680000D02*
X56095000Y-84680000D01*
X57905000Y-86180000D02*
X57905000Y-84680000D01*
X75005000Y-69473578D02*
X75005000Y-68956422D01*
X73585000Y-69473578D02*
X73585000Y-68956422D01*
X60885000Y-70743578D02*
X60885000Y-70226422D01*
X62305000Y-70743578D02*
X62305000Y-70226422D01*
X48970000Y-70743578D02*
X48970000Y-70226422D01*
X47550000Y-70743578D02*
X47550000Y-70226422D01*
X36120000Y-70743578D02*
X36120000Y-70226422D01*
X37540000Y-70743578D02*
X37540000Y-70226422D01*
X77795000Y-70215000D02*
X77795000Y-67530000D01*
X77795000Y-67530000D02*
X75875000Y-67530000D01*
X75875000Y-67530000D02*
X75875000Y-70215000D01*
X63175000Y-68800000D02*
X63175000Y-71485000D01*
X65095000Y-68800000D02*
X63175000Y-68800000D01*
X65095000Y-71485000D02*
X65095000Y-68800000D01*
X51760000Y-71485000D02*
X51760000Y-68800000D01*
X51760000Y-68800000D02*
X49840000Y-68800000D01*
X49840000Y-68800000D02*
X49840000Y-71485000D01*
X38410000Y-68800000D02*
X38410000Y-71485000D01*
X40330000Y-68800000D02*
X38410000Y-68800000D01*
X40330000Y-71485000D02*
X40330000Y-68800000D01*
X79751422Y-70560000D02*
X80268578Y-70560000D01*
X79751422Y-69140000D02*
X80268578Y-69140000D01*
X52630000Y-70743578D02*
X52630000Y-70226422D01*
X54050000Y-70743578D02*
X54050000Y-70226422D01*
X65965000Y-70743578D02*
X65965000Y-70226422D01*
X67385000Y-70743578D02*
X67385000Y-70226422D01*
X42620000Y-70743578D02*
X42620000Y-70226422D01*
X41200000Y-70743578D02*
X41200000Y-70226422D01*
X25367064Y-106955000D02*
X24162936Y-106955000D01*
X25367064Y-105135000D02*
X24162936Y-105135000D01*
X26905000Y-77705000D02*
X26905000Y-75355000D01*
X26905000Y-70885000D02*
X26905000Y-73235000D01*
X21149437Y-70885000D02*
X26905000Y-70885000D01*
X21149437Y-77705000D02*
X26905000Y-77705000D01*
X20085000Y-76640563D02*
X20085000Y-75355000D01*
X20085000Y-71949437D02*
X20085000Y-73235000D01*
X20085000Y-71949437D02*
X21149437Y-70885000D01*
X20085000Y-76640563D02*
X21149437Y-77705000D01*
X29920000Y-76576422D02*
X29920000Y-77093578D01*
X28500000Y-76576422D02*
X28500000Y-77093578D01*
X78998578Y-73100000D02*
X78481422Y-73100000D01*
X78998578Y-71680000D02*
X78481422Y-71680000D01*
X53265000Y-74973922D02*
X53265000Y-75491078D01*
X54685000Y-74973922D02*
X54685000Y-75491078D01*
X68020000Y-74973922D02*
X68020000Y-75491078D01*
X66600000Y-74973922D02*
X66600000Y-75491078D01*
X39930000Y-74973922D02*
X39930000Y-75491078D01*
X41350000Y-74973922D02*
X41350000Y-75491078D01*
X32126422Y-72950000D02*
X32643578Y-72950000D01*
X32126422Y-74370000D02*
X32643578Y-74370000D01*
X33145000Y-78415000D02*
X33145000Y-77485000D01*
X33145000Y-75255000D02*
X33145000Y-76185000D01*
X33145000Y-75255000D02*
X30985000Y-75255000D01*
X33145000Y-78415000D02*
X31685000Y-78415000D01*
X82135000Y-74620000D02*
X84820000Y-74620000D01*
X82135000Y-72700000D02*
X82135000Y-74620000D01*
X84820000Y-72700000D02*
X82135000Y-72700000D01*
X72755000Y-72700000D02*
X70070000Y-72700000D01*
X70070000Y-72700000D02*
X70070000Y-74620000D01*
X70070000Y-74620000D02*
X72755000Y-74620000D01*
X56735000Y-74620000D02*
X59420000Y-74620000D01*
X56735000Y-72700000D02*
X56735000Y-74620000D01*
X59420000Y-72700000D02*
X56735000Y-72700000D01*
X46085000Y-72700000D02*
X43400000Y-72700000D01*
X43400000Y-72700000D02*
X43400000Y-74620000D01*
X43400000Y-74620000D02*
X46085000Y-74620000D01*
X84380000Y-77093578D02*
X84380000Y-76576422D01*
X85800000Y-77093578D02*
X85800000Y-76576422D01*
X73735000Y-77093578D02*
X73735000Y-76576422D01*
X72315000Y-77093578D02*
X72315000Y-76576422D01*
X58980000Y-77093578D02*
X58980000Y-76576422D01*
X60400000Y-77093578D02*
X60400000Y-76576422D01*
X47065000Y-77093578D02*
X47065000Y-76576422D01*
X45645000Y-77093578D02*
X45645000Y-76576422D01*
D11*
X32853333Y-67762380D02*
X32377142Y-67762380D01*
X32377142Y-66762380D01*
X33139047Y-66857619D02*
X33186666Y-66810000D01*
X33281904Y-66762380D01*
X33520000Y-66762380D01*
X33615238Y-66810000D01*
X33662857Y-66857619D01*
X33710476Y-66952857D01*
X33710476Y-67048095D01*
X33662857Y-67190952D01*
X33091428Y-67762380D01*
X33710476Y-67762380D01*
X30297380Y-90971666D02*
X30297380Y-91447857D01*
X29297380Y-91447857D01*
X30297380Y-90114523D02*
X30297380Y-90685952D01*
X30297380Y-90400238D02*
X29297380Y-90400238D01*
X29440238Y-90495476D01*
X29535476Y-90590714D01*
X29583095Y-90685952D01*
X53967142Y-78557380D02*
X53633809Y-78081190D01*
X53395714Y-78557380D02*
X53395714Y-77557380D01*
X53776666Y-77557380D01*
X53871904Y-77605000D01*
X53919523Y-77652619D01*
X53967142Y-77747857D01*
X53967142Y-77890714D01*
X53919523Y-77985952D01*
X53871904Y-78033571D01*
X53776666Y-78081190D01*
X53395714Y-78081190D01*
X54919523Y-78557380D02*
X54348095Y-78557380D01*
X54633809Y-78557380D02*
X54633809Y-77557380D01*
X54538571Y-77700238D01*
X54443333Y-77795476D01*
X54348095Y-77843095D01*
X55395714Y-78557380D02*
X55586190Y-78557380D01*
X55681428Y-78509761D01*
X55729047Y-78462142D01*
X55824285Y-78319285D01*
X55871904Y-78128809D01*
X55871904Y-77747857D01*
X55824285Y-77652619D01*
X55776666Y-77605000D01*
X55681428Y-77557380D01*
X55490952Y-77557380D01*
X55395714Y-77605000D01*
X55348095Y-77652619D01*
X55300476Y-77747857D01*
X55300476Y-77985952D01*
X55348095Y-78081190D01*
X55395714Y-78128809D01*
X55490952Y-78176428D01*
X55681428Y-78176428D01*
X55776666Y-78128809D01*
X55824285Y-78081190D01*
X55871904Y-77985952D01*
X42997380Y-74302857D02*
X42521190Y-74636190D01*
X42997380Y-74874285D02*
X41997380Y-74874285D01*
X41997380Y-74493333D01*
X42045000Y-74398095D01*
X42092619Y-74350476D01*
X42187857Y-74302857D01*
X42330714Y-74302857D01*
X42425952Y-74350476D01*
X42473571Y-74398095D01*
X42521190Y-74493333D01*
X42521190Y-74874285D01*
X42092619Y-73921904D02*
X42045000Y-73874285D01*
X41997380Y-73779047D01*
X41997380Y-73540952D01*
X42045000Y-73445714D01*
X42092619Y-73398095D01*
X42187857Y-73350476D01*
X42283095Y-73350476D01*
X42425952Y-73398095D01*
X42997380Y-73969523D01*
X42997380Y-73350476D01*
X42997380Y-72398095D02*
X42997380Y-72969523D01*
X42997380Y-72683809D02*
X41997380Y-72683809D01*
X42140238Y-72779047D01*
X42235476Y-72874285D01*
X42283095Y-72969523D01*
X67302142Y-78557380D02*
X66968809Y-78081190D01*
X66730714Y-78557380D02*
X66730714Y-77557380D01*
X67111666Y-77557380D01*
X67206904Y-77605000D01*
X67254523Y-77652619D01*
X67302142Y-77747857D01*
X67302142Y-77890714D01*
X67254523Y-77985952D01*
X67206904Y-78033571D01*
X67111666Y-78081190D01*
X66730714Y-78081190D01*
X68254523Y-78557380D02*
X67683095Y-78557380D01*
X67968809Y-78557380D02*
X67968809Y-77557380D01*
X67873571Y-77700238D01*
X67778333Y-77795476D01*
X67683095Y-77843095D01*
X68587857Y-77557380D02*
X69254523Y-77557380D01*
X68825952Y-78557380D01*
X74803095Y-72477380D02*
X74803095Y-73286904D01*
X74850714Y-73382142D01*
X74898333Y-73429761D01*
X74993571Y-73477380D01*
X75184047Y-73477380D01*
X75279285Y-73429761D01*
X75326904Y-73382142D01*
X75374523Y-73286904D01*
X75374523Y-72477380D01*
X76279285Y-72810714D02*
X76279285Y-73477380D01*
X76041190Y-72429761D02*
X75803095Y-73144047D01*
X76422142Y-73144047D01*
X31583333Y-102687380D02*
X31250000Y-102211190D01*
X31011904Y-102687380D02*
X31011904Y-101687380D01*
X31392857Y-101687380D01*
X31488095Y-101735000D01*
X31535714Y-101782619D01*
X31583333Y-101877857D01*
X31583333Y-102020714D01*
X31535714Y-102115952D01*
X31488095Y-102163571D01*
X31392857Y-102211190D01*
X31011904Y-102211190D01*
X32535714Y-102687380D02*
X31964285Y-102687380D01*
X32250000Y-102687380D02*
X32250000Y-101687380D01*
X32154761Y-101830238D01*
X32059523Y-101925476D01*
X31964285Y-101973095D01*
X90286904Y-109672380D02*
X90286904Y-108672380D01*
X90525000Y-108672380D01*
X90667857Y-108720000D01*
X90763095Y-108815238D01*
X90810714Y-108910476D01*
X90858333Y-109100952D01*
X90858333Y-109243809D01*
X90810714Y-109434285D01*
X90763095Y-109529523D01*
X90667857Y-109624761D01*
X90525000Y-109672380D01*
X90286904Y-109672380D01*
X91810714Y-109672380D02*
X91239285Y-109672380D01*
X91525000Y-109672380D02*
X91525000Y-108672380D01*
X91429761Y-108815238D01*
X91334523Y-108910476D01*
X91239285Y-108958095D01*
X45472380Y-88868095D02*
X46281904Y-88868095D01*
X46377142Y-88820476D01*
X46424761Y-88772857D01*
X46472380Y-88677619D01*
X46472380Y-88487142D01*
X46424761Y-88391904D01*
X46377142Y-88344285D01*
X46281904Y-88296666D01*
X45472380Y-88296666D01*
X46472380Y-87296666D02*
X46472380Y-87868095D01*
X46472380Y-87582380D02*
X45472380Y-87582380D01*
X45615238Y-87677619D01*
X45710476Y-87772857D01*
X45758095Y-87868095D01*
X46472380Y-86344285D02*
X46472380Y-86915714D01*
X46472380Y-86630000D02*
X45472380Y-86630000D01*
X45615238Y-86725238D01*
X45710476Y-86820476D01*
X45758095Y-86915714D01*
X22058333Y-95607142D02*
X22010714Y-95654761D01*
X21867857Y-95702380D01*
X21772619Y-95702380D01*
X21629761Y-95654761D01*
X21534523Y-95559523D01*
X21486904Y-95464285D01*
X21439285Y-95273809D01*
X21439285Y-95130952D01*
X21486904Y-94940476D01*
X21534523Y-94845238D01*
X21629761Y-94750000D01*
X21772619Y-94702380D01*
X21867857Y-94702380D01*
X22010714Y-94750000D01*
X22058333Y-94797619D01*
X22391666Y-94702380D02*
X23010714Y-94702380D01*
X22677380Y-95083333D01*
X22820238Y-95083333D01*
X22915476Y-95130952D01*
X22963095Y-95178571D01*
X23010714Y-95273809D01*
X23010714Y-95511904D01*
X22963095Y-95607142D01*
X22915476Y-95654761D01*
X22820238Y-95702380D01*
X22534523Y-95702380D01*
X22439285Y-95654761D01*
X22391666Y-95607142D01*
X49403095Y-72477380D02*
X49403095Y-73286904D01*
X49450714Y-73382142D01*
X49498333Y-73429761D01*
X49593571Y-73477380D01*
X49784047Y-73477380D01*
X49879285Y-73429761D01*
X49926904Y-73382142D01*
X49974523Y-73286904D01*
X49974523Y-72477380D01*
X50879285Y-72477380D02*
X50688809Y-72477380D01*
X50593571Y-72525000D01*
X50545952Y-72572619D01*
X50450714Y-72715476D01*
X50403095Y-72905952D01*
X50403095Y-73286904D01*
X50450714Y-73382142D01*
X50498333Y-73429761D01*
X50593571Y-73477380D01*
X50784047Y-73477380D01*
X50879285Y-73429761D01*
X50926904Y-73382142D01*
X50974523Y-73286904D01*
X50974523Y-73048809D01*
X50926904Y-72953571D01*
X50879285Y-72905952D01*
X50784047Y-72858333D01*
X50593571Y-72858333D01*
X50498333Y-72905952D01*
X50450714Y-72953571D01*
X50403095Y-73048809D01*
X93646666Y-63587380D02*
X93646666Y-64301666D01*
X93599047Y-64444523D01*
X93503809Y-64539761D01*
X93360952Y-64587380D01*
X93265714Y-64587380D01*
X94551428Y-63920714D02*
X94551428Y-64587380D01*
X94313333Y-63539761D02*
X94075238Y-64254047D01*
X94694285Y-64254047D01*
X87526904Y-109672380D02*
X87526904Y-108672380D01*
X87765000Y-108672380D01*
X87907857Y-108720000D01*
X88003095Y-108815238D01*
X88050714Y-108910476D01*
X88098333Y-109100952D01*
X88098333Y-109243809D01*
X88050714Y-109434285D01*
X88003095Y-109529523D01*
X87907857Y-109624761D01*
X87765000Y-109672380D01*
X87526904Y-109672380D01*
X88479285Y-108767619D02*
X88526904Y-108720000D01*
X88622142Y-108672380D01*
X88860238Y-108672380D01*
X88955476Y-108720000D01*
X89003095Y-108767619D01*
X89050714Y-108862857D01*
X89050714Y-108958095D01*
X89003095Y-109100952D01*
X88431666Y-109672380D01*
X89050714Y-109672380D01*
X104711666Y-109624761D02*
X104854523Y-109672380D01*
X105092619Y-109672380D01*
X105187857Y-109624761D01*
X105235476Y-109577142D01*
X105283095Y-109481904D01*
X105283095Y-109386666D01*
X105235476Y-109291428D01*
X105187857Y-109243809D01*
X105092619Y-109196190D01*
X104902142Y-109148571D01*
X104806904Y-109100952D01*
X104759285Y-109053333D01*
X104711666Y-108958095D01*
X104711666Y-108862857D01*
X104759285Y-108767619D01*
X104806904Y-108720000D01*
X104902142Y-108672380D01*
X105140238Y-108672380D01*
X105283095Y-108720000D01*
X105616428Y-108672380D02*
X105854523Y-109672380D01*
X106045000Y-108958095D01*
X106235476Y-109672380D01*
X106473571Y-108672380D01*
X107378333Y-109672380D02*
X106806904Y-109672380D01*
X107092619Y-109672380D02*
X107092619Y-108672380D01*
X106997380Y-108815238D01*
X106902142Y-108910476D01*
X106806904Y-108958095D01*
X97542380Y-80771904D02*
X98351904Y-80771904D01*
X98447142Y-80724285D01*
X98494761Y-80676666D01*
X98542380Y-80581428D01*
X98542380Y-80390952D01*
X98494761Y-80295714D01*
X98447142Y-80248095D01*
X98351904Y-80200476D01*
X97542380Y-80200476D01*
X98542380Y-79200476D02*
X98542380Y-79771904D01*
X98542380Y-79486190D02*
X97542380Y-79486190D01*
X97685238Y-79581428D01*
X97780476Y-79676666D01*
X97828095Y-79771904D01*
X91106666Y-94067380D02*
X91106666Y-94781666D01*
X91059047Y-94924523D01*
X90963809Y-95019761D01*
X90820952Y-95067380D01*
X90725714Y-95067380D01*
X92059047Y-94067380D02*
X91582857Y-94067380D01*
X91535238Y-94543571D01*
X91582857Y-94495952D01*
X91678095Y-94448333D01*
X91916190Y-94448333D01*
X92011428Y-94495952D01*
X92059047Y-94543571D01*
X92106666Y-94638809D01*
X92106666Y-94876904D01*
X92059047Y-94972142D01*
X92011428Y-95019761D01*
X91916190Y-95067380D01*
X91678095Y-95067380D01*
X91582857Y-95019761D01*
X91535238Y-94972142D01*
X124761666Y-91527380D02*
X124761666Y-92241666D01*
X124714047Y-92384523D01*
X124618809Y-92479761D01*
X124475952Y-92527380D01*
X124380714Y-92527380D01*
X125142619Y-91527380D02*
X125809285Y-91527380D01*
X125380714Y-92527380D01*
X125396666Y-86447380D02*
X125396666Y-87161666D01*
X125349047Y-87304523D01*
X125253809Y-87399761D01*
X125110952Y-87447380D01*
X125015714Y-87447380D01*
X126015714Y-86875952D02*
X125920476Y-86828333D01*
X125872857Y-86780714D01*
X125825238Y-86685476D01*
X125825238Y-86637857D01*
X125872857Y-86542619D01*
X125920476Y-86495000D01*
X126015714Y-86447380D01*
X126206190Y-86447380D01*
X126301428Y-86495000D01*
X126349047Y-86542619D01*
X126396666Y-86637857D01*
X126396666Y-86685476D01*
X126349047Y-86780714D01*
X126301428Y-86828333D01*
X126206190Y-86875952D01*
X126015714Y-86875952D01*
X125920476Y-86923571D01*
X125872857Y-86971190D01*
X125825238Y-87066428D01*
X125825238Y-87256904D01*
X125872857Y-87352142D01*
X125920476Y-87399761D01*
X126015714Y-87447380D01*
X126206190Y-87447380D01*
X126301428Y-87399761D01*
X126349047Y-87352142D01*
X126396666Y-87256904D01*
X126396666Y-87066428D01*
X126349047Y-86971190D01*
X126301428Y-86923571D01*
X126206190Y-86875952D01*
X117141666Y-92162380D02*
X117141666Y-92876666D01*
X117094047Y-93019523D01*
X116998809Y-93114761D01*
X116855952Y-93162380D01*
X116760714Y-93162380D01*
X117522619Y-92162380D02*
X118141666Y-92162380D01*
X117808333Y-92543333D01*
X117951190Y-92543333D01*
X118046428Y-92590952D01*
X118094047Y-92638571D01*
X118141666Y-92733809D01*
X118141666Y-92971904D01*
X118094047Y-93067142D01*
X118046428Y-93114761D01*
X117951190Y-93162380D01*
X117665476Y-93162380D01*
X117570238Y-93114761D01*
X117522619Y-93067142D01*
X22137619Y-102536666D02*
X21423333Y-102536666D01*
X21280476Y-102489047D01*
X21185238Y-102393809D01*
X21137619Y-102250952D01*
X21137619Y-102155714D01*
X21137619Y-103536666D02*
X21137619Y-102965238D01*
X21137619Y-103250952D02*
X22137619Y-103250952D01*
X21994761Y-103155714D01*
X21899523Y-103060476D01*
X21851904Y-102965238D01*
X96456666Y-109624761D02*
X96599523Y-109672380D01*
X96837619Y-109672380D01*
X96932857Y-109624761D01*
X96980476Y-109577142D01*
X97028095Y-109481904D01*
X97028095Y-109386666D01*
X96980476Y-109291428D01*
X96932857Y-109243809D01*
X96837619Y-109196190D01*
X96647142Y-109148571D01*
X96551904Y-109100952D01*
X96504285Y-109053333D01*
X96456666Y-108958095D01*
X96456666Y-108862857D01*
X96504285Y-108767619D01*
X96551904Y-108720000D01*
X96647142Y-108672380D01*
X96885238Y-108672380D01*
X97028095Y-108720000D01*
X97361428Y-108672380D02*
X97599523Y-109672380D01*
X97790000Y-108958095D01*
X97980476Y-109672380D01*
X98218571Y-108672380D01*
X98551904Y-108767619D02*
X98599523Y-108720000D01*
X98694761Y-108672380D01*
X98932857Y-108672380D01*
X99028095Y-108720000D01*
X99075714Y-108767619D01*
X99123333Y-108862857D01*
X99123333Y-108958095D01*
X99075714Y-109100952D01*
X98504285Y-109672380D01*
X99123333Y-109672380D01*
X124277380Y-82081666D02*
X123801190Y-82415000D01*
X124277380Y-82653095D02*
X123277380Y-82653095D01*
X123277380Y-82272142D01*
X123325000Y-82176904D01*
X123372619Y-82129285D01*
X123467857Y-82081666D01*
X123610714Y-82081666D01*
X123705952Y-82129285D01*
X123753571Y-82176904D01*
X123801190Y-82272142D01*
X123801190Y-82653095D01*
X124277380Y-81605476D02*
X124277380Y-81415000D01*
X124229761Y-81319761D01*
X124182142Y-81272142D01*
X124039285Y-81176904D01*
X123848809Y-81129285D01*
X123467857Y-81129285D01*
X123372619Y-81176904D01*
X123325000Y-81224523D01*
X123277380Y-81319761D01*
X123277380Y-81510238D01*
X123325000Y-81605476D01*
X123372619Y-81653095D01*
X123467857Y-81700714D01*
X123705952Y-81700714D01*
X123801190Y-81653095D01*
X123848809Y-81605476D01*
X123896428Y-81510238D01*
X123896428Y-81319761D01*
X123848809Y-81224523D01*
X123801190Y-81176904D01*
X123705952Y-81129285D01*
X124277380Y-74461666D02*
X123801190Y-74795000D01*
X124277380Y-75033095D02*
X123277380Y-75033095D01*
X123277380Y-74652142D01*
X123325000Y-74556904D01*
X123372619Y-74509285D01*
X123467857Y-74461666D01*
X123610714Y-74461666D01*
X123705952Y-74509285D01*
X123753571Y-74556904D01*
X123801190Y-74652142D01*
X123801190Y-75033095D01*
X123277380Y-73556904D02*
X123277380Y-74033095D01*
X123753571Y-74080714D01*
X123705952Y-74033095D01*
X123658333Y-73937857D01*
X123658333Y-73699761D01*
X123705952Y-73604523D01*
X123753571Y-73556904D01*
X123848809Y-73509285D01*
X124086904Y-73509285D01*
X124182142Y-73556904D01*
X124229761Y-73604523D01*
X124277380Y-73699761D01*
X124277380Y-73937857D01*
X124229761Y-74033095D01*
X124182142Y-74080714D01*
X30297380Y-101131666D02*
X29821190Y-101465000D01*
X30297380Y-101703095D02*
X29297380Y-101703095D01*
X29297380Y-101322142D01*
X29345000Y-101226904D01*
X29392619Y-101179285D01*
X29487857Y-101131666D01*
X29630714Y-101131666D01*
X29725952Y-101179285D01*
X29773571Y-101226904D01*
X29821190Y-101322142D01*
X29821190Y-101703095D01*
X29297380Y-100798333D02*
X29297380Y-100179285D01*
X29678333Y-100512619D01*
X29678333Y-100369761D01*
X29725952Y-100274523D01*
X29773571Y-100226904D01*
X29868809Y-100179285D01*
X30106904Y-100179285D01*
X30202142Y-100226904D01*
X30249761Y-100274523D01*
X30297380Y-100369761D01*
X30297380Y-100655476D01*
X30249761Y-100750714D01*
X30202142Y-100798333D01*
X27138333Y-95702380D02*
X26805000Y-95226190D01*
X26566904Y-95702380D02*
X26566904Y-94702380D01*
X26947857Y-94702380D01*
X27043095Y-94750000D01*
X27090714Y-94797619D01*
X27138333Y-94892857D01*
X27138333Y-95035714D01*
X27090714Y-95130952D01*
X27043095Y-95178571D01*
X26947857Y-95226190D01*
X26566904Y-95226190D01*
X27519285Y-94797619D02*
X27566904Y-94750000D01*
X27662142Y-94702380D01*
X27900238Y-94702380D01*
X27995476Y-94750000D01*
X28043095Y-94797619D01*
X28090714Y-94892857D01*
X28090714Y-94988095D01*
X28043095Y-95130952D01*
X27471666Y-95702380D01*
X28090714Y-95702380D01*
X18248333Y-63952380D02*
X17915000Y-63476190D01*
X17676904Y-63952380D02*
X17676904Y-62952380D01*
X18057857Y-62952380D01*
X18153095Y-63000000D01*
X18200714Y-63047619D01*
X18248333Y-63142857D01*
X18248333Y-63285714D01*
X18200714Y-63380952D01*
X18153095Y-63428571D01*
X18057857Y-63476190D01*
X17676904Y-63476190D01*
X18819761Y-63380952D02*
X18724523Y-63333333D01*
X18676904Y-63285714D01*
X18629285Y-63190476D01*
X18629285Y-63142857D01*
X18676904Y-63047619D01*
X18724523Y-63000000D01*
X18819761Y-62952380D01*
X19010238Y-62952380D01*
X19105476Y-63000000D01*
X19153095Y-63047619D01*
X19200714Y-63142857D01*
X19200714Y-63190476D01*
X19153095Y-63285714D01*
X19105476Y-63333333D01*
X19010238Y-63380952D01*
X18819761Y-63380952D01*
X18724523Y-63428571D01*
X18676904Y-63476190D01*
X18629285Y-63571428D01*
X18629285Y-63761904D01*
X18676904Y-63857142D01*
X18724523Y-63904761D01*
X18819761Y-63952380D01*
X19010238Y-63952380D01*
X19105476Y-63904761D01*
X19153095Y-63857142D01*
X19200714Y-63761904D01*
X19200714Y-63571428D01*
X19153095Y-63476190D01*
X19105476Y-63428571D01*
X19010238Y-63380952D01*
X25868333Y-65222380D02*
X25535000Y-64746190D01*
X25296904Y-65222380D02*
X25296904Y-64222380D01*
X25677857Y-64222380D01*
X25773095Y-64270000D01*
X25820714Y-64317619D01*
X25868333Y-64412857D01*
X25868333Y-64555714D01*
X25820714Y-64650952D01*
X25773095Y-64698571D01*
X25677857Y-64746190D01*
X25296904Y-64746190D01*
X26201666Y-64222380D02*
X26868333Y-64222380D01*
X26439761Y-65222380D01*
X97623333Y-98877380D02*
X97290000Y-98401190D01*
X97051904Y-98877380D02*
X97051904Y-97877380D01*
X97432857Y-97877380D01*
X97528095Y-97925000D01*
X97575714Y-97972619D01*
X97623333Y-98067857D01*
X97623333Y-98210714D01*
X97575714Y-98305952D01*
X97528095Y-98353571D01*
X97432857Y-98401190D01*
X97051904Y-98401190D01*
X98480476Y-97877380D02*
X98290000Y-97877380D01*
X98194761Y-97925000D01*
X98147142Y-97972619D01*
X98051904Y-98115476D01*
X98004285Y-98305952D01*
X98004285Y-98686904D01*
X98051904Y-98782142D01*
X98099523Y-98829761D01*
X98194761Y-98877380D01*
X98385238Y-98877380D01*
X98480476Y-98829761D01*
X98528095Y-98782142D01*
X98575714Y-98686904D01*
X98575714Y-98448809D01*
X98528095Y-98353571D01*
X98480476Y-98305952D01*
X98385238Y-98258333D01*
X98194761Y-98258333D01*
X98099523Y-98305952D01*
X98051904Y-98353571D01*
X98004285Y-98448809D01*
X103973333Y-98877380D02*
X103640000Y-98401190D01*
X103401904Y-98877380D02*
X103401904Y-97877380D01*
X103782857Y-97877380D01*
X103878095Y-97925000D01*
X103925714Y-97972619D01*
X103973333Y-98067857D01*
X103973333Y-98210714D01*
X103925714Y-98305952D01*
X103878095Y-98353571D01*
X103782857Y-98401190D01*
X103401904Y-98401190D01*
X104830476Y-98210714D02*
X104830476Y-98877380D01*
X104592380Y-97829761D02*
X104354285Y-98544047D01*
X104973333Y-98544047D01*
X111426666Y-108037380D02*
X111426666Y-108751666D01*
X111379047Y-108894523D01*
X111283809Y-108989761D01*
X111140952Y-109037380D01*
X111045714Y-109037380D01*
X112331428Y-108037380D02*
X112140952Y-108037380D01*
X112045714Y-108085000D01*
X111998095Y-108132619D01*
X111902857Y-108275476D01*
X111855238Y-108465952D01*
X111855238Y-108846904D01*
X111902857Y-108942142D01*
X111950476Y-108989761D01*
X112045714Y-109037380D01*
X112236190Y-109037380D01*
X112331428Y-108989761D01*
X112379047Y-108942142D01*
X112426666Y-108846904D01*
X112426666Y-108608809D01*
X112379047Y-108513571D01*
X112331428Y-108465952D01*
X112236190Y-108418333D01*
X112045714Y-108418333D01*
X111950476Y-108465952D01*
X111902857Y-108513571D01*
X111855238Y-108608809D01*
X107148333Y-87352142D02*
X107100714Y-87399761D01*
X106957857Y-87447380D01*
X106862619Y-87447380D01*
X106719761Y-87399761D01*
X106624523Y-87304523D01*
X106576904Y-87209285D01*
X106529285Y-87018809D01*
X106529285Y-86875952D01*
X106576904Y-86685476D01*
X106624523Y-86590238D01*
X106719761Y-86495000D01*
X106862619Y-86447380D01*
X106957857Y-86447380D01*
X107100714Y-86495000D01*
X107148333Y-86542619D01*
X108100714Y-87447380D02*
X107529285Y-87447380D01*
X107815000Y-87447380D02*
X107815000Y-86447380D01*
X107719761Y-86590238D01*
X107624523Y-86685476D01*
X107529285Y-86733095D01*
X82851666Y-108037380D02*
X82851666Y-108751666D01*
X82804047Y-108894523D01*
X82708809Y-108989761D01*
X82565952Y-109037380D01*
X82470714Y-109037380D01*
X83375476Y-109037380D02*
X83565952Y-109037380D01*
X83661190Y-108989761D01*
X83708809Y-108942142D01*
X83804047Y-108799285D01*
X83851666Y-108608809D01*
X83851666Y-108227857D01*
X83804047Y-108132619D01*
X83756428Y-108085000D01*
X83661190Y-108037380D01*
X83470714Y-108037380D01*
X83375476Y-108085000D01*
X83327857Y-108132619D01*
X83280238Y-108227857D01*
X83280238Y-108465952D01*
X83327857Y-108561190D01*
X83375476Y-108608809D01*
X83470714Y-108656428D01*
X83661190Y-108656428D01*
X83756428Y-108608809D01*
X83804047Y-108561190D01*
X83851666Y-108465952D01*
X124277380Y-80017857D02*
X123801190Y-80351190D01*
X124277380Y-80589285D02*
X123277380Y-80589285D01*
X123277380Y-80208333D01*
X123325000Y-80113095D01*
X123372619Y-80065476D01*
X123467857Y-80017857D01*
X123610714Y-80017857D01*
X123705952Y-80065476D01*
X123753571Y-80113095D01*
X123801190Y-80208333D01*
X123801190Y-80589285D01*
X124277380Y-79065476D02*
X124277380Y-79636904D01*
X124277380Y-79351190D02*
X123277380Y-79351190D01*
X123420238Y-79446428D01*
X123515476Y-79541666D01*
X123563095Y-79636904D01*
X123277380Y-78446428D02*
X123277380Y-78351190D01*
X123325000Y-78255952D01*
X123372619Y-78208333D01*
X123467857Y-78160714D01*
X123658333Y-78113095D01*
X123896428Y-78113095D01*
X124086904Y-78160714D01*
X124182142Y-78208333D01*
X124229761Y-78255952D01*
X124277380Y-78351190D01*
X124277380Y-78446428D01*
X124229761Y-78541666D01*
X124182142Y-78589285D01*
X124086904Y-78636904D01*
X123896428Y-78684523D01*
X123658333Y-78684523D01*
X123467857Y-78636904D01*
X123372619Y-78589285D01*
X123325000Y-78541666D01*
X123277380Y-78446428D01*
X80311666Y-63587380D02*
X80311666Y-64301666D01*
X80264047Y-64444523D01*
X80168809Y-64539761D01*
X80025952Y-64587380D01*
X79930714Y-64587380D01*
X80740238Y-63682619D02*
X80787857Y-63635000D01*
X80883095Y-63587380D01*
X81121190Y-63587380D01*
X81216428Y-63635000D01*
X81264047Y-63682619D01*
X81311666Y-63777857D01*
X81311666Y-63873095D01*
X81264047Y-64015952D01*
X80692619Y-64587380D01*
X81311666Y-64587380D01*
X69040476Y-108037380D02*
X69040476Y-108751666D01*
X68992857Y-108894523D01*
X68897619Y-108989761D01*
X68754761Y-109037380D01*
X68659523Y-109037380D01*
X70040476Y-109037380D02*
X69469047Y-109037380D01*
X69754761Y-109037380D02*
X69754761Y-108037380D01*
X69659523Y-108180238D01*
X69564285Y-108275476D01*
X69469047Y-108323095D01*
X70659523Y-108037380D02*
X70754761Y-108037380D01*
X70850000Y-108085000D01*
X70897619Y-108132619D01*
X70945238Y-108227857D01*
X70992857Y-108418333D01*
X70992857Y-108656428D01*
X70945238Y-108846904D01*
X70897619Y-108942142D01*
X70850000Y-108989761D01*
X70754761Y-109037380D01*
X70659523Y-109037380D01*
X70564285Y-108989761D01*
X70516666Y-108942142D01*
X70469047Y-108846904D01*
X70421428Y-108656428D01*
X70421428Y-108418333D01*
X70469047Y-108227857D01*
X70516666Y-108132619D01*
X70564285Y-108085000D01*
X70659523Y-108037380D01*
X55705476Y-108037380D02*
X55705476Y-108751666D01*
X55657857Y-108894523D01*
X55562619Y-108989761D01*
X55419761Y-109037380D01*
X55324523Y-109037380D01*
X56705476Y-109037380D02*
X56134047Y-109037380D01*
X56419761Y-109037380D02*
X56419761Y-108037380D01*
X56324523Y-108180238D01*
X56229285Y-108275476D01*
X56134047Y-108323095D01*
X57657857Y-109037380D02*
X57086428Y-109037380D01*
X57372142Y-109037380D02*
X57372142Y-108037380D01*
X57276904Y-108180238D01*
X57181666Y-108275476D01*
X57086428Y-108323095D01*
X41735476Y-108037380D02*
X41735476Y-108751666D01*
X41687857Y-108894523D01*
X41592619Y-108989761D01*
X41449761Y-109037380D01*
X41354523Y-109037380D01*
X42735476Y-109037380D02*
X42164047Y-109037380D01*
X42449761Y-109037380D02*
X42449761Y-108037380D01*
X42354523Y-108180238D01*
X42259285Y-108275476D01*
X42164047Y-108323095D01*
X43116428Y-108132619D02*
X43164047Y-108085000D01*
X43259285Y-108037380D01*
X43497380Y-108037380D01*
X43592619Y-108085000D01*
X43640238Y-108132619D01*
X43687857Y-108227857D01*
X43687857Y-108323095D01*
X43640238Y-108465952D01*
X43068809Y-109037380D01*
X43687857Y-109037380D01*
X124277380Y-77477857D02*
X123801190Y-77811190D01*
X124277380Y-78049285D02*
X123277380Y-78049285D01*
X123277380Y-77668333D01*
X123325000Y-77573095D01*
X123372619Y-77525476D01*
X123467857Y-77477857D01*
X123610714Y-77477857D01*
X123705952Y-77525476D01*
X123753571Y-77573095D01*
X123801190Y-77668333D01*
X123801190Y-78049285D01*
X124277380Y-76525476D02*
X124277380Y-77096904D01*
X124277380Y-76811190D02*
X123277380Y-76811190D01*
X123420238Y-76906428D01*
X123515476Y-77001666D01*
X123563095Y-77096904D01*
X124277380Y-75573095D02*
X124277380Y-76144523D01*
X124277380Y-75858809D02*
X123277380Y-75858809D01*
X123420238Y-75954047D01*
X123515476Y-76049285D01*
X123563095Y-76144523D01*
X90797142Y-100782380D02*
X90463809Y-100306190D01*
X90225714Y-100782380D02*
X90225714Y-99782380D01*
X90606666Y-99782380D01*
X90701904Y-99830000D01*
X90749523Y-99877619D01*
X90797142Y-99972857D01*
X90797142Y-100115714D01*
X90749523Y-100210952D01*
X90701904Y-100258571D01*
X90606666Y-100306190D01*
X90225714Y-100306190D01*
X91749523Y-100782380D02*
X91178095Y-100782380D01*
X91463809Y-100782380D02*
X91463809Y-99782380D01*
X91368571Y-99925238D01*
X91273333Y-100020476D01*
X91178095Y-100068095D01*
X92130476Y-99877619D02*
X92178095Y-99830000D01*
X92273333Y-99782380D01*
X92511428Y-99782380D01*
X92606666Y-99830000D01*
X92654285Y-99877619D01*
X92701904Y-99972857D01*
X92701904Y-100068095D01*
X92654285Y-100210952D01*
X92082857Y-100782380D01*
X92701904Y-100782380D01*
X86987142Y-100782380D02*
X86653809Y-100306190D01*
X86415714Y-100782380D02*
X86415714Y-99782380D01*
X86796666Y-99782380D01*
X86891904Y-99830000D01*
X86939523Y-99877619D01*
X86987142Y-99972857D01*
X86987142Y-100115714D01*
X86939523Y-100210952D01*
X86891904Y-100258571D01*
X86796666Y-100306190D01*
X86415714Y-100306190D01*
X87939523Y-100782380D02*
X87368095Y-100782380D01*
X87653809Y-100782380D02*
X87653809Y-99782380D01*
X87558571Y-99925238D01*
X87463333Y-100020476D01*
X87368095Y-100068095D01*
X88272857Y-99782380D02*
X88891904Y-99782380D01*
X88558571Y-100163333D01*
X88701428Y-100163333D01*
X88796666Y-100210952D01*
X88844285Y-100258571D01*
X88891904Y-100353809D01*
X88891904Y-100591904D01*
X88844285Y-100687142D01*
X88796666Y-100734761D01*
X88701428Y-100782380D01*
X88415714Y-100782380D01*
X88320476Y-100734761D01*
X88272857Y-100687142D01*
X81097380Y-77477857D02*
X80621190Y-77811190D01*
X81097380Y-78049285D02*
X80097380Y-78049285D01*
X80097380Y-77668333D01*
X80145000Y-77573095D01*
X80192619Y-77525476D01*
X80287857Y-77477857D01*
X80430714Y-77477857D01*
X80525952Y-77525476D01*
X80573571Y-77573095D01*
X80621190Y-77668333D01*
X80621190Y-78049285D01*
X81097380Y-76525476D02*
X81097380Y-77096904D01*
X81097380Y-76811190D02*
X80097380Y-76811190D01*
X80240238Y-76906428D01*
X80335476Y-77001666D01*
X80383095Y-77096904D01*
X80097380Y-75620714D02*
X80097380Y-76096904D01*
X80573571Y-76144523D01*
X80525952Y-76096904D01*
X80478333Y-76001666D01*
X80478333Y-75763571D01*
X80525952Y-75668333D01*
X80573571Y-75620714D01*
X80668809Y-75573095D01*
X80906904Y-75573095D01*
X81002142Y-75620714D01*
X81049761Y-75668333D01*
X81097380Y-75763571D01*
X81097380Y-76001666D01*
X81049761Y-76096904D01*
X81002142Y-76144523D01*
X18392142Y-68111666D02*
X18439761Y-68159285D01*
X18487380Y-68302142D01*
X18487380Y-68397380D01*
X18439761Y-68540238D01*
X18344523Y-68635476D01*
X18249285Y-68683095D01*
X18058809Y-68730714D01*
X17915952Y-68730714D01*
X17725476Y-68683095D01*
X17630238Y-68635476D01*
X17535000Y-68540238D01*
X17487380Y-68397380D01*
X17487380Y-68302142D01*
X17535000Y-68159285D01*
X17582619Y-68111666D01*
X17487380Y-67206904D02*
X17487380Y-67683095D01*
X17963571Y-67730714D01*
X17915952Y-67683095D01*
X17868333Y-67587857D01*
X17868333Y-67349761D01*
X17915952Y-67254523D01*
X17963571Y-67206904D01*
X18058809Y-67159285D01*
X18296904Y-67159285D01*
X18392142Y-67206904D01*
X18439761Y-67254523D01*
X18487380Y-67349761D01*
X18487380Y-67587857D01*
X18439761Y-67683095D01*
X18392142Y-67730714D01*
X25868333Y-70207142D02*
X25820714Y-70254761D01*
X25677857Y-70302380D01*
X25582619Y-70302380D01*
X25439761Y-70254761D01*
X25344523Y-70159523D01*
X25296904Y-70064285D01*
X25249285Y-69873809D01*
X25249285Y-69730952D01*
X25296904Y-69540476D01*
X25344523Y-69445238D01*
X25439761Y-69350000D01*
X25582619Y-69302380D01*
X25677857Y-69302380D01*
X25820714Y-69350000D01*
X25868333Y-69397619D01*
X26725476Y-69302380D02*
X26535000Y-69302380D01*
X26439761Y-69350000D01*
X26392142Y-69397619D01*
X26296904Y-69540476D01*
X26249285Y-69730952D01*
X26249285Y-70111904D01*
X26296904Y-70207142D01*
X26344523Y-70254761D01*
X26439761Y-70302380D01*
X26630238Y-70302380D01*
X26725476Y-70254761D01*
X26773095Y-70207142D01*
X26820714Y-70111904D01*
X26820714Y-69873809D01*
X26773095Y-69778571D01*
X26725476Y-69730952D01*
X26630238Y-69683333D01*
X26439761Y-69683333D01*
X26344523Y-69730952D01*
X26296904Y-69778571D01*
X26249285Y-69873809D01*
X32218333Y-63857142D02*
X32170714Y-63904761D01*
X32027857Y-63952380D01*
X31932619Y-63952380D01*
X31789761Y-63904761D01*
X31694523Y-63809523D01*
X31646904Y-63714285D01*
X31599285Y-63523809D01*
X31599285Y-63380952D01*
X31646904Y-63190476D01*
X31694523Y-63095238D01*
X31789761Y-63000000D01*
X31932619Y-62952380D01*
X32027857Y-62952380D01*
X32170714Y-63000000D01*
X32218333Y-63047619D01*
X32551666Y-62952380D02*
X33218333Y-62952380D01*
X32789761Y-63952380D01*
X28448095Y-98512380D02*
X28448095Y-99321904D01*
X28495714Y-99417142D01*
X28543333Y-99464761D01*
X28638571Y-99512380D01*
X28829047Y-99512380D01*
X28924285Y-99464761D01*
X28971904Y-99417142D01*
X29019523Y-99321904D01*
X29019523Y-98512380D01*
X29448095Y-98607619D02*
X29495714Y-98560000D01*
X29590952Y-98512380D01*
X29829047Y-98512380D01*
X29924285Y-98560000D01*
X29971904Y-98607619D01*
X30019523Y-98702857D01*
X30019523Y-98798095D01*
X29971904Y-98940952D01*
X29400476Y-99512380D01*
X30019523Y-99512380D01*
X18923095Y-69937380D02*
X18923095Y-70746904D01*
X18970714Y-70842142D01*
X19018333Y-70889761D01*
X19113571Y-70937380D01*
X19304047Y-70937380D01*
X19399285Y-70889761D01*
X19446904Y-70842142D01*
X19494523Y-70746904D01*
X19494523Y-69937380D01*
X19875476Y-69937380D02*
X20494523Y-69937380D01*
X20161190Y-70318333D01*
X20304047Y-70318333D01*
X20399285Y-70365952D01*
X20446904Y-70413571D01*
X20494523Y-70508809D01*
X20494523Y-70746904D01*
X20446904Y-70842142D01*
X20399285Y-70889761D01*
X20304047Y-70937380D01*
X20018333Y-70937380D01*
X19923095Y-70889761D01*
X19875476Y-70842142D01*
X63373095Y-72477380D02*
X63373095Y-73286904D01*
X63420714Y-73382142D01*
X63468333Y-73429761D01*
X63563571Y-73477380D01*
X63754047Y-73477380D01*
X63849285Y-73429761D01*
X63896904Y-73382142D01*
X63944523Y-73286904D01*
X63944523Y-72477380D01*
X64896904Y-72477380D02*
X64420714Y-72477380D01*
X64373095Y-72953571D01*
X64420714Y-72905952D01*
X64515952Y-72858333D01*
X64754047Y-72858333D01*
X64849285Y-72905952D01*
X64896904Y-72953571D01*
X64944523Y-73048809D01*
X64944523Y-73286904D01*
X64896904Y-73382142D01*
X64849285Y-73429761D01*
X64754047Y-73477380D01*
X64515952Y-73477380D01*
X64420714Y-73429761D01*
X64373095Y-73382142D01*
X36703095Y-72477380D02*
X36703095Y-73286904D01*
X36750714Y-73382142D01*
X36798333Y-73429761D01*
X36893571Y-73477380D01*
X37084047Y-73477380D01*
X37179285Y-73429761D01*
X37226904Y-73382142D01*
X37274523Y-73286904D01*
X37274523Y-72477380D01*
X37655476Y-72477380D02*
X38322142Y-72477380D01*
X37893571Y-73477380D01*
X85477380Y-88391904D02*
X86286904Y-88391904D01*
X86382142Y-88344285D01*
X86429761Y-88296666D01*
X86477380Y-88201428D01*
X86477380Y-88010952D01*
X86429761Y-87915714D01*
X86382142Y-87868095D01*
X86286904Y-87820476D01*
X85477380Y-87820476D01*
X85905952Y-87201428D02*
X85858333Y-87296666D01*
X85810714Y-87344285D01*
X85715476Y-87391904D01*
X85667857Y-87391904D01*
X85572619Y-87344285D01*
X85525000Y-87296666D01*
X85477380Y-87201428D01*
X85477380Y-87010952D01*
X85525000Y-86915714D01*
X85572619Y-86868095D01*
X85667857Y-86820476D01*
X85715476Y-86820476D01*
X85810714Y-86868095D01*
X85858333Y-86915714D01*
X85905952Y-87010952D01*
X85905952Y-87201428D01*
X85953571Y-87296666D01*
X86001190Y-87344285D01*
X86096428Y-87391904D01*
X86286904Y-87391904D01*
X86382142Y-87344285D01*
X86429761Y-87296666D01*
X86477380Y-87201428D01*
X86477380Y-87010952D01*
X86429761Y-86915714D01*
X86382142Y-86868095D01*
X86286904Y-86820476D01*
X86096428Y-86820476D01*
X86001190Y-86868095D01*
X85953571Y-86915714D01*
X85905952Y-87010952D01*
X72142380Y-88391904D02*
X72951904Y-88391904D01*
X73047142Y-88344285D01*
X73094761Y-88296666D01*
X73142380Y-88201428D01*
X73142380Y-88010952D01*
X73094761Y-87915714D01*
X73047142Y-87868095D01*
X72951904Y-87820476D01*
X72142380Y-87820476D01*
X73142380Y-87296666D02*
X73142380Y-87106190D01*
X73094761Y-87010952D01*
X73047142Y-86963333D01*
X72904285Y-86868095D01*
X72713809Y-86820476D01*
X72332857Y-86820476D01*
X72237619Y-86868095D01*
X72190000Y-86915714D01*
X72142380Y-87010952D01*
X72142380Y-87201428D01*
X72190000Y-87296666D01*
X72237619Y-87344285D01*
X72332857Y-87391904D01*
X72570952Y-87391904D01*
X72666190Y-87344285D01*
X72713809Y-87296666D01*
X72761428Y-87201428D01*
X72761428Y-87010952D01*
X72713809Y-86915714D01*
X72666190Y-86868095D01*
X72570952Y-86820476D01*
X58807380Y-88868095D02*
X59616904Y-88868095D01*
X59712142Y-88820476D01*
X59759761Y-88772857D01*
X59807380Y-88677619D01*
X59807380Y-88487142D01*
X59759761Y-88391904D01*
X59712142Y-88344285D01*
X59616904Y-88296666D01*
X58807380Y-88296666D01*
X59807380Y-87296666D02*
X59807380Y-87868095D01*
X59807380Y-87582380D02*
X58807380Y-87582380D01*
X58950238Y-87677619D01*
X59045476Y-87772857D01*
X59093095Y-87868095D01*
X58807380Y-86677619D02*
X58807380Y-86582380D01*
X58855000Y-86487142D01*
X58902619Y-86439523D01*
X58997857Y-86391904D01*
X59188333Y-86344285D01*
X59426428Y-86344285D01*
X59616904Y-86391904D01*
X59712142Y-86439523D01*
X59759761Y-86487142D01*
X59807380Y-86582380D01*
X59807380Y-86677619D01*
X59759761Y-86772857D01*
X59712142Y-86820476D01*
X59616904Y-86868095D01*
X59426428Y-86915714D01*
X59188333Y-86915714D01*
X58997857Y-86868095D01*
X58902619Y-86820476D01*
X58855000Y-86772857D01*
X58807380Y-86677619D01*
X73002142Y-69381666D02*
X73049761Y-69429285D01*
X73097380Y-69572142D01*
X73097380Y-69667380D01*
X73049761Y-69810238D01*
X72954523Y-69905476D01*
X72859285Y-69953095D01*
X72668809Y-70000714D01*
X72525952Y-70000714D01*
X72335476Y-69953095D01*
X72240238Y-69905476D01*
X72145000Y-69810238D01*
X72097380Y-69667380D01*
X72097380Y-69572142D01*
X72145000Y-69429285D01*
X72192619Y-69381666D01*
X72525952Y-68810238D02*
X72478333Y-68905476D01*
X72430714Y-68953095D01*
X72335476Y-69000714D01*
X72287857Y-69000714D01*
X72192619Y-68953095D01*
X72145000Y-68905476D01*
X72097380Y-68810238D01*
X72097380Y-68619761D01*
X72145000Y-68524523D01*
X72192619Y-68476904D01*
X72287857Y-68429285D01*
X72335476Y-68429285D01*
X72430714Y-68476904D01*
X72478333Y-68524523D01*
X72525952Y-68619761D01*
X72525952Y-68810238D01*
X72573571Y-68905476D01*
X72621190Y-68953095D01*
X72716428Y-69000714D01*
X72906904Y-69000714D01*
X73002142Y-68953095D01*
X73049761Y-68905476D01*
X73097380Y-68810238D01*
X73097380Y-68619761D01*
X73049761Y-68524523D01*
X73002142Y-68476904D01*
X72906904Y-68429285D01*
X72716428Y-68429285D01*
X72621190Y-68476904D01*
X72573571Y-68524523D01*
X72525952Y-68619761D01*
X60302142Y-70651666D02*
X60349761Y-70699285D01*
X60397380Y-70842142D01*
X60397380Y-70937380D01*
X60349761Y-71080238D01*
X60254523Y-71175476D01*
X60159285Y-71223095D01*
X59968809Y-71270714D01*
X59825952Y-71270714D01*
X59635476Y-71223095D01*
X59540238Y-71175476D01*
X59445000Y-71080238D01*
X59397380Y-70937380D01*
X59397380Y-70842142D01*
X59445000Y-70699285D01*
X59492619Y-70651666D01*
X60397380Y-70175476D02*
X60397380Y-69985000D01*
X60349761Y-69889761D01*
X60302142Y-69842142D01*
X60159285Y-69746904D01*
X59968809Y-69699285D01*
X59587857Y-69699285D01*
X59492619Y-69746904D01*
X59445000Y-69794523D01*
X59397380Y-69889761D01*
X59397380Y-70080238D01*
X59445000Y-70175476D01*
X59492619Y-70223095D01*
X59587857Y-70270714D01*
X59825952Y-70270714D01*
X59921190Y-70223095D01*
X59968809Y-70175476D01*
X60016428Y-70080238D01*
X60016428Y-69889761D01*
X59968809Y-69794523D01*
X59921190Y-69746904D01*
X59825952Y-69699285D01*
X47617142Y-68302142D02*
X47569523Y-68349761D01*
X47426666Y-68397380D01*
X47331428Y-68397380D01*
X47188571Y-68349761D01*
X47093333Y-68254523D01*
X47045714Y-68159285D01*
X46998095Y-67968809D01*
X46998095Y-67825952D01*
X47045714Y-67635476D01*
X47093333Y-67540238D01*
X47188571Y-67445000D01*
X47331428Y-67397380D01*
X47426666Y-67397380D01*
X47569523Y-67445000D01*
X47617142Y-67492619D01*
X48569523Y-68397380D02*
X47998095Y-68397380D01*
X48283809Y-68397380D02*
X48283809Y-67397380D01*
X48188571Y-67540238D01*
X48093333Y-67635476D01*
X47998095Y-67683095D01*
X49188571Y-67397380D02*
X49283809Y-67397380D01*
X49379047Y-67445000D01*
X49426666Y-67492619D01*
X49474285Y-67587857D01*
X49521904Y-67778333D01*
X49521904Y-68016428D01*
X49474285Y-68206904D01*
X49426666Y-68302142D01*
X49379047Y-68349761D01*
X49283809Y-68397380D01*
X49188571Y-68397380D01*
X49093333Y-68349761D01*
X49045714Y-68302142D01*
X48998095Y-68206904D01*
X48950476Y-68016428D01*
X48950476Y-67778333D01*
X48998095Y-67587857D01*
X49045714Y-67492619D01*
X49093333Y-67445000D01*
X49188571Y-67397380D01*
X35552142Y-68302142D02*
X35504523Y-68349761D01*
X35361666Y-68397380D01*
X35266428Y-68397380D01*
X35123571Y-68349761D01*
X35028333Y-68254523D01*
X34980714Y-68159285D01*
X34933095Y-67968809D01*
X34933095Y-67825952D01*
X34980714Y-67635476D01*
X35028333Y-67540238D01*
X35123571Y-67445000D01*
X35266428Y-67397380D01*
X35361666Y-67397380D01*
X35504523Y-67445000D01*
X35552142Y-67492619D01*
X36504523Y-68397380D02*
X35933095Y-68397380D01*
X36218809Y-68397380D02*
X36218809Y-67397380D01*
X36123571Y-67540238D01*
X36028333Y-67635476D01*
X35933095Y-67683095D01*
X37456904Y-68397380D02*
X36885476Y-68397380D01*
X37171190Y-68397380D02*
X37171190Y-67397380D01*
X37075952Y-67540238D01*
X36980714Y-67635476D01*
X36885476Y-67683095D01*
X75461904Y-67127380D02*
X75461904Y-66127380D01*
X75700000Y-66127380D01*
X75842857Y-66175000D01*
X75938095Y-66270238D01*
X75985714Y-66365476D01*
X76033333Y-66555952D01*
X76033333Y-66698809D01*
X75985714Y-66889285D01*
X75938095Y-66984523D01*
X75842857Y-67079761D01*
X75700000Y-67127380D01*
X75461904Y-67127380D01*
X76366666Y-66127380D02*
X76985714Y-66127380D01*
X76652380Y-66508333D01*
X76795238Y-66508333D01*
X76890476Y-66555952D01*
X76938095Y-66603571D01*
X76985714Y-66698809D01*
X76985714Y-66936904D01*
X76938095Y-67032142D01*
X76890476Y-67079761D01*
X76795238Y-67127380D01*
X76509523Y-67127380D01*
X76414285Y-67079761D01*
X76366666Y-67032142D01*
X63396904Y-68397380D02*
X63396904Y-67397380D01*
X63635000Y-67397380D01*
X63777857Y-67445000D01*
X63873095Y-67540238D01*
X63920714Y-67635476D01*
X63968333Y-67825952D01*
X63968333Y-67968809D01*
X63920714Y-68159285D01*
X63873095Y-68254523D01*
X63777857Y-68349761D01*
X63635000Y-68397380D01*
X63396904Y-68397380D01*
X64825476Y-67730714D02*
X64825476Y-68397380D01*
X64587380Y-67349761D02*
X64349285Y-68064047D01*
X64968333Y-68064047D01*
X50061904Y-68397380D02*
X50061904Y-67397380D01*
X50300000Y-67397380D01*
X50442857Y-67445000D01*
X50538095Y-67540238D01*
X50585714Y-67635476D01*
X50633333Y-67825952D01*
X50633333Y-67968809D01*
X50585714Y-68159285D01*
X50538095Y-68254523D01*
X50442857Y-68349761D01*
X50300000Y-68397380D01*
X50061904Y-68397380D01*
X51538095Y-67397380D02*
X51061904Y-67397380D01*
X51014285Y-67873571D01*
X51061904Y-67825952D01*
X51157142Y-67778333D01*
X51395238Y-67778333D01*
X51490476Y-67825952D01*
X51538095Y-67873571D01*
X51585714Y-67968809D01*
X51585714Y-68206904D01*
X51538095Y-68302142D01*
X51490476Y-68349761D01*
X51395238Y-68397380D01*
X51157142Y-68397380D01*
X51061904Y-68349761D01*
X51014285Y-68302142D01*
X38631904Y-68397380D02*
X38631904Y-67397380D01*
X38870000Y-67397380D01*
X39012857Y-67445000D01*
X39108095Y-67540238D01*
X39155714Y-67635476D01*
X39203333Y-67825952D01*
X39203333Y-67968809D01*
X39155714Y-68159285D01*
X39108095Y-68254523D01*
X39012857Y-68349761D01*
X38870000Y-68397380D01*
X38631904Y-68397380D01*
X40060476Y-67397380D02*
X39870000Y-67397380D01*
X39774761Y-67445000D01*
X39727142Y-67492619D01*
X39631904Y-67635476D01*
X39584285Y-67825952D01*
X39584285Y-68206904D01*
X39631904Y-68302142D01*
X39679523Y-68349761D01*
X39774761Y-68397380D01*
X39965238Y-68397380D01*
X40060476Y-68349761D01*
X40108095Y-68302142D01*
X40155714Y-68206904D01*
X40155714Y-67968809D01*
X40108095Y-67873571D01*
X40060476Y-67825952D01*
X39965238Y-67778333D01*
X39774761Y-67778333D01*
X39679523Y-67825952D01*
X39631904Y-67873571D01*
X39584285Y-67968809D01*
X83002380Y-70492857D02*
X82526190Y-70826190D01*
X83002380Y-71064285D02*
X82002380Y-71064285D01*
X82002380Y-70683333D01*
X82050000Y-70588095D01*
X82097619Y-70540476D01*
X82192857Y-70492857D01*
X82335714Y-70492857D01*
X82430952Y-70540476D01*
X82478571Y-70588095D01*
X82526190Y-70683333D01*
X82526190Y-71064285D01*
X83002380Y-69540476D02*
X83002380Y-70111904D01*
X83002380Y-69826190D02*
X82002380Y-69826190D01*
X82145238Y-69921428D01*
X82240476Y-70016666D01*
X82288095Y-70111904D01*
X82335714Y-68683333D02*
X83002380Y-68683333D01*
X81954761Y-68921428D02*
X82669047Y-69159523D01*
X82669047Y-68540476D01*
X52697142Y-68397380D02*
X52363809Y-67921190D01*
X52125714Y-68397380D02*
X52125714Y-67397380D01*
X52506666Y-67397380D01*
X52601904Y-67445000D01*
X52649523Y-67492619D01*
X52697142Y-67587857D01*
X52697142Y-67730714D01*
X52649523Y-67825952D01*
X52601904Y-67873571D01*
X52506666Y-67921190D01*
X52125714Y-67921190D01*
X53649523Y-68397380D02*
X53078095Y-68397380D01*
X53363809Y-68397380D02*
X53363809Y-67397380D01*
X53268571Y-67540238D01*
X53173333Y-67635476D01*
X53078095Y-67683095D01*
X54220952Y-67825952D02*
X54125714Y-67778333D01*
X54078095Y-67730714D01*
X54030476Y-67635476D01*
X54030476Y-67587857D01*
X54078095Y-67492619D01*
X54125714Y-67445000D01*
X54220952Y-67397380D01*
X54411428Y-67397380D01*
X54506666Y-67445000D01*
X54554285Y-67492619D01*
X54601904Y-67587857D01*
X54601904Y-67635476D01*
X54554285Y-67730714D01*
X54506666Y-67778333D01*
X54411428Y-67825952D01*
X54220952Y-67825952D01*
X54125714Y-67873571D01*
X54078095Y-67921190D01*
X54030476Y-68016428D01*
X54030476Y-68206904D01*
X54078095Y-68302142D01*
X54125714Y-68349761D01*
X54220952Y-68397380D01*
X54411428Y-68397380D01*
X54506666Y-68349761D01*
X54554285Y-68302142D01*
X54601904Y-68206904D01*
X54601904Y-68016428D01*
X54554285Y-67921190D01*
X54506666Y-67873571D01*
X54411428Y-67825952D01*
X66032142Y-68397380D02*
X65698809Y-67921190D01*
X65460714Y-68397380D02*
X65460714Y-67397380D01*
X65841666Y-67397380D01*
X65936904Y-67445000D01*
X65984523Y-67492619D01*
X66032142Y-67587857D01*
X66032142Y-67730714D01*
X65984523Y-67825952D01*
X65936904Y-67873571D01*
X65841666Y-67921190D01*
X65460714Y-67921190D01*
X66984523Y-68397380D02*
X66413095Y-68397380D01*
X66698809Y-68397380D02*
X66698809Y-67397380D01*
X66603571Y-67540238D01*
X66508333Y-67635476D01*
X66413095Y-67683095D01*
X67841666Y-67397380D02*
X67651190Y-67397380D01*
X67555952Y-67445000D01*
X67508333Y-67492619D01*
X67413095Y-67635476D01*
X67365476Y-67825952D01*
X67365476Y-68206904D01*
X67413095Y-68302142D01*
X67460714Y-68349761D01*
X67555952Y-68397380D01*
X67746428Y-68397380D01*
X67841666Y-68349761D01*
X67889285Y-68302142D01*
X67936904Y-68206904D01*
X67936904Y-67968809D01*
X67889285Y-67873571D01*
X67841666Y-67825952D01*
X67746428Y-67778333D01*
X67555952Y-67778333D01*
X67460714Y-67825952D01*
X67413095Y-67873571D01*
X67365476Y-67968809D01*
X41267142Y-68397380D02*
X40933809Y-67921190D01*
X40695714Y-68397380D02*
X40695714Y-67397380D01*
X41076666Y-67397380D01*
X41171904Y-67445000D01*
X41219523Y-67492619D01*
X41267142Y-67587857D01*
X41267142Y-67730714D01*
X41219523Y-67825952D01*
X41171904Y-67873571D01*
X41076666Y-67921190D01*
X40695714Y-67921190D01*
X41648095Y-67492619D02*
X41695714Y-67445000D01*
X41790952Y-67397380D01*
X42029047Y-67397380D01*
X42124285Y-67445000D01*
X42171904Y-67492619D01*
X42219523Y-67587857D01*
X42219523Y-67683095D01*
X42171904Y-67825952D01*
X41600476Y-68397380D01*
X42219523Y-68397380D01*
X42838571Y-67397380D02*
X42933809Y-67397380D01*
X43029047Y-67445000D01*
X43076666Y-67492619D01*
X43124285Y-67587857D01*
X43171904Y-67778333D01*
X43171904Y-68016428D01*
X43124285Y-68206904D01*
X43076666Y-68302142D01*
X43029047Y-68349761D01*
X42933809Y-68397380D01*
X42838571Y-68397380D01*
X42743333Y-68349761D01*
X42695714Y-68302142D01*
X42648095Y-68206904D01*
X42600476Y-68016428D01*
X42600476Y-67778333D01*
X42648095Y-67587857D01*
X42695714Y-67492619D01*
X42743333Y-67445000D01*
X42838571Y-67397380D01*
X24598333Y-108222142D02*
X24550714Y-108269761D01*
X24407857Y-108317380D01*
X24312619Y-108317380D01*
X24169761Y-108269761D01*
X24074523Y-108174523D01*
X24026904Y-108079285D01*
X23979285Y-107888809D01*
X23979285Y-107745952D01*
X24026904Y-107555476D01*
X24074523Y-107460238D01*
X24169761Y-107365000D01*
X24312619Y-107317380D01*
X24407857Y-107317380D01*
X24550714Y-107365000D01*
X24598333Y-107412619D01*
X24979285Y-107412619D02*
X25026904Y-107365000D01*
X25122142Y-107317380D01*
X25360238Y-107317380D01*
X25455476Y-107365000D01*
X25503095Y-107412619D01*
X25550714Y-107507857D01*
X25550714Y-107603095D01*
X25503095Y-107745952D01*
X24931666Y-108317380D01*
X25550714Y-108317380D01*
X28408333Y-72747142D02*
X28360714Y-72794761D01*
X28217857Y-72842380D01*
X28122619Y-72842380D01*
X27979761Y-72794761D01*
X27884523Y-72699523D01*
X27836904Y-72604285D01*
X27789285Y-72413809D01*
X27789285Y-72270952D01*
X27836904Y-72080476D01*
X27884523Y-71985238D01*
X27979761Y-71890000D01*
X28122619Y-71842380D01*
X28217857Y-71842380D01*
X28360714Y-71890000D01*
X28408333Y-71937619D01*
X29265476Y-72175714D02*
X29265476Y-72842380D01*
X29027380Y-71794761D02*
X28789285Y-72509047D01*
X29408333Y-72509047D01*
X27932142Y-79732142D02*
X27884523Y-79779761D01*
X27741666Y-79827380D01*
X27646428Y-79827380D01*
X27503571Y-79779761D01*
X27408333Y-79684523D01*
X27360714Y-79589285D01*
X27313095Y-79398809D01*
X27313095Y-79255952D01*
X27360714Y-79065476D01*
X27408333Y-78970238D01*
X27503571Y-78875000D01*
X27646428Y-78827380D01*
X27741666Y-78827380D01*
X27884523Y-78875000D01*
X27932142Y-78922619D01*
X28884523Y-79827380D02*
X28313095Y-79827380D01*
X28598809Y-79827380D02*
X28598809Y-78827380D01*
X28503571Y-78970238D01*
X28408333Y-79065476D01*
X28313095Y-79113095D01*
X29265476Y-78922619D02*
X29313095Y-78875000D01*
X29408333Y-78827380D01*
X29646428Y-78827380D01*
X29741666Y-78875000D01*
X29789285Y-78922619D01*
X29836904Y-79017857D01*
X29836904Y-79113095D01*
X29789285Y-79255952D01*
X29217857Y-79827380D01*
X29836904Y-79827380D01*
X74922142Y-72112142D02*
X74874523Y-72159761D01*
X74731666Y-72207380D01*
X74636428Y-72207380D01*
X74493571Y-72159761D01*
X74398333Y-72064523D01*
X74350714Y-71969285D01*
X74303095Y-71778809D01*
X74303095Y-71635952D01*
X74350714Y-71445476D01*
X74398333Y-71350238D01*
X74493571Y-71255000D01*
X74636428Y-71207380D01*
X74731666Y-71207380D01*
X74874523Y-71255000D01*
X74922142Y-71302619D01*
X75874523Y-72207380D02*
X75303095Y-72207380D01*
X75588809Y-72207380D02*
X75588809Y-71207380D01*
X75493571Y-71350238D01*
X75398333Y-71445476D01*
X75303095Y-71493095D01*
X76207857Y-71207380D02*
X76826904Y-71207380D01*
X76493571Y-71588333D01*
X76636428Y-71588333D01*
X76731666Y-71635952D01*
X76779285Y-71683571D01*
X76826904Y-71778809D01*
X76826904Y-72016904D01*
X76779285Y-72112142D01*
X76731666Y-72159761D01*
X76636428Y-72207380D01*
X76350714Y-72207380D01*
X76255476Y-72159761D01*
X76207857Y-72112142D01*
X56237142Y-74302857D02*
X56284761Y-74350476D01*
X56332380Y-74493333D01*
X56332380Y-74588571D01*
X56284761Y-74731428D01*
X56189523Y-74826666D01*
X56094285Y-74874285D01*
X55903809Y-74921904D01*
X55760952Y-74921904D01*
X55570476Y-74874285D01*
X55475238Y-74826666D01*
X55380000Y-74731428D01*
X55332380Y-74588571D01*
X55332380Y-74493333D01*
X55380000Y-74350476D01*
X55427619Y-74302857D01*
X56332380Y-73350476D02*
X56332380Y-73921904D01*
X56332380Y-73636190D02*
X55332380Y-73636190D01*
X55475238Y-73731428D01*
X55570476Y-73826666D01*
X55618095Y-73921904D01*
X55665714Y-72493333D02*
X56332380Y-72493333D01*
X55284761Y-72731428D02*
X55999047Y-72969523D01*
X55999047Y-72350476D01*
X69317142Y-75875357D02*
X69364761Y-75922976D01*
X69412380Y-76065833D01*
X69412380Y-76161071D01*
X69364761Y-76303928D01*
X69269523Y-76399166D01*
X69174285Y-76446785D01*
X68983809Y-76494404D01*
X68840952Y-76494404D01*
X68650476Y-76446785D01*
X68555238Y-76399166D01*
X68460000Y-76303928D01*
X68412380Y-76161071D01*
X68412380Y-76065833D01*
X68460000Y-75922976D01*
X68507619Y-75875357D01*
X69412380Y-74922976D02*
X69412380Y-75494404D01*
X69412380Y-75208690D02*
X68412380Y-75208690D01*
X68555238Y-75303928D01*
X68650476Y-75399166D01*
X68698095Y-75494404D01*
X68412380Y-74018214D02*
X68412380Y-74494404D01*
X68888571Y-74542023D01*
X68840952Y-74494404D01*
X68793333Y-74399166D01*
X68793333Y-74161071D01*
X68840952Y-74065833D01*
X68888571Y-74018214D01*
X68983809Y-73970595D01*
X69221904Y-73970595D01*
X69317142Y-74018214D01*
X69364761Y-74065833D01*
X69412380Y-74161071D01*
X69412380Y-74399166D01*
X69364761Y-74494404D01*
X69317142Y-74542023D01*
X40632142Y-78462142D02*
X40584523Y-78509761D01*
X40441666Y-78557380D01*
X40346428Y-78557380D01*
X40203571Y-78509761D01*
X40108333Y-78414523D01*
X40060714Y-78319285D01*
X40013095Y-78128809D01*
X40013095Y-77985952D01*
X40060714Y-77795476D01*
X40108333Y-77700238D01*
X40203571Y-77605000D01*
X40346428Y-77557380D01*
X40441666Y-77557380D01*
X40584523Y-77605000D01*
X40632142Y-77652619D01*
X41584523Y-78557380D02*
X41013095Y-78557380D01*
X41298809Y-78557380D02*
X41298809Y-77557380D01*
X41203571Y-77700238D01*
X41108333Y-77795476D01*
X41013095Y-77843095D01*
X42441666Y-77557380D02*
X42251190Y-77557380D01*
X42155952Y-77605000D01*
X42108333Y-77652619D01*
X42013095Y-77795476D01*
X41965476Y-77985952D01*
X41965476Y-78366904D01*
X42013095Y-78462142D01*
X42060714Y-78509761D01*
X42155952Y-78557380D01*
X42346428Y-78557380D01*
X42441666Y-78509761D01*
X42489285Y-78462142D01*
X42536904Y-78366904D01*
X42536904Y-78128809D01*
X42489285Y-78033571D01*
X42441666Y-77985952D01*
X42346428Y-77938333D01*
X42155952Y-77938333D01*
X42060714Y-77985952D01*
X42013095Y-78033571D01*
X41965476Y-78128809D01*
X31742142Y-72462380D02*
X31408809Y-71986190D01*
X31170714Y-72462380D02*
X31170714Y-71462380D01*
X31551666Y-71462380D01*
X31646904Y-71510000D01*
X31694523Y-71557619D01*
X31742142Y-71652857D01*
X31742142Y-71795714D01*
X31694523Y-71890952D01*
X31646904Y-71938571D01*
X31551666Y-71986190D01*
X31170714Y-71986190D01*
X32123095Y-71557619D02*
X32170714Y-71510000D01*
X32265952Y-71462380D01*
X32504047Y-71462380D01*
X32599285Y-71510000D01*
X32646904Y-71557619D01*
X32694523Y-71652857D01*
X32694523Y-71748095D01*
X32646904Y-71890952D01*
X32075476Y-72462380D01*
X32694523Y-72462380D01*
X33075476Y-71557619D02*
X33123095Y-71510000D01*
X33218333Y-71462380D01*
X33456428Y-71462380D01*
X33551666Y-71510000D01*
X33599285Y-71557619D01*
X33646904Y-71652857D01*
X33646904Y-71748095D01*
X33599285Y-71890952D01*
X33027857Y-72462380D01*
X33646904Y-72462380D01*
X34377380Y-78073095D02*
X35186904Y-78073095D01*
X35282142Y-78025476D01*
X35329761Y-77977857D01*
X35377380Y-77882619D01*
X35377380Y-77692142D01*
X35329761Y-77596904D01*
X35282142Y-77549285D01*
X35186904Y-77501666D01*
X34377380Y-77501666D01*
X35377380Y-76501666D02*
X35377380Y-77073095D01*
X35377380Y-76787380D02*
X34377380Y-76787380D01*
X34520238Y-76882619D01*
X34615476Y-76977857D01*
X34663095Y-77073095D01*
X34472619Y-76120714D02*
X34425000Y-76073095D01*
X34377380Y-75977857D01*
X34377380Y-75739761D01*
X34425000Y-75644523D01*
X34472619Y-75596904D01*
X34567857Y-75549285D01*
X34663095Y-75549285D01*
X34805952Y-75596904D01*
X35377380Y-76168333D01*
X35377380Y-75549285D01*
X83081904Y-72462380D02*
X83081904Y-71462380D01*
X83320000Y-71462380D01*
X83462857Y-71510000D01*
X83558095Y-71605238D01*
X83605714Y-71700476D01*
X83653333Y-71890952D01*
X83653333Y-72033809D01*
X83605714Y-72224285D01*
X83558095Y-72319523D01*
X83462857Y-72414761D01*
X83320000Y-72462380D01*
X83081904Y-72462380D01*
X83986666Y-71462380D02*
X84653333Y-71462380D01*
X84224761Y-72462380D01*
X71016904Y-72462380D02*
X71016904Y-71462380D01*
X71255000Y-71462380D01*
X71397857Y-71510000D01*
X71493095Y-71605238D01*
X71540714Y-71700476D01*
X71588333Y-71890952D01*
X71588333Y-72033809D01*
X71540714Y-72224285D01*
X71493095Y-72319523D01*
X71397857Y-72414761D01*
X71255000Y-72462380D01*
X71016904Y-72462380D01*
X72159761Y-71890952D02*
X72064523Y-71843333D01*
X72016904Y-71795714D01*
X71969285Y-71700476D01*
X71969285Y-71652857D01*
X72016904Y-71557619D01*
X72064523Y-71510000D01*
X72159761Y-71462380D01*
X72350238Y-71462380D01*
X72445476Y-71510000D01*
X72493095Y-71557619D01*
X72540714Y-71652857D01*
X72540714Y-71700476D01*
X72493095Y-71795714D01*
X72445476Y-71843333D01*
X72350238Y-71890952D01*
X72159761Y-71890952D01*
X72064523Y-71938571D01*
X72016904Y-71986190D01*
X71969285Y-72081428D01*
X71969285Y-72271904D01*
X72016904Y-72367142D01*
X72064523Y-72414761D01*
X72159761Y-72462380D01*
X72350238Y-72462380D01*
X72445476Y-72414761D01*
X72493095Y-72367142D01*
X72540714Y-72271904D01*
X72540714Y-72081428D01*
X72493095Y-71986190D01*
X72445476Y-71938571D01*
X72350238Y-71890952D01*
X57681904Y-72462380D02*
X57681904Y-71462380D01*
X57920000Y-71462380D01*
X58062857Y-71510000D01*
X58158095Y-71605238D01*
X58205714Y-71700476D01*
X58253333Y-71890952D01*
X58253333Y-72033809D01*
X58205714Y-72224285D01*
X58158095Y-72319523D01*
X58062857Y-72414761D01*
X57920000Y-72462380D01*
X57681904Y-72462380D01*
X58729523Y-72462380D02*
X58920000Y-72462380D01*
X59015238Y-72414761D01*
X59062857Y-72367142D01*
X59158095Y-72224285D01*
X59205714Y-72033809D01*
X59205714Y-71652857D01*
X59158095Y-71557619D01*
X59110476Y-71510000D01*
X59015238Y-71462380D01*
X58824761Y-71462380D01*
X58729523Y-71510000D01*
X58681904Y-71557619D01*
X58634285Y-71652857D01*
X58634285Y-71890952D01*
X58681904Y-71986190D01*
X58729523Y-72033809D01*
X58824761Y-72081428D01*
X59015238Y-72081428D01*
X59110476Y-72033809D01*
X59158095Y-71986190D01*
X59205714Y-71890952D01*
X43870714Y-72462380D02*
X43870714Y-71462380D01*
X44108809Y-71462380D01*
X44251666Y-71510000D01*
X44346904Y-71605238D01*
X44394523Y-71700476D01*
X44442142Y-71890952D01*
X44442142Y-72033809D01*
X44394523Y-72224285D01*
X44346904Y-72319523D01*
X44251666Y-72414761D01*
X44108809Y-72462380D01*
X43870714Y-72462380D01*
X45394523Y-72462380D02*
X44823095Y-72462380D01*
X45108809Y-72462380D02*
X45108809Y-71462380D01*
X45013571Y-71605238D01*
X44918333Y-71700476D01*
X44823095Y-71748095D01*
X46013571Y-71462380D02*
X46108809Y-71462380D01*
X46204047Y-71510000D01*
X46251666Y-71557619D01*
X46299285Y-71652857D01*
X46346904Y-71843333D01*
X46346904Y-72081428D01*
X46299285Y-72271904D01*
X46251666Y-72367142D01*
X46204047Y-72414761D01*
X46108809Y-72462380D01*
X46013571Y-72462380D01*
X45918333Y-72414761D01*
X45870714Y-72367142D01*
X45823095Y-72271904D01*
X45775476Y-72081428D01*
X45775476Y-71843333D01*
X45823095Y-71652857D01*
X45870714Y-71557619D01*
X45918333Y-71510000D01*
X46013571Y-71462380D01*
X87447380Y-77477857D02*
X86971190Y-77811190D01*
X87447380Y-78049285D02*
X86447380Y-78049285D01*
X86447380Y-77668333D01*
X86495000Y-77573095D01*
X86542619Y-77525476D01*
X86637857Y-77477857D01*
X86780714Y-77477857D01*
X86875952Y-77525476D01*
X86923571Y-77573095D01*
X86971190Y-77668333D01*
X86971190Y-78049285D01*
X86542619Y-77096904D02*
X86495000Y-77049285D01*
X86447380Y-76954047D01*
X86447380Y-76715952D01*
X86495000Y-76620714D01*
X86542619Y-76573095D01*
X86637857Y-76525476D01*
X86733095Y-76525476D01*
X86875952Y-76573095D01*
X87447380Y-77144523D01*
X87447380Y-76525476D01*
X86447380Y-76192142D02*
X86447380Y-75573095D01*
X86828333Y-75906428D01*
X86828333Y-75763571D01*
X86875952Y-75668333D01*
X86923571Y-75620714D01*
X87018809Y-75573095D01*
X87256904Y-75573095D01*
X87352142Y-75620714D01*
X87399761Y-75668333D01*
X87447380Y-75763571D01*
X87447380Y-76049285D01*
X87399761Y-76144523D01*
X87352142Y-76192142D01*
X73477380Y-80652857D02*
X73001190Y-80986190D01*
X73477380Y-81224285D02*
X72477380Y-81224285D01*
X72477380Y-80843333D01*
X72525000Y-80748095D01*
X72572619Y-80700476D01*
X72667857Y-80652857D01*
X72810714Y-80652857D01*
X72905952Y-80700476D01*
X72953571Y-80748095D01*
X73001190Y-80843333D01*
X73001190Y-81224285D01*
X72572619Y-80271904D02*
X72525000Y-80224285D01*
X72477380Y-80129047D01*
X72477380Y-79890952D01*
X72525000Y-79795714D01*
X72572619Y-79748095D01*
X72667857Y-79700476D01*
X72763095Y-79700476D01*
X72905952Y-79748095D01*
X73477380Y-80319523D01*
X73477380Y-79700476D01*
X72810714Y-78843333D02*
X73477380Y-78843333D01*
X72429761Y-79081428D02*
X73144047Y-79319523D01*
X73144047Y-78700476D01*
X62047380Y-76842857D02*
X61571190Y-77176190D01*
X62047380Y-77414285D02*
X61047380Y-77414285D01*
X61047380Y-77033333D01*
X61095000Y-76938095D01*
X61142619Y-76890476D01*
X61237857Y-76842857D01*
X61380714Y-76842857D01*
X61475952Y-76890476D01*
X61523571Y-76938095D01*
X61571190Y-77033333D01*
X61571190Y-77414285D01*
X61142619Y-76461904D02*
X61095000Y-76414285D01*
X61047380Y-76319047D01*
X61047380Y-76080952D01*
X61095000Y-75985714D01*
X61142619Y-75938095D01*
X61237857Y-75890476D01*
X61333095Y-75890476D01*
X61475952Y-75938095D01*
X62047380Y-76509523D01*
X62047380Y-75890476D01*
X61047380Y-74985714D02*
X61047380Y-75461904D01*
X61523571Y-75509523D01*
X61475952Y-75461904D01*
X61428333Y-75366666D01*
X61428333Y-75128571D01*
X61475952Y-75033333D01*
X61523571Y-74985714D01*
X61618809Y-74938095D01*
X61856904Y-74938095D01*
X61952142Y-74985714D01*
X61999761Y-75033333D01*
X62047380Y-75128571D01*
X62047380Y-75366666D01*
X61999761Y-75461904D01*
X61952142Y-75509523D01*
X48712380Y-78112857D02*
X48236190Y-78446190D01*
X48712380Y-78684285D02*
X47712380Y-78684285D01*
X47712380Y-78303333D01*
X47760000Y-78208095D01*
X47807619Y-78160476D01*
X47902857Y-78112857D01*
X48045714Y-78112857D01*
X48140952Y-78160476D01*
X48188571Y-78208095D01*
X48236190Y-78303333D01*
X48236190Y-78684285D01*
X47807619Y-77731904D02*
X47760000Y-77684285D01*
X47712380Y-77589047D01*
X47712380Y-77350952D01*
X47760000Y-77255714D01*
X47807619Y-77208095D01*
X47902857Y-77160476D01*
X47998095Y-77160476D01*
X48140952Y-77208095D01*
X48712380Y-77779523D01*
X48712380Y-77160476D01*
X47712380Y-76303333D02*
X47712380Y-76493809D01*
X47760000Y-76589047D01*
X47807619Y-76636666D01*
X47950476Y-76731904D01*
X48140952Y-76779523D01*
X48521904Y-76779523D01*
X48617142Y-76731904D01*
X48664761Y-76684285D01*
X48712380Y-76589047D01*
X48712380Y-76398571D01*
X48664761Y-76303333D01*
X48617142Y-76255714D01*
X48521904Y-76208095D01*
X48283809Y-76208095D01*
X48188571Y-76255714D01*
X48140952Y-76303333D01*
X48093333Y-76398571D01*
X48093333Y-76589047D01*
X48140952Y-76684285D01*
X48188571Y-76731904D01*
X48283809Y-76779523D01*
M02*
