M48
; DRILL file {KiCad (5.1.0-rc1-103-gc65c7d3de)} date 2019 September 26, Thursday 12:22:04
; FORMAT={-:-/ absolute / inch / decimal}
; #@! TF.CreationDate,2019-09-26T12:22:04+02:00
; #@! TF.GenerationSoftware,Kicad,Pcbnew,(5.1.0-rc1-103-gc65c7d3de)
; #@! TF.FileFunction,Plated,1,2,PTH
FMAT,2
INCH
T1C0.0157
T2C0.0315
T3C0.0394
T4C0.0551
%
G90
G05
T1
X1.5Y-2.75
X2.175Y-2.8035
X2.725Y-2.8285
X2.925Y-2.8535
X3.425Y-2.9
X3.47Y-2.9007
X3.5101Y-2.9005
X3.55Y-2.9
X3.7972Y-2.9214
X3.8Y-2.9606
X3.8Y-3.0
X3.8992Y-2.9616
X3.9327Y-2.9923
X3.9612Y-3.379
X3.9878Y-3.2622
X4.025Y-3.225
X4.05Y-3.5
X4.0665Y-3.125
X4.0722Y-3.0778
X4.1Y-3.05
X4.125Y-2.925
X4.1335Y-3.15
X4.1528Y-2.8972
X4.175Y-3.1
X4.2Y-2.85
X4.2102Y-3.0602
X4.5935Y-2.725
T2
X0.75Y-2.575
X1.0Y-3.95
X1.175Y-3.3
X1.25Y-2.5
X1.3642Y-2.9865
X1.4Y-3.125
X1.475Y-3.2
X1.6Y-2.875
X1.65Y-2.6807
X1.9Y-3.05
X2.0Y-3.2
X2.1Y-2.6807
X2.125Y-2.875
X2.425Y-3.05
X2.525Y-3.2
X2.625Y-2.6807
X2.65Y-2.875
X2.95Y-3.05
X3.05Y-3.2
X3.1369Y-2.9005
X3.175Y-2.975
X3.5Y-3.025
X3.5Y-3.55
X3.5Y-3.875
X3.75Y-3.9242
X3.875Y-3.625
X4.1Y-3.875
X4.1Y-4.075
X4.1563Y-3.5437
X4.2Y-3.425
X4.35Y-4.1
X4.5278Y-2.9415
X4.7Y-2.65
X4.775Y-3.6
X4.8Y-2.85
T3
X3.725Y-2.625
X3.825Y-2.625
X3.925Y-2.625
X4.025Y-2.625
X4.125Y-2.625
X4.225Y-2.625
X4.325Y-2.625
X4.425Y-2.625
X3.2Y-2.625
X3.3Y-2.625
X3.4Y-2.625
X3.5Y-2.625
X3.725Y-3.725
X3.825Y-3.725
X3.925Y-3.725
X4.025Y-3.725
X4.125Y-3.725
X4.225Y-3.725
X4.325Y-3.725
X4.425Y-3.725
X4.825Y-3.725
X4.925Y-3.725
X4.95Y-2.825
X4.95Y-2.925
X4.95Y-3.025
X4.95Y-3.125
X4.95Y-3.225
X4.95Y-3.325
X4.625Y-2.825
X4.625Y-2.925
X4.625Y-3.025
X4.625Y-3.125
X4.625Y-3.225
X4.625Y-3.325
X4.625Y-3.425
X4.625Y-3.525
X0.8Y-4.15
X0.8Y-4.25
T4
X3.025Y-4.15
X3.2219Y-4.15
X2.5Y-4.15
X2.6969Y-4.15
X1.975Y-4.15
X2.1719Y-4.15
X1.45Y-4.15
X1.6469Y-4.15
T0
M30
