G04 #@! TF.GenerationSoftware,KiCad,Pcbnew,(5.1.0-rc1-103-gc65c7d3de)*
G04 #@! TF.CreationDate,2019-09-26T12:21:13+02:00
G04 #@! TF.ProjectId,pinballControlUnit,70696e62-616c-46c4-936f-6e74726f6c55,2*
G04 #@! TF.SameCoordinates,Original*
G04 #@! TF.FileFunction,Soldermask,Top*
G04 #@! TF.FilePolarity,Negative*
%FSLAX46Y46*%
G04 Gerber Fmt 4.6, Leading zero omitted, Abs format (unit mm)*
G04 Created by KiCad (PCBNEW (5.1.0-rc1-103-gc65c7d3de)) date 2019-09-26 12:21:13*
%MOMM*%
%LPD*%
G04 APERTURE LIST*
%ADD10C,0.100000*%
G04 APERTURE END LIST*
D10*
G36*
X108996000Y-109576000D02*
G01*
X107594000Y-109576000D01*
X107594000Y-107924000D01*
X108996000Y-107924000D01*
X108996000Y-109576000D01*
X108996000Y-109576000D01*
G37*
G36*
X104496000Y-109576000D02*
G01*
X103094000Y-109576000D01*
X103094000Y-107924000D01*
X104496000Y-107924000D01*
X104496000Y-109576000D01*
X104496000Y-109576000D01*
G37*
G36*
X100741000Y-109576000D02*
G01*
X99339000Y-109576000D01*
X99339000Y-107924000D01*
X100741000Y-107924000D01*
X100741000Y-109576000D01*
X100741000Y-109576000D01*
G37*
G36*
X96241000Y-109576000D02*
G01*
X94839000Y-109576000D01*
X94839000Y-107924000D01*
X96241000Y-107924000D01*
X96241000Y-109576000D01*
X96241000Y-109576000D01*
G37*
G36*
X122131000Y-109291000D02*
G01*
X119829000Y-109291000D01*
X119829000Y-106389000D01*
X122131000Y-106389000D01*
X122131000Y-109291000D01*
X122131000Y-109291000D01*
G37*
G36*
X21221000Y-108851000D02*
G01*
X19419000Y-108851000D01*
X19419000Y-107049000D01*
X21221000Y-107049000D01*
X21221000Y-108851000D01*
X21221000Y-108851000D01*
G37*
G36*
X91389468Y-107083565D02*
G01*
X91428138Y-107095296D01*
X91463777Y-107114346D01*
X91495017Y-107139983D01*
X91520654Y-107171223D01*
X91539704Y-107206862D01*
X91551435Y-107245532D01*
X91556000Y-107291888D01*
X91556000Y-107943112D01*
X91551435Y-107989468D01*
X91539704Y-108028138D01*
X91520654Y-108063777D01*
X91495017Y-108095017D01*
X91463777Y-108120654D01*
X91428138Y-108139704D01*
X91389468Y-108151435D01*
X91343112Y-108156000D01*
X90266888Y-108156000D01*
X90220532Y-108151435D01*
X90181862Y-108139704D01*
X90146223Y-108120654D01*
X90114983Y-108095017D01*
X90089346Y-108063777D01*
X90070296Y-108028138D01*
X90058565Y-107989468D01*
X90054000Y-107943112D01*
X90054000Y-107291888D01*
X90058565Y-107245532D01*
X90070296Y-107206862D01*
X90089346Y-107171223D01*
X90114983Y-107139983D01*
X90146223Y-107114346D01*
X90181862Y-107095296D01*
X90220532Y-107083565D01*
X90266888Y-107079000D01*
X91343112Y-107079000D01*
X91389468Y-107083565D01*
X91389468Y-107083565D01*
G37*
G36*
X88849468Y-107083565D02*
G01*
X88888138Y-107095296D01*
X88923777Y-107114346D01*
X88955017Y-107139983D01*
X88980654Y-107171223D01*
X88999704Y-107206862D01*
X89011435Y-107245532D01*
X89016000Y-107291888D01*
X89016000Y-107943112D01*
X89011435Y-107989468D01*
X88999704Y-108028138D01*
X88980654Y-108063777D01*
X88955017Y-108095017D01*
X88923777Y-108120654D01*
X88888138Y-108139704D01*
X88849468Y-108151435D01*
X88803112Y-108156000D01*
X87726888Y-108156000D01*
X87680532Y-108151435D01*
X87641862Y-108139704D01*
X87606223Y-108120654D01*
X87574983Y-108095017D01*
X87549346Y-108063777D01*
X87530296Y-108028138D01*
X87518565Y-107989468D01*
X87514000Y-107943112D01*
X87514000Y-107291888D01*
X87518565Y-107245532D01*
X87530296Y-107206862D01*
X87549346Y-107171223D01*
X87574983Y-107139983D01*
X87606223Y-107114346D01*
X87641862Y-107095296D01*
X87680532Y-107083565D01*
X87726888Y-107079000D01*
X88803112Y-107079000D01*
X88849468Y-107083565D01*
X88849468Y-107083565D01*
G37*
G36*
X26683604Y-105123347D02*
G01*
X26720144Y-105134432D01*
X26753821Y-105152433D01*
X26783341Y-105176659D01*
X26807567Y-105206179D01*
X26825568Y-105239856D01*
X26836653Y-105276396D01*
X26841000Y-105320538D01*
X26841000Y-106769462D01*
X26836653Y-106813604D01*
X26825568Y-106850144D01*
X26807567Y-106883821D01*
X26783341Y-106913341D01*
X26753821Y-106937567D01*
X26720144Y-106955568D01*
X26683604Y-106966653D01*
X26639462Y-106971000D01*
X25690538Y-106971000D01*
X25646396Y-106966653D01*
X25609856Y-106955568D01*
X25576179Y-106937567D01*
X25546659Y-106913341D01*
X25522433Y-106883821D01*
X25504432Y-106850144D01*
X25493347Y-106813604D01*
X25489000Y-106769462D01*
X25489000Y-105320538D01*
X25493347Y-105276396D01*
X25504432Y-105239856D01*
X25522433Y-105206179D01*
X25546659Y-105176659D01*
X25576179Y-105152433D01*
X25609856Y-105134432D01*
X25646396Y-105123347D01*
X25690538Y-105119000D01*
X26639462Y-105119000D01*
X26683604Y-105123347D01*
X26683604Y-105123347D01*
G37*
G36*
X23883604Y-105123347D02*
G01*
X23920144Y-105134432D01*
X23953821Y-105152433D01*
X23983341Y-105176659D01*
X24007567Y-105206179D01*
X24025568Y-105239856D01*
X24036653Y-105276396D01*
X24041000Y-105320538D01*
X24041000Y-106769462D01*
X24036653Y-106813604D01*
X24025568Y-106850144D01*
X24007567Y-106883821D01*
X23983341Y-106913341D01*
X23953821Y-106937567D01*
X23920144Y-106955568D01*
X23883604Y-106966653D01*
X23839462Y-106971000D01*
X22890538Y-106971000D01*
X22846396Y-106966653D01*
X22809856Y-106955568D01*
X22776179Y-106937567D01*
X22746659Y-106913341D01*
X22722433Y-106883821D01*
X22704432Y-106850144D01*
X22693347Y-106813604D01*
X22689000Y-106769462D01*
X22689000Y-105320538D01*
X22693347Y-105276396D01*
X22704432Y-105239856D01*
X22722433Y-105206179D01*
X22746659Y-105176659D01*
X22776179Y-105152433D01*
X22809856Y-105134432D01*
X22846396Y-105123347D01*
X22890538Y-105119000D01*
X23839462Y-105119000D01*
X23883604Y-105123347D01*
X23883604Y-105123347D01*
G37*
G36*
X38281000Y-106861000D02*
G01*
X35379000Y-106861000D01*
X35379000Y-103959000D01*
X38281000Y-103959000D01*
X38281000Y-106861000D01*
X38281000Y-106861000D01*
G37*
G36*
X82258241Y-104014760D02*
G01*
X82522305Y-104124139D01*
X82759958Y-104282934D01*
X82962066Y-104485042D01*
X83120861Y-104722695D01*
X83230240Y-104986759D01*
X83286000Y-105267088D01*
X83286000Y-105552912D01*
X83230240Y-105833241D01*
X83120861Y-106097305D01*
X82962066Y-106334958D01*
X82759958Y-106537066D01*
X82522305Y-106695861D01*
X82258241Y-106805240D01*
X81977912Y-106861000D01*
X81692088Y-106861000D01*
X81411759Y-106805240D01*
X81147695Y-106695861D01*
X80910042Y-106537066D01*
X80707934Y-106334958D01*
X80549139Y-106097305D01*
X80439760Y-105833241D01*
X80384000Y-105552912D01*
X80384000Y-105267088D01*
X80439760Y-104986759D01*
X80549139Y-104722695D01*
X80707934Y-104485042D01*
X80910042Y-104282934D01*
X81147695Y-104124139D01*
X81411759Y-104014760D01*
X81692088Y-103959000D01*
X81977912Y-103959000D01*
X82258241Y-104014760D01*
X82258241Y-104014760D01*
G37*
G36*
X78286000Y-106861000D02*
G01*
X75384000Y-106861000D01*
X75384000Y-103959000D01*
X78286000Y-103959000D01*
X78286000Y-106861000D01*
X78286000Y-106861000D01*
G37*
G36*
X68923241Y-104014760D02*
G01*
X69187305Y-104124139D01*
X69424958Y-104282934D01*
X69627066Y-104485042D01*
X69785861Y-104722695D01*
X69895240Y-104986759D01*
X69951000Y-105267088D01*
X69951000Y-105552912D01*
X69895240Y-105833241D01*
X69785861Y-106097305D01*
X69627066Y-106334958D01*
X69424958Y-106537066D01*
X69187305Y-106695861D01*
X68923241Y-106805240D01*
X68642912Y-106861000D01*
X68357088Y-106861000D01*
X68076759Y-106805240D01*
X67812695Y-106695861D01*
X67575042Y-106537066D01*
X67372934Y-106334958D01*
X67214139Y-106097305D01*
X67104760Y-105833241D01*
X67049000Y-105552912D01*
X67049000Y-105267088D01*
X67104760Y-104986759D01*
X67214139Y-104722695D01*
X67372934Y-104485042D01*
X67575042Y-104282934D01*
X67812695Y-104124139D01*
X68076759Y-104014760D01*
X68357088Y-103959000D01*
X68642912Y-103959000D01*
X68923241Y-104014760D01*
X68923241Y-104014760D01*
G37*
G36*
X55588241Y-104014760D02*
G01*
X55852305Y-104124139D01*
X56089958Y-104282934D01*
X56292066Y-104485042D01*
X56450861Y-104722695D01*
X56560240Y-104986759D01*
X56616000Y-105267088D01*
X56616000Y-105552912D01*
X56560240Y-105833241D01*
X56450861Y-106097305D01*
X56292066Y-106334958D01*
X56089958Y-106537066D01*
X55852305Y-106695861D01*
X55588241Y-106805240D01*
X55307912Y-106861000D01*
X55022088Y-106861000D01*
X54741759Y-106805240D01*
X54477695Y-106695861D01*
X54240042Y-106537066D01*
X54037934Y-106334958D01*
X53879139Y-106097305D01*
X53769760Y-105833241D01*
X53714000Y-105552912D01*
X53714000Y-105267088D01*
X53769760Y-104986759D01*
X53879139Y-104722695D01*
X54037934Y-104485042D01*
X54240042Y-104282934D01*
X54477695Y-104124139D01*
X54741759Y-104014760D01*
X55022088Y-103959000D01*
X55307912Y-103959000D01*
X55588241Y-104014760D01*
X55588241Y-104014760D01*
G37*
G36*
X51616000Y-106861000D02*
G01*
X48714000Y-106861000D01*
X48714000Y-103959000D01*
X51616000Y-103959000D01*
X51616000Y-106861000D01*
X51616000Y-106861000D01*
G37*
G36*
X64951000Y-106861000D02*
G01*
X62049000Y-106861000D01*
X62049000Y-103959000D01*
X64951000Y-103959000D01*
X64951000Y-106861000D01*
X64951000Y-106861000D01*
G37*
G36*
X42253241Y-104014760D02*
G01*
X42517305Y-104124139D01*
X42754958Y-104282934D01*
X42957066Y-104485042D01*
X43115861Y-104722695D01*
X43225240Y-104986759D01*
X43281000Y-105267088D01*
X43281000Y-105552912D01*
X43225240Y-105833241D01*
X43115861Y-106097305D01*
X42957066Y-106334958D01*
X42754958Y-106537066D01*
X42517305Y-106695861D01*
X42253241Y-106805240D01*
X41972912Y-106861000D01*
X41687088Y-106861000D01*
X41406759Y-106805240D01*
X41142695Y-106695861D01*
X40905042Y-106537066D01*
X40702934Y-106334958D01*
X40544139Y-106097305D01*
X40434760Y-105833241D01*
X40379000Y-105552912D01*
X40379000Y-105267088D01*
X40434760Y-104986759D01*
X40544139Y-104722695D01*
X40702934Y-104485042D01*
X40905042Y-104282934D01*
X41142695Y-104124139D01*
X41406759Y-104014760D01*
X41687088Y-103959000D01*
X41972912Y-103959000D01*
X42253241Y-104014760D01*
X42253241Y-104014760D01*
G37*
G36*
X20430443Y-104515519D02*
G01*
X20496627Y-104522037D01*
X20666466Y-104573557D01*
X20822991Y-104657222D01*
X20858729Y-104686552D01*
X20960186Y-104769814D01*
X21043448Y-104871271D01*
X21072778Y-104907009D01*
X21156443Y-105063534D01*
X21207963Y-105233373D01*
X21225359Y-105410000D01*
X21207963Y-105586627D01*
X21156443Y-105756466D01*
X21072778Y-105912991D01*
X21043448Y-105948729D01*
X20960186Y-106050186D01*
X20881467Y-106114788D01*
X20822991Y-106162778D01*
X20666466Y-106246443D01*
X20496627Y-106297963D01*
X20430442Y-106304482D01*
X20364260Y-106311000D01*
X20275740Y-106311000D01*
X20209558Y-106304482D01*
X20143373Y-106297963D01*
X19973534Y-106246443D01*
X19817009Y-106162778D01*
X19758533Y-106114788D01*
X19679814Y-106050186D01*
X19596552Y-105948729D01*
X19567222Y-105912991D01*
X19483557Y-105756466D01*
X19432037Y-105586627D01*
X19414641Y-105410000D01*
X19432037Y-105233373D01*
X19483557Y-105063534D01*
X19567222Y-104907009D01*
X19596552Y-104871271D01*
X19679814Y-104769814D01*
X19781271Y-104686552D01*
X19817009Y-104657222D01*
X19973534Y-104573557D01*
X20143373Y-104522037D01*
X20209557Y-104515519D01*
X20275740Y-104509000D01*
X20364260Y-104509000D01*
X20430443Y-104515519D01*
X20430443Y-104515519D01*
G37*
G36*
X91389468Y-105208565D02*
G01*
X91428138Y-105220296D01*
X91463777Y-105239346D01*
X91495017Y-105264983D01*
X91520654Y-105296223D01*
X91539704Y-105331862D01*
X91551435Y-105370532D01*
X91556000Y-105416888D01*
X91556000Y-106068112D01*
X91551435Y-106114468D01*
X91539704Y-106153138D01*
X91520654Y-106188777D01*
X91495017Y-106220017D01*
X91463777Y-106245654D01*
X91428138Y-106264704D01*
X91389468Y-106276435D01*
X91343112Y-106281000D01*
X90266888Y-106281000D01*
X90220532Y-106276435D01*
X90181862Y-106264704D01*
X90146223Y-106245654D01*
X90114983Y-106220017D01*
X90089346Y-106188777D01*
X90070296Y-106153138D01*
X90058565Y-106114468D01*
X90054000Y-106068112D01*
X90054000Y-105416888D01*
X90058565Y-105370532D01*
X90070296Y-105331862D01*
X90089346Y-105296223D01*
X90114983Y-105264983D01*
X90146223Y-105239346D01*
X90181862Y-105220296D01*
X90220532Y-105208565D01*
X90266888Y-105204000D01*
X91343112Y-105204000D01*
X91389468Y-105208565D01*
X91389468Y-105208565D01*
G37*
G36*
X88849468Y-105208565D02*
G01*
X88888138Y-105220296D01*
X88923777Y-105239346D01*
X88955017Y-105264983D01*
X88980654Y-105296223D01*
X88999704Y-105331862D01*
X89011435Y-105370532D01*
X89016000Y-105416888D01*
X89016000Y-106068112D01*
X89011435Y-106114468D01*
X88999704Y-106153138D01*
X88980654Y-106188777D01*
X88955017Y-106220017D01*
X88923777Y-106245654D01*
X88888138Y-106264704D01*
X88849468Y-106276435D01*
X88803112Y-106281000D01*
X87726888Y-106281000D01*
X87680532Y-106276435D01*
X87641862Y-106264704D01*
X87606223Y-106245654D01*
X87574983Y-106220017D01*
X87549346Y-106188777D01*
X87530296Y-106153138D01*
X87518565Y-106114468D01*
X87514000Y-106068112D01*
X87514000Y-105416888D01*
X87518565Y-105370532D01*
X87530296Y-105331862D01*
X87549346Y-105296223D01*
X87574983Y-105264983D01*
X87606223Y-105239346D01*
X87641862Y-105220296D01*
X87680532Y-105208565D01*
X87726888Y-105204000D01*
X88803112Y-105204000D01*
X88849468Y-105208565D01*
X88849468Y-105208565D01*
G37*
G36*
X121993512Y-103243927D02*
G01*
X122142812Y-103273624D01*
X122306784Y-103341544D01*
X122454354Y-103440147D01*
X122579853Y-103565646D01*
X122678456Y-103713216D01*
X122746376Y-103877188D01*
X122781000Y-104051259D01*
X122781000Y-104228741D01*
X122746376Y-104402812D01*
X122678456Y-104566784D01*
X122579853Y-104714354D01*
X122454354Y-104839853D01*
X122306784Y-104938456D01*
X122142812Y-105006376D01*
X121993512Y-105036073D01*
X121968742Y-105041000D01*
X121791258Y-105041000D01*
X121766488Y-105036073D01*
X121617188Y-105006376D01*
X121453216Y-104938456D01*
X121305646Y-104839853D01*
X121180147Y-104714354D01*
X121081544Y-104566784D01*
X121013624Y-104402812D01*
X120979000Y-104228741D01*
X120979000Y-104051259D01*
X121013624Y-103877188D01*
X121081544Y-103713216D01*
X121180147Y-103565646D01*
X121305646Y-103440147D01*
X121453216Y-103341544D01*
X121617188Y-103273624D01*
X121766488Y-103243927D01*
X121791258Y-103239000D01*
X121968742Y-103239000D01*
X121993512Y-103243927D01*
X121993512Y-103243927D01*
G37*
G36*
X114993512Y-103243927D02*
G01*
X115142812Y-103273624D01*
X115306784Y-103341544D01*
X115454354Y-103440147D01*
X115579853Y-103565646D01*
X115678456Y-103713216D01*
X115746376Y-103877188D01*
X115781000Y-104051259D01*
X115781000Y-104228741D01*
X115746376Y-104402812D01*
X115678456Y-104566784D01*
X115579853Y-104714354D01*
X115454354Y-104839853D01*
X115306784Y-104938456D01*
X115142812Y-105006376D01*
X114993512Y-105036073D01*
X114968742Y-105041000D01*
X114791258Y-105041000D01*
X114766488Y-105036073D01*
X114617188Y-105006376D01*
X114453216Y-104938456D01*
X114305646Y-104839853D01*
X114180147Y-104714354D01*
X114081544Y-104566784D01*
X114013624Y-104402812D01*
X113979000Y-104228741D01*
X113979000Y-104051259D01*
X114013624Y-103877188D01*
X114081544Y-103713216D01*
X114180147Y-103565646D01*
X114305646Y-103440147D01*
X114453216Y-103341544D01*
X114617188Y-103273624D01*
X114766488Y-103243927D01*
X114791258Y-103239000D01*
X114968742Y-103239000D01*
X114993512Y-103243927D01*
X114993512Y-103243927D01*
G37*
G36*
X91389468Y-103273565D02*
G01*
X91428138Y-103285296D01*
X91463777Y-103304346D01*
X91495017Y-103329983D01*
X91520654Y-103361223D01*
X91539704Y-103396862D01*
X91551435Y-103435532D01*
X91556000Y-103481888D01*
X91556000Y-104133112D01*
X91551435Y-104179468D01*
X91539704Y-104218138D01*
X91520654Y-104253777D01*
X91495017Y-104285017D01*
X91463777Y-104310654D01*
X91428138Y-104329704D01*
X91389468Y-104341435D01*
X91343112Y-104346000D01*
X90266888Y-104346000D01*
X90220532Y-104341435D01*
X90181862Y-104329704D01*
X90146223Y-104310654D01*
X90114983Y-104285017D01*
X90089346Y-104253777D01*
X90070296Y-104218138D01*
X90058565Y-104179468D01*
X90054000Y-104133112D01*
X90054000Y-103481888D01*
X90058565Y-103435532D01*
X90070296Y-103396862D01*
X90089346Y-103361223D01*
X90114983Y-103329983D01*
X90146223Y-103304346D01*
X90181862Y-103285296D01*
X90220532Y-103273565D01*
X90266888Y-103269000D01*
X91343112Y-103269000D01*
X91389468Y-103273565D01*
X91389468Y-103273565D01*
G37*
G36*
X88849468Y-103273565D02*
G01*
X88888138Y-103285296D01*
X88923777Y-103304346D01*
X88955017Y-103329983D01*
X88980654Y-103361223D01*
X88999704Y-103396862D01*
X89011435Y-103435532D01*
X89016000Y-103481888D01*
X89016000Y-104133112D01*
X89011435Y-104179468D01*
X88999704Y-104218138D01*
X88980654Y-104253777D01*
X88955017Y-104285017D01*
X88923777Y-104310654D01*
X88888138Y-104329704D01*
X88849468Y-104341435D01*
X88803112Y-104346000D01*
X87726888Y-104346000D01*
X87680532Y-104341435D01*
X87641862Y-104329704D01*
X87606223Y-104310654D01*
X87574983Y-104285017D01*
X87549346Y-104253777D01*
X87530296Y-104218138D01*
X87518565Y-104179468D01*
X87514000Y-104133112D01*
X87514000Y-103481888D01*
X87518565Y-103435532D01*
X87530296Y-103396862D01*
X87549346Y-103361223D01*
X87574983Y-103329983D01*
X87606223Y-103304346D01*
X87641862Y-103285296D01*
X87680532Y-103273565D01*
X87726888Y-103269000D01*
X88803112Y-103269000D01*
X88849468Y-103273565D01*
X88849468Y-103273565D01*
G37*
G36*
X27801000Y-104148500D02*
G01*
X27089000Y-104148500D01*
X27089000Y-102136500D01*
X27801000Y-102136500D01*
X27801000Y-104148500D01*
X27801000Y-104148500D01*
G37*
G36*
X26531000Y-104148500D02*
G01*
X25819000Y-104148500D01*
X25819000Y-102136500D01*
X26531000Y-102136500D01*
X26531000Y-104148500D01*
X26531000Y-104148500D01*
G37*
G36*
X25261000Y-104148500D02*
G01*
X24549000Y-104148500D01*
X24549000Y-102136500D01*
X25261000Y-102136500D01*
X25261000Y-104148500D01*
X25261000Y-104148500D01*
G37*
G36*
X23991000Y-104148500D02*
G01*
X23279000Y-104148500D01*
X23279000Y-102136500D01*
X23991000Y-102136500D01*
X23991000Y-104148500D01*
X23991000Y-104148500D01*
G37*
G36*
X30429468Y-102638565D02*
G01*
X30468138Y-102650296D01*
X30503777Y-102669346D01*
X30535017Y-102694983D01*
X30560654Y-102726223D01*
X30579704Y-102761862D01*
X30591435Y-102800532D01*
X30596000Y-102846888D01*
X30596000Y-103498112D01*
X30591435Y-103544468D01*
X30579704Y-103583138D01*
X30560654Y-103618777D01*
X30535017Y-103650017D01*
X30503777Y-103675654D01*
X30468138Y-103694704D01*
X30429468Y-103706435D01*
X30383112Y-103711000D01*
X29306888Y-103711000D01*
X29260532Y-103706435D01*
X29221862Y-103694704D01*
X29186223Y-103675654D01*
X29154983Y-103650017D01*
X29129346Y-103618777D01*
X29110296Y-103583138D01*
X29098565Y-103544468D01*
X29094000Y-103498112D01*
X29094000Y-102846888D01*
X29098565Y-102800532D01*
X29110296Y-102761862D01*
X29129346Y-102726223D01*
X29154983Y-102694983D01*
X29186223Y-102669346D01*
X29221862Y-102650296D01*
X29260532Y-102638565D01*
X29306888Y-102634000D01*
X30383112Y-102634000D01*
X30429468Y-102638565D01*
X30429468Y-102638565D01*
G37*
G36*
X91389468Y-101398565D02*
G01*
X91428138Y-101410296D01*
X91463777Y-101429346D01*
X91495017Y-101454983D01*
X91520654Y-101486223D01*
X91539704Y-101521862D01*
X91551435Y-101560532D01*
X91556000Y-101606888D01*
X91556000Y-102258112D01*
X91551435Y-102304468D01*
X91539704Y-102343138D01*
X91520654Y-102378777D01*
X91495017Y-102410017D01*
X91463777Y-102435654D01*
X91428138Y-102454704D01*
X91389468Y-102466435D01*
X91343112Y-102471000D01*
X90266888Y-102471000D01*
X90220532Y-102466435D01*
X90181862Y-102454704D01*
X90146223Y-102435654D01*
X90114983Y-102410017D01*
X90089346Y-102378777D01*
X90070296Y-102343138D01*
X90058565Y-102304468D01*
X90054000Y-102258112D01*
X90054000Y-101606888D01*
X90058565Y-101560532D01*
X90070296Y-101521862D01*
X90089346Y-101486223D01*
X90114983Y-101454983D01*
X90146223Y-101429346D01*
X90181862Y-101410296D01*
X90220532Y-101398565D01*
X90266888Y-101394000D01*
X91343112Y-101394000D01*
X91389468Y-101398565D01*
X91389468Y-101398565D01*
G37*
G36*
X88849468Y-101398565D02*
G01*
X88888138Y-101410296D01*
X88923777Y-101429346D01*
X88955017Y-101454983D01*
X88980654Y-101486223D01*
X88999704Y-101521862D01*
X89011435Y-101560532D01*
X89016000Y-101606888D01*
X89016000Y-102258112D01*
X89011435Y-102304468D01*
X88999704Y-102343138D01*
X88980654Y-102378777D01*
X88955017Y-102410017D01*
X88923777Y-102435654D01*
X88888138Y-102454704D01*
X88849468Y-102466435D01*
X88803112Y-102471000D01*
X87726888Y-102471000D01*
X87680532Y-102466435D01*
X87641862Y-102454704D01*
X87606223Y-102435654D01*
X87574983Y-102410017D01*
X87549346Y-102378777D01*
X87530296Y-102343138D01*
X87518565Y-102304468D01*
X87514000Y-102258112D01*
X87514000Y-101606888D01*
X87518565Y-101560532D01*
X87530296Y-101521862D01*
X87549346Y-101486223D01*
X87574983Y-101454983D01*
X87606223Y-101429346D01*
X87641862Y-101410296D01*
X87680532Y-101398565D01*
X87726888Y-101394000D01*
X88803112Y-101394000D01*
X88849468Y-101398565D01*
X88849468Y-101398565D01*
G37*
G36*
X124131000Y-101891000D02*
G01*
X121829000Y-101891000D01*
X121829000Y-98989000D01*
X124131000Y-98989000D01*
X124131000Y-101891000D01*
X124131000Y-101891000D01*
G37*
G36*
X115031000Y-101891000D02*
G01*
X112129000Y-101891000D01*
X112129000Y-98989000D01*
X115031000Y-98989000D01*
X115031000Y-101891000D01*
X115031000Y-101891000D01*
G37*
G36*
X30429468Y-100763565D02*
G01*
X30468138Y-100775296D01*
X30503777Y-100794346D01*
X30535017Y-100819983D01*
X30560654Y-100851223D01*
X30579704Y-100886862D01*
X30591435Y-100925532D01*
X30596000Y-100971888D01*
X30596000Y-101623112D01*
X30591435Y-101669468D01*
X30579704Y-101708138D01*
X30560654Y-101743777D01*
X30535017Y-101775017D01*
X30503777Y-101800654D01*
X30468138Y-101819704D01*
X30429468Y-101831435D01*
X30383112Y-101836000D01*
X29306888Y-101836000D01*
X29260532Y-101831435D01*
X29221862Y-101819704D01*
X29186223Y-101800654D01*
X29154983Y-101775017D01*
X29129346Y-101743777D01*
X29110296Y-101708138D01*
X29098565Y-101669468D01*
X29094000Y-101623112D01*
X29094000Y-100971888D01*
X29098565Y-100925532D01*
X29110296Y-100886862D01*
X29129346Y-100851223D01*
X29154983Y-100819983D01*
X29186223Y-100794346D01*
X29221862Y-100775296D01*
X29260532Y-100763565D01*
X29306888Y-100759000D01*
X30383112Y-100759000D01*
X30429468Y-100763565D01*
X30429468Y-100763565D01*
G37*
G36*
X104496000Y-101626000D02*
G01*
X103094000Y-101626000D01*
X103094000Y-99974000D01*
X104496000Y-99974000D01*
X104496000Y-101626000D01*
X104496000Y-101626000D01*
G37*
G36*
X108996000Y-101626000D02*
G01*
X107594000Y-101626000D01*
X107594000Y-99974000D01*
X108996000Y-99974000D01*
X108996000Y-101626000D01*
X108996000Y-101626000D01*
G37*
G36*
X96241000Y-101626000D02*
G01*
X94839000Y-101626000D01*
X94839000Y-99974000D01*
X96241000Y-99974000D01*
X96241000Y-101626000D01*
X96241000Y-101626000D01*
G37*
G36*
X100741000Y-101626000D02*
G01*
X99339000Y-101626000D01*
X99339000Y-99974000D01*
X100741000Y-99974000D01*
X100741000Y-101626000D01*
X100741000Y-101626000D01*
G37*
G36*
X27141000Y-101618500D02*
G01*
X23939000Y-101618500D01*
X23939000Y-99106500D01*
X27141000Y-99106500D01*
X27141000Y-101618500D01*
X27141000Y-101618500D01*
G37*
G36*
X30429468Y-98828565D02*
G01*
X30468138Y-98840296D01*
X30503777Y-98859346D01*
X30535017Y-98884983D01*
X30560654Y-98916223D01*
X30579704Y-98951862D01*
X30591435Y-98990532D01*
X30596000Y-99036888D01*
X30596000Y-99688112D01*
X30591435Y-99734468D01*
X30579704Y-99773138D01*
X30560654Y-99808777D01*
X30535017Y-99840017D01*
X30503777Y-99865654D01*
X30468138Y-99884704D01*
X30429468Y-99896435D01*
X30383112Y-99901000D01*
X29306888Y-99901000D01*
X29260532Y-99896435D01*
X29221862Y-99884704D01*
X29186223Y-99865654D01*
X29154983Y-99840017D01*
X29129346Y-99808777D01*
X29110296Y-99773138D01*
X29098565Y-99734468D01*
X29094000Y-99688112D01*
X29094000Y-99036888D01*
X29098565Y-98990532D01*
X29110296Y-98951862D01*
X29129346Y-98916223D01*
X29154983Y-98884983D01*
X29186223Y-98859346D01*
X29221862Y-98840296D01*
X29260532Y-98828565D01*
X29306888Y-98824000D01*
X30383112Y-98824000D01*
X30429468Y-98828565D01*
X30429468Y-98828565D01*
G37*
G36*
X100369468Y-97678565D02*
G01*
X100408138Y-97690296D01*
X100443777Y-97709346D01*
X100475017Y-97734983D01*
X100500654Y-97766223D01*
X100519704Y-97801862D01*
X100531435Y-97840532D01*
X100536000Y-97886888D01*
X100536000Y-98963112D01*
X100531435Y-99009468D01*
X100519704Y-99048138D01*
X100500654Y-99083777D01*
X100475017Y-99115017D01*
X100443777Y-99140654D01*
X100408138Y-99159704D01*
X100369468Y-99171435D01*
X100323112Y-99176000D01*
X99671888Y-99176000D01*
X99625532Y-99171435D01*
X99586862Y-99159704D01*
X99551223Y-99140654D01*
X99519983Y-99115017D01*
X99494346Y-99083777D01*
X99475296Y-99048138D01*
X99463565Y-99009468D01*
X99459000Y-98963112D01*
X99459000Y-97886888D01*
X99463565Y-97840532D01*
X99475296Y-97801862D01*
X99494346Y-97766223D01*
X99519983Y-97734983D01*
X99551223Y-97709346D01*
X99586862Y-97690296D01*
X99625532Y-97678565D01*
X99671888Y-97674000D01*
X100323112Y-97674000D01*
X100369468Y-97678565D01*
X100369468Y-97678565D01*
G37*
G36*
X102244468Y-97678565D02*
G01*
X102283138Y-97690296D01*
X102318777Y-97709346D01*
X102350017Y-97734983D01*
X102375654Y-97766223D01*
X102394704Y-97801862D01*
X102406435Y-97840532D01*
X102411000Y-97886888D01*
X102411000Y-98963112D01*
X102406435Y-99009468D01*
X102394704Y-99048138D01*
X102375654Y-99083777D01*
X102350017Y-99115017D01*
X102318777Y-99140654D01*
X102283138Y-99159704D01*
X102244468Y-99171435D01*
X102198112Y-99176000D01*
X101546888Y-99176000D01*
X101500532Y-99171435D01*
X101461862Y-99159704D01*
X101426223Y-99140654D01*
X101394983Y-99115017D01*
X101369346Y-99083777D01*
X101350296Y-99048138D01*
X101338565Y-99009468D01*
X101334000Y-98963112D01*
X101334000Y-97886888D01*
X101338565Y-97840532D01*
X101350296Y-97801862D01*
X101369346Y-97766223D01*
X101394983Y-97734983D01*
X101426223Y-97709346D01*
X101461862Y-97690296D01*
X101500532Y-97678565D01*
X101546888Y-97674000D01*
X102198112Y-97674000D01*
X102244468Y-97678565D01*
X102244468Y-97678565D01*
G37*
G36*
X106749468Y-97678565D02*
G01*
X106788138Y-97690296D01*
X106823777Y-97709346D01*
X106855017Y-97734983D01*
X106880654Y-97766223D01*
X106899704Y-97801862D01*
X106911435Y-97840532D01*
X106916000Y-97886888D01*
X106916000Y-98963112D01*
X106911435Y-99009468D01*
X106899704Y-99048138D01*
X106880654Y-99083777D01*
X106855017Y-99115017D01*
X106823777Y-99140654D01*
X106788138Y-99159704D01*
X106749468Y-99171435D01*
X106703112Y-99176000D01*
X106051888Y-99176000D01*
X106005532Y-99171435D01*
X105966862Y-99159704D01*
X105931223Y-99140654D01*
X105899983Y-99115017D01*
X105874346Y-99083777D01*
X105855296Y-99048138D01*
X105843565Y-99009468D01*
X105839000Y-98963112D01*
X105839000Y-97886888D01*
X105843565Y-97840532D01*
X105855296Y-97801862D01*
X105874346Y-97766223D01*
X105899983Y-97734983D01*
X105931223Y-97709346D01*
X105966862Y-97690296D01*
X106005532Y-97678565D01*
X106051888Y-97674000D01*
X106703112Y-97674000D01*
X106749468Y-97678565D01*
X106749468Y-97678565D01*
G37*
G36*
X108624468Y-97678565D02*
G01*
X108663138Y-97690296D01*
X108698777Y-97709346D01*
X108730017Y-97734983D01*
X108755654Y-97766223D01*
X108774704Y-97801862D01*
X108786435Y-97840532D01*
X108791000Y-97886888D01*
X108791000Y-98963112D01*
X108786435Y-99009468D01*
X108774704Y-99048138D01*
X108755654Y-99083777D01*
X108730017Y-99115017D01*
X108698777Y-99140654D01*
X108663138Y-99159704D01*
X108624468Y-99171435D01*
X108578112Y-99176000D01*
X107926888Y-99176000D01*
X107880532Y-99171435D01*
X107841862Y-99159704D01*
X107806223Y-99140654D01*
X107774983Y-99115017D01*
X107749346Y-99083777D01*
X107730296Y-99048138D01*
X107718565Y-99009468D01*
X107714000Y-98963112D01*
X107714000Y-97886888D01*
X107718565Y-97840532D01*
X107730296Y-97801862D01*
X107749346Y-97766223D01*
X107774983Y-97734983D01*
X107806223Y-97709346D01*
X107841862Y-97690296D01*
X107880532Y-97678565D01*
X107926888Y-97674000D01*
X108578112Y-97674000D01*
X108624468Y-97678565D01*
X108624468Y-97678565D01*
G37*
G36*
X27801000Y-98588500D02*
G01*
X27089000Y-98588500D01*
X27089000Y-96576500D01*
X27801000Y-96576500D01*
X27801000Y-98588500D01*
X27801000Y-98588500D01*
G37*
G36*
X26531000Y-98588500D02*
G01*
X25819000Y-98588500D01*
X25819000Y-96576500D01*
X26531000Y-96576500D01*
X26531000Y-98588500D01*
X26531000Y-98588500D01*
G37*
G36*
X23991000Y-98588500D02*
G01*
X23279000Y-98588500D01*
X23279000Y-96576500D01*
X23991000Y-96576500D01*
X23991000Y-98588500D01*
X23991000Y-98588500D01*
G37*
G36*
X25261000Y-98588500D02*
G01*
X24549000Y-98588500D01*
X24549000Y-96576500D01*
X25261000Y-96576500D01*
X25261000Y-98588500D01*
X25261000Y-98588500D01*
G37*
G36*
X30429468Y-96953565D02*
G01*
X30468138Y-96965296D01*
X30503777Y-96984346D01*
X30535017Y-97009983D01*
X30560654Y-97041223D01*
X30579704Y-97076862D01*
X30591435Y-97115532D01*
X30596000Y-97161888D01*
X30596000Y-97813112D01*
X30591435Y-97859468D01*
X30579704Y-97898138D01*
X30560654Y-97933777D01*
X30535017Y-97965017D01*
X30503777Y-97990654D01*
X30468138Y-98009704D01*
X30429468Y-98021435D01*
X30383112Y-98026000D01*
X29306888Y-98026000D01*
X29260532Y-98021435D01*
X29221862Y-98009704D01*
X29186223Y-97990654D01*
X29154983Y-97965017D01*
X29129346Y-97933777D01*
X29110296Y-97898138D01*
X29098565Y-97859468D01*
X29094000Y-97813112D01*
X29094000Y-97161888D01*
X29098565Y-97115532D01*
X29110296Y-97076862D01*
X29129346Y-97041223D01*
X29154983Y-97009983D01*
X29186223Y-96984346D01*
X29221862Y-96965296D01*
X29260532Y-96953565D01*
X29306888Y-96949000D01*
X30383112Y-96949000D01*
X30429468Y-96953565D01*
X30429468Y-96953565D01*
G37*
G36*
X29279468Y-94503565D02*
G01*
X29318138Y-94515296D01*
X29353777Y-94534346D01*
X29385017Y-94559983D01*
X29410654Y-94591223D01*
X29429704Y-94626862D01*
X29441435Y-94665532D01*
X29446000Y-94711888D01*
X29446000Y-95788112D01*
X29441435Y-95834468D01*
X29429704Y-95873138D01*
X29410654Y-95908777D01*
X29385017Y-95940017D01*
X29353777Y-95965654D01*
X29318138Y-95984704D01*
X29279468Y-95996435D01*
X29233112Y-96001000D01*
X28581888Y-96001000D01*
X28535532Y-95996435D01*
X28496862Y-95984704D01*
X28461223Y-95965654D01*
X28429983Y-95940017D01*
X28404346Y-95908777D01*
X28385296Y-95873138D01*
X28373565Y-95834468D01*
X28369000Y-95788112D01*
X28369000Y-94711888D01*
X28373565Y-94665532D01*
X28385296Y-94626862D01*
X28404346Y-94591223D01*
X28429983Y-94559983D01*
X28461223Y-94534346D01*
X28496862Y-94515296D01*
X28535532Y-94503565D01*
X28581888Y-94499000D01*
X29233112Y-94499000D01*
X29279468Y-94503565D01*
X29279468Y-94503565D01*
G37*
G36*
X31154468Y-94503565D02*
G01*
X31193138Y-94515296D01*
X31228777Y-94534346D01*
X31260017Y-94559983D01*
X31285654Y-94591223D01*
X31304704Y-94626862D01*
X31316435Y-94665532D01*
X31321000Y-94711888D01*
X31321000Y-95788112D01*
X31316435Y-95834468D01*
X31304704Y-95873138D01*
X31285654Y-95908777D01*
X31260017Y-95940017D01*
X31228777Y-95965654D01*
X31193138Y-95984704D01*
X31154468Y-95996435D01*
X31108112Y-96001000D01*
X30456888Y-96001000D01*
X30410532Y-95996435D01*
X30371862Y-95984704D01*
X30336223Y-95965654D01*
X30304983Y-95940017D01*
X30279346Y-95908777D01*
X30260296Y-95873138D01*
X30248565Y-95834468D01*
X30244000Y-95788112D01*
X30244000Y-94711888D01*
X30248565Y-94665532D01*
X30260296Y-94626862D01*
X30279346Y-94591223D01*
X30304983Y-94559983D01*
X30336223Y-94534346D01*
X30371862Y-94515296D01*
X30410532Y-94503565D01*
X30456888Y-94499000D01*
X31108112Y-94499000D01*
X31154468Y-94503565D01*
X31154468Y-94503565D01*
G37*
G36*
X26074468Y-94503565D02*
G01*
X26113138Y-94515296D01*
X26148777Y-94534346D01*
X26180017Y-94559983D01*
X26205654Y-94591223D01*
X26224704Y-94626862D01*
X26236435Y-94665532D01*
X26241000Y-94711888D01*
X26241000Y-95788112D01*
X26236435Y-95834468D01*
X26224704Y-95873138D01*
X26205654Y-95908777D01*
X26180017Y-95940017D01*
X26148777Y-95965654D01*
X26113138Y-95984704D01*
X26074468Y-95996435D01*
X26028112Y-96001000D01*
X25376888Y-96001000D01*
X25330532Y-95996435D01*
X25291862Y-95984704D01*
X25256223Y-95965654D01*
X25224983Y-95940017D01*
X25199346Y-95908777D01*
X25180296Y-95873138D01*
X25168565Y-95834468D01*
X25164000Y-95788112D01*
X25164000Y-94711888D01*
X25168565Y-94665532D01*
X25180296Y-94626862D01*
X25199346Y-94591223D01*
X25224983Y-94559983D01*
X25256223Y-94534346D01*
X25291862Y-94515296D01*
X25330532Y-94503565D01*
X25376888Y-94499000D01*
X26028112Y-94499000D01*
X26074468Y-94503565D01*
X26074468Y-94503565D01*
G37*
G36*
X24199468Y-94503565D02*
G01*
X24238138Y-94515296D01*
X24273777Y-94534346D01*
X24305017Y-94559983D01*
X24330654Y-94591223D01*
X24349704Y-94626862D01*
X24361435Y-94665532D01*
X24366000Y-94711888D01*
X24366000Y-95788112D01*
X24361435Y-95834468D01*
X24349704Y-95873138D01*
X24330654Y-95908777D01*
X24305017Y-95940017D01*
X24273777Y-95965654D01*
X24238138Y-95984704D01*
X24199468Y-95996435D01*
X24153112Y-96001000D01*
X23501888Y-96001000D01*
X23455532Y-95996435D01*
X23416862Y-95984704D01*
X23381223Y-95965654D01*
X23349983Y-95940017D01*
X23324346Y-95908777D01*
X23305296Y-95873138D01*
X23293565Y-95834468D01*
X23289000Y-95788112D01*
X23289000Y-94711888D01*
X23293565Y-94665532D01*
X23305296Y-94626862D01*
X23324346Y-94591223D01*
X23349983Y-94559983D01*
X23381223Y-94534346D01*
X23416862Y-94515296D01*
X23455532Y-94503565D01*
X23501888Y-94499000D01*
X24153112Y-94499000D01*
X24199468Y-94503565D01*
X24199468Y-94503565D01*
G37*
G36*
X44821000Y-95756000D02*
G01*
X33919000Y-95756000D01*
X33919000Y-86254000D01*
X44821000Y-86254000D01*
X44821000Y-95756000D01*
X44821000Y-95756000D01*
G37*
G36*
X84826000Y-95756000D02*
G01*
X73924000Y-95756000D01*
X73924000Y-86254000D01*
X84826000Y-86254000D01*
X84826000Y-95756000D01*
X84826000Y-95756000D01*
G37*
G36*
X71491000Y-95756000D02*
G01*
X60589000Y-95756000D01*
X60589000Y-86254000D01*
X71491000Y-86254000D01*
X71491000Y-95756000D01*
X71491000Y-95756000D01*
G37*
G36*
X58156000Y-95756000D02*
G01*
X47254000Y-95756000D01*
X47254000Y-86254000D01*
X58156000Y-86254000D01*
X58156000Y-95756000D01*
X58156000Y-95756000D01*
G37*
G36*
X99805443Y-93720519D02*
G01*
X99871627Y-93727037D01*
X100041466Y-93778557D01*
X100197991Y-93862222D01*
X100233729Y-93891552D01*
X100335186Y-93974814D01*
X100418448Y-94076271D01*
X100447778Y-94112009D01*
X100531443Y-94268534D01*
X100582963Y-94438373D01*
X100600359Y-94615000D01*
X100582963Y-94791627D01*
X100531443Y-94961466D01*
X100447778Y-95117991D01*
X100418448Y-95153729D01*
X100335186Y-95255186D01*
X100233729Y-95338448D01*
X100197991Y-95367778D01*
X100041466Y-95451443D01*
X99871627Y-95502963D01*
X99805443Y-95509481D01*
X99739260Y-95516000D01*
X99650740Y-95516000D01*
X99584557Y-95509481D01*
X99518373Y-95502963D01*
X99348534Y-95451443D01*
X99192009Y-95367778D01*
X99156271Y-95338448D01*
X99054814Y-95255186D01*
X98971552Y-95153729D01*
X98942222Y-95117991D01*
X98858557Y-94961466D01*
X98807037Y-94791627D01*
X98789641Y-94615000D01*
X98807037Y-94438373D01*
X98858557Y-94268534D01*
X98942222Y-94112009D01*
X98971552Y-94076271D01*
X99054814Y-93974814D01*
X99156271Y-93891552D01*
X99192009Y-93862222D01*
X99348534Y-93778557D01*
X99518373Y-93727037D01*
X99584557Y-93720519D01*
X99650740Y-93714000D01*
X99739260Y-93714000D01*
X99805443Y-93720519D01*
X99805443Y-93720519D01*
G37*
G36*
X125996000Y-95516000D02*
G01*
X124194000Y-95516000D01*
X124194000Y-93714000D01*
X125996000Y-93714000D01*
X125996000Y-95516000D01*
X125996000Y-95516000D01*
G37*
G36*
X122665443Y-93720519D02*
G01*
X122731627Y-93727037D01*
X122901466Y-93778557D01*
X123057991Y-93862222D01*
X123093729Y-93891552D01*
X123195186Y-93974814D01*
X123278448Y-94076271D01*
X123307778Y-94112009D01*
X123391443Y-94268534D01*
X123442963Y-94438373D01*
X123460359Y-94615000D01*
X123442963Y-94791627D01*
X123391443Y-94961466D01*
X123307778Y-95117991D01*
X123278448Y-95153729D01*
X123195186Y-95255186D01*
X123093729Y-95338448D01*
X123057991Y-95367778D01*
X122901466Y-95451443D01*
X122731627Y-95502963D01*
X122665443Y-95509481D01*
X122599260Y-95516000D01*
X122510740Y-95516000D01*
X122444557Y-95509481D01*
X122378373Y-95502963D01*
X122208534Y-95451443D01*
X122052009Y-95367778D01*
X122016271Y-95338448D01*
X121914814Y-95255186D01*
X121831552Y-95153729D01*
X121802222Y-95117991D01*
X121718557Y-94961466D01*
X121667037Y-94791627D01*
X121649641Y-94615000D01*
X121667037Y-94438373D01*
X121718557Y-94268534D01*
X121802222Y-94112009D01*
X121831552Y-94076271D01*
X121914814Y-93974814D01*
X122016271Y-93891552D01*
X122052009Y-93862222D01*
X122208534Y-93778557D01*
X122378373Y-93727037D01*
X122444558Y-93720518D01*
X122510740Y-93714000D01*
X122599260Y-93714000D01*
X122665443Y-93720519D01*
X122665443Y-93720519D01*
G37*
G36*
X95516000Y-95516000D02*
G01*
X93714000Y-95516000D01*
X93714000Y-93714000D01*
X95516000Y-93714000D01*
X95516000Y-95516000D01*
X95516000Y-95516000D01*
G37*
G36*
X97265443Y-93720519D02*
G01*
X97331627Y-93727037D01*
X97501466Y-93778557D01*
X97657991Y-93862222D01*
X97693729Y-93891552D01*
X97795186Y-93974814D01*
X97878448Y-94076271D01*
X97907778Y-94112009D01*
X97991443Y-94268534D01*
X98042963Y-94438373D01*
X98060359Y-94615000D01*
X98042963Y-94791627D01*
X97991443Y-94961466D01*
X97907778Y-95117991D01*
X97878448Y-95153729D01*
X97795186Y-95255186D01*
X97693729Y-95338448D01*
X97657991Y-95367778D01*
X97501466Y-95451443D01*
X97331627Y-95502963D01*
X97265443Y-95509481D01*
X97199260Y-95516000D01*
X97110740Y-95516000D01*
X97044557Y-95509481D01*
X96978373Y-95502963D01*
X96808534Y-95451443D01*
X96652009Y-95367778D01*
X96616271Y-95338448D01*
X96514814Y-95255186D01*
X96431552Y-95153729D01*
X96402222Y-95117991D01*
X96318557Y-94961466D01*
X96267037Y-94791627D01*
X96249641Y-94615000D01*
X96267037Y-94438373D01*
X96318557Y-94268534D01*
X96402222Y-94112009D01*
X96431552Y-94076271D01*
X96514814Y-93974814D01*
X96616271Y-93891552D01*
X96652009Y-93862222D01*
X96808534Y-93778557D01*
X96978373Y-93727037D01*
X97044557Y-93720519D01*
X97110740Y-93714000D01*
X97199260Y-93714000D01*
X97265443Y-93720519D01*
X97265443Y-93720519D01*
G37*
G36*
X102345443Y-93720519D02*
G01*
X102411627Y-93727037D01*
X102581466Y-93778557D01*
X102737991Y-93862222D01*
X102773729Y-93891552D01*
X102875186Y-93974814D01*
X102958448Y-94076271D01*
X102987778Y-94112009D01*
X103071443Y-94268534D01*
X103122963Y-94438373D01*
X103140359Y-94615000D01*
X103122963Y-94791627D01*
X103071443Y-94961466D01*
X102987778Y-95117991D01*
X102958448Y-95153729D01*
X102875186Y-95255186D01*
X102773729Y-95338448D01*
X102737991Y-95367778D01*
X102581466Y-95451443D01*
X102411627Y-95502963D01*
X102345443Y-95509481D01*
X102279260Y-95516000D01*
X102190740Y-95516000D01*
X102124557Y-95509481D01*
X102058373Y-95502963D01*
X101888534Y-95451443D01*
X101732009Y-95367778D01*
X101696271Y-95338448D01*
X101594814Y-95255186D01*
X101511552Y-95153729D01*
X101482222Y-95117991D01*
X101398557Y-94961466D01*
X101347037Y-94791627D01*
X101329641Y-94615000D01*
X101347037Y-94438373D01*
X101398557Y-94268534D01*
X101482222Y-94112009D01*
X101511552Y-94076271D01*
X101594814Y-93974814D01*
X101696271Y-93891552D01*
X101732009Y-93862222D01*
X101888534Y-93778557D01*
X102058373Y-93727037D01*
X102124557Y-93720519D01*
X102190740Y-93714000D01*
X102279260Y-93714000D01*
X102345443Y-93720519D01*
X102345443Y-93720519D01*
G37*
G36*
X112505443Y-93720519D02*
G01*
X112571627Y-93727037D01*
X112741466Y-93778557D01*
X112897991Y-93862222D01*
X112933729Y-93891552D01*
X113035186Y-93974814D01*
X113118448Y-94076271D01*
X113147778Y-94112009D01*
X113231443Y-94268534D01*
X113282963Y-94438373D01*
X113300359Y-94615000D01*
X113282963Y-94791627D01*
X113231443Y-94961466D01*
X113147778Y-95117991D01*
X113118448Y-95153729D01*
X113035186Y-95255186D01*
X112933729Y-95338448D01*
X112897991Y-95367778D01*
X112741466Y-95451443D01*
X112571627Y-95502963D01*
X112505443Y-95509481D01*
X112439260Y-95516000D01*
X112350740Y-95516000D01*
X112284557Y-95509481D01*
X112218373Y-95502963D01*
X112048534Y-95451443D01*
X111892009Y-95367778D01*
X111856271Y-95338448D01*
X111754814Y-95255186D01*
X111671552Y-95153729D01*
X111642222Y-95117991D01*
X111558557Y-94961466D01*
X111507037Y-94791627D01*
X111489641Y-94615000D01*
X111507037Y-94438373D01*
X111558557Y-94268534D01*
X111642222Y-94112009D01*
X111671552Y-94076271D01*
X111754814Y-93974814D01*
X111856271Y-93891552D01*
X111892009Y-93862222D01*
X112048534Y-93778557D01*
X112218373Y-93727037D01*
X112284557Y-93720519D01*
X112350740Y-93714000D01*
X112439260Y-93714000D01*
X112505443Y-93720519D01*
X112505443Y-93720519D01*
G37*
G36*
X104885443Y-93720519D02*
G01*
X104951627Y-93727037D01*
X105121466Y-93778557D01*
X105277991Y-93862222D01*
X105313729Y-93891552D01*
X105415186Y-93974814D01*
X105498448Y-94076271D01*
X105527778Y-94112009D01*
X105611443Y-94268534D01*
X105662963Y-94438373D01*
X105680359Y-94615000D01*
X105662963Y-94791627D01*
X105611443Y-94961466D01*
X105527778Y-95117991D01*
X105498448Y-95153729D01*
X105415186Y-95255186D01*
X105313729Y-95338448D01*
X105277991Y-95367778D01*
X105121466Y-95451443D01*
X104951627Y-95502963D01*
X104885443Y-95509481D01*
X104819260Y-95516000D01*
X104730740Y-95516000D01*
X104664557Y-95509481D01*
X104598373Y-95502963D01*
X104428534Y-95451443D01*
X104272009Y-95367778D01*
X104236271Y-95338448D01*
X104134814Y-95255186D01*
X104051552Y-95153729D01*
X104022222Y-95117991D01*
X103938557Y-94961466D01*
X103887037Y-94791627D01*
X103869641Y-94615000D01*
X103887037Y-94438373D01*
X103938557Y-94268534D01*
X104022222Y-94112009D01*
X104051552Y-94076271D01*
X104134814Y-93974814D01*
X104236271Y-93891552D01*
X104272009Y-93862222D01*
X104428534Y-93778557D01*
X104598373Y-93727037D01*
X104664557Y-93720519D01*
X104730740Y-93714000D01*
X104819260Y-93714000D01*
X104885443Y-93720519D01*
X104885443Y-93720519D01*
G37*
G36*
X107425443Y-93720519D02*
G01*
X107491627Y-93727037D01*
X107661466Y-93778557D01*
X107817991Y-93862222D01*
X107853729Y-93891552D01*
X107955186Y-93974814D01*
X108038448Y-94076271D01*
X108067778Y-94112009D01*
X108151443Y-94268534D01*
X108202963Y-94438373D01*
X108220359Y-94615000D01*
X108202963Y-94791627D01*
X108151443Y-94961466D01*
X108067778Y-95117991D01*
X108038448Y-95153729D01*
X107955186Y-95255186D01*
X107853729Y-95338448D01*
X107817991Y-95367778D01*
X107661466Y-95451443D01*
X107491627Y-95502963D01*
X107425443Y-95509481D01*
X107359260Y-95516000D01*
X107270740Y-95516000D01*
X107204557Y-95509481D01*
X107138373Y-95502963D01*
X106968534Y-95451443D01*
X106812009Y-95367778D01*
X106776271Y-95338448D01*
X106674814Y-95255186D01*
X106591552Y-95153729D01*
X106562222Y-95117991D01*
X106478557Y-94961466D01*
X106427037Y-94791627D01*
X106409641Y-94615000D01*
X106427037Y-94438373D01*
X106478557Y-94268534D01*
X106562222Y-94112009D01*
X106591552Y-94076271D01*
X106674814Y-93974814D01*
X106776271Y-93891552D01*
X106812009Y-93862222D01*
X106968534Y-93778557D01*
X107138373Y-93727037D01*
X107204557Y-93720519D01*
X107270740Y-93714000D01*
X107359260Y-93714000D01*
X107425443Y-93720519D01*
X107425443Y-93720519D01*
G37*
G36*
X109965443Y-93720519D02*
G01*
X110031627Y-93727037D01*
X110201466Y-93778557D01*
X110357991Y-93862222D01*
X110393729Y-93891552D01*
X110495186Y-93974814D01*
X110578448Y-94076271D01*
X110607778Y-94112009D01*
X110691443Y-94268534D01*
X110742963Y-94438373D01*
X110760359Y-94615000D01*
X110742963Y-94791627D01*
X110691443Y-94961466D01*
X110607778Y-95117991D01*
X110578448Y-95153729D01*
X110495186Y-95255186D01*
X110393729Y-95338448D01*
X110357991Y-95367778D01*
X110201466Y-95451443D01*
X110031627Y-95502963D01*
X109965443Y-95509481D01*
X109899260Y-95516000D01*
X109810740Y-95516000D01*
X109744557Y-95509481D01*
X109678373Y-95502963D01*
X109508534Y-95451443D01*
X109352009Y-95367778D01*
X109316271Y-95338448D01*
X109214814Y-95255186D01*
X109131552Y-95153729D01*
X109102222Y-95117991D01*
X109018557Y-94961466D01*
X108967037Y-94791627D01*
X108949641Y-94615000D01*
X108967037Y-94438373D01*
X109018557Y-94268534D01*
X109102222Y-94112009D01*
X109131552Y-94076271D01*
X109214814Y-93974814D01*
X109316271Y-93891552D01*
X109352009Y-93862222D01*
X109508534Y-93778557D01*
X109678373Y-93727037D01*
X109744557Y-93720519D01*
X109810740Y-93714000D01*
X109899260Y-93714000D01*
X109965443Y-93720519D01*
X109965443Y-93720519D01*
G37*
G36*
X27816000Y-93661000D02*
G01*
X21714000Y-93661000D01*
X21714000Y-88559000D01*
X27816000Y-88559000D01*
X27816000Y-93661000D01*
X27816000Y-93661000D01*
G37*
G36*
X118376000Y-90436000D02*
G01*
X116574000Y-90436000D01*
X116574000Y-88634000D01*
X118376000Y-88634000D01*
X118376000Y-90436000D01*
X118376000Y-90436000D01*
G37*
G36*
X117585442Y-86100518D02*
G01*
X117651627Y-86107037D01*
X117821466Y-86158557D01*
X117977991Y-86242222D01*
X118013729Y-86271552D01*
X118115186Y-86354814D01*
X118198448Y-86456271D01*
X118227778Y-86492009D01*
X118311443Y-86648534D01*
X118362963Y-86818373D01*
X118380359Y-86995000D01*
X118362963Y-87171627D01*
X118311443Y-87341466D01*
X118227778Y-87497991D01*
X118202101Y-87529278D01*
X118115186Y-87635186D01*
X118013729Y-87718448D01*
X117977991Y-87747778D01*
X117821466Y-87831443D01*
X117651627Y-87882963D01*
X117585443Y-87889481D01*
X117519260Y-87896000D01*
X117430740Y-87896000D01*
X117364557Y-87889481D01*
X117298373Y-87882963D01*
X117128534Y-87831443D01*
X116972009Y-87747778D01*
X116936271Y-87718448D01*
X116834814Y-87635186D01*
X116747899Y-87529278D01*
X116722222Y-87497991D01*
X116638557Y-87341466D01*
X116587037Y-87171627D01*
X116569641Y-86995000D01*
X116587037Y-86818373D01*
X116638557Y-86648534D01*
X116722222Y-86492009D01*
X116751552Y-86456271D01*
X116834814Y-86354814D01*
X116936271Y-86271552D01*
X116972009Y-86242222D01*
X117128534Y-86158557D01*
X117298373Y-86107037D01*
X117364558Y-86100518D01*
X117430740Y-86094000D01*
X117519260Y-86094000D01*
X117585442Y-86100518D01*
X117585442Y-86100518D01*
G37*
G36*
X106084468Y-86248565D02*
G01*
X106123138Y-86260296D01*
X106158777Y-86279346D01*
X106190017Y-86304983D01*
X106215654Y-86336223D01*
X106234704Y-86371862D01*
X106246435Y-86410532D01*
X106251000Y-86456888D01*
X106251000Y-87533112D01*
X106246435Y-87579468D01*
X106234704Y-87618138D01*
X106215654Y-87653777D01*
X106190017Y-87685017D01*
X106158777Y-87710654D01*
X106123138Y-87729704D01*
X106084468Y-87741435D01*
X106038112Y-87746000D01*
X105386888Y-87746000D01*
X105340532Y-87741435D01*
X105301862Y-87729704D01*
X105266223Y-87710654D01*
X105234983Y-87685017D01*
X105209346Y-87653777D01*
X105190296Y-87618138D01*
X105178565Y-87579468D01*
X105174000Y-87533112D01*
X105174000Y-86456888D01*
X105178565Y-86410532D01*
X105190296Y-86371862D01*
X105209346Y-86336223D01*
X105234983Y-86304983D01*
X105266223Y-86279346D01*
X105301862Y-86260296D01*
X105340532Y-86248565D01*
X105386888Y-86244000D01*
X106038112Y-86244000D01*
X106084468Y-86248565D01*
X106084468Y-86248565D01*
G37*
G36*
X104209468Y-86248565D02*
G01*
X104248138Y-86260296D01*
X104283777Y-86279346D01*
X104315017Y-86304983D01*
X104340654Y-86336223D01*
X104359704Y-86371862D01*
X104371435Y-86410532D01*
X104376000Y-86456888D01*
X104376000Y-87533112D01*
X104371435Y-87579468D01*
X104359704Y-87618138D01*
X104340654Y-87653777D01*
X104315017Y-87685017D01*
X104283777Y-87710654D01*
X104248138Y-87729704D01*
X104209468Y-87741435D01*
X104163112Y-87746000D01*
X103511888Y-87746000D01*
X103465532Y-87741435D01*
X103426862Y-87729704D01*
X103391223Y-87710654D01*
X103359983Y-87685017D01*
X103334346Y-87653777D01*
X103315296Y-87618138D01*
X103303565Y-87579468D01*
X103299000Y-87533112D01*
X103299000Y-86456888D01*
X103303565Y-86410532D01*
X103315296Y-86371862D01*
X103334346Y-86336223D01*
X103359983Y-86304983D01*
X103391223Y-86279346D01*
X103426862Y-86260296D01*
X103465532Y-86248565D01*
X103511888Y-86244000D01*
X104163112Y-86244000D01*
X104209468Y-86248565D01*
X104209468Y-86248565D01*
G37*
G36*
X126631000Y-85356000D02*
G01*
X124829000Y-85356000D01*
X124829000Y-83554000D01*
X126631000Y-83554000D01*
X126631000Y-85356000D01*
X126631000Y-85356000D01*
G37*
G36*
X117585443Y-83560519D02*
G01*
X117651627Y-83567037D01*
X117821466Y-83618557D01*
X117977991Y-83702222D01*
X118013729Y-83731552D01*
X118115186Y-83814814D01*
X118198448Y-83916271D01*
X118227778Y-83952009D01*
X118311443Y-84108534D01*
X118362963Y-84278373D01*
X118380359Y-84455000D01*
X118362963Y-84631627D01*
X118311443Y-84801466D01*
X118227778Y-84957991D01*
X118198448Y-84993729D01*
X118115186Y-85095186D01*
X118013729Y-85178448D01*
X117977991Y-85207778D01*
X117821466Y-85291443D01*
X117651627Y-85342963D01*
X117585442Y-85349482D01*
X117519260Y-85356000D01*
X117430740Y-85356000D01*
X117364558Y-85349482D01*
X117298373Y-85342963D01*
X117128534Y-85291443D01*
X116972009Y-85207778D01*
X116936271Y-85178448D01*
X116834814Y-85095186D01*
X116751552Y-84993729D01*
X116722222Y-84957991D01*
X116638557Y-84801466D01*
X116587037Y-84631627D01*
X116569641Y-84455000D01*
X116587037Y-84278373D01*
X116638557Y-84108534D01*
X116722222Y-83952009D01*
X116751552Y-83916271D01*
X116834814Y-83814814D01*
X116936271Y-83731552D01*
X116972009Y-83702222D01*
X117128534Y-83618557D01*
X117298373Y-83567037D01*
X117364557Y-83560519D01*
X117430740Y-83554000D01*
X117519260Y-83554000D01*
X117585443Y-83560519D01*
X117585443Y-83560519D01*
G37*
G36*
X107266000Y-85111000D02*
G01*
X101014000Y-85111000D01*
X101014000Y-83409000D01*
X107266000Y-83409000D01*
X107266000Y-85111000D01*
X107266000Y-85111000D01*
G37*
G36*
X42511000Y-84206000D02*
G01*
X41309000Y-84206000D01*
X41309000Y-79504000D01*
X42511000Y-79504000D01*
X42511000Y-84206000D01*
X42511000Y-84206000D01*
G37*
G36*
X37431000Y-84206000D02*
G01*
X36229000Y-84206000D01*
X36229000Y-79504000D01*
X37431000Y-79504000D01*
X37431000Y-84206000D01*
X37431000Y-84206000D01*
G37*
G36*
X55846000Y-84206000D02*
G01*
X54644000Y-84206000D01*
X54644000Y-79504000D01*
X55846000Y-79504000D01*
X55846000Y-84206000D01*
X55846000Y-84206000D01*
G37*
G36*
X50766000Y-84206000D02*
G01*
X49564000Y-84206000D01*
X49564000Y-79504000D01*
X50766000Y-79504000D01*
X50766000Y-84206000D01*
X50766000Y-84206000D01*
G37*
G36*
X69181000Y-84206000D02*
G01*
X67979000Y-84206000D01*
X67979000Y-79504000D01*
X69181000Y-79504000D01*
X69181000Y-84206000D01*
X69181000Y-84206000D01*
G37*
G36*
X64101000Y-84206000D02*
G01*
X62899000Y-84206000D01*
X62899000Y-79504000D01*
X64101000Y-79504000D01*
X64101000Y-84206000D01*
X64101000Y-84206000D01*
G37*
G36*
X77436000Y-84206000D02*
G01*
X76234000Y-84206000D01*
X76234000Y-79504000D01*
X77436000Y-79504000D01*
X77436000Y-84206000D01*
X77436000Y-84206000D01*
G37*
G36*
X82516000Y-84206000D02*
G01*
X81314000Y-84206000D01*
X81314000Y-79504000D01*
X82516000Y-79504000D01*
X82516000Y-84206000D01*
X82516000Y-84206000D01*
G37*
G36*
X27816000Y-84161000D02*
G01*
X21714000Y-84161000D01*
X21714000Y-79059000D01*
X27816000Y-79059000D01*
X27816000Y-84161000D01*
X27816000Y-84161000D01*
G37*
G36*
X100741000Y-83136000D02*
G01*
X99039000Y-83136000D01*
X99039000Y-76884000D01*
X100741000Y-76884000D01*
X100741000Y-83136000D01*
X100741000Y-83136000D01*
G37*
G36*
X109241000Y-83136000D02*
G01*
X107539000Y-83136000D01*
X107539000Y-76884000D01*
X109241000Y-76884000D01*
X109241000Y-83136000D01*
X109241000Y-83136000D01*
G37*
G36*
X125840442Y-81020518D02*
G01*
X125906627Y-81027037D01*
X126076466Y-81078557D01*
X126232991Y-81162222D01*
X126268729Y-81191552D01*
X126370186Y-81274814D01*
X126453448Y-81376271D01*
X126482778Y-81412009D01*
X126566443Y-81568534D01*
X126617963Y-81738373D01*
X126635359Y-81915000D01*
X126617963Y-82091627D01*
X126566443Y-82261466D01*
X126482778Y-82417991D01*
X126457101Y-82449278D01*
X126370186Y-82555186D01*
X126268729Y-82638448D01*
X126232991Y-82667778D01*
X126076466Y-82751443D01*
X125906627Y-82802963D01*
X125840442Y-82809482D01*
X125774260Y-82816000D01*
X125685740Y-82816000D01*
X125619558Y-82809482D01*
X125553373Y-82802963D01*
X125383534Y-82751443D01*
X125227009Y-82667778D01*
X125191271Y-82638448D01*
X125089814Y-82555186D01*
X125002899Y-82449278D01*
X124977222Y-82417991D01*
X124893557Y-82261466D01*
X124842037Y-82091627D01*
X124824641Y-81915000D01*
X124842037Y-81738373D01*
X124893557Y-81568534D01*
X124977222Y-81412009D01*
X125006552Y-81376271D01*
X125089814Y-81274814D01*
X125191271Y-81191552D01*
X125227009Y-81162222D01*
X125383534Y-81078557D01*
X125553373Y-81027037D01*
X125619558Y-81020518D01*
X125685740Y-81014000D01*
X125774260Y-81014000D01*
X125840442Y-81020518D01*
X125840442Y-81020518D01*
G37*
G36*
X117585442Y-81020518D02*
G01*
X117651627Y-81027037D01*
X117821466Y-81078557D01*
X117977991Y-81162222D01*
X118013729Y-81191552D01*
X118115186Y-81274814D01*
X118198448Y-81376271D01*
X118227778Y-81412009D01*
X118311443Y-81568534D01*
X118362963Y-81738373D01*
X118380359Y-81915000D01*
X118362963Y-82091627D01*
X118311443Y-82261466D01*
X118227778Y-82417991D01*
X118202101Y-82449278D01*
X118115186Y-82555186D01*
X118013729Y-82638448D01*
X117977991Y-82667778D01*
X117821466Y-82751443D01*
X117651627Y-82802963D01*
X117585442Y-82809482D01*
X117519260Y-82816000D01*
X117430740Y-82816000D01*
X117364558Y-82809482D01*
X117298373Y-82802963D01*
X117128534Y-82751443D01*
X116972009Y-82667778D01*
X116936271Y-82638448D01*
X116834814Y-82555186D01*
X116747899Y-82449278D01*
X116722222Y-82417991D01*
X116638557Y-82261466D01*
X116587037Y-82091627D01*
X116569641Y-81915000D01*
X116587037Y-81738373D01*
X116638557Y-81568534D01*
X116722222Y-81412009D01*
X116751552Y-81376271D01*
X116834814Y-81274814D01*
X116936271Y-81191552D01*
X116972009Y-81162222D01*
X117128534Y-81078557D01*
X117298373Y-81027037D01*
X117364558Y-81020518D01*
X117430740Y-81014000D01*
X117519260Y-81014000D01*
X117585442Y-81020518D01*
X117585442Y-81020518D01*
G37*
G36*
X120719468Y-81168565D02*
G01*
X120758138Y-81180296D01*
X120793777Y-81199346D01*
X120825017Y-81224983D01*
X120850654Y-81256223D01*
X120869704Y-81291862D01*
X120881435Y-81330532D01*
X120886000Y-81376888D01*
X120886000Y-82453112D01*
X120881435Y-82499468D01*
X120869704Y-82538138D01*
X120850654Y-82573777D01*
X120825017Y-82605017D01*
X120793777Y-82630654D01*
X120758138Y-82649704D01*
X120719468Y-82661435D01*
X120673112Y-82666000D01*
X120021888Y-82666000D01*
X119975532Y-82661435D01*
X119936862Y-82649704D01*
X119901223Y-82630654D01*
X119869983Y-82605017D01*
X119844346Y-82573777D01*
X119825296Y-82538138D01*
X119813565Y-82499468D01*
X119809000Y-82453112D01*
X119809000Y-81376888D01*
X119813565Y-81330532D01*
X119825296Y-81291862D01*
X119844346Y-81256223D01*
X119869983Y-81224983D01*
X119901223Y-81199346D01*
X119936862Y-81180296D01*
X119975532Y-81168565D01*
X120021888Y-81164000D01*
X120673112Y-81164000D01*
X120719468Y-81168565D01*
X120719468Y-81168565D01*
G37*
G36*
X122594468Y-81168565D02*
G01*
X122633138Y-81180296D01*
X122668777Y-81199346D01*
X122700017Y-81224983D01*
X122725654Y-81256223D01*
X122744704Y-81291862D01*
X122756435Y-81330532D01*
X122761000Y-81376888D01*
X122761000Y-82453112D01*
X122756435Y-82499468D01*
X122744704Y-82538138D01*
X122725654Y-82573777D01*
X122700017Y-82605017D01*
X122668777Y-82630654D01*
X122633138Y-82649704D01*
X122594468Y-82661435D01*
X122548112Y-82666000D01*
X121896888Y-82666000D01*
X121850532Y-82661435D01*
X121811862Y-82649704D01*
X121776223Y-82630654D01*
X121744983Y-82605017D01*
X121719346Y-82573777D01*
X121700296Y-82538138D01*
X121688565Y-82499468D01*
X121684000Y-82453112D01*
X121684000Y-81376888D01*
X121688565Y-81330532D01*
X121700296Y-81291862D01*
X121719346Y-81256223D01*
X121744983Y-81224983D01*
X121776223Y-81199346D01*
X121811862Y-81180296D01*
X121850532Y-81168565D01*
X121896888Y-81164000D01*
X122548112Y-81164000D01*
X122594468Y-81168565D01*
X122594468Y-81168565D01*
G37*
G36*
X117585442Y-78480518D02*
G01*
X117651627Y-78487037D01*
X117821466Y-78538557D01*
X117977991Y-78622222D01*
X118013729Y-78651552D01*
X118115186Y-78734814D01*
X118198448Y-78836271D01*
X118227778Y-78872009D01*
X118311443Y-79028534D01*
X118362963Y-79198373D01*
X118380359Y-79375000D01*
X118362963Y-79551627D01*
X118311443Y-79721466D01*
X118227778Y-79877991D01*
X118202101Y-79909278D01*
X118115186Y-80015186D01*
X118013729Y-80098448D01*
X117977991Y-80127778D01*
X117821466Y-80211443D01*
X117651627Y-80262963D01*
X117585442Y-80269482D01*
X117519260Y-80276000D01*
X117430740Y-80276000D01*
X117364558Y-80269482D01*
X117298373Y-80262963D01*
X117128534Y-80211443D01*
X116972009Y-80127778D01*
X116936271Y-80098448D01*
X116834814Y-80015186D01*
X116747899Y-79909278D01*
X116722222Y-79877991D01*
X116638557Y-79721466D01*
X116587037Y-79551627D01*
X116569641Y-79375000D01*
X116587037Y-79198373D01*
X116638557Y-79028534D01*
X116722222Y-78872009D01*
X116751552Y-78836271D01*
X116834814Y-78734814D01*
X116936271Y-78651552D01*
X116972009Y-78622222D01*
X117128534Y-78538557D01*
X117298373Y-78487037D01*
X117364558Y-78480518D01*
X117430740Y-78474000D01*
X117519260Y-78474000D01*
X117585442Y-78480518D01*
X117585442Y-78480518D01*
G37*
G36*
X125840442Y-78480518D02*
G01*
X125906627Y-78487037D01*
X126076466Y-78538557D01*
X126232991Y-78622222D01*
X126268729Y-78651552D01*
X126370186Y-78734814D01*
X126453448Y-78836271D01*
X126482778Y-78872009D01*
X126566443Y-79028534D01*
X126617963Y-79198373D01*
X126635359Y-79375000D01*
X126617963Y-79551627D01*
X126566443Y-79721466D01*
X126482778Y-79877991D01*
X126457101Y-79909278D01*
X126370186Y-80015186D01*
X126268729Y-80098448D01*
X126232991Y-80127778D01*
X126076466Y-80211443D01*
X125906627Y-80262963D01*
X125840442Y-80269482D01*
X125774260Y-80276000D01*
X125685740Y-80276000D01*
X125619558Y-80269482D01*
X125553373Y-80262963D01*
X125383534Y-80211443D01*
X125227009Y-80127778D01*
X125191271Y-80098448D01*
X125089814Y-80015186D01*
X125002899Y-79909278D01*
X124977222Y-79877991D01*
X124893557Y-79721466D01*
X124842037Y-79551627D01*
X124824641Y-79375000D01*
X124842037Y-79198373D01*
X124893557Y-79028534D01*
X124977222Y-78872009D01*
X125006552Y-78836271D01*
X125089814Y-78734814D01*
X125191271Y-78651552D01*
X125227009Y-78622222D01*
X125383534Y-78538557D01*
X125553373Y-78487037D01*
X125619558Y-78480518D01*
X125685740Y-78474000D01*
X125774260Y-78474000D01*
X125840442Y-78480518D01*
X125840442Y-78480518D01*
G37*
G36*
X122594468Y-78628565D02*
G01*
X122633138Y-78640296D01*
X122668777Y-78659346D01*
X122700017Y-78684983D01*
X122725654Y-78716223D01*
X122744704Y-78751862D01*
X122756435Y-78790532D01*
X122761000Y-78836888D01*
X122761000Y-79913112D01*
X122756435Y-79959468D01*
X122744704Y-79998138D01*
X122725654Y-80033777D01*
X122700017Y-80065017D01*
X122668777Y-80090654D01*
X122633138Y-80109704D01*
X122594468Y-80121435D01*
X122548112Y-80126000D01*
X121896888Y-80126000D01*
X121850532Y-80121435D01*
X121811862Y-80109704D01*
X121776223Y-80090654D01*
X121744983Y-80065017D01*
X121719346Y-80033777D01*
X121700296Y-79998138D01*
X121688565Y-79959468D01*
X121684000Y-79913112D01*
X121684000Y-78836888D01*
X121688565Y-78790532D01*
X121700296Y-78751862D01*
X121719346Y-78716223D01*
X121744983Y-78684983D01*
X121776223Y-78659346D01*
X121811862Y-78640296D01*
X121850532Y-78628565D01*
X121896888Y-78624000D01*
X122548112Y-78624000D01*
X122594468Y-78628565D01*
X122594468Y-78628565D01*
G37*
G36*
X120719468Y-78628565D02*
G01*
X120758138Y-78640296D01*
X120793777Y-78659346D01*
X120825017Y-78684983D01*
X120850654Y-78716223D01*
X120869704Y-78751862D01*
X120881435Y-78790532D01*
X120886000Y-78836888D01*
X120886000Y-79913112D01*
X120881435Y-79959468D01*
X120869704Y-79998138D01*
X120850654Y-80033777D01*
X120825017Y-80065017D01*
X120793777Y-80090654D01*
X120758138Y-80109704D01*
X120719468Y-80121435D01*
X120673112Y-80126000D01*
X120021888Y-80126000D01*
X119975532Y-80121435D01*
X119936862Y-80109704D01*
X119901223Y-80090654D01*
X119869983Y-80065017D01*
X119844346Y-80033777D01*
X119825296Y-79998138D01*
X119813565Y-79959468D01*
X119809000Y-79913112D01*
X119809000Y-78836888D01*
X119813565Y-78790532D01*
X119825296Y-78751862D01*
X119844346Y-78716223D01*
X119869983Y-78684983D01*
X119901223Y-78659346D01*
X119936862Y-78640296D01*
X119975532Y-78628565D01*
X120021888Y-78624000D01*
X120673112Y-78624000D01*
X120719468Y-78628565D01*
X120719468Y-78628565D01*
G37*
G36*
X76896000Y-78461000D02*
G01*
X76144000Y-78461000D01*
X76144000Y-76799000D01*
X76896000Y-76799000D01*
X76896000Y-78461000D01*
X76896000Y-78461000D01*
G37*
G36*
X78796000Y-78461000D02*
G01*
X78044000Y-78461000D01*
X78044000Y-76799000D01*
X78796000Y-76799000D01*
X78796000Y-78461000D01*
X78796000Y-78461000D01*
G37*
G36*
X38791000Y-78381000D02*
G01*
X38039000Y-78381000D01*
X38039000Y-76719000D01*
X38791000Y-76719000D01*
X38791000Y-78381000D01*
X38791000Y-78381000D01*
G37*
G36*
X36891000Y-78381000D02*
G01*
X36139000Y-78381000D01*
X36139000Y-76719000D01*
X36891000Y-76719000D01*
X36891000Y-78381000D01*
X36891000Y-78381000D01*
G37*
G36*
X65461000Y-78381000D02*
G01*
X64709000Y-78381000D01*
X64709000Y-76719000D01*
X65461000Y-76719000D01*
X65461000Y-78381000D01*
X65461000Y-78381000D01*
G37*
G36*
X63561000Y-78381000D02*
G01*
X62809000Y-78381000D01*
X62809000Y-76719000D01*
X63561000Y-76719000D01*
X63561000Y-78381000D01*
X63561000Y-78381000D01*
G37*
G36*
X52126000Y-78381000D02*
G01*
X51374000Y-78381000D01*
X51374000Y-76719000D01*
X52126000Y-76719000D01*
X52126000Y-78381000D01*
X52126000Y-78381000D01*
G37*
G36*
X50226000Y-78381000D02*
G01*
X49474000Y-78381000D01*
X49474000Y-76719000D01*
X50226000Y-76719000D01*
X50226000Y-78381000D01*
X50226000Y-78381000D01*
G37*
G36*
X60274468Y-77238565D02*
G01*
X60313138Y-77250296D01*
X60348777Y-77269346D01*
X60380017Y-77294983D01*
X60405654Y-77326223D01*
X60424704Y-77361862D01*
X60436435Y-77400532D01*
X60441000Y-77446888D01*
X60441000Y-78098112D01*
X60436435Y-78144468D01*
X60424704Y-78183138D01*
X60405654Y-78218777D01*
X60380017Y-78250017D01*
X60348777Y-78275654D01*
X60313138Y-78294704D01*
X60274468Y-78306435D01*
X60228112Y-78311000D01*
X59151888Y-78311000D01*
X59105532Y-78306435D01*
X59066862Y-78294704D01*
X59031223Y-78275654D01*
X58999983Y-78250017D01*
X58974346Y-78218777D01*
X58955296Y-78183138D01*
X58943565Y-78144468D01*
X58939000Y-78098112D01*
X58939000Y-77446888D01*
X58943565Y-77400532D01*
X58955296Y-77361862D01*
X58974346Y-77326223D01*
X58999983Y-77294983D01*
X59031223Y-77269346D01*
X59066862Y-77250296D01*
X59105532Y-77238565D01*
X59151888Y-77234000D01*
X60228112Y-77234000D01*
X60274468Y-77238565D01*
X60274468Y-77238565D01*
G37*
G36*
X57734468Y-77238565D02*
G01*
X57773138Y-77250296D01*
X57808777Y-77269346D01*
X57840017Y-77294983D01*
X57865654Y-77326223D01*
X57884704Y-77361862D01*
X57896435Y-77400532D01*
X57901000Y-77446888D01*
X57901000Y-78098112D01*
X57896435Y-78144468D01*
X57884704Y-78183138D01*
X57865654Y-78218777D01*
X57840017Y-78250017D01*
X57808777Y-78275654D01*
X57773138Y-78294704D01*
X57734468Y-78306435D01*
X57688112Y-78311000D01*
X56611888Y-78311000D01*
X56565532Y-78306435D01*
X56526862Y-78294704D01*
X56491223Y-78275654D01*
X56459983Y-78250017D01*
X56434346Y-78218777D01*
X56415296Y-78183138D01*
X56403565Y-78144468D01*
X56399000Y-78098112D01*
X56399000Y-77446888D01*
X56403565Y-77400532D01*
X56415296Y-77361862D01*
X56434346Y-77326223D01*
X56459983Y-77294983D01*
X56491223Y-77269346D01*
X56526862Y-77250296D01*
X56565532Y-77238565D01*
X56611888Y-77234000D01*
X57688112Y-77234000D01*
X57734468Y-77238565D01*
X57734468Y-77238565D01*
G37*
G36*
X29794468Y-77238565D02*
G01*
X29833138Y-77250296D01*
X29868777Y-77269346D01*
X29900017Y-77294983D01*
X29925654Y-77326223D01*
X29944704Y-77361862D01*
X29956435Y-77400532D01*
X29961000Y-77446888D01*
X29961000Y-78098112D01*
X29956435Y-78144468D01*
X29944704Y-78183138D01*
X29925654Y-78218777D01*
X29900017Y-78250017D01*
X29868777Y-78275654D01*
X29833138Y-78294704D01*
X29794468Y-78306435D01*
X29748112Y-78311000D01*
X28671888Y-78311000D01*
X28625532Y-78306435D01*
X28586862Y-78294704D01*
X28551223Y-78275654D01*
X28519983Y-78250017D01*
X28494346Y-78218777D01*
X28475296Y-78183138D01*
X28463565Y-78144468D01*
X28459000Y-78098112D01*
X28459000Y-77446888D01*
X28463565Y-77400532D01*
X28475296Y-77361862D01*
X28494346Y-77326223D01*
X28519983Y-77294983D01*
X28551223Y-77269346D01*
X28586862Y-77250296D01*
X28625532Y-77238565D01*
X28671888Y-77234000D01*
X29748112Y-77234000D01*
X29794468Y-77238565D01*
X29794468Y-77238565D01*
G37*
G36*
X71069468Y-77238565D02*
G01*
X71108138Y-77250296D01*
X71143777Y-77269346D01*
X71175017Y-77294983D01*
X71200654Y-77326223D01*
X71219704Y-77361862D01*
X71231435Y-77400532D01*
X71236000Y-77446888D01*
X71236000Y-78098112D01*
X71231435Y-78144468D01*
X71219704Y-78183138D01*
X71200654Y-78218777D01*
X71175017Y-78250017D01*
X71143777Y-78275654D01*
X71108138Y-78294704D01*
X71069468Y-78306435D01*
X71023112Y-78311000D01*
X69946888Y-78311000D01*
X69900532Y-78306435D01*
X69861862Y-78294704D01*
X69826223Y-78275654D01*
X69794983Y-78250017D01*
X69769346Y-78218777D01*
X69750296Y-78183138D01*
X69738565Y-78144468D01*
X69734000Y-78098112D01*
X69734000Y-77446888D01*
X69738565Y-77400532D01*
X69750296Y-77361862D01*
X69769346Y-77326223D01*
X69794983Y-77294983D01*
X69826223Y-77269346D01*
X69861862Y-77250296D01*
X69900532Y-77238565D01*
X69946888Y-77234000D01*
X71023112Y-77234000D01*
X71069468Y-77238565D01*
X71069468Y-77238565D01*
G37*
G36*
X73609468Y-77238565D02*
G01*
X73648138Y-77250296D01*
X73683777Y-77269346D01*
X73715017Y-77294983D01*
X73740654Y-77326223D01*
X73759704Y-77361862D01*
X73771435Y-77400532D01*
X73776000Y-77446888D01*
X73776000Y-78098112D01*
X73771435Y-78144468D01*
X73759704Y-78183138D01*
X73740654Y-78218777D01*
X73715017Y-78250017D01*
X73683777Y-78275654D01*
X73648138Y-78294704D01*
X73609468Y-78306435D01*
X73563112Y-78311000D01*
X72486888Y-78311000D01*
X72440532Y-78306435D01*
X72401862Y-78294704D01*
X72366223Y-78275654D01*
X72334983Y-78250017D01*
X72309346Y-78218777D01*
X72290296Y-78183138D01*
X72278565Y-78144468D01*
X72274000Y-78098112D01*
X72274000Y-77446888D01*
X72278565Y-77400532D01*
X72290296Y-77361862D01*
X72309346Y-77326223D01*
X72334983Y-77294983D01*
X72366223Y-77269346D01*
X72401862Y-77250296D01*
X72440532Y-77238565D01*
X72486888Y-77234000D01*
X73563112Y-77234000D01*
X73609468Y-77238565D01*
X73609468Y-77238565D01*
G37*
G36*
X85674468Y-77238565D02*
G01*
X85713138Y-77250296D01*
X85748777Y-77269346D01*
X85780017Y-77294983D01*
X85805654Y-77326223D01*
X85824704Y-77361862D01*
X85836435Y-77400532D01*
X85841000Y-77446888D01*
X85841000Y-78098112D01*
X85836435Y-78144468D01*
X85824704Y-78183138D01*
X85805654Y-78218777D01*
X85780017Y-78250017D01*
X85748777Y-78275654D01*
X85713138Y-78294704D01*
X85674468Y-78306435D01*
X85628112Y-78311000D01*
X84551888Y-78311000D01*
X84505532Y-78306435D01*
X84466862Y-78294704D01*
X84431223Y-78275654D01*
X84399983Y-78250017D01*
X84374346Y-78218777D01*
X84355296Y-78183138D01*
X84343565Y-78144468D01*
X84339000Y-78098112D01*
X84339000Y-77446888D01*
X84343565Y-77400532D01*
X84355296Y-77361862D01*
X84374346Y-77326223D01*
X84399983Y-77294983D01*
X84431223Y-77269346D01*
X84466862Y-77250296D01*
X84505532Y-77238565D01*
X84551888Y-77234000D01*
X85628112Y-77234000D01*
X85674468Y-77238565D01*
X85674468Y-77238565D01*
G37*
G36*
X46939468Y-77238565D02*
G01*
X46978138Y-77250296D01*
X47013777Y-77269346D01*
X47045017Y-77294983D01*
X47070654Y-77326223D01*
X47089704Y-77361862D01*
X47101435Y-77400532D01*
X47106000Y-77446888D01*
X47106000Y-78098112D01*
X47101435Y-78144468D01*
X47089704Y-78183138D01*
X47070654Y-78218777D01*
X47045017Y-78250017D01*
X47013777Y-78275654D01*
X46978138Y-78294704D01*
X46939468Y-78306435D01*
X46893112Y-78311000D01*
X45816888Y-78311000D01*
X45770532Y-78306435D01*
X45731862Y-78294704D01*
X45696223Y-78275654D01*
X45664983Y-78250017D01*
X45639346Y-78218777D01*
X45620296Y-78183138D01*
X45608565Y-78144468D01*
X45604000Y-78098112D01*
X45604000Y-77446888D01*
X45608565Y-77400532D01*
X45620296Y-77361862D01*
X45639346Y-77326223D01*
X45664983Y-77294983D01*
X45696223Y-77269346D01*
X45731862Y-77250296D01*
X45770532Y-77238565D01*
X45816888Y-77234000D01*
X46893112Y-77234000D01*
X46939468Y-77238565D01*
X46939468Y-77238565D01*
G37*
G36*
X44399468Y-77238565D02*
G01*
X44438138Y-77250296D01*
X44473777Y-77269346D01*
X44505017Y-77294983D01*
X44530654Y-77326223D01*
X44549704Y-77361862D01*
X44561435Y-77400532D01*
X44566000Y-77446888D01*
X44566000Y-78098112D01*
X44561435Y-78144468D01*
X44549704Y-78183138D01*
X44530654Y-78218777D01*
X44505017Y-78250017D01*
X44473777Y-78275654D01*
X44438138Y-78294704D01*
X44399468Y-78306435D01*
X44353112Y-78311000D01*
X43276888Y-78311000D01*
X43230532Y-78306435D01*
X43191862Y-78294704D01*
X43156223Y-78275654D01*
X43124983Y-78250017D01*
X43099346Y-78218777D01*
X43080296Y-78183138D01*
X43068565Y-78144468D01*
X43064000Y-78098112D01*
X43064000Y-77446888D01*
X43068565Y-77400532D01*
X43080296Y-77361862D01*
X43099346Y-77326223D01*
X43124983Y-77294983D01*
X43156223Y-77269346D01*
X43191862Y-77250296D01*
X43230532Y-77238565D01*
X43276888Y-77234000D01*
X44353112Y-77234000D01*
X44399468Y-77238565D01*
X44399468Y-77238565D01*
G37*
G36*
X83134468Y-77238565D02*
G01*
X83173138Y-77250296D01*
X83208777Y-77269346D01*
X83240017Y-77294983D01*
X83265654Y-77326223D01*
X83284704Y-77361862D01*
X83296435Y-77400532D01*
X83301000Y-77446888D01*
X83301000Y-78098112D01*
X83296435Y-78144468D01*
X83284704Y-78183138D01*
X83265654Y-78218777D01*
X83240017Y-78250017D01*
X83208777Y-78275654D01*
X83173138Y-78294704D01*
X83134468Y-78306435D01*
X83088112Y-78311000D01*
X82011888Y-78311000D01*
X81965532Y-78306435D01*
X81926862Y-78294704D01*
X81891223Y-78275654D01*
X81859983Y-78250017D01*
X81834346Y-78218777D01*
X81815296Y-78183138D01*
X81803565Y-78144468D01*
X81799000Y-78098112D01*
X81799000Y-77446888D01*
X81803565Y-77400532D01*
X81815296Y-77361862D01*
X81834346Y-77326223D01*
X81859983Y-77294983D01*
X81891223Y-77269346D01*
X81926862Y-77250296D01*
X81965532Y-77238565D01*
X82011888Y-77234000D01*
X83088112Y-77234000D01*
X83134468Y-77238565D01*
X83134468Y-77238565D01*
G37*
G36*
X31886000Y-78236000D02*
G01*
X30884000Y-78236000D01*
X30884000Y-77334000D01*
X31886000Y-77334000D01*
X31886000Y-78236000D01*
X31886000Y-78236000D01*
G37*
G36*
X117585442Y-75940518D02*
G01*
X117651627Y-75947037D01*
X117821466Y-75998557D01*
X117977991Y-76082222D01*
X118013729Y-76111552D01*
X118115186Y-76194814D01*
X118198448Y-76296271D01*
X118227778Y-76332009D01*
X118311443Y-76488534D01*
X118362963Y-76658373D01*
X118380359Y-76835000D01*
X118362963Y-77011627D01*
X118311443Y-77181466D01*
X118227778Y-77337991D01*
X118214916Y-77353663D01*
X118115186Y-77475186D01*
X118013729Y-77558448D01*
X117977991Y-77587778D01*
X117821466Y-77671443D01*
X117651627Y-77722963D01*
X117585443Y-77729481D01*
X117519260Y-77736000D01*
X117430740Y-77736000D01*
X117364557Y-77729481D01*
X117298373Y-77722963D01*
X117128534Y-77671443D01*
X116972009Y-77587778D01*
X116936271Y-77558448D01*
X116834814Y-77475186D01*
X116735084Y-77353663D01*
X116722222Y-77337991D01*
X116638557Y-77181466D01*
X116587037Y-77011627D01*
X116569641Y-76835000D01*
X116587037Y-76658373D01*
X116638557Y-76488534D01*
X116722222Y-76332009D01*
X116751552Y-76296271D01*
X116834814Y-76194814D01*
X116936271Y-76111552D01*
X116972009Y-76082222D01*
X117128534Y-75998557D01*
X117298373Y-75947037D01*
X117364558Y-75940518D01*
X117430740Y-75934000D01*
X117519260Y-75934000D01*
X117585442Y-75940518D01*
X117585442Y-75940518D01*
G37*
G36*
X125840442Y-75940518D02*
G01*
X125906627Y-75947037D01*
X126076466Y-75998557D01*
X126232991Y-76082222D01*
X126268729Y-76111552D01*
X126370186Y-76194814D01*
X126453448Y-76296271D01*
X126482778Y-76332009D01*
X126566443Y-76488534D01*
X126617963Y-76658373D01*
X126635359Y-76835000D01*
X126617963Y-77011627D01*
X126566443Y-77181466D01*
X126482778Y-77337991D01*
X126469916Y-77353663D01*
X126370186Y-77475186D01*
X126268729Y-77558448D01*
X126232991Y-77587778D01*
X126076466Y-77671443D01*
X125906627Y-77722963D01*
X125840443Y-77729481D01*
X125774260Y-77736000D01*
X125685740Y-77736000D01*
X125619557Y-77729481D01*
X125553373Y-77722963D01*
X125383534Y-77671443D01*
X125227009Y-77587778D01*
X125191271Y-77558448D01*
X125089814Y-77475186D01*
X124990084Y-77353663D01*
X124977222Y-77337991D01*
X124893557Y-77181466D01*
X124842037Y-77011627D01*
X124824641Y-76835000D01*
X124842037Y-76658373D01*
X124893557Y-76488534D01*
X124977222Y-76332009D01*
X125006552Y-76296271D01*
X125089814Y-76194814D01*
X125191271Y-76111552D01*
X125227009Y-76082222D01*
X125383534Y-75998557D01*
X125553373Y-75947037D01*
X125619558Y-75940518D01*
X125685740Y-75934000D01*
X125774260Y-75934000D01*
X125840442Y-75940518D01*
X125840442Y-75940518D01*
G37*
G36*
X122594468Y-76088565D02*
G01*
X122633138Y-76100296D01*
X122668777Y-76119346D01*
X122700017Y-76144983D01*
X122725654Y-76176223D01*
X122744704Y-76211862D01*
X122756435Y-76250532D01*
X122761000Y-76296888D01*
X122761000Y-77373112D01*
X122756435Y-77419468D01*
X122744704Y-77458138D01*
X122725654Y-77493777D01*
X122700017Y-77525017D01*
X122668777Y-77550654D01*
X122633138Y-77569704D01*
X122594468Y-77581435D01*
X122548112Y-77586000D01*
X121896888Y-77586000D01*
X121850532Y-77581435D01*
X121811862Y-77569704D01*
X121776223Y-77550654D01*
X121744983Y-77525017D01*
X121719346Y-77493777D01*
X121700296Y-77458138D01*
X121688565Y-77419468D01*
X121684000Y-77373112D01*
X121684000Y-76296888D01*
X121688565Y-76250532D01*
X121700296Y-76211862D01*
X121719346Y-76176223D01*
X121744983Y-76144983D01*
X121776223Y-76119346D01*
X121811862Y-76100296D01*
X121850532Y-76088565D01*
X121896888Y-76084000D01*
X122548112Y-76084000D01*
X122594468Y-76088565D01*
X122594468Y-76088565D01*
G37*
G36*
X120719468Y-76088565D02*
G01*
X120758138Y-76100296D01*
X120793777Y-76119346D01*
X120825017Y-76144983D01*
X120850654Y-76176223D01*
X120869704Y-76211862D01*
X120881435Y-76250532D01*
X120886000Y-76296888D01*
X120886000Y-77373112D01*
X120881435Y-77419468D01*
X120869704Y-77458138D01*
X120850654Y-77493777D01*
X120825017Y-77525017D01*
X120793777Y-77550654D01*
X120758138Y-77569704D01*
X120719468Y-77581435D01*
X120673112Y-77586000D01*
X120021888Y-77586000D01*
X119975532Y-77581435D01*
X119936862Y-77569704D01*
X119901223Y-77550654D01*
X119869983Y-77525017D01*
X119844346Y-77493777D01*
X119825296Y-77458138D01*
X119813565Y-77419468D01*
X119809000Y-77373112D01*
X119809000Y-76296888D01*
X119813565Y-76250532D01*
X119825296Y-76211862D01*
X119844346Y-76176223D01*
X119869983Y-76144983D01*
X119901223Y-76119346D01*
X119936862Y-76100296D01*
X119975532Y-76088565D01*
X120021888Y-76084000D01*
X120673112Y-76084000D01*
X120719468Y-76088565D01*
X120719468Y-76088565D01*
G37*
G36*
X33886000Y-77286000D02*
G01*
X32884000Y-77286000D01*
X32884000Y-76384000D01*
X33886000Y-76384000D01*
X33886000Y-77286000D01*
X33886000Y-77286000D01*
G37*
G36*
X67894468Y-75636065D02*
G01*
X67933138Y-75647796D01*
X67968777Y-75666846D01*
X68000017Y-75692483D01*
X68025654Y-75723723D01*
X68044704Y-75759362D01*
X68056435Y-75798032D01*
X68061000Y-75844388D01*
X68061000Y-76495612D01*
X68056435Y-76541968D01*
X68044704Y-76580638D01*
X68025654Y-76616277D01*
X68000017Y-76647517D01*
X67968777Y-76673154D01*
X67933138Y-76692204D01*
X67894468Y-76703935D01*
X67848112Y-76708500D01*
X66771888Y-76708500D01*
X66725532Y-76703935D01*
X66686862Y-76692204D01*
X66651223Y-76673154D01*
X66619983Y-76647517D01*
X66594346Y-76616277D01*
X66575296Y-76580638D01*
X66563565Y-76541968D01*
X66559000Y-76495612D01*
X66559000Y-75844388D01*
X66563565Y-75798032D01*
X66575296Y-75759362D01*
X66594346Y-75723723D01*
X66619983Y-75692483D01*
X66651223Y-75666846D01*
X66686862Y-75647796D01*
X66725532Y-75636065D01*
X66771888Y-75631500D01*
X67848112Y-75631500D01*
X67894468Y-75636065D01*
X67894468Y-75636065D01*
G37*
G36*
X41224468Y-75636065D02*
G01*
X41263138Y-75647796D01*
X41298777Y-75666846D01*
X41330017Y-75692483D01*
X41355654Y-75723723D01*
X41374704Y-75759362D01*
X41386435Y-75798032D01*
X41391000Y-75844388D01*
X41391000Y-76495612D01*
X41386435Y-76541968D01*
X41374704Y-76580638D01*
X41355654Y-76616277D01*
X41330017Y-76647517D01*
X41298777Y-76673154D01*
X41263138Y-76692204D01*
X41224468Y-76703935D01*
X41178112Y-76708500D01*
X40101888Y-76708500D01*
X40055532Y-76703935D01*
X40016862Y-76692204D01*
X39981223Y-76673154D01*
X39949983Y-76647517D01*
X39924346Y-76616277D01*
X39905296Y-76580638D01*
X39893565Y-76541968D01*
X39889000Y-76495612D01*
X39889000Y-75844388D01*
X39893565Y-75798032D01*
X39905296Y-75759362D01*
X39924346Y-75723723D01*
X39949983Y-75692483D01*
X39981223Y-75666846D01*
X40016862Y-75647796D01*
X40055532Y-75636065D01*
X40101888Y-75631500D01*
X41178112Y-75631500D01*
X41224468Y-75636065D01*
X41224468Y-75636065D01*
G37*
G36*
X54559468Y-75636065D02*
G01*
X54598138Y-75647796D01*
X54633777Y-75666846D01*
X54665017Y-75692483D01*
X54690654Y-75723723D01*
X54709704Y-75759362D01*
X54721435Y-75798032D01*
X54726000Y-75844388D01*
X54726000Y-76495612D01*
X54721435Y-76541968D01*
X54709704Y-76580638D01*
X54690654Y-76616277D01*
X54665017Y-76647517D01*
X54633777Y-76673154D01*
X54598138Y-76692204D01*
X54559468Y-76703935D01*
X54513112Y-76708500D01*
X53436888Y-76708500D01*
X53390532Y-76703935D01*
X53351862Y-76692204D01*
X53316223Y-76673154D01*
X53284983Y-76647517D01*
X53259346Y-76616277D01*
X53240296Y-76580638D01*
X53228565Y-76541968D01*
X53224000Y-76495612D01*
X53224000Y-75844388D01*
X53228565Y-75798032D01*
X53240296Y-75759362D01*
X53259346Y-75723723D01*
X53284983Y-75692483D01*
X53316223Y-75666846D01*
X53351862Y-75647796D01*
X53390532Y-75636065D01*
X53436888Y-75631500D01*
X54513112Y-75631500D01*
X54559468Y-75636065D01*
X54559468Y-75636065D01*
G37*
G36*
X107266000Y-76611000D02*
G01*
X101014000Y-76611000D01*
X101014000Y-74909000D01*
X107266000Y-74909000D01*
X107266000Y-76611000D01*
X107266000Y-76611000D01*
G37*
G36*
X85674468Y-75363565D02*
G01*
X85713138Y-75375296D01*
X85748777Y-75394346D01*
X85780017Y-75419983D01*
X85805654Y-75451223D01*
X85824704Y-75486862D01*
X85836435Y-75525532D01*
X85841000Y-75571888D01*
X85841000Y-76223112D01*
X85836435Y-76269468D01*
X85824704Y-76308138D01*
X85805654Y-76343777D01*
X85780017Y-76375017D01*
X85748777Y-76400654D01*
X85713138Y-76419704D01*
X85674468Y-76431435D01*
X85628112Y-76436000D01*
X84551888Y-76436000D01*
X84505532Y-76431435D01*
X84466862Y-76419704D01*
X84431223Y-76400654D01*
X84399983Y-76375017D01*
X84374346Y-76343777D01*
X84355296Y-76308138D01*
X84343565Y-76269468D01*
X84339000Y-76223112D01*
X84339000Y-75571888D01*
X84343565Y-75525532D01*
X84355296Y-75486862D01*
X84374346Y-75451223D01*
X84399983Y-75419983D01*
X84431223Y-75394346D01*
X84466862Y-75375296D01*
X84505532Y-75363565D01*
X84551888Y-75359000D01*
X85628112Y-75359000D01*
X85674468Y-75363565D01*
X85674468Y-75363565D01*
G37*
G36*
X57734468Y-75363565D02*
G01*
X57773138Y-75375296D01*
X57808777Y-75394346D01*
X57840017Y-75419983D01*
X57865654Y-75451223D01*
X57884704Y-75486862D01*
X57896435Y-75525532D01*
X57901000Y-75571888D01*
X57901000Y-76223112D01*
X57896435Y-76269468D01*
X57884704Y-76308138D01*
X57865654Y-76343777D01*
X57840017Y-76375017D01*
X57808777Y-76400654D01*
X57773138Y-76419704D01*
X57734468Y-76431435D01*
X57688112Y-76436000D01*
X56611888Y-76436000D01*
X56565532Y-76431435D01*
X56526862Y-76419704D01*
X56491223Y-76400654D01*
X56459983Y-76375017D01*
X56434346Y-76343777D01*
X56415296Y-76308138D01*
X56403565Y-76269468D01*
X56399000Y-76223112D01*
X56399000Y-75571888D01*
X56403565Y-75525532D01*
X56415296Y-75486862D01*
X56434346Y-75451223D01*
X56459983Y-75419983D01*
X56491223Y-75394346D01*
X56526862Y-75375296D01*
X56565532Y-75363565D01*
X56611888Y-75359000D01*
X57688112Y-75359000D01*
X57734468Y-75363565D01*
X57734468Y-75363565D01*
G37*
G36*
X44399468Y-75363565D02*
G01*
X44438138Y-75375296D01*
X44473777Y-75394346D01*
X44505017Y-75419983D01*
X44530654Y-75451223D01*
X44549704Y-75486862D01*
X44561435Y-75525532D01*
X44566000Y-75571888D01*
X44566000Y-76223112D01*
X44561435Y-76269468D01*
X44549704Y-76308138D01*
X44530654Y-76343777D01*
X44505017Y-76375017D01*
X44473777Y-76400654D01*
X44438138Y-76419704D01*
X44399468Y-76431435D01*
X44353112Y-76436000D01*
X43276888Y-76436000D01*
X43230532Y-76431435D01*
X43191862Y-76419704D01*
X43156223Y-76400654D01*
X43124983Y-76375017D01*
X43099346Y-76343777D01*
X43080296Y-76308138D01*
X43068565Y-76269468D01*
X43064000Y-76223112D01*
X43064000Y-75571888D01*
X43068565Y-75525532D01*
X43080296Y-75486862D01*
X43099346Y-75451223D01*
X43124983Y-75419983D01*
X43156223Y-75394346D01*
X43191862Y-75375296D01*
X43230532Y-75363565D01*
X43276888Y-75359000D01*
X44353112Y-75359000D01*
X44399468Y-75363565D01*
X44399468Y-75363565D01*
G37*
G36*
X83134468Y-75363565D02*
G01*
X83173138Y-75375296D01*
X83208777Y-75394346D01*
X83240017Y-75419983D01*
X83265654Y-75451223D01*
X83284704Y-75486862D01*
X83296435Y-75525532D01*
X83301000Y-75571888D01*
X83301000Y-76223112D01*
X83296435Y-76269468D01*
X83284704Y-76308138D01*
X83265654Y-76343777D01*
X83240017Y-76375017D01*
X83208777Y-76400654D01*
X83173138Y-76419704D01*
X83134468Y-76431435D01*
X83088112Y-76436000D01*
X82011888Y-76436000D01*
X81965532Y-76431435D01*
X81926862Y-76419704D01*
X81891223Y-76400654D01*
X81859983Y-76375017D01*
X81834346Y-76343777D01*
X81815296Y-76308138D01*
X81803565Y-76269468D01*
X81799000Y-76223112D01*
X81799000Y-75571888D01*
X81803565Y-75525532D01*
X81815296Y-75486862D01*
X81834346Y-75451223D01*
X81859983Y-75419983D01*
X81891223Y-75394346D01*
X81926862Y-75375296D01*
X81965532Y-75363565D01*
X82011888Y-75359000D01*
X83088112Y-75359000D01*
X83134468Y-75363565D01*
X83134468Y-75363565D01*
G37*
G36*
X29794468Y-75363565D02*
G01*
X29833138Y-75375296D01*
X29868777Y-75394346D01*
X29900017Y-75419983D01*
X29925654Y-75451223D01*
X29944704Y-75486862D01*
X29956435Y-75525532D01*
X29961000Y-75571888D01*
X29961000Y-76223112D01*
X29956435Y-76269468D01*
X29944704Y-76308138D01*
X29925654Y-76343777D01*
X29900017Y-76375017D01*
X29868777Y-76400654D01*
X29833138Y-76419704D01*
X29794468Y-76431435D01*
X29748112Y-76436000D01*
X28671888Y-76436000D01*
X28625532Y-76431435D01*
X28586862Y-76419704D01*
X28551223Y-76400654D01*
X28519983Y-76375017D01*
X28494346Y-76343777D01*
X28475296Y-76308138D01*
X28463565Y-76269468D01*
X28459000Y-76223112D01*
X28459000Y-75571888D01*
X28463565Y-75525532D01*
X28475296Y-75486862D01*
X28494346Y-75451223D01*
X28519983Y-75419983D01*
X28551223Y-75394346D01*
X28586862Y-75375296D01*
X28625532Y-75363565D01*
X28671888Y-75359000D01*
X29748112Y-75359000D01*
X29794468Y-75363565D01*
X29794468Y-75363565D01*
G37*
G36*
X46939468Y-75363565D02*
G01*
X46978138Y-75375296D01*
X47013777Y-75394346D01*
X47045017Y-75419983D01*
X47070654Y-75451223D01*
X47089704Y-75486862D01*
X47101435Y-75525532D01*
X47106000Y-75571888D01*
X47106000Y-76223112D01*
X47101435Y-76269468D01*
X47089704Y-76308138D01*
X47070654Y-76343777D01*
X47045017Y-76375017D01*
X47013777Y-76400654D01*
X46978138Y-76419704D01*
X46939468Y-76431435D01*
X46893112Y-76436000D01*
X45816888Y-76436000D01*
X45770532Y-76431435D01*
X45731862Y-76419704D01*
X45696223Y-76400654D01*
X45664983Y-76375017D01*
X45639346Y-76343777D01*
X45620296Y-76308138D01*
X45608565Y-76269468D01*
X45604000Y-76223112D01*
X45604000Y-75571888D01*
X45608565Y-75525532D01*
X45620296Y-75486862D01*
X45639346Y-75451223D01*
X45664983Y-75419983D01*
X45696223Y-75394346D01*
X45731862Y-75375296D01*
X45770532Y-75363565D01*
X45816888Y-75359000D01*
X46893112Y-75359000D01*
X46939468Y-75363565D01*
X46939468Y-75363565D01*
G37*
G36*
X60274468Y-75363565D02*
G01*
X60313138Y-75375296D01*
X60348777Y-75394346D01*
X60380017Y-75419983D01*
X60405654Y-75451223D01*
X60424704Y-75486862D01*
X60436435Y-75525532D01*
X60441000Y-75571888D01*
X60441000Y-76223112D01*
X60436435Y-76269468D01*
X60424704Y-76308138D01*
X60405654Y-76343777D01*
X60380017Y-76375017D01*
X60348777Y-76400654D01*
X60313138Y-76419704D01*
X60274468Y-76431435D01*
X60228112Y-76436000D01*
X59151888Y-76436000D01*
X59105532Y-76431435D01*
X59066862Y-76419704D01*
X59031223Y-76400654D01*
X58999983Y-76375017D01*
X58974346Y-76343777D01*
X58955296Y-76308138D01*
X58943565Y-76269468D01*
X58939000Y-76223112D01*
X58939000Y-75571888D01*
X58943565Y-75525532D01*
X58955296Y-75486862D01*
X58974346Y-75451223D01*
X58999983Y-75419983D01*
X59031223Y-75394346D01*
X59066862Y-75375296D01*
X59105532Y-75363565D01*
X59151888Y-75359000D01*
X60228112Y-75359000D01*
X60274468Y-75363565D01*
X60274468Y-75363565D01*
G37*
G36*
X71069468Y-75363565D02*
G01*
X71108138Y-75375296D01*
X71143777Y-75394346D01*
X71175017Y-75419983D01*
X71200654Y-75451223D01*
X71219704Y-75486862D01*
X71231435Y-75525532D01*
X71236000Y-75571888D01*
X71236000Y-76223112D01*
X71231435Y-76269468D01*
X71219704Y-76308138D01*
X71200654Y-76343777D01*
X71175017Y-76375017D01*
X71143777Y-76400654D01*
X71108138Y-76419704D01*
X71069468Y-76431435D01*
X71023112Y-76436000D01*
X69946888Y-76436000D01*
X69900532Y-76431435D01*
X69861862Y-76419704D01*
X69826223Y-76400654D01*
X69794983Y-76375017D01*
X69769346Y-76343777D01*
X69750296Y-76308138D01*
X69738565Y-76269468D01*
X69734000Y-76223112D01*
X69734000Y-75571888D01*
X69738565Y-75525532D01*
X69750296Y-75486862D01*
X69769346Y-75451223D01*
X69794983Y-75419983D01*
X69826223Y-75394346D01*
X69861862Y-75375296D01*
X69900532Y-75363565D01*
X69946888Y-75359000D01*
X71023112Y-75359000D01*
X71069468Y-75363565D01*
X71069468Y-75363565D01*
G37*
G36*
X73609468Y-75363565D02*
G01*
X73648138Y-75375296D01*
X73683777Y-75394346D01*
X73715017Y-75419983D01*
X73740654Y-75451223D01*
X73759704Y-75486862D01*
X73771435Y-75525532D01*
X73776000Y-75571888D01*
X73776000Y-76223112D01*
X73771435Y-76269468D01*
X73759704Y-76308138D01*
X73740654Y-76343777D01*
X73715017Y-76375017D01*
X73683777Y-76400654D01*
X73648138Y-76419704D01*
X73609468Y-76431435D01*
X73563112Y-76436000D01*
X72486888Y-76436000D01*
X72440532Y-76431435D01*
X72401862Y-76419704D01*
X72366223Y-76400654D01*
X72334983Y-76375017D01*
X72309346Y-76343777D01*
X72290296Y-76308138D01*
X72278565Y-76269468D01*
X72274000Y-76223112D01*
X72274000Y-75571888D01*
X72278565Y-75525532D01*
X72290296Y-75486862D01*
X72309346Y-75451223D01*
X72334983Y-75419983D01*
X72366223Y-75394346D01*
X72401862Y-75375296D01*
X72440532Y-75363565D01*
X72486888Y-75359000D01*
X73563112Y-75359000D01*
X73609468Y-75363565D01*
X73609468Y-75363565D01*
G37*
G36*
X31886000Y-76336000D02*
G01*
X30884000Y-76336000D01*
X30884000Y-75434000D01*
X31886000Y-75434000D01*
X31886000Y-76336000D01*
X31886000Y-76336000D01*
G37*
G36*
X78796000Y-75761000D02*
G01*
X76144000Y-75761000D01*
X76144000Y-74099000D01*
X78796000Y-74099000D01*
X78796000Y-75761000D01*
X78796000Y-75761000D01*
G37*
G36*
X52126000Y-75681000D02*
G01*
X49474000Y-75681000D01*
X49474000Y-74019000D01*
X52126000Y-74019000D01*
X52126000Y-75681000D01*
X52126000Y-75681000D01*
G37*
G36*
X38791000Y-75681000D02*
G01*
X36139000Y-75681000D01*
X36139000Y-74019000D01*
X38791000Y-74019000D01*
X38791000Y-75681000D01*
X38791000Y-75681000D01*
G37*
G36*
X65461000Y-75681000D02*
G01*
X62809000Y-75681000D01*
X62809000Y-74019000D01*
X65461000Y-74019000D01*
X65461000Y-75681000D01*
X65461000Y-75681000D01*
G37*
G36*
X125840443Y-73400519D02*
G01*
X125906627Y-73407037D01*
X126076466Y-73458557D01*
X126232991Y-73542222D01*
X126268729Y-73571552D01*
X126370186Y-73654814D01*
X126453448Y-73756271D01*
X126482778Y-73792009D01*
X126566443Y-73948534D01*
X126617963Y-74118373D01*
X126635359Y-74295000D01*
X126617963Y-74471627D01*
X126566443Y-74641466D01*
X126482778Y-74797991D01*
X126457383Y-74828935D01*
X126370186Y-74935186D01*
X126268729Y-75018448D01*
X126232991Y-75047778D01*
X126076466Y-75131443D01*
X125906627Y-75182963D01*
X125840442Y-75189482D01*
X125774260Y-75196000D01*
X125685740Y-75196000D01*
X125619558Y-75189482D01*
X125553373Y-75182963D01*
X125383534Y-75131443D01*
X125227009Y-75047778D01*
X125191271Y-75018448D01*
X125089814Y-74935186D01*
X125002617Y-74828935D01*
X124977222Y-74797991D01*
X124893557Y-74641466D01*
X124842037Y-74471627D01*
X124824641Y-74295000D01*
X124842037Y-74118373D01*
X124893557Y-73948534D01*
X124977222Y-73792009D01*
X125006552Y-73756271D01*
X125089814Y-73654814D01*
X125191271Y-73571552D01*
X125227009Y-73542222D01*
X125383534Y-73458557D01*
X125553373Y-73407037D01*
X125619557Y-73400519D01*
X125685740Y-73394000D01*
X125774260Y-73394000D01*
X125840443Y-73400519D01*
X125840443Y-73400519D01*
G37*
G36*
X117585443Y-73400519D02*
G01*
X117651627Y-73407037D01*
X117821466Y-73458557D01*
X117977991Y-73542222D01*
X118013729Y-73571552D01*
X118115186Y-73654814D01*
X118198448Y-73756271D01*
X118227778Y-73792009D01*
X118311443Y-73948534D01*
X118362963Y-74118373D01*
X118380359Y-74295000D01*
X118362963Y-74471627D01*
X118311443Y-74641466D01*
X118227778Y-74797991D01*
X118202383Y-74828935D01*
X118115186Y-74935186D01*
X118013729Y-75018448D01*
X117977991Y-75047778D01*
X117821466Y-75131443D01*
X117651627Y-75182963D01*
X117585442Y-75189482D01*
X117519260Y-75196000D01*
X117430740Y-75196000D01*
X117364558Y-75189482D01*
X117298373Y-75182963D01*
X117128534Y-75131443D01*
X116972009Y-75047778D01*
X116936271Y-75018448D01*
X116834814Y-74935186D01*
X116747617Y-74828935D01*
X116722222Y-74797991D01*
X116638557Y-74641466D01*
X116587037Y-74471627D01*
X116569641Y-74295000D01*
X116587037Y-74118373D01*
X116638557Y-73948534D01*
X116722222Y-73792009D01*
X116751552Y-73756271D01*
X116834814Y-73654814D01*
X116936271Y-73571552D01*
X116972009Y-73542222D01*
X117128534Y-73458557D01*
X117298373Y-73407037D01*
X117364557Y-73400519D01*
X117430740Y-73394000D01*
X117519260Y-73394000D01*
X117585443Y-73400519D01*
X117585443Y-73400519D01*
G37*
G36*
X22525997Y-73448051D02*
G01*
X22559652Y-73458261D01*
X22590665Y-73474838D01*
X22617851Y-73497149D01*
X22640162Y-73524335D01*
X22656739Y-73555348D01*
X22666949Y-73589003D01*
X22671000Y-73630138D01*
X22671000Y-74959862D01*
X22666949Y-75000997D01*
X22656739Y-75034652D01*
X22640162Y-75065665D01*
X22617851Y-75092851D01*
X22590665Y-75115162D01*
X22559652Y-75131739D01*
X22525997Y-75141949D01*
X22484862Y-75146000D01*
X19430138Y-75146000D01*
X19389003Y-75141949D01*
X19355348Y-75131739D01*
X19324335Y-75115162D01*
X19297149Y-75092851D01*
X19274838Y-75065665D01*
X19258261Y-75034652D01*
X19248051Y-75000997D01*
X19244000Y-74959862D01*
X19244000Y-73630138D01*
X19248051Y-73589003D01*
X19258261Y-73555348D01*
X19274838Y-73524335D01*
X19297149Y-73497149D01*
X19324335Y-73474838D01*
X19355348Y-73458261D01*
X19389003Y-73448051D01*
X19430138Y-73444000D01*
X22484862Y-73444000D01*
X22525997Y-73448051D01*
X22525997Y-73448051D01*
G37*
G36*
X27600997Y-73448051D02*
G01*
X27634652Y-73458261D01*
X27665665Y-73474838D01*
X27692851Y-73497149D01*
X27715162Y-73524335D01*
X27731739Y-73555348D01*
X27741949Y-73589003D01*
X27746000Y-73630138D01*
X27746000Y-74959862D01*
X27741949Y-75000997D01*
X27731739Y-75034652D01*
X27715162Y-75065665D01*
X27692851Y-75092851D01*
X27665665Y-75115162D01*
X27634652Y-75131739D01*
X27600997Y-75141949D01*
X27559862Y-75146000D01*
X24505138Y-75146000D01*
X24464003Y-75141949D01*
X24430348Y-75131739D01*
X24399335Y-75115162D01*
X24372149Y-75092851D01*
X24349838Y-75065665D01*
X24333261Y-75034652D01*
X24323051Y-75000997D01*
X24319000Y-74959862D01*
X24319000Y-73630138D01*
X24323051Y-73589003D01*
X24333261Y-73555348D01*
X24349838Y-73524335D01*
X24372149Y-73497149D01*
X24399335Y-73474838D01*
X24430348Y-73458261D01*
X24464003Y-73448051D01*
X24505138Y-73444000D01*
X27559862Y-73444000D01*
X27600997Y-73448051D01*
X27600997Y-73448051D01*
G37*
G36*
X122594468Y-73548565D02*
G01*
X122633138Y-73560296D01*
X122668777Y-73579346D01*
X122700017Y-73604983D01*
X122725654Y-73636223D01*
X122744704Y-73671862D01*
X122756435Y-73710532D01*
X122761000Y-73756888D01*
X122761000Y-74833112D01*
X122756435Y-74879468D01*
X122744704Y-74918138D01*
X122725654Y-74953777D01*
X122700017Y-74985017D01*
X122668777Y-75010654D01*
X122633138Y-75029704D01*
X122594468Y-75041435D01*
X122548112Y-75046000D01*
X121896888Y-75046000D01*
X121850532Y-75041435D01*
X121811862Y-75029704D01*
X121776223Y-75010654D01*
X121744983Y-74985017D01*
X121719346Y-74953777D01*
X121700296Y-74918138D01*
X121688565Y-74879468D01*
X121684000Y-74833112D01*
X121684000Y-73756888D01*
X121688565Y-73710532D01*
X121700296Y-73671862D01*
X121719346Y-73636223D01*
X121744983Y-73604983D01*
X121776223Y-73579346D01*
X121811862Y-73560296D01*
X121850532Y-73548565D01*
X121896888Y-73544000D01*
X122548112Y-73544000D01*
X122594468Y-73548565D01*
X122594468Y-73548565D01*
G37*
G36*
X120719468Y-73548565D02*
G01*
X120758138Y-73560296D01*
X120793777Y-73579346D01*
X120825017Y-73604983D01*
X120850654Y-73636223D01*
X120869704Y-73671862D01*
X120881435Y-73710532D01*
X120886000Y-73756888D01*
X120886000Y-74833112D01*
X120881435Y-74879468D01*
X120869704Y-74918138D01*
X120850654Y-74953777D01*
X120825017Y-74985017D01*
X120793777Y-75010654D01*
X120758138Y-75029704D01*
X120719468Y-75041435D01*
X120673112Y-75046000D01*
X120021888Y-75046000D01*
X119975532Y-75041435D01*
X119936862Y-75029704D01*
X119901223Y-75010654D01*
X119869983Y-74985017D01*
X119844346Y-74953777D01*
X119825296Y-74918138D01*
X119813565Y-74879468D01*
X119809000Y-74833112D01*
X119809000Y-73756888D01*
X119813565Y-73710532D01*
X119825296Y-73671862D01*
X119844346Y-73636223D01*
X119869983Y-73604983D01*
X119901223Y-73579346D01*
X119936862Y-73560296D01*
X119975532Y-73548565D01*
X120021888Y-73544000D01*
X120673112Y-73544000D01*
X120719468Y-73548565D01*
X120719468Y-73548565D01*
G37*
G36*
X67894468Y-73761065D02*
G01*
X67933138Y-73772796D01*
X67968777Y-73791846D01*
X68000017Y-73817483D01*
X68025654Y-73848723D01*
X68044704Y-73884362D01*
X68056435Y-73923032D01*
X68061000Y-73969388D01*
X68061000Y-74620612D01*
X68056435Y-74666968D01*
X68044704Y-74705638D01*
X68025654Y-74741277D01*
X68000017Y-74772517D01*
X67968777Y-74798154D01*
X67933138Y-74817204D01*
X67894468Y-74828935D01*
X67848112Y-74833500D01*
X66771888Y-74833500D01*
X66725532Y-74828935D01*
X66686862Y-74817204D01*
X66651223Y-74798154D01*
X66619983Y-74772517D01*
X66594346Y-74741277D01*
X66575296Y-74705638D01*
X66563565Y-74666968D01*
X66559000Y-74620612D01*
X66559000Y-73969388D01*
X66563565Y-73923032D01*
X66575296Y-73884362D01*
X66594346Y-73848723D01*
X66619983Y-73817483D01*
X66651223Y-73791846D01*
X66686862Y-73772796D01*
X66725532Y-73761065D01*
X66771888Y-73756500D01*
X67848112Y-73756500D01*
X67894468Y-73761065D01*
X67894468Y-73761065D01*
G37*
G36*
X54559468Y-73761065D02*
G01*
X54598138Y-73772796D01*
X54633777Y-73791846D01*
X54665017Y-73817483D01*
X54690654Y-73848723D01*
X54709704Y-73884362D01*
X54721435Y-73923032D01*
X54726000Y-73969388D01*
X54726000Y-74620612D01*
X54721435Y-74666968D01*
X54709704Y-74705638D01*
X54690654Y-74741277D01*
X54665017Y-74772517D01*
X54633777Y-74798154D01*
X54598138Y-74817204D01*
X54559468Y-74828935D01*
X54513112Y-74833500D01*
X53436888Y-74833500D01*
X53390532Y-74828935D01*
X53351862Y-74817204D01*
X53316223Y-74798154D01*
X53284983Y-74772517D01*
X53259346Y-74741277D01*
X53240296Y-74705638D01*
X53228565Y-74666968D01*
X53224000Y-74620612D01*
X53224000Y-73969388D01*
X53228565Y-73923032D01*
X53240296Y-73884362D01*
X53259346Y-73848723D01*
X53284983Y-73817483D01*
X53316223Y-73791846D01*
X53351862Y-73772796D01*
X53390532Y-73761065D01*
X53436888Y-73756500D01*
X54513112Y-73756500D01*
X54559468Y-73761065D01*
X54559468Y-73761065D01*
G37*
G36*
X41224468Y-73761065D02*
G01*
X41263138Y-73772796D01*
X41298777Y-73791846D01*
X41330017Y-73817483D01*
X41355654Y-73848723D01*
X41374704Y-73884362D01*
X41386435Y-73923032D01*
X41391000Y-73969388D01*
X41391000Y-74620612D01*
X41386435Y-74666968D01*
X41374704Y-74705638D01*
X41355654Y-74741277D01*
X41330017Y-74772517D01*
X41298777Y-74798154D01*
X41263138Y-74817204D01*
X41224468Y-74828935D01*
X41178112Y-74833500D01*
X40101888Y-74833500D01*
X40055532Y-74828935D01*
X40016862Y-74817204D01*
X39981223Y-74798154D01*
X39949983Y-74772517D01*
X39924346Y-74741277D01*
X39905296Y-74705638D01*
X39893565Y-74666968D01*
X39889000Y-74620612D01*
X39889000Y-73969388D01*
X39893565Y-73923032D01*
X39905296Y-73884362D01*
X39924346Y-73848723D01*
X39949983Y-73817483D01*
X39981223Y-73791846D01*
X40016862Y-73772796D01*
X40055532Y-73761065D01*
X40101888Y-73756500D01*
X41178112Y-73756500D01*
X41224468Y-73761065D01*
X41224468Y-73761065D01*
G37*
G36*
X59729468Y-72913565D02*
G01*
X59768138Y-72925296D01*
X59803777Y-72944346D01*
X59835017Y-72969983D01*
X59860654Y-73001223D01*
X59879704Y-73036862D01*
X59891435Y-73075532D01*
X59896000Y-73121888D01*
X59896000Y-74198112D01*
X59891435Y-74244468D01*
X59879704Y-74283138D01*
X59860654Y-74318777D01*
X59835017Y-74350017D01*
X59803777Y-74375654D01*
X59768138Y-74394704D01*
X59729468Y-74406435D01*
X59683112Y-74411000D01*
X59031888Y-74411000D01*
X58985532Y-74406435D01*
X58946862Y-74394704D01*
X58911223Y-74375654D01*
X58879983Y-74350017D01*
X58854346Y-74318777D01*
X58835296Y-74283138D01*
X58823565Y-74244468D01*
X58819000Y-74198112D01*
X58819000Y-73121888D01*
X58823565Y-73075532D01*
X58835296Y-73036862D01*
X58854346Y-73001223D01*
X58879983Y-72969983D01*
X58911223Y-72944346D01*
X58946862Y-72925296D01*
X58985532Y-72913565D01*
X59031888Y-72909000D01*
X59683112Y-72909000D01*
X59729468Y-72913565D01*
X59729468Y-72913565D01*
G37*
G36*
X83254468Y-72913565D02*
G01*
X83293138Y-72925296D01*
X83328777Y-72944346D01*
X83360017Y-72969983D01*
X83385654Y-73001223D01*
X83404704Y-73036862D01*
X83416435Y-73075532D01*
X83421000Y-73121888D01*
X83421000Y-74198112D01*
X83416435Y-74244468D01*
X83404704Y-74283138D01*
X83385654Y-74318777D01*
X83360017Y-74350017D01*
X83328777Y-74375654D01*
X83293138Y-74394704D01*
X83254468Y-74406435D01*
X83208112Y-74411000D01*
X82556888Y-74411000D01*
X82510532Y-74406435D01*
X82471862Y-74394704D01*
X82436223Y-74375654D01*
X82404983Y-74350017D01*
X82379346Y-74318777D01*
X82360296Y-74283138D01*
X82348565Y-74244468D01*
X82344000Y-74198112D01*
X82344000Y-73121888D01*
X82348565Y-73075532D01*
X82360296Y-73036862D01*
X82379346Y-73001223D01*
X82404983Y-72969983D01*
X82436223Y-72944346D01*
X82471862Y-72925296D01*
X82510532Y-72913565D01*
X82556888Y-72909000D01*
X83208112Y-72909000D01*
X83254468Y-72913565D01*
X83254468Y-72913565D01*
G37*
G36*
X31819468Y-72913565D02*
G01*
X31858138Y-72925296D01*
X31893777Y-72944346D01*
X31925017Y-72969983D01*
X31950654Y-73001223D01*
X31969704Y-73036862D01*
X31981435Y-73075532D01*
X31986000Y-73121888D01*
X31986000Y-74198112D01*
X31981435Y-74244468D01*
X31969704Y-74283138D01*
X31950654Y-74318777D01*
X31925017Y-74350017D01*
X31893777Y-74375654D01*
X31858138Y-74394704D01*
X31819468Y-74406435D01*
X31773112Y-74411000D01*
X31121888Y-74411000D01*
X31075532Y-74406435D01*
X31036862Y-74394704D01*
X31001223Y-74375654D01*
X30969983Y-74350017D01*
X30944346Y-74318777D01*
X30925296Y-74283138D01*
X30913565Y-74244468D01*
X30909000Y-74198112D01*
X30909000Y-73121888D01*
X30913565Y-73075532D01*
X30925296Y-73036862D01*
X30944346Y-73001223D01*
X30969983Y-72969983D01*
X31001223Y-72944346D01*
X31036862Y-72925296D01*
X31075532Y-72913565D01*
X31121888Y-72909000D01*
X31773112Y-72909000D01*
X31819468Y-72913565D01*
X31819468Y-72913565D01*
G37*
G36*
X33694468Y-72913565D02*
G01*
X33733138Y-72925296D01*
X33768777Y-72944346D01*
X33800017Y-72969983D01*
X33825654Y-73001223D01*
X33844704Y-73036862D01*
X33856435Y-73075532D01*
X33861000Y-73121888D01*
X33861000Y-74198112D01*
X33856435Y-74244468D01*
X33844704Y-74283138D01*
X33825654Y-74318777D01*
X33800017Y-74350017D01*
X33768777Y-74375654D01*
X33733138Y-74394704D01*
X33694468Y-74406435D01*
X33648112Y-74411000D01*
X32996888Y-74411000D01*
X32950532Y-74406435D01*
X32911862Y-74394704D01*
X32876223Y-74375654D01*
X32844983Y-74350017D01*
X32819346Y-74318777D01*
X32800296Y-74283138D01*
X32788565Y-74244468D01*
X32784000Y-74198112D01*
X32784000Y-73121888D01*
X32788565Y-73075532D01*
X32800296Y-73036862D01*
X32819346Y-73001223D01*
X32844983Y-72969983D01*
X32876223Y-72944346D01*
X32911862Y-72925296D01*
X32950532Y-72913565D01*
X32996888Y-72909000D01*
X33648112Y-72909000D01*
X33694468Y-72913565D01*
X33694468Y-72913565D01*
G37*
G36*
X44519468Y-72913565D02*
G01*
X44558138Y-72925296D01*
X44593777Y-72944346D01*
X44625017Y-72969983D01*
X44650654Y-73001223D01*
X44669704Y-73036862D01*
X44681435Y-73075532D01*
X44686000Y-73121888D01*
X44686000Y-74198112D01*
X44681435Y-74244468D01*
X44669704Y-74283138D01*
X44650654Y-74318777D01*
X44625017Y-74350017D01*
X44593777Y-74375654D01*
X44558138Y-74394704D01*
X44519468Y-74406435D01*
X44473112Y-74411000D01*
X43821888Y-74411000D01*
X43775532Y-74406435D01*
X43736862Y-74394704D01*
X43701223Y-74375654D01*
X43669983Y-74350017D01*
X43644346Y-74318777D01*
X43625296Y-74283138D01*
X43613565Y-74244468D01*
X43609000Y-74198112D01*
X43609000Y-73121888D01*
X43613565Y-73075532D01*
X43625296Y-73036862D01*
X43644346Y-73001223D01*
X43669983Y-72969983D01*
X43701223Y-72944346D01*
X43736862Y-72925296D01*
X43775532Y-72913565D01*
X43821888Y-72909000D01*
X44473112Y-72909000D01*
X44519468Y-72913565D01*
X44519468Y-72913565D01*
G37*
G36*
X46394468Y-72913565D02*
G01*
X46433138Y-72925296D01*
X46468777Y-72944346D01*
X46500017Y-72969983D01*
X46525654Y-73001223D01*
X46544704Y-73036862D01*
X46556435Y-73075532D01*
X46561000Y-73121888D01*
X46561000Y-74198112D01*
X46556435Y-74244468D01*
X46544704Y-74283138D01*
X46525654Y-74318777D01*
X46500017Y-74350017D01*
X46468777Y-74375654D01*
X46433138Y-74394704D01*
X46394468Y-74406435D01*
X46348112Y-74411000D01*
X45696888Y-74411000D01*
X45650532Y-74406435D01*
X45611862Y-74394704D01*
X45576223Y-74375654D01*
X45544983Y-74350017D01*
X45519346Y-74318777D01*
X45500296Y-74283138D01*
X45488565Y-74244468D01*
X45484000Y-74198112D01*
X45484000Y-73121888D01*
X45488565Y-73075532D01*
X45500296Y-73036862D01*
X45519346Y-73001223D01*
X45544983Y-72969983D01*
X45576223Y-72944346D01*
X45611862Y-72925296D01*
X45650532Y-72913565D01*
X45696888Y-72909000D01*
X46348112Y-72909000D01*
X46394468Y-72913565D01*
X46394468Y-72913565D01*
G37*
G36*
X57854468Y-72913565D02*
G01*
X57893138Y-72925296D01*
X57928777Y-72944346D01*
X57960017Y-72969983D01*
X57985654Y-73001223D01*
X58004704Y-73036862D01*
X58016435Y-73075532D01*
X58021000Y-73121888D01*
X58021000Y-74198112D01*
X58016435Y-74244468D01*
X58004704Y-74283138D01*
X57985654Y-74318777D01*
X57960017Y-74350017D01*
X57928777Y-74375654D01*
X57893138Y-74394704D01*
X57854468Y-74406435D01*
X57808112Y-74411000D01*
X57156888Y-74411000D01*
X57110532Y-74406435D01*
X57071862Y-74394704D01*
X57036223Y-74375654D01*
X57004983Y-74350017D01*
X56979346Y-74318777D01*
X56960296Y-74283138D01*
X56948565Y-74244468D01*
X56944000Y-74198112D01*
X56944000Y-73121888D01*
X56948565Y-73075532D01*
X56960296Y-73036862D01*
X56979346Y-73001223D01*
X57004983Y-72969983D01*
X57036223Y-72944346D01*
X57071862Y-72925296D01*
X57110532Y-72913565D01*
X57156888Y-72909000D01*
X57808112Y-72909000D01*
X57854468Y-72913565D01*
X57854468Y-72913565D01*
G37*
G36*
X71189468Y-72913565D02*
G01*
X71228138Y-72925296D01*
X71263777Y-72944346D01*
X71295017Y-72969983D01*
X71320654Y-73001223D01*
X71339704Y-73036862D01*
X71351435Y-73075532D01*
X71356000Y-73121888D01*
X71356000Y-74198112D01*
X71351435Y-74244468D01*
X71339704Y-74283138D01*
X71320654Y-74318777D01*
X71295017Y-74350017D01*
X71263777Y-74375654D01*
X71228138Y-74394704D01*
X71189468Y-74406435D01*
X71143112Y-74411000D01*
X70491888Y-74411000D01*
X70445532Y-74406435D01*
X70406862Y-74394704D01*
X70371223Y-74375654D01*
X70339983Y-74350017D01*
X70314346Y-74318777D01*
X70295296Y-74283138D01*
X70283565Y-74244468D01*
X70279000Y-74198112D01*
X70279000Y-73121888D01*
X70283565Y-73075532D01*
X70295296Y-73036862D01*
X70314346Y-73001223D01*
X70339983Y-72969983D01*
X70371223Y-72944346D01*
X70406862Y-72925296D01*
X70445532Y-72913565D01*
X70491888Y-72909000D01*
X71143112Y-72909000D01*
X71189468Y-72913565D01*
X71189468Y-72913565D01*
G37*
G36*
X73064468Y-72913565D02*
G01*
X73103138Y-72925296D01*
X73138777Y-72944346D01*
X73170017Y-72969983D01*
X73195654Y-73001223D01*
X73214704Y-73036862D01*
X73226435Y-73075532D01*
X73231000Y-73121888D01*
X73231000Y-74198112D01*
X73226435Y-74244468D01*
X73214704Y-74283138D01*
X73195654Y-74318777D01*
X73170017Y-74350017D01*
X73138777Y-74375654D01*
X73103138Y-74394704D01*
X73064468Y-74406435D01*
X73018112Y-74411000D01*
X72366888Y-74411000D01*
X72320532Y-74406435D01*
X72281862Y-74394704D01*
X72246223Y-74375654D01*
X72214983Y-74350017D01*
X72189346Y-74318777D01*
X72170296Y-74283138D01*
X72158565Y-74244468D01*
X72154000Y-74198112D01*
X72154000Y-73121888D01*
X72158565Y-73075532D01*
X72170296Y-73036862D01*
X72189346Y-73001223D01*
X72214983Y-72969983D01*
X72246223Y-72944346D01*
X72281862Y-72925296D01*
X72320532Y-72913565D01*
X72366888Y-72909000D01*
X73018112Y-72909000D01*
X73064468Y-72913565D01*
X73064468Y-72913565D01*
G37*
G36*
X85129468Y-72913565D02*
G01*
X85168138Y-72925296D01*
X85203777Y-72944346D01*
X85235017Y-72969983D01*
X85260654Y-73001223D01*
X85279704Y-73036862D01*
X85291435Y-73075532D01*
X85296000Y-73121888D01*
X85296000Y-74198112D01*
X85291435Y-74244468D01*
X85279704Y-74283138D01*
X85260654Y-74318777D01*
X85235017Y-74350017D01*
X85203777Y-74375654D01*
X85168138Y-74394704D01*
X85129468Y-74406435D01*
X85083112Y-74411000D01*
X84431888Y-74411000D01*
X84385532Y-74406435D01*
X84346862Y-74394704D01*
X84311223Y-74375654D01*
X84279983Y-74350017D01*
X84254346Y-74318777D01*
X84235296Y-74283138D01*
X84223565Y-74244468D01*
X84219000Y-74198112D01*
X84219000Y-73121888D01*
X84223565Y-73075532D01*
X84235296Y-73036862D01*
X84254346Y-73001223D01*
X84279983Y-72969983D01*
X84311223Y-72944346D01*
X84346862Y-72925296D01*
X84385532Y-72913565D01*
X84431888Y-72909000D01*
X85083112Y-72909000D01*
X85129468Y-72913565D01*
X85129468Y-72913565D01*
G37*
G36*
X80049468Y-71643565D02*
G01*
X80088138Y-71655296D01*
X80123777Y-71674346D01*
X80155017Y-71699983D01*
X80180654Y-71731223D01*
X80199704Y-71766862D01*
X80211435Y-71805532D01*
X80216000Y-71851888D01*
X80216000Y-72928112D01*
X80211435Y-72974468D01*
X80199704Y-73013138D01*
X80180654Y-73048777D01*
X80155017Y-73080017D01*
X80123777Y-73105654D01*
X80088138Y-73124704D01*
X80049468Y-73136435D01*
X80003112Y-73141000D01*
X79351888Y-73141000D01*
X79305532Y-73136435D01*
X79266862Y-73124704D01*
X79231223Y-73105654D01*
X79199983Y-73080017D01*
X79174346Y-73048777D01*
X79155296Y-73013138D01*
X79143565Y-72974468D01*
X79139000Y-72928112D01*
X79139000Y-71851888D01*
X79143565Y-71805532D01*
X79155296Y-71766862D01*
X79174346Y-71731223D01*
X79199983Y-71699983D01*
X79231223Y-71674346D01*
X79266862Y-71655296D01*
X79305532Y-71643565D01*
X79351888Y-71639000D01*
X80003112Y-71639000D01*
X80049468Y-71643565D01*
X80049468Y-71643565D01*
G37*
G36*
X78174468Y-71643565D02*
G01*
X78213138Y-71655296D01*
X78248777Y-71674346D01*
X78280017Y-71699983D01*
X78305654Y-71731223D01*
X78324704Y-71766862D01*
X78336435Y-71805532D01*
X78341000Y-71851888D01*
X78341000Y-72928112D01*
X78336435Y-72974468D01*
X78324704Y-73013138D01*
X78305654Y-73048777D01*
X78280017Y-73080017D01*
X78248777Y-73105654D01*
X78213138Y-73124704D01*
X78174468Y-73136435D01*
X78128112Y-73141000D01*
X77476888Y-73141000D01*
X77430532Y-73136435D01*
X77391862Y-73124704D01*
X77356223Y-73105654D01*
X77324983Y-73080017D01*
X77299346Y-73048777D01*
X77280296Y-73013138D01*
X77268565Y-72974468D01*
X77264000Y-72928112D01*
X77264000Y-71851888D01*
X77268565Y-71805532D01*
X77280296Y-71766862D01*
X77299346Y-71731223D01*
X77324983Y-71699983D01*
X77356223Y-71674346D01*
X77391862Y-71655296D01*
X77430532Y-71643565D01*
X77476888Y-71639000D01*
X78128112Y-71639000D01*
X78174468Y-71643565D01*
X78174468Y-71643565D01*
G37*
G36*
X117585442Y-70860518D02*
G01*
X117651627Y-70867037D01*
X117821466Y-70918557D01*
X117977991Y-71002222D01*
X117989737Y-71011862D01*
X118115186Y-71114814D01*
X118198448Y-71216271D01*
X118227778Y-71252009D01*
X118311443Y-71408534D01*
X118362963Y-71578373D01*
X118380359Y-71755000D01*
X118362963Y-71931627D01*
X118311443Y-72101466D01*
X118227778Y-72257991D01*
X118198448Y-72293729D01*
X118115186Y-72395186D01*
X118013729Y-72478448D01*
X117977991Y-72507778D01*
X117821466Y-72591443D01*
X117651627Y-72642963D01*
X117585443Y-72649481D01*
X117519260Y-72656000D01*
X117430740Y-72656000D01*
X117364557Y-72649481D01*
X117298373Y-72642963D01*
X117128534Y-72591443D01*
X116972009Y-72507778D01*
X116936271Y-72478448D01*
X116834814Y-72395186D01*
X116751552Y-72293729D01*
X116722222Y-72257991D01*
X116638557Y-72101466D01*
X116587037Y-71931627D01*
X116569641Y-71755000D01*
X116587037Y-71578373D01*
X116638557Y-71408534D01*
X116722222Y-71252009D01*
X116751552Y-71216271D01*
X116834814Y-71114814D01*
X116960263Y-71011862D01*
X116972009Y-71002222D01*
X117128534Y-70918557D01*
X117298373Y-70867037D01*
X117364558Y-70860518D01*
X117430740Y-70854000D01*
X117519260Y-70854000D01*
X117585442Y-70860518D01*
X117585442Y-70860518D01*
G37*
G36*
X125840442Y-70860518D02*
G01*
X125906627Y-70867037D01*
X126076466Y-70918557D01*
X126232991Y-71002222D01*
X126244737Y-71011862D01*
X126370186Y-71114814D01*
X126453448Y-71216271D01*
X126482778Y-71252009D01*
X126566443Y-71408534D01*
X126617963Y-71578373D01*
X126635359Y-71755000D01*
X126617963Y-71931627D01*
X126566443Y-72101466D01*
X126482778Y-72257991D01*
X126453448Y-72293729D01*
X126370186Y-72395186D01*
X126268729Y-72478448D01*
X126232991Y-72507778D01*
X126076466Y-72591443D01*
X125906627Y-72642963D01*
X125840443Y-72649481D01*
X125774260Y-72656000D01*
X125685740Y-72656000D01*
X125619557Y-72649481D01*
X125553373Y-72642963D01*
X125383534Y-72591443D01*
X125227009Y-72507778D01*
X125191271Y-72478448D01*
X125089814Y-72395186D01*
X125006552Y-72293729D01*
X124977222Y-72257991D01*
X124893557Y-72101466D01*
X124842037Y-71931627D01*
X124824641Y-71755000D01*
X124842037Y-71578373D01*
X124893557Y-71408534D01*
X124977222Y-71252009D01*
X125006552Y-71216271D01*
X125089814Y-71114814D01*
X125215263Y-71011862D01*
X125227009Y-71002222D01*
X125383534Y-70918557D01*
X125553373Y-70867037D01*
X125619558Y-70860518D01*
X125685740Y-70854000D01*
X125774260Y-70854000D01*
X125840442Y-70860518D01*
X125840442Y-70860518D01*
G37*
G36*
X62179468Y-70888565D02*
G01*
X62218138Y-70900296D01*
X62253777Y-70919346D01*
X62285017Y-70944983D01*
X62310654Y-70976223D01*
X62329704Y-71011862D01*
X62341435Y-71050532D01*
X62346000Y-71096888D01*
X62346000Y-71748112D01*
X62341435Y-71794468D01*
X62329704Y-71833138D01*
X62310654Y-71868777D01*
X62285017Y-71900017D01*
X62253777Y-71925654D01*
X62218138Y-71944704D01*
X62179468Y-71956435D01*
X62133112Y-71961000D01*
X61056888Y-71961000D01*
X61010532Y-71956435D01*
X60971862Y-71944704D01*
X60936223Y-71925654D01*
X60904983Y-71900017D01*
X60879346Y-71868777D01*
X60860296Y-71833138D01*
X60848565Y-71794468D01*
X60844000Y-71748112D01*
X60844000Y-71096888D01*
X60848565Y-71050532D01*
X60860296Y-71011862D01*
X60879346Y-70976223D01*
X60904983Y-70944983D01*
X60936223Y-70919346D01*
X60971862Y-70900296D01*
X61010532Y-70888565D01*
X61056888Y-70884000D01*
X62133112Y-70884000D01*
X62179468Y-70888565D01*
X62179468Y-70888565D01*
G37*
G36*
X51384468Y-70888565D02*
G01*
X51423138Y-70900296D01*
X51458777Y-70919346D01*
X51490017Y-70944983D01*
X51515654Y-70976223D01*
X51534704Y-71011862D01*
X51546435Y-71050532D01*
X51551000Y-71096888D01*
X51551000Y-71748112D01*
X51546435Y-71794468D01*
X51534704Y-71833138D01*
X51515654Y-71868777D01*
X51490017Y-71900017D01*
X51458777Y-71925654D01*
X51423138Y-71944704D01*
X51384468Y-71956435D01*
X51338112Y-71961000D01*
X50261888Y-71961000D01*
X50215532Y-71956435D01*
X50176862Y-71944704D01*
X50141223Y-71925654D01*
X50109983Y-71900017D01*
X50084346Y-71868777D01*
X50065296Y-71833138D01*
X50053565Y-71794468D01*
X50049000Y-71748112D01*
X50049000Y-71096888D01*
X50053565Y-71050532D01*
X50065296Y-71011862D01*
X50084346Y-70976223D01*
X50109983Y-70944983D01*
X50141223Y-70919346D01*
X50176862Y-70900296D01*
X50215532Y-70888565D01*
X50261888Y-70884000D01*
X51338112Y-70884000D01*
X51384468Y-70888565D01*
X51384468Y-70888565D01*
G37*
G36*
X48844468Y-70888565D02*
G01*
X48883138Y-70900296D01*
X48918777Y-70919346D01*
X48950017Y-70944983D01*
X48975654Y-70976223D01*
X48994704Y-71011862D01*
X49006435Y-71050532D01*
X49011000Y-71096888D01*
X49011000Y-71748112D01*
X49006435Y-71794468D01*
X48994704Y-71833138D01*
X48975654Y-71868777D01*
X48950017Y-71900017D01*
X48918777Y-71925654D01*
X48883138Y-71944704D01*
X48844468Y-71956435D01*
X48798112Y-71961000D01*
X47721888Y-71961000D01*
X47675532Y-71956435D01*
X47636862Y-71944704D01*
X47601223Y-71925654D01*
X47569983Y-71900017D01*
X47544346Y-71868777D01*
X47525296Y-71833138D01*
X47513565Y-71794468D01*
X47509000Y-71748112D01*
X47509000Y-71096888D01*
X47513565Y-71050532D01*
X47525296Y-71011862D01*
X47544346Y-70976223D01*
X47569983Y-70944983D01*
X47601223Y-70919346D01*
X47636862Y-70900296D01*
X47675532Y-70888565D01*
X47721888Y-70884000D01*
X48798112Y-70884000D01*
X48844468Y-70888565D01*
X48844468Y-70888565D01*
G37*
G36*
X53924468Y-70888565D02*
G01*
X53963138Y-70900296D01*
X53998777Y-70919346D01*
X54030017Y-70944983D01*
X54055654Y-70976223D01*
X54074704Y-71011862D01*
X54086435Y-71050532D01*
X54091000Y-71096888D01*
X54091000Y-71748112D01*
X54086435Y-71794468D01*
X54074704Y-71833138D01*
X54055654Y-71868777D01*
X54030017Y-71900017D01*
X53998777Y-71925654D01*
X53963138Y-71944704D01*
X53924468Y-71956435D01*
X53878112Y-71961000D01*
X52801888Y-71961000D01*
X52755532Y-71956435D01*
X52716862Y-71944704D01*
X52681223Y-71925654D01*
X52649983Y-71900017D01*
X52624346Y-71868777D01*
X52605296Y-71833138D01*
X52593565Y-71794468D01*
X52589000Y-71748112D01*
X52589000Y-71096888D01*
X52593565Y-71050532D01*
X52605296Y-71011862D01*
X52624346Y-70976223D01*
X52649983Y-70944983D01*
X52681223Y-70919346D01*
X52716862Y-70900296D01*
X52755532Y-70888565D01*
X52801888Y-70884000D01*
X53878112Y-70884000D01*
X53924468Y-70888565D01*
X53924468Y-70888565D01*
G37*
G36*
X64719468Y-70888565D02*
G01*
X64758138Y-70900296D01*
X64793777Y-70919346D01*
X64825017Y-70944983D01*
X64850654Y-70976223D01*
X64869704Y-71011862D01*
X64881435Y-71050532D01*
X64886000Y-71096888D01*
X64886000Y-71748112D01*
X64881435Y-71794468D01*
X64869704Y-71833138D01*
X64850654Y-71868777D01*
X64825017Y-71900017D01*
X64793777Y-71925654D01*
X64758138Y-71944704D01*
X64719468Y-71956435D01*
X64673112Y-71961000D01*
X63596888Y-71961000D01*
X63550532Y-71956435D01*
X63511862Y-71944704D01*
X63476223Y-71925654D01*
X63444983Y-71900017D01*
X63419346Y-71868777D01*
X63400296Y-71833138D01*
X63388565Y-71794468D01*
X63384000Y-71748112D01*
X63384000Y-71096888D01*
X63388565Y-71050532D01*
X63400296Y-71011862D01*
X63419346Y-70976223D01*
X63444983Y-70944983D01*
X63476223Y-70919346D01*
X63511862Y-70900296D01*
X63550532Y-70888565D01*
X63596888Y-70884000D01*
X64673112Y-70884000D01*
X64719468Y-70888565D01*
X64719468Y-70888565D01*
G37*
G36*
X37414468Y-70888565D02*
G01*
X37453138Y-70900296D01*
X37488777Y-70919346D01*
X37520017Y-70944983D01*
X37545654Y-70976223D01*
X37564704Y-71011862D01*
X37576435Y-71050532D01*
X37581000Y-71096888D01*
X37581000Y-71748112D01*
X37576435Y-71794468D01*
X37564704Y-71833138D01*
X37545654Y-71868777D01*
X37520017Y-71900017D01*
X37488777Y-71925654D01*
X37453138Y-71944704D01*
X37414468Y-71956435D01*
X37368112Y-71961000D01*
X36291888Y-71961000D01*
X36245532Y-71956435D01*
X36206862Y-71944704D01*
X36171223Y-71925654D01*
X36139983Y-71900017D01*
X36114346Y-71868777D01*
X36095296Y-71833138D01*
X36083565Y-71794468D01*
X36079000Y-71748112D01*
X36079000Y-71096888D01*
X36083565Y-71050532D01*
X36095296Y-71011862D01*
X36114346Y-70976223D01*
X36139983Y-70944983D01*
X36171223Y-70919346D01*
X36206862Y-70900296D01*
X36245532Y-70888565D01*
X36291888Y-70884000D01*
X37368112Y-70884000D01*
X37414468Y-70888565D01*
X37414468Y-70888565D01*
G37*
G36*
X67259468Y-70888565D02*
G01*
X67298138Y-70900296D01*
X67333777Y-70919346D01*
X67365017Y-70944983D01*
X67390654Y-70976223D01*
X67409704Y-71011862D01*
X67421435Y-71050532D01*
X67426000Y-71096888D01*
X67426000Y-71748112D01*
X67421435Y-71794468D01*
X67409704Y-71833138D01*
X67390654Y-71868777D01*
X67365017Y-71900017D01*
X67333777Y-71925654D01*
X67298138Y-71944704D01*
X67259468Y-71956435D01*
X67213112Y-71961000D01*
X66136888Y-71961000D01*
X66090532Y-71956435D01*
X66051862Y-71944704D01*
X66016223Y-71925654D01*
X65984983Y-71900017D01*
X65959346Y-71868777D01*
X65940296Y-71833138D01*
X65928565Y-71794468D01*
X65924000Y-71748112D01*
X65924000Y-71096888D01*
X65928565Y-71050532D01*
X65940296Y-71011862D01*
X65959346Y-70976223D01*
X65984983Y-70944983D01*
X66016223Y-70919346D01*
X66051862Y-70900296D01*
X66090532Y-70888565D01*
X66136888Y-70884000D01*
X67213112Y-70884000D01*
X67259468Y-70888565D01*
X67259468Y-70888565D01*
G37*
G36*
X42494468Y-70888565D02*
G01*
X42533138Y-70900296D01*
X42568777Y-70919346D01*
X42600017Y-70944983D01*
X42625654Y-70976223D01*
X42644704Y-71011862D01*
X42656435Y-71050532D01*
X42661000Y-71096888D01*
X42661000Y-71748112D01*
X42656435Y-71794468D01*
X42644704Y-71833138D01*
X42625654Y-71868777D01*
X42600017Y-71900017D01*
X42568777Y-71925654D01*
X42533138Y-71944704D01*
X42494468Y-71956435D01*
X42448112Y-71961000D01*
X41371888Y-71961000D01*
X41325532Y-71956435D01*
X41286862Y-71944704D01*
X41251223Y-71925654D01*
X41219983Y-71900017D01*
X41194346Y-71868777D01*
X41175296Y-71833138D01*
X41163565Y-71794468D01*
X41159000Y-71748112D01*
X41159000Y-71096888D01*
X41163565Y-71050532D01*
X41175296Y-71011862D01*
X41194346Y-70976223D01*
X41219983Y-70944983D01*
X41251223Y-70919346D01*
X41286862Y-70900296D01*
X41325532Y-70888565D01*
X41371888Y-70884000D01*
X42448112Y-70884000D01*
X42494468Y-70888565D01*
X42494468Y-70888565D01*
G37*
G36*
X39954468Y-70888565D02*
G01*
X39993138Y-70900296D01*
X40028777Y-70919346D01*
X40060017Y-70944983D01*
X40085654Y-70976223D01*
X40104704Y-71011862D01*
X40116435Y-71050532D01*
X40121000Y-71096888D01*
X40121000Y-71748112D01*
X40116435Y-71794468D01*
X40104704Y-71833138D01*
X40085654Y-71868777D01*
X40060017Y-71900017D01*
X40028777Y-71925654D01*
X39993138Y-71944704D01*
X39954468Y-71956435D01*
X39908112Y-71961000D01*
X38831888Y-71961000D01*
X38785532Y-71956435D01*
X38746862Y-71944704D01*
X38711223Y-71925654D01*
X38679983Y-71900017D01*
X38654346Y-71868777D01*
X38635296Y-71833138D01*
X38623565Y-71794468D01*
X38619000Y-71748112D01*
X38619000Y-71096888D01*
X38623565Y-71050532D01*
X38635296Y-71011862D01*
X38654346Y-70976223D01*
X38679983Y-70944983D01*
X38711223Y-70919346D01*
X38746862Y-70900296D01*
X38785532Y-70888565D01*
X38831888Y-70884000D01*
X39908112Y-70884000D01*
X39954468Y-70888565D01*
X39954468Y-70888565D01*
G37*
G36*
X77419468Y-69618565D02*
G01*
X77458138Y-69630296D01*
X77493777Y-69649346D01*
X77525017Y-69674983D01*
X77550654Y-69706223D01*
X77569704Y-69741862D01*
X77581435Y-69780532D01*
X77586000Y-69826888D01*
X77586000Y-70478112D01*
X77581435Y-70524468D01*
X77569704Y-70563138D01*
X77550654Y-70598777D01*
X77525017Y-70630017D01*
X77493777Y-70655654D01*
X77458138Y-70674704D01*
X77419468Y-70686435D01*
X77373112Y-70691000D01*
X76296888Y-70691000D01*
X76250532Y-70686435D01*
X76211862Y-70674704D01*
X76176223Y-70655654D01*
X76144983Y-70630017D01*
X76119346Y-70598777D01*
X76100296Y-70563138D01*
X76088565Y-70524468D01*
X76084000Y-70478112D01*
X76084000Y-69826888D01*
X76088565Y-69780532D01*
X76100296Y-69741862D01*
X76119346Y-69706223D01*
X76144983Y-69674983D01*
X76176223Y-69649346D01*
X76211862Y-69630296D01*
X76250532Y-69618565D01*
X76296888Y-69614000D01*
X77373112Y-69614000D01*
X77419468Y-69618565D01*
X77419468Y-69618565D01*
G37*
G36*
X74879468Y-69618565D02*
G01*
X74918138Y-69630296D01*
X74953777Y-69649346D01*
X74985017Y-69674983D01*
X75010654Y-69706223D01*
X75029704Y-69741862D01*
X75041435Y-69780532D01*
X75046000Y-69826888D01*
X75046000Y-70478112D01*
X75041435Y-70524468D01*
X75029704Y-70563138D01*
X75010654Y-70598777D01*
X74985017Y-70630017D01*
X74953777Y-70655654D01*
X74918138Y-70674704D01*
X74879468Y-70686435D01*
X74833112Y-70691000D01*
X73756888Y-70691000D01*
X73710532Y-70686435D01*
X73671862Y-70674704D01*
X73636223Y-70655654D01*
X73604983Y-70630017D01*
X73579346Y-70598777D01*
X73560296Y-70563138D01*
X73548565Y-70524468D01*
X73544000Y-70478112D01*
X73544000Y-69826888D01*
X73548565Y-69780532D01*
X73560296Y-69741862D01*
X73579346Y-69706223D01*
X73604983Y-69674983D01*
X73636223Y-69649346D01*
X73671862Y-69630296D01*
X73710532Y-69618565D01*
X73756888Y-69614000D01*
X74833112Y-69614000D01*
X74879468Y-69618565D01*
X74879468Y-69618565D01*
G37*
G36*
X81319468Y-69103565D02*
G01*
X81358138Y-69115296D01*
X81393777Y-69134346D01*
X81425017Y-69159983D01*
X81450654Y-69191223D01*
X81469704Y-69226862D01*
X81481435Y-69265532D01*
X81486000Y-69311888D01*
X81486000Y-70388112D01*
X81481435Y-70434468D01*
X81469704Y-70473138D01*
X81450654Y-70508777D01*
X81425017Y-70540017D01*
X81393777Y-70565654D01*
X81358138Y-70584704D01*
X81319468Y-70596435D01*
X81273112Y-70601000D01*
X80621888Y-70601000D01*
X80575532Y-70596435D01*
X80536862Y-70584704D01*
X80501223Y-70565654D01*
X80469983Y-70540017D01*
X80444346Y-70508777D01*
X80425296Y-70473138D01*
X80413565Y-70434468D01*
X80409000Y-70388112D01*
X80409000Y-69311888D01*
X80413565Y-69265532D01*
X80425296Y-69226862D01*
X80444346Y-69191223D01*
X80469983Y-69159983D01*
X80501223Y-69134346D01*
X80536862Y-69115296D01*
X80575532Y-69103565D01*
X80621888Y-69099000D01*
X81273112Y-69099000D01*
X81319468Y-69103565D01*
X81319468Y-69103565D01*
G37*
G36*
X79444468Y-69103565D02*
G01*
X79483138Y-69115296D01*
X79518777Y-69134346D01*
X79550017Y-69159983D01*
X79575654Y-69191223D01*
X79594704Y-69226862D01*
X79606435Y-69265532D01*
X79611000Y-69311888D01*
X79611000Y-70388112D01*
X79606435Y-70434468D01*
X79594704Y-70473138D01*
X79575654Y-70508777D01*
X79550017Y-70540017D01*
X79518777Y-70565654D01*
X79483138Y-70584704D01*
X79444468Y-70596435D01*
X79398112Y-70601000D01*
X78746888Y-70601000D01*
X78700532Y-70596435D01*
X78661862Y-70584704D01*
X78626223Y-70565654D01*
X78594983Y-70540017D01*
X78569346Y-70508777D01*
X78550296Y-70473138D01*
X78538565Y-70434468D01*
X78534000Y-70388112D01*
X78534000Y-69311888D01*
X78538565Y-69265532D01*
X78550296Y-69226862D01*
X78569346Y-69191223D01*
X78594983Y-69159983D01*
X78626223Y-69134346D01*
X78661862Y-69115296D01*
X78700532Y-69103565D01*
X78746888Y-69099000D01*
X79398112Y-69099000D01*
X79444468Y-69103565D01*
X79444468Y-69103565D01*
G37*
G36*
X48844468Y-69013565D02*
G01*
X48883138Y-69025296D01*
X48918777Y-69044346D01*
X48950017Y-69069983D01*
X48975654Y-69101223D01*
X48994704Y-69136862D01*
X49006435Y-69175532D01*
X49011000Y-69221888D01*
X49011000Y-69873112D01*
X49006435Y-69919468D01*
X48994704Y-69958138D01*
X48975654Y-69993777D01*
X48950017Y-70025017D01*
X48918777Y-70050654D01*
X48883138Y-70069704D01*
X48844468Y-70081435D01*
X48798112Y-70086000D01*
X47721888Y-70086000D01*
X47675532Y-70081435D01*
X47636862Y-70069704D01*
X47601223Y-70050654D01*
X47569983Y-70025017D01*
X47544346Y-69993777D01*
X47525296Y-69958138D01*
X47513565Y-69919468D01*
X47509000Y-69873112D01*
X47509000Y-69221888D01*
X47513565Y-69175532D01*
X47525296Y-69136862D01*
X47544346Y-69101223D01*
X47569983Y-69069983D01*
X47601223Y-69044346D01*
X47636862Y-69025296D01*
X47675532Y-69013565D01*
X47721888Y-69009000D01*
X48798112Y-69009000D01*
X48844468Y-69013565D01*
X48844468Y-69013565D01*
G37*
G36*
X42494468Y-69013565D02*
G01*
X42533138Y-69025296D01*
X42568777Y-69044346D01*
X42600017Y-69069983D01*
X42625654Y-69101223D01*
X42644704Y-69136862D01*
X42656435Y-69175532D01*
X42661000Y-69221888D01*
X42661000Y-69873112D01*
X42656435Y-69919468D01*
X42644704Y-69958138D01*
X42625654Y-69993777D01*
X42600017Y-70025017D01*
X42568777Y-70050654D01*
X42533138Y-70069704D01*
X42494468Y-70081435D01*
X42448112Y-70086000D01*
X41371888Y-70086000D01*
X41325532Y-70081435D01*
X41286862Y-70069704D01*
X41251223Y-70050654D01*
X41219983Y-70025017D01*
X41194346Y-69993777D01*
X41175296Y-69958138D01*
X41163565Y-69919468D01*
X41159000Y-69873112D01*
X41159000Y-69221888D01*
X41163565Y-69175532D01*
X41175296Y-69136862D01*
X41194346Y-69101223D01*
X41219983Y-69069983D01*
X41251223Y-69044346D01*
X41286862Y-69025296D01*
X41325532Y-69013565D01*
X41371888Y-69009000D01*
X42448112Y-69009000D01*
X42494468Y-69013565D01*
X42494468Y-69013565D01*
G37*
G36*
X39954468Y-69013565D02*
G01*
X39993138Y-69025296D01*
X40028777Y-69044346D01*
X40060017Y-69069983D01*
X40085654Y-69101223D01*
X40104704Y-69136862D01*
X40116435Y-69175532D01*
X40121000Y-69221888D01*
X40121000Y-69873112D01*
X40116435Y-69919468D01*
X40104704Y-69958138D01*
X40085654Y-69993777D01*
X40060017Y-70025017D01*
X40028777Y-70050654D01*
X39993138Y-70069704D01*
X39954468Y-70081435D01*
X39908112Y-70086000D01*
X38831888Y-70086000D01*
X38785532Y-70081435D01*
X38746862Y-70069704D01*
X38711223Y-70050654D01*
X38679983Y-70025017D01*
X38654346Y-69993777D01*
X38635296Y-69958138D01*
X38623565Y-69919468D01*
X38619000Y-69873112D01*
X38619000Y-69221888D01*
X38623565Y-69175532D01*
X38635296Y-69136862D01*
X38654346Y-69101223D01*
X38679983Y-69069983D01*
X38711223Y-69044346D01*
X38746862Y-69025296D01*
X38785532Y-69013565D01*
X38831888Y-69009000D01*
X39908112Y-69009000D01*
X39954468Y-69013565D01*
X39954468Y-69013565D01*
G37*
G36*
X37414468Y-69013565D02*
G01*
X37453138Y-69025296D01*
X37488777Y-69044346D01*
X37520017Y-69069983D01*
X37545654Y-69101223D01*
X37564704Y-69136862D01*
X37576435Y-69175532D01*
X37581000Y-69221888D01*
X37581000Y-69873112D01*
X37576435Y-69919468D01*
X37564704Y-69958138D01*
X37545654Y-69993777D01*
X37520017Y-70025017D01*
X37488777Y-70050654D01*
X37453138Y-70069704D01*
X37414468Y-70081435D01*
X37368112Y-70086000D01*
X36291888Y-70086000D01*
X36245532Y-70081435D01*
X36206862Y-70069704D01*
X36171223Y-70050654D01*
X36139983Y-70025017D01*
X36114346Y-69993777D01*
X36095296Y-69958138D01*
X36083565Y-69919468D01*
X36079000Y-69873112D01*
X36079000Y-69221888D01*
X36083565Y-69175532D01*
X36095296Y-69136862D01*
X36114346Y-69101223D01*
X36139983Y-69069983D01*
X36171223Y-69044346D01*
X36206862Y-69025296D01*
X36245532Y-69013565D01*
X36291888Y-69009000D01*
X37368112Y-69009000D01*
X37414468Y-69013565D01*
X37414468Y-69013565D01*
G37*
G36*
X51384468Y-69013565D02*
G01*
X51423138Y-69025296D01*
X51458777Y-69044346D01*
X51490017Y-69069983D01*
X51515654Y-69101223D01*
X51534704Y-69136862D01*
X51546435Y-69175532D01*
X51551000Y-69221888D01*
X51551000Y-69873112D01*
X51546435Y-69919468D01*
X51534704Y-69958138D01*
X51515654Y-69993777D01*
X51490017Y-70025017D01*
X51458777Y-70050654D01*
X51423138Y-70069704D01*
X51384468Y-70081435D01*
X51338112Y-70086000D01*
X50261888Y-70086000D01*
X50215532Y-70081435D01*
X50176862Y-70069704D01*
X50141223Y-70050654D01*
X50109983Y-70025017D01*
X50084346Y-69993777D01*
X50065296Y-69958138D01*
X50053565Y-69919468D01*
X50049000Y-69873112D01*
X50049000Y-69221888D01*
X50053565Y-69175532D01*
X50065296Y-69136862D01*
X50084346Y-69101223D01*
X50109983Y-69069983D01*
X50141223Y-69044346D01*
X50176862Y-69025296D01*
X50215532Y-69013565D01*
X50261888Y-69009000D01*
X51338112Y-69009000D01*
X51384468Y-69013565D01*
X51384468Y-69013565D01*
G37*
G36*
X64719468Y-69013565D02*
G01*
X64758138Y-69025296D01*
X64793777Y-69044346D01*
X64825017Y-69069983D01*
X64850654Y-69101223D01*
X64869704Y-69136862D01*
X64881435Y-69175532D01*
X64886000Y-69221888D01*
X64886000Y-69873112D01*
X64881435Y-69919468D01*
X64869704Y-69958138D01*
X64850654Y-69993777D01*
X64825017Y-70025017D01*
X64793777Y-70050654D01*
X64758138Y-70069704D01*
X64719468Y-70081435D01*
X64673112Y-70086000D01*
X63596888Y-70086000D01*
X63550532Y-70081435D01*
X63511862Y-70069704D01*
X63476223Y-70050654D01*
X63444983Y-70025017D01*
X63419346Y-69993777D01*
X63400296Y-69958138D01*
X63388565Y-69919468D01*
X63384000Y-69873112D01*
X63384000Y-69221888D01*
X63388565Y-69175532D01*
X63400296Y-69136862D01*
X63419346Y-69101223D01*
X63444983Y-69069983D01*
X63476223Y-69044346D01*
X63511862Y-69025296D01*
X63550532Y-69013565D01*
X63596888Y-69009000D01*
X64673112Y-69009000D01*
X64719468Y-69013565D01*
X64719468Y-69013565D01*
G37*
G36*
X67259468Y-69013565D02*
G01*
X67298138Y-69025296D01*
X67333777Y-69044346D01*
X67365017Y-69069983D01*
X67390654Y-69101223D01*
X67409704Y-69136862D01*
X67421435Y-69175532D01*
X67426000Y-69221888D01*
X67426000Y-69873112D01*
X67421435Y-69919468D01*
X67409704Y-69958138D01*
X67390654Y-69993777D01*
X67365017Y-70025017D01*
X67333777Y-70050654D01*
X67298138Y-70069704D01*
X67259468Y-70081435D01*
X67213112Y-70086000D01*
X66136888Y-70086000D01*
X66090532Y-70081435D01*
X66051862Y-70069704D01*
X66016223Y-70050654D01*
X65984983Y-70025017D01*
X65959346Y-69993777D01*
X65940296Y-69958138D01*
X65928565Y-69919468D01*
X65924000Y-69873112D01*
X65924000Y-69221888D01*
X65928565Y-69175532D01*
X65940296Y-69136862D01*
X65959346Y-69101223D01*
X65984983Y-69069983D01*
X66016223Y-69044346D01*
X66051862Y-69025296D01*
X66090532Y-69013565D01*
X66136888Y-69009000D01*
X67213112Y-69009000D01*
X67259468Y-69013565D01*
X67259468Y-69013565D01*
G37*
G36*
X62179468Y-69013565D02*
G01*
X62218138Y-69025296D01*
X62253777Y-69044346D01*
X62285017Y-69069983D01*
X62310654Y-69101223D01*
X62329704Y-69136862D01*
X62341435Y-69175532D01*
X62346000Y-69221888D01*
X62346000Y-69873112D01*
X62341435Y-69919468D01*
X62329704Y-69958138D01*
X62310654Y-69993777D01*
X62285017Y-70025017D01*
X62253777Y-70050654D01*
X62218138Y-70069704D01*
X62179468Y-70081435D01*
X62133112Y-70086000D01*
X61056888Y-70086000D01*
X61010532Y-70081435D01*
X60971862Y-70069704D01*
X60936223Y-70050654D01*
X60904983Y-70025017D01*
X60879346Y-69993777D01*
X60860296Y-69958138D01*
X60848565Y-69919468D01*
X60844000Y-69873112D01*
X60844000Y-69221888D01*
X60848565Y-69175532D01*
X60860296Y-69136862D01*
X60879346Y-69101223D01*
X60904983Y-69069983D01*
X60936223Y-69044346D01*
X60971862Y-69025296D01*
X61010532Y-69013565D01*
X61056888Y-69009000D01*
X62133112Y-69009000D01*
X62179468Y-69013565D01*
X62179468Y-69013565D01*
G37*
G36*
X53924468Y-69013565D02*
G01*
X53963138Y-69025296D01*
X53998777Y-69044346D01*
X54030017Y-69069983D01*
X54055654Y-69101223D01*
X54074704Y-69136862D01*
X54086435Y-69175532D01*
X54091000Y-69221888D01*
X54091000Y-69873112D01*
X54086435Y-69919468D01*
X54074704Y-69958138D01*
X54055654Y-69993777D01*
X54030017Y-70025017D01*
X53998777Y-70050654D01*
X53963138Y-70069704D01*
X53924468Y-70081435D01*
X53878112Y-70086000D01*
X52801888Y-70086000D01*
X52755532Y-70081435D01*
X52716862Y-70069704D01*
X52681223Y-70050654D01*
X52649983Y-70025017D01*
X52624346Y-69993777D01*
X52605296Y-69958138D01*
X52593565Y-69919468D01*
X52589000Y-69873112D01*
X52589000Y-69221888D01*
X52593565Y-69175532D01*
X52605296Y-69136862D01*
X52624346Y-69101223D01*
X52649983Y-69069983D01*
X52681223Y-69044346D01*
X52716862Y-69025296D01*
X52755532Y-69013565D01*
X52801888Y-69009000D01*
X53878112Y-69009000D01*
X53924468Y-69013565D01*
X53924468Y-69013565D01*
G37*
G36*
X32146000Y-69911000D02*
G01*
X27544000Y-69911000D01*
X27544000Y-68009000D01*
X32146000Y-68009000D01*
X32146000Y-69911000D01*
X32146000Y-69911000D01*
G37*
G36*
X24186000Y-69491000D02*
G01*
X21534000Y-69491000D01*
X21534000Y-67829000D01*
X24186000Y-67829000D01*
X24186000Y-69491000D01*
X24186000Y-69491000D01*
G37*
G36*
X20269468Y-68348565D02*
G01*
X20308138Y-68360296D01*
X20343777Y-68379346D01*
X20375017Y-68404983D01*
X20400654Y-68436223D01*
X20419704Y-68471862D01*
X20431435Y-68510532D01*
X20436000Y-68556888D01*
X20436000Y-69208112D01*
X20431435Y-69254468D01*
X20419704Y-69293138D01*
X20400654Y-69328777D01*
X20375017Y-69360017D01*
X20343777Y-69385654D01*
X20308138Y-69404704D01*
X20269468Y-69416435D01*
X20223112Y-69421000D01*
X19146888Y-69421000D01*
X19100532Y-69416435D01*
X19061862Y-69404704D01*
X19026223Y-69385654D01*
X18994983Y-69360017D01*
X18969346Y-69328777D01*
X18950296Y-69293138D01*
X18938565Y-69254468D01*
X18934000Y-69208112D01*
X18934000Y-68556888D01*
X18938565Y-68510532D01*
X18950296Y-68471862D01*
X18969346Y-68436223D01*
X18994983Y-68404983D01*
X19026223Y-68379346D01*
X19061862Y-68360296D01*
X19100532Y-68348565D01*
X19146888Y-68344000D01*
X20223112Y-68344000D01*
X20269468Y-68348565D01*
X20269468Y-68348565D01*
G37*
G36*
X74879468Y-67743565D02*
G01*
X74918138Y-67755296D01*
X74953777Y-67774346D01*
X74985017Y-67799983D01*
X75010654Y-67831223D01*
X75029704Y-67866862D01*
X75041435Y-67905532D01*
X75046000Y-67951888D01*
X75046000Y-68603112D01*
X75041435Y-68649468D01*
X75029704Y-68688138D01*
X75010654Y-68723777D01*
X74985017Y-68755017D01*
X74953777Y-68780654D01*
X74918138Y-68799704D01*
X74879468Y-68811435D01*
X74833112Y-68816000D01*
X73756888Y-68816000D01*
X73710532Y-68811435D01*
X73671862Y-68799704D01*
X73636223Y-68780654D01*
X73604983Y-68755017D01*
X73579346Y-68723777D01*
X73560296Y-68688138D01*
X73548565Y-68649468D01*
X73544000Y-68603112D01*
X73544000Y-67951888D01*
X73548565Y-67905532D01*
X73560296Y-67866862D01*
X73579346Y-67831223D01*
X73604983Y-67799983D01*
X73636223Y-67774346D01*
X73671862Y-67755296D01*
X73710532Y-67743565D01*
X73756888Y-67739000D01*
X74833112Y-67739000D01*
X74879468Y-67743565D01*
X74879468Y-67743565D01*
G37*
G36*
X77419468Y-67743565D02*
G01*
X77458138Y-67755296D01*
X77493777Y-67774346D01*
X77525017Y-67799983D01*
X77550654Y-67831223D01*
X77569704Y-67866862D01*
X77581435Y-67905532D01*
X77586000Y-67951888D01*
X77586000Y-68603112D01*
X77581435Y-68649468D01*
X77569704Y-68688138D01*
X77550654Y-68723777D01*
X77525017Y-68755017D01*
X77493777Y-68780654D01*
X77458138Y-68799704D01*
X77419468Y-68811435D01*
X77373112Y-68816000D01*
X76296888Y-68816000D01*
X76250532Y-68811435D01*
X76211862Y-68799704D01*
X76176223Y-68780654D01*
X76144983Y-68755017D01*
X76119346Y-68723777D01*
X76100296Y-68688138D01*
X76088565Y-68649468D01*
X76084000Y-68603112D01*
X76084000Y-67951888D01*
X76088565Y-67905532D01*
X76100296Y-67866862D01*
X76119346Y-67831223D01*
X76144983Y-67799983D01*
X76176223Y-67774346D01*
X76211862Y-67755296D01*
X76250532Y-67743565D01*
X76296888Y-67739000D01*
X77373112Y-67739000D01*
X77419468Y-67743565D01*
X77419468Y-67743565D01*
G37*
G36*
X26619468Y-67713565D02*
G01*
X26658138Y-67725296D01*
X26693777Y-67744346D01*
X26725017Y-67769983D01*
X26750654Y-67801223D01*
X26769704Y-67836862D01*
X26781435Y-67875532D01*
X26786000Y-67921888D01*
X26786000Y-68573112D01*
X26781435Y-68619468D01*
X26769704Y-68658138D01*
X26750654Y-68693777D01*
X26725017Y-68725017D01*
X26693777Y-68750654D01*
X26658138Y-68769704D01*
X26619468Y-68781435D01*
X26573112Y-68786000D01*
X25496888Y-68786000D01*
X25450532Y-68781435D01*
X25411862Y-68769704D01*
X25376223Y-68750654D01*
X25344983Y-68725017D01*
X25319346Y-68693777D01*
X25300296Y-68658138D01*
X25288565Y-68619468D01*
X25284000Y-68573112D01*
X25284000Y-67921888D01*
X25288565Y-67875532D01*
X25300296Y-67836862D01*
X25319346Y-67801223D01*
X25344983Y-67769983D01*
X25376223Y-67744346D01*
X25411862Y-67725296D01*
X25450532Y-67713565D01*
X25496888Y-67709000D01*
X26573112Y-67709000D01*
X26619468Y-67713565D01*
X26619468Y-67713565D01*
G37*
G36*
X99805443Y-65780519D02*
G01*
X99871627Y-65787037D01*
X100041466Y-65838557D01*
X100197991Y-65922222D01*
X100202866Y-65926223D01*
X100335186Y-66034814D01*
X100391349Y-66103250D01*
X100447778Y-66172009D01*
X100531443Y-66328534D01*
X100582963Y-66498373D01*
X100600359Y-66675000D01*
X100582963Y-66851627D01*
X100531443Y-67021466D01*
X100447778Y-67177991D01*
X100418448Y-67213729D01*
X100335186Y-67315186D01*
X100256467Y-67379788D01*
X100197991Y-67427778D01*
X100041466Y-67511443D01*
X99871627Y-67562963D01*
X99805443Y-67569481D01*
X99739260Y-67576000D01*
X99650740Y-67576000D01*
X99584557Y-67569481D01*
X99518373Y-67562963D01*
X99348534Y-67511443D01*
X99192009Y-67427778D01*
X99133533Y-67379788D01*
X99054814Y-67315186D01*
X98971552Y-67213729D01*
X98942222Y-67177991D01*
X98858557Y-67021466D01*
X98807037Y-66851627D01*
X98789641Y-66675000D01*
X98807037Y-66498373D01*
X98858557Y-66328534D01*
X98942222Y-66172009D01*
X98998651Y-66103250D01*
X99054814Y-66034814D01*
X99187134Y-65926223D01*
X99192009Y-65922222D01*
X99348534Y-65838557D01*
X99518373Y-65787037D01*
X99584557Y-65780519D01*
X99650740Y-65774000D01*
X99739260Y-65774000D01*
X99805443Y-65780519D01*
X99805443Y-65780519D01*
G37*
G36*
X102345443Y-65780519D02*
G01*
X102411627Y-65787037D01*
X102581466Y-65838557D01*
X102737991Y-65922222D01*
X102742866Y-65926223D01*
X102875186Y-66034814D01*
X102931349Y-66103250D01*
X102987778Y-66172009D01*
X103071443Y-66328534D01*
X103122963Y-66498373D01*
X103140359Y-66675000D01*
X103122963Y-66851627D01*
X103071443Y-67021466D01*
X102987778Y-67177991D01*
X102958448Y-67213729D01*
X102875186Y-67315186D01*
X102796467Y-67379788D01*
X102737991Y-67427778D01*
X102581466Y-67511443D01*
X102411627Y-67562963D01*
X102345443Y-67569481D01*
X102279260Y-67576000D01*
X102190740Y-67576000D01*
X102124557Y-67569481D01*
X102058373Y-67562963D01*
X101888534Y-67511443D01*
X101732009Y-67427778D01*
X101673533Y-67379788D01*
X101594814Y-67315186D01*
X101511552Y-67213729D01*
X101482222Y-67177991D01*
X101398557Y-67021466D01*
X101347037Y-66851627D01*
X101329641Y-66675000D01*
X101347037Y-66498373D01*
X101398557Y-66328534D01*
X101482222Y-66172009D01*
X101538651Y-66103250D01*
X101594814Y-66034814D01*
X101727134Y-65926223D01*
X101732009Y-65922222D01*
X101888534Y-65838557D01*
X102058373Y-65787037D01*
X102124557Y-65780519D01*
X102190740Y-65774000D01*
X102279260Y-65774000D01*
X102345443Y-65780519D01*
X102345443Y-65780519D01*
G37*
G36*
X104885443Y-65780519D02*
G01*
X104951627Y-65787037D01*
X105121466Y-65838557D01*
X105277991Y-65922222D01*
X105282866Y-65926223D01*
X105415186Y-66034814D01*
X105471349Y-66103250D01*
X105527778Y-66172009D01*
X105611443Y-66328534D01*
X105662963Y-66498373D01*
X105680359Y-66675000D01*
X105662963Y-66851627D01*
X105611443Y-67021466D01*
X105527778Y-67177991D01*
X105498448Y-67213729D01*
X105415186Y-67315186D01*
X105336467Y-67379788D01*
X105277991Y-67427778D01*
X105121466Y-67511443D01*
X104951627Y-67562963D01*
X104885443Y-67569481D01*
X104819260Y-67576000D01*
X104730740Y-67576000D01*
X104664557Y-67569481D01*
X104598373Y-67562963D01*
X104428534Y-67511443D01*
X104272009Y-67427778D01*
X104213533Y-67379788D01*
X104134814Y-67315186D01*
X104051552Y-67213729D01*
X104022222Y-67177991D01*
X103938557Y-67021466D01*
X103887037Y-66851627D01*
X103869641Y-66675000D01*
X103887037Y-66498373D01*
X103938557Y-66328534D01*
X104022222Y-66172009D01*
X104078651Y-66103250D01*
X104134814Y-66034814D01*
X104267134Y-65926223D01*
X104272009Y-65922222D01*
X104428534Y-65838557D01*
X104598373Y-65787037D01*
X104664557Y-65780519D01*
X104730740Y-65774000D01*
X104819260Y-65774000D01*
X104885443Y-65780519D01*
X104885443Y-65780519D01*
G37*
G36*
X107425443Y-65780519D02*
G01*
X107491627Y-65787037D01*
X107661466Y-65838557D01*
X107817991Y-65922222D01*
X107822866Y-65926223D01*
X107955186Y-66034814D01*
X108011349Y-66103250D01*
X108067778Y-66172009D01*
X108151443Y-66328534D01*
X108202963Y-66498373D01*
X108220359Y-66675000D01*
X108202963Y-66851627D01*
X108151443Y-67021466D01*
X108067778Y-67177991D01*
X108038448Y-67213729D01*
X107955186Y-67315186D01*
X107876467Y-67379788D01*
X107817991Y-67427778D01*
X107661466Y-67511443D01*
X107491627Y-67562963D01*
X107425443Y-67569481D01*
X107359260Y-67576000D01*
X107270740Y-67576000D01*
X107204557Y-67569481D01*
X107138373Y-67562963D01*
X106968534Y-67511443D01*
X106812009Y-67427778D01*
X106753533Y-67379788D01*
X106674814Y-67315186D01*
X106591552Y-67213729D01*
X106562222Y-67177991D01*
X106478557Y-67021466D01*
X106427037Y-66851627D01*
X106409641Y-66675000D01*
X106427037Y-66498373D01*
X106478557Y-66328534D01*
X106562222Y-66172009D01*
X106618651Y-66103250D01*
X106674814Y-66034814D01*
X106807134Y-65926223D01*
X106812009Y-65922222D01*
X106968534Y-65838557D01*
X107138373Y-65787037D01*
X107204557Y-65780519D01*
X107270740Y-65774000D01*
X107359260Y-65774000D01*
X107425443Y-65780519D01*
X107425443Y-65780519D01*
G37*
G36*
X109965443Y-65780519D02*
G01*
X110031627Y-65787037D01*
X110201466Y-65838557D01*
X110357991Y-65922222D01*
X110362866Y-65926223D01*
X110495186Y-66034814D01*
X110551349Y-66103250D01*
X110607778Y-66172009D01*
X110691443Y-66328534D01*
X110742963Y-66498373D01*
X110760359Y-66675000D01*
X110742963Y-66851627D01*
X110691443Y-67021466D01*
X110607778Y-67177991D01*
X110578448Y-67213729D01*
X110495186Y-67315186D01*
X110416467Y-67379788D01*
X110357991Y-67427778D01*
X110201466Y-67511443D01*
X110031627Y-67562963D01*
X109965443Y-67569481D01*
X109899260Y-67576000D01*
X109810740Y-67576000D01*
X109744557Y-67569481D01*
X109678373Y-67562963D01*
X109508534Y-67511443D01*
X109352009Y-67427778D01*
X109293533Y-67379788D01*
X109214814Y-67315186D01*
X109131552Y-67213729D01*
X109102222Y-67177991D01*
X109018557Y-67021466D01*
X108967037Y-66851627D01*
X108949641Y-66675000D01*
X108967037Y-66498373D01*
X109018557Y-66328534D01*
X109102222Y-66172009D01*
X109158651Y-66103250D01*
X109214814Y-66034814D01*
X109347134Y-65926223D01*
X109352009Y-65922222D01*
X109508534Y-65838557D01*
X109678373Y-65787037D01*
X109744557Y-65780519D01*
X109810740Y-65774000D01*
X109899260Y-65774000D01*
X109965443Y-65780519D01*
X109965443Y-65780519D01*
G37*
G36*
X113296000Y-67576000D02*
G01*
X111494000Y-67576000D01*
X111494000Y-65774000D01*
X113296000Y-65774000D01*
X113296000Y-67576000D01*
X113296000Y-67576000D01*
G37*
G36*
X89801000Y-67576000D02*
G01*
X87999000Y-67576000D01*
X87999000Y-65774000D01*
X89801000Y-65774000D01*
X89801000Y-67576000D01*
X89801000Y-67576000D01*
G37*
G36*
X97265443Y-65780519D02*
G01*
X97331627Y-65787037D01*
X97501466Y-65838557D01*
X97657991Y-65922222D01*
X97662866Y-65926223D01*
X97795186Y-66034814D01*
X97851349Y-66103250D01*
X97907778Y-66172009D01*
X97991443Y-66328534D01*
X98042963Y-66498373D01*
X98060359Y-66675000D01*
X98042963Y-66851627D01*
X97991443Y-67021466D01*
X97907778Y-67177991D01*
X97878448Y-67213729D01*
X97795186Y-67315186D01*
X97716467Y-67379788D01*
X97657991Y-67427778D01*
X97501466Y-67511443D01*
X97331627Y-67562963D01*
X97265443Y-67569481D01*
X97199260Y-67576000D01*
X97110740Y-67576000D01*
X97044557Y-67569481D01*
X96978373Y-67562963D01*
X96808534Y-67511443D01*
X96652009Y-67427778D01*
X96593533Y-67379788D01*
X96514814Y-67315186D01*
X96431552Y-67213729D01*
X96402222Y-67177991D01*
X96318557Y-67021466D01*
X96267037Y-66851627D01*
X96249641Y-66675000D01*
X96267037Y-66498373D01*
X96318557Y-66328534D01*
X96402222Y-66172009D01*
X96458651Y-66103250D01*
X96514814Y-66034814D01*
X96647134Y-65926223D01*
X96652009Y-65922222D01*
X96808534Y-65838557D01*
X96978373Y-65787037D01*
X97044557Y-65780519D01*
X97110740Y-65774000D01*
X97199260Y-65774000D01*
X97265443Y-65780519D01*
X97265443Y-65780519D01*
G37*
G36*
X94725443Y-65780519D02*
G01*
X94791627Y-65787037D01*
X94961466Y-65838557D01*
X95117991Y-65922222D01*
X95122866Y-65926223D01*
X95255186Y-66034814D01*
X95311349Y-66103250D01*
X95367778Y-66172009D01*
X95451443Y-66328534D01*
X95502963Y-66498373D01*
X95520359Y-66675000D01*
X95502963Y-66851627D01*
X95451443Y-67021466D01*
X95367778Y-67177991D01*
X95338448Y-67213729D01*
X95255186Y-67315186D01*
X95176467Y-67379788D01*
X95117991Y-67427778D01*
X94961466Y-67511443D01*
X94791627Y-67562963D01*
X94725443Y-67569481D01*
X94659260Y-67576000D01*
X94570740Y-67576000D01*
X94504557Y-67569481D01*
X94438373Y-67562963D01*
X94268534Y-67511443D01*
X94112009Y-67427778D01*
X94053533Y-67379788D01*
X93974814Y-67315186D01*
X93891552Y-67213729D01*
X93862222Y-67177991D01*
X93778557Y-67021466D01*
X93727037Y-66851627D01*
X93709641Y-66675000D01*
X93727037Y-66498373D01*
X93778557Y-66328534D01*
X93862222Y-66172009D01*
X93918651Y-66103250D01*
X93974814Y-66034814D01*
X94107134Y-65926223D01*
X94112009Y-65922222D01*
X94268534Y-65838557D01*
X94438373Y-65787037D01*
X94504557Y-65780519D01*
X94570740Y-65774000D01*
X94659260Y-65774000D01*
X94725443Y-65780519D01*
X94725443Y-65780519D01*
G37*
G36*
X86470443Y-65780519D02*
G01*
X86536627Y-65787037D01*
X86706466Y-65838557D01*
X86862991Y-65922222D01*
X86867866Y-65926223D01*
X87000186Y-66034814D01*
X87056349Y-66103250D01*
X87112778Y-66172009D01*
X87196443Y-66328534D01*
X87247963Y-66498373D01*
X87265359Y-66675000D01*
X87247963Y-66851627D01*
X87196443Y-67021466D01*
X87112778Y-67177991D01*
X87083448Y-67213729D01*
X87000186Y-67315186D01*
X86921467Y-67379788D01*
X86862991Y-67427778D01*
X86706466Y-67511443D01*
X86536627Y-67562963D01*
X86470443Y-67569481D01*
X86404260Y-67576000D01*
X86315740Y-67576000D01*
X86249557Y-67569481D01*
X86183373Y-67562963D01*
X86013534Y-67511443D01*
X85857009Y-67427778D01*
X85798533Y-67379788D01*
X85719814Y-67315186D01*
X85636552Y-67213729D01*
X85607222Y-67177991D01*
X85523557Y-67021466D01*
X85472037Y-66851627D01*
X85454641Y-66675000D01*
X85472037Y-66498373D01*
X85523557Y-66328534D01*
X85607222Y-66172009D01*
X85663651Y-66103250D01*
X85719814Y-66034814D01*
X85852134Y-65926223D01*
X85857009Y-65922222D01*
X86013534Y-65838557D01*
X86183373Y-65787037D01*
X86249557Y-65780519D01*
X86315740Y-65774000D01*
X86404260Y-65774000D01*
X86470443Y-65780519D01*
X86470443Y-65780519D01*
G37*
G36*
X83930443Y-65780519D02*
G01*
X83996627Y-65787037D01*
X84166466Y-65838557D01*
X84322991Y-65922222D01*
X84327866Y-65926223D01*
X84460186Y-66034814D01*
X84516349Y-66103250D01*
X84572778Y-66172009D01*
X84656443Y-66328534D01*
X84707963Y-66498373D01*
X84725359Y-66675000D01*
X84707963Y-66851627D01*
X84656443Y-67021466D01*
X84572778Y-67177991D01*
X84543448Y-67213729D01*
X84460186Y-67315186D01*
X84381467Y-67379788D01*
X84322991Y-67427778D01*
X84166466Y-67511443D01*
X83996627Y-67562963D01*
X83930443Y-67569481D01*
X83864260Y-67576000D01*
X83775740Y-67576000D01*
X83709557Y-67569481D01*
X83643373Y-67562963D01*
X83473534Y-67511443D01*
X83317009Y-67427778D01*
X83258533Y-67379788D01*
X83179814Y-67315186D01*
X83096552Y-67213729D01*
X83067222Y-67177991D01*
X82983557Y-67021466D01*
X82932037Y-66851627D01*
X82914641Y-66675000D01*
X82932037Y-66498373D01*
X82983557Y-66328534D01*
X83067222Y-66172009D01*
X83123651Y-66103250D01*
X83179814Y-66034814D01*
X83312134Y-65926223D01*
X83317009Y-65922222D01*
X83473534Y-65838557D01*
X83643373Y-65787037D01*
X83709557Y-65780519D01*
X83775740Y-65774000D01*
X83864260Y-65774000D01*
X83930443Y-65780519D01*
X83930443Y-65780519D01*
G37*
G36*
X81390443Y-65780519D02*
G01*
X81456627Y-65787037D01*
X81626466Y-65838557D01*
X81782991Y-65922222D01*
X81787866Y-65926223D01*
X81920186Y-66034814D01*
X81976349Y-66103250D01*
X82032778Y-66172009D01*
X82116443Y-66328534D01*
X82167963Y-66498373D01*
X82185359Y-66675000D01*
X82167963Y-66851627D01*
X82116443Y-67021466D01*
X82032778Y-67177991D01*
X82003448Y-67213729D01*
X81920186Y-67315186D01*
X81841467Y-67379788D01*
X81782991Y-67427778D01*
X81626466Y-67511443D01*
X81456627Y-67562963D01*
X81390443Y-67569481D01*
X81324260Y-67576000D01*
X81235740Y-67576000D01*
X81169557Y-67569481D01*
X81103373Y-67562963D01*
X80933534Y-67511443D01*
X80777009Y-67427778D01*
X80718533Y-67379788D01*
X80639814Y-67315186D01*
X80556552Y-67213729D01*
X80527222Y-67177991D01*
X80443557Y-67021466D01*
X80392037Y-66851627D01*
X80374641Y-66675000D01*
X80392037Y-66498373D01*
X80443557Y-66328534D01*
X80527222Y-66172009D01*
X80583651Y-66103250D01*
X80639814Y-66034814D01*
X80772134Y-65926223D01*
X80777009Y-65922222D01*
X80933534Y-65838557D01*
X81103373Y-65787037D01*
X81169557Y-65780519D01*
X81235740Y-65774000D01*
X81324260Y-65774000D01*
X81390443Y-65780519D01*
X81390443Y-65780519D01*
G37*
G36*
X20269468Y-66473565D02*
G01*
X20308138Y-66485296D01*
X20343777Y-66504346D01*
X20375017Y-66529983D01*
X20400654Y-66561223D01*
X20419704Y-66596862D01*
X20431435Y-66635532D01*
X20436000Y-66681888D01*
X20436000Y-67333112D01*
X20431435Y-67379468D01*
X20419704Y-67418138D01*
X20400654Y-67453777D01*
X20375017Y-67485017D01*
X20343777Y-67510654D01*
X20308138Y-67529704D01*
X20269468Y-67541435D01*
X20223112Y-67546000D01*
X19146888Y-67546000D01*
X19100532Y-67541435D01*
X19061862Y-67529704D01*
X19026223Y-67510654D01*
X18994983Y-67485017D01*
X18969346Y-67453777D01*
X18950296Y-67418138D01*
X18938565Y-67379468D01*
X18934000Y-67333112D01*
X18934000Y-66681888D01*
X18938565Y-66635532D01*
X18950296Y-66596862D01*
X18969346Y-66561223D01*
X18994983Y-66529983D01*
X19026223Y-66504346D01*
X19061862Y-66485296D01*
X19100532Y-66473565D01*
X19146888Y-66469000D01*
X20223112Y-66469000D01*
X20269468Y-66473565D01*
X20269468Y-66473565D01*
G37*
G36*
X26619468Y-65838565D02*
G01*
X26658138Y-65850296D01*
X26693777Y-65869346D01*
X26725017Y-65894983D01*
X26750654Y-65926223D01*
X26769704Y-65961862D01*
X26781435Y-66000532D01*
X26786000Y-66046888D01*
X26786000Y-66698112D01*
X26781435Y-66744468D01*
X26769704Y-66783138D01*
X26750654Y-66818777D01*
X26725017Y-66850017D01*
X26693777Y-66875654D01*
X26658138Y-66894704D01*
X26619468Y-66906435D01*
X26573112Y-66911000D01*
X25496888Y-66911000D01*
X25450532Y-66906435D01*
X25411862Y-66894704D01*
X25376223Y-66875654D01*
X25344983Y-66850017D01*
X25319346Y-66818777D01*
X25300296Y-66783138D01*
X25288565Y-66744468D01*
X25284000Y-66698112D01*
X25284000Y-66046888D01*
X25288565Y-66000532D01*
X25300296Y-65961862D01*
X25319346Y-65926223D01*
X25344983Y-65894983D01*
X25376223Y-65869346D01*
X25411862Y-65850296D01*
X25450532Y-65838565D01*
X25496888Y-65834000D01*
X26573112Y-65834000D01*
X26619468Y-65838565D01*
X26619468Y-65838565D01*
G37*
G36*
X24186000Y-66791000D02*
G01*
X21534000Y-66791000D01*
X21534000Y-65129000D01*
X24186000Y-65129000D01*
X24186000Y-66791000D01*
X24186000Y-66791000D01*
G37*
G36*
X32146000Y-66611000D02*
G01*
X27544000Y-66611000D01*
X27544000Y-64709000D01*
X32146000Y-64709000D01*
X32146000Y-66611000D01*
X32146000Y-66611000D01*
G37*
G36*
X30519468Y-62753565D02*
G01*
X30558138Y-62765296D01*
X30593777Y-62784346D01*
X30625017Y-62809983D01*
X30650654Y-62841223D01*
X30669704Y-62876862D01*
X30681435Y-62915532D01*
X30686000Y-62961888D01*
X30686000Y-64038112D01*
X30681435Y-64084468D01*
X30669704Y-64123138D01*
X30650654Y-64158777D01*
X30625017Y-64190017D01*
X30593777Y-64215654D01*
X30558138Y-64234704D01*
X30519468Y-64246435D01*
X30473112Y-64251000D01*
X29821888Y-64251000D01*
X29775532Y-64246435D01*
X29736862Y-64234704D01*
X29701223Y-64215654D01*
X29669983Y-64190017D01*
X29644346Y-64158777D01*
X29625296Y-64123138D01*
X29613565Y-64084468D01*
X29609000Y-64038112D01*
X29609000Y-62961888D01*
X29613565Y-62915532D01*
X29625296Y-62876862D01*
X29644346Y-62841223D01*
X29669983Y-62809983D01*
X29701223Y-62784346D01*
X29736862Y-62765296D01*
X29775532Y-62753565D01*
X29821888Y-62749000D01*
X30473112Y-62749000D01*
X30519468Y-62753565D01*
X30519468Y-62753565D01*
G37*
G36*
X20389468Y-62753565D02*
G01*
X20428138Y-62765296D01*
X20463777Y-62784346D01*
X20495017Y-62809983D01*
X20520654Y-62841223D01*
X20539704Y-62876862D01*
X20551435Y-62915532D01*
X20556000Y-62961888D01*
X20556000Y-64038112D01*
X20551435Y-64084468D01*
X20539704Y-64123138D01*
X20520654Y-64158777D01*
X20495017Y-64190017D01*
X20463777Y-64215654D01*
X20428138Y-64234704D01*
X20389468Y-64246435D01*
X20343112Y-64251000D01*
X19691888Y-64251000D01*
X19645532Y-64246435D01*
X19606862Y-64234704D01*
X19571223Y-64215654D01*
X19539983Y-64190017D01*
X19514346Y-64158777D01*
X19495296Y-64123138D01*
X19483565Y-64084468D01*
X19479000Y-64038112D01*
X19479000Y-62961888D01*
X19483565Y-62915532D01*
X19495296Y-62876862D01*
X19514346Y-62841223D01*
X19539983Y-62809983D01*
X19571223Y-62784346D01*
X19606862Y-62765296D01*
X19645532Y-62753565D01*
X19691888Y-62749000D01*
X20343112Y-62749000D01*
X20389468Y-62753565D01*
X20389468Y-62753565D01*
G37*
G36*
X28644468Y-62753565D02*
G01*
X28683138Y-62765296D01*
X28718777Y-62784346D01*
X28750017Y-62809983D01*
X28775654Y-62841223D01*
X28794704Y-62876862D01*
X28806435Y-62915532D01*
X28811000Y-62961888D01*
X28811000Y-64038112D01*
X28806435Y-64084468D01*
X28794704Y-64123138D01*
X28775654Y-64158777D01*
X28750017Y-64190017D01*
X28718777Y-64215654D01*
X28683138Y-64234704D01*
X28644468Y-64246435D01*
X28598112Y-64251000D01*
X27946888Y-64251000D01*
X27900532Y-64246435D01*
X27861862Y-64234704D01*
X27826223Y-64215654D01*
X27794983Y-64190017D01*
X27769346Y-64158777D01*
X27750296Y-64123138D01*
X27738565Y-64084468D01*
X27734000Y-64038112D01*
X27734000Y-62961888D01*
X27738565Y-62915532D01*
X27750296Y-62876862D01*
X27769346Y-62841223D01*
X27794983Y-62809983D01*
X27826223Y-62784346D01*
X27861862Y-62765296D01*
X27900532Y-62753565D01*
X27946888Y-62749000D01*
X28598112Y-62749000D01*
X28644468Y-62753565D01*
X28644468Y-62753565D01*
G37*
G36*
X26709468Y-62753565D02*
G01*
X26748138Y-62765296D01*
X26783777Y-62784346D01*
X26815017Y-62809983D01*
X26840654Y-62841223D01*
X26859704Y-62876862D01*
X26871435Y-62915532D01*
X26876000Y-62961888D01*
X26876000Y-64038112D01*
X26871435Y-64084468D01*
X26859704Y-64123138D01*
X26840654Y-64158777D01*
X26815017Y-64190017D01*
X26783777Y-64215654D01*
X26748138Y-64234704D01*
X26709468Y-64246435D01*
X26663112Y-64251000D01*
X26011888Y-64251000D01*
X25965532Y-64246435D01*
X25926862Y-64234704D01*
X25891223Y-64215654D01*
X25859983Y-64190017D01*
X25834346Y-64158777D01*
X25815296Y-64123138D01*
X25803565Y-64084468D01*
X25799000Y-64038112D01*
X25799000Y-62961888D01*
X25803565Y-62915532D01*
X25815296Y-62876862D01*
X25834346Y-62841223D01*
X25859983Y-62809983D01*
X25891223Y-62784346D01*
X25926862Y-62765296D01*
X25965532Y-62753565D01*
X26011888Y-62749000D01*
X26663112Y-62749000D01*
X26709468Y-62753565D01*
X26709468Y-62753565D01*
G37*
G36*
X24834468Y-62753565D02*
G01*
X24873138Y-62765296D01*
X24908777Y-62784346D01*
X24940017Y-62809983D01*
X24965654Y-62841223D01*
X24984704Y-62876862D01*
X24996435Y-62915532D01*
X25001000Y-62961888D01*
X25001000Y-64038112D01*
X24996435Y-64084468D01*
X24984704Y-64123138D01*
X24965654Y-64158777D01*
X24940017Y-64190017D01*
X24908777Y-64215654D01*
X24873138Y-64234704D01*
X24834468Y-64246435D01*
X24788112Y-64251000D01*
X24136888Y-64251000D01*
X24090532Y-64246435D01*
X24051862Y-64234704D01*
X24016223Y-64215654D01*
X23984983Y-64190017D01*
X23959346Y-64158777D01*
X23940296Y-64123138D01*
X23928565Y-64084468D01*
X23924000Y-64038112D01*
X23924000Y-62961888D01*
X23928565Y-62915532D01*
X23940296Y-62876862D01*
X23959346Y-62841223D01*
X23984983Y-62809983D01*
X24016223Y-62784346D01*
X24051862Y-62765296D01*
X24090532Y-62753565D01*
X24136888Y-62749000D01*
X24788112Y-62749000D01*
X24834468Y-62753565D01*
X24834468Y-62753565D01*
G37*
G36*
X22264468Y-62753565D02*
G01*
X22303138Y-62765296D01*
X22338777Y-62784346D01*
X22370017Y-62809983D01*
X22395654Y-62841223D01*
X22414704Y-62876862D01*
X22426435Y-62915532D01*
X22431000Y-62961888D01*
X22431000Y-64038112D01*
X22426435Y-64084468D01*
X22414704Y-64123138D01*
X22395654Y-64158777D01*
X22370017Y-64190017D01*
X22338777Y-64215654D01*
X22303138Y-64234704D01*
X22264468Y-64246435D01*
X22218112Y-64251000D01*
X21566888Y-64251000D01*
X21520532Y-64246435D01*
X21481862Y-64234704D01*
X21446223Y-64215654D01*
X21414983Y-64190017D01*
X21389346Y-64158777D01*
X21370296Y-64123138D01*
X21358565Y-64084468D01*
X21354000Y-64038112D01*
X21354000Y-62961888D01*
X21358565Y-62915532D01*
X21370296Y-62876862D01*
X21389346Y-62841223D01*
X21414983Y-62809983D01*
X21446223Y-62784346D01*
X21481862Y-62765296D01*
X21520532Y-62753565D01*
X21566888Y-62749000D01*
X22218112Y-62749000D01*
X22264468Y-62753565D01*
X22264468Y-62753565D01*
G37*
M02*
