G04 #@! TF.GenerationSoftware,KiCad,Pcbnew,(5.1.0-rc1-103-gc65c7d3de)*
G04 #@! TF.CreationDate,2019-09-26T12:21:13+02:00
G04 #@! TF.ProjectId,pinballControlUnit,70696e62-616c-46c4-936f-6e74726f6c55,2*
G04 #@! TF.SameCoordinates,Original*
G04 #@! TF.FileFunction,Soldermask,Bot*
G04 #@! TF.FilePolarity,Negative*
%FSLAX46Y46*%
G04 Gerber Fmt 4.6, Leading zero omitted, Abs format (unit mm)*
G04 Created by KiCad (PCBNEW (5.1.0-rc1-103-gc65c7d3de)) date 2019-09-26 12:21:13*
%MOMM*%
%LPD*%
G04 APERTURE LIST*
%ADD10C,0.100000*%
G04 APERTURE END LIST*
D10*
G36*
X21221000Y-108851000D02*
G01*
X19419000Y-108851000D01*
X19419000Y-107049000D01*
X21221000Y-107049000D01*
X21221000Y-108851000D01*
X21221000Y-108851000D01*
G37*
G36*
X78286000Y-106861000D02*
G01*
X75384000Y-106861000D01*
X75384000Y-103959000D01*
X78286000Y-103959000D01*
X78286000Y-106861000D01*
X78286000Y-106861000D01*
G37*
G36*
X68923241Y-104014760D02*
G01*
X69187305Y-104124139D01*
X69424958Y-104282934D01*
X69627066Y-104485042D01*
X69785861Y-104722695D01*
X69895240Y-104986759D01*
X69951000Y-105267088D01*
X69951000Y-105552912D01*
X69895240Y-105833241D01*
X69785861Y-106097305D01*
X69627066Y-106334958D01*
X69424958Y-106537066D01*
X69187305Y-106695861D01*
X68923241Y-106805240D01*
X68642912Y-106861000D01*
X68357088Y-106861000D01*
X68076759Y-106805240D01*
X67812695Y-106695861D01*
X67575042Y-106537066D01*
X67372934Y-106334958D01*
X67214139Y-106097305D01*
X67104760Y-105833241D01*
X67049000Y-105552912D01*
X67049000Y-105267088D01*
X67104760Y-104986759D01*
X67214139Y-104722695D01*
X67372934Y-104485042D01*
X67575042Y-104282934D01*
X67812695Y-104124139D01*
X68076759Y-104014760D01*
X68357088Y-103959000D01*
X68642912Y-103959000D01*
X68923241Y-104014760D01*
X68923241Y-104014760D01*
G37*
G36*
X64951000Y-106861000D02*
G01*
X62049000Y-106861000D01*
X62049000Y-103959000D01*
X64951000Y-103959000D01*
X64951000Y-106861000D01*
X64951000Y-106861000D01*
G37*
G36*
X55588241Y-104014760D02*
G01*
X55852305Y-104124139D01*
X56089958Y-104282934D01*
X56292066Y-104485042D01*
X56450861Y-104722695D01*
X56560240Y-104986759D01*
X56616000Y-105267088D01*
X56616000Y-105552912D01*
X56560240Y-105833241D01*
X56450861Y-106097305D01*
X56292066Y-106334958D01*
X56089958Y-106537066D01*
X55852305Y-106695861D01*
X55588241Y-106805240D01*
X55307912Y-106861000D01*
X55022088Y-106861000D01*
X54741759Y-106805240D01*
X54477695Y-106695861D01*
X54240042Y-106537066D01*
X54037934Y-106334958D01*
X53879139Y-106097305D01*
X53769760Y-105833241D01*
X53714000Y-105552912D01*
X53714000Y-105267088D01*
X53769760Y-104986759D01*
X53879139Y-104722695D01*
X54037934Y-104485042D01*
X54240042Y-104282934D01*
X54477695Y-104124139D01*
X54741759Y-104014760D01*
X55022088Y-103959000D01*
X55307912Y-103959000D01*
X55588241Y-104014760D01*
X55588241Y-104014760D01*
G37*
G36*
X51616000Y-106861000D02*
G01*
X48714000Y-106861000D01*
X48714000Y-103959000D01*
X51616000Y-103959000D01*
X51616000Y-106861000D01*
X51616000Y-106861000D01*
G37*
G36*
X42253241Y-104014760D02*
G01*
X42517305Y-104124139D01*
X42754958Y-104282934D01*
X42957066Y-104485042D01*
X43115861Y-104722695D01*
X43225240Y-104986759D01*
X43281000Y-105267088D01*
X43281000Y-105552912D01*
X43225240Y-105833241D01*
X43115861Y-106097305D01*
X42957066Y-106334958D01*
X42754958Y-106537066D01*
X42517305Y-106695861D01*
X42253241Y-106805240D01*
X41972912Y-106861000D01*
X41687088Y-106861000D01*
X41406759Y-106805240D01*
X41142695Y-106695861D01*
X40905042Y-106537066D01*
X40702934Y-106334958D01*
X40544139Y-106097305D01*
X40434760Y-105833241D01*
X40379000Y-105552912D01*
X40379000Y-105267088D01*
X40434760Y-104986759D01*
X40544139Y-104722695D01*
X40702934Y-104485042D01*
X40905042Y-104282934D01*
X41142695Y-104124139D01*
X41406759Y-104014760D01*
X41687088Y-103959000D01*
X41972912Y-103959000D01*
X42253241Y-104014760D01*
X42253241Y-104014760D01*
G37*
G36*
X38281000Y-106861000D02*
G01*
X35379000Y-106861000D01*
X35379000Y-103959000D01*
X38281000Y-103959000D01*
X38281000Y-106861000D01*
X38281000Y-106861000D01*
G37*
G36*
X82258241Y-104014760D02*
G01*
X82522305Y-104124139D01*
X82759958Y-104282934D01*
X82962066Y-104485042D01*
X83120861Y-104722695D01*
X83230240Y-104986759D01*
X83286000Y-105267088D01*
X83286000Y-105552912D01*
X83230240Y-105833241D01*
X83120861Y-106097305D01*
X82962066Y-106334958D01*
X82759958Y-106537066D01*
X82522305Y-106695861D01*
X82258241Y-106805240D01*
X81977912Y-106861000D01*
X81692088Y-106861000D01*
X81411759Y-106805240D01*
X81147695Y-106695861D01*
X80910042Y-106537066D01*
X80707934Y-106334958D01*
X80549139Y-106097305D01*
X80439760Y-105833241D01*
X80384000Y-105552912D01*
X80384000Y-105267088D01*
X80439760Y-104986759D01*
X80549139Y-104722695D01*
X80707934Y-104485042D01*
X80910042Y-104282934D01*
X81147695Y-104124139D01*
X81411759Y-104014760D01*
X81692088Y-103959000D01*
X81977912Y-103959000D01*
X82258241Y-104014760D01*
X82258241Y-104014760D01*
G37*
G36*
X20430443Y-104515519D02*
G01*
X20496627Y-104522037D01*
X20666466Y-104573557D01*
X20822991Y-104657222D01*
X20858729Y-104686552D01*
X20960186Y-104769814D01*
X21043448Y-104871271D01*
X21072778Y-104907009D01*
X21156443Y-105063534D01*
X21207963Y-105233373D01*
X21225359Y-105410000D01*
X21207963Y-105586627D01*
X21156443Y-105756466D01*
X21072778Y-105912991D01*
X21043448Y-105948729D01*
X20960186Y-106050186D01*
X20858729Y-106133448D01*
X20822991Y-106162778D01*
X20666466Y-106246443D01*
X20496627Y-106297963D01*
X20430442Y-106304482D01*
X20364260Y-106311000D01*
X20275740Y-106311000D01*
X20209558Y-106304482D01*
X20143373Y-106297963D01*
X19973534Y-106246443D01*
X19817009Y-106162778D01*
X19781271Y-106133448D01*
X19679814Y-106050186D01*
X19596552Y-105948729D01*
X19567222Y-105912991D01*
X19483557Y-105756466D01*
X19432037Y-105586627D01*
X19414641Y-105410000D01*
X19432037Y-105233373D01*
X19483557Y-105063534D01*
X19567222Y-104907009D01*
X19596552Y-104871271D01*
X19679814Y-104769814D01*
X19781271Y-104686552D01*
X19817009Y-104657222D01*
X19973534Y-104573557D01*
X20143373Y-104522037D01*
X20209557Y-104515519D01*
X20275740Y-104509000D01*
X20364260Y-104509000D01*
X20430443Y-104515519D01*
X20430443Y-104515519D01*
G37*
G36*
X121993512Y-103243927D02*
G01*
X122142812Y-103273624D01*
X122306784Y-103341544D01*
X122454354Y-103440147D01*
X122579853Y-103565646D01*
X122678456Y-103713216D01*
X122746376Y-103877188D01*
X122781000Y-104051259D01*
X122781000Y-104228741D01*
X122746376Y-104402812D01*
X122678456Y-104566784D01*
X122579853Y-104714354D01*
X122454354Y-104839853D01*
X122306784Y-104938456D01*
X122142812Y-105006376D01*
X121993512Y-105036073D01*
X121968742Y-105041000D01*
X121791258Y-105041000D01*
X121766488Y-105036073D01*
X121617188Y-105006376D01*
X121453216Y-104938456D01*
X121305646Y-104839853D01*
X121180147Y-104714354D01*
X121081544Y-104566784D01*
X121013624Y-104402812D01*
X120979000Y-104228741D01*
X120979000Y-104051259D01*
X121013624Y-103877188D01*
X121081544Y-103713216D01*
X121180147Y-103565646D01*
X121305646Y-103440147D01*
X121453216Y-103341544D01*
X121617188Y-103273624D01*
X121766488Y-103243927D01*
X121791258Y-103239000D01*
X121968742Y-103239000D01*
X121993512Y-103243927D01*
X121993512Y-103243927D01*
G37*
G36*
X114993512Y-103243927D02*
G01*
X115142812Y-103273624D01*
X115306784Y-103341544D01*
X115454354Y-103440147D01*
X115579853Y-103565646D01*
X115678456Y-103713216D01*
X115746376Y-103877188D01*
X115781000Y-104051259D01*
X115781000Y-104228741D01*
X115746376Y-104402812D01*
X115678456Y-104566784D01*
X115579853Y-104714354D01*
X115454354Y-104839853D01*
X115306784Y-104938456D01*
X115142812Y-105006376D01*
X114993512Y-105036073D01*
X114968742Y-105041000D01*
X114791258Y-105041000D01*
X114766488Y-105036073D01*
X114617188Y-105006376D01*
X114453216Y-104938456D01*
X114305646Y-104839853D01*
X114180147Y-104714354D01*
X114081544Y-104566784D01*
X114013624Y-104402812D01*
X113979000Y-104228741D01*
X113979000Y-104051259D01*
X114013624Y-103877188D01*
X114081544Y-103713216D01*
X114180147Y-103565646D01*
X114305646Y-103440147D01*
X114453216Y-103341544D01*
X114617188Y-103273624D01*
X114766488Y-103243927D01*
X114791258Y-103239000D01*
X114968742Y-103239000D01*
X114993512Y-103243927D01*
X114993512Y-103243927D01*
G37*
G36*
X102345443Y-93720519D02*
G01*
X102411627Y-93727037D01*
X102581466Y-93778557D01*
X102737991Y-93862222D01*
X102773729Y-93891552D01*
X102875186Y-93974814D01*
X102958448Y-94076271D01*
X102987778Y-94112009D01*
X103071443Y-94268534D01*
X103122963Y-94438373D01*
X103140359Y-94615000D01*
X103122963Y-94791627D01*
X103071443Y-94961466D01*
X102987778Y-95117991D01*
X102958448Y-95153729D01*
X102875186Y-95255186D01*
X102773729Y-95338448D01*
X102737991Y-95367778D01*
X102581466Y-95451443D01*
X102411627Y-95502963D01*
X102345443Y-95509481D01*
X102279260Y-95516000D01*
X102190740Y-95516000D01*
X102124557Y-95509481D01*
X102058373Y-95502963D01*
X101888534Y-95451443D01*
X101732009Y-95367778D01*
X101696271Y-95338448D01*
X101594814Y-95255186D01*
X101511552Y-95153729D01*
X101482222Y-95117991D01*
X101398557Y-94961466D01*
X101347037Y-94791627D01*
X101329641Y-94615000D01*
X101347037Y-94438373D01*
X101398557Y-94268534D01*
X101482222Y-94112009D01*
X101511552Y-94076271D01*
X101594814Y-93974814D01*
X101696271Y-93891552D01*
X101732009Y-93862222D01*
X101888534Y-93778557D01*
X102058373Y-93727037D01*
X102124557Y-93720519D01*
X102190740Y-93714000D01*
X102279260Y-93714000D01*
X102345443Y-93720519D01*
X102345443Y-93720519D01*
G37*
G36*
X99805443Y-93720519D02*
G01*
X99871627Y-93727037D01*
X100041466Y-93778557D01*
X100197991Y-93862222D01*
X100233729Y-93891552D01*
X100335186Y-93974814D01*
X100418448Y-94076271D01*
X100447778Y-94112009D01*
X100531443Y-94268534D01*
X100582963Y-94438373D01*
X100600359Y-94615000D01*
X100582963Y-94791627D01*
X100531443Y-94961466D01*
X100447778Y-95117991D01*
X100418448Y-95153729D01*
X100335186Y-95255186D01*
X100233729Y-95338448D01*
X100197991Y-95367778D01*
X100041466Y-95451443D01*
X99871627Y-95502963D01*
X99805443Y-95509481D01*
X99739260Y-95516000D01*
X99650740Y-95516000D01*
X99584557Y-95509481D01*
X99518373Y-95502963D01*
X99348534Y-95451443D01*
X99192009Y-95367778D01*
X99156271Y-95338448D01*
X99054814Y-95255186D01*
X98971552Y-95153729D01*
X98942222Y-95117991D01*
X98858557Y-94961466D01*
X98807037Y-94791627D01*
X98789641Y-94615000D01*
X98807037Y-94438373D01*
X98858557Y-94268534D01*
X98942222Y-94112009D01*
X98971552Y-94076271D01*
X99054814Y-93974814D01*
X99156271Y-93891552D01*
X99192009Y-93862222D01*
X99348534Y-93778557D01*
X99518373Y-93727037D01*
X99584557Y-93720519D01*
X99650740Y-93714000D01*
X99739260Y-93714000D01*
X99805443Y-93720519D01*
X99805443Y-93720519D01*
G37*
G36*
X125996000Y-95516000D02*
G01*
X124194000Y-95516000D01*
X124194000Y-93714000D01*
X125996000Y-93714000D01*
X125996000Y-95516000D01*
X125996000Y-95516000D01*
G37*
G36*
X122665443Y-93720519D02*
G01*
X122731627Y-93727037D01*
X122901466Y-93778557D01*
X123057991Y-93862222D01*
X123093729Y-93891552D01*
X123195186Y-93974814D01*
X123278448Y-94076271D01*
X123307778Y-94112009D01*
X123391443Y-94268534D01*
X123442963Y-94438373D01*
X123460359Y-94615000D01*
X123442963Y-94791627D01*
X123391443Y-94961466D01*
X123307778Y-95117991D01*
X123278448Y-95153729D01*
X123195186Y-95255186D01*
X123093729Y-95338448D01*
X123057991Y-95367778D01*
X122901466Y-95451443D01*
X122731627Y-95502963D01*
X122665443Y-95509481D01*
X122599260Y-95516000D01*
X122510740Y-95516000D01*
X122444557Y-95509481D01*
X122378373Y-95502963D01*
X122208534Y-95451443D01*
X122052009Y-95367778D01*
X122016271Y-95338448D01*
X121914814Y-95255186D01*
X121831552Y-95153729D01*
X121802222Y-95117991D01*
X121718557Y-94961466D01*
X121667037Y-94791627D01*
X121649641Y-94615000D01*
X121667037Y-94438373D01*
X121718557Y-94268534D01*
X121802222Y-94112009D01*
X121831552Y-94076271D01*
X121914814Y-93974814D01*
X122016271Y-93891552D01*
X122052009Y-93862222D01*
X122208534Y-93778557D01*
X122378373Y-93727037D01*
X122444558Y-93720518D01*
X122510740Y-93714000D01*
X122599260Y-93714000D01*
X122665443Y-93720519D01*
X122665443Y-93720519D01*
G37*
G36*
X95516000Y-95516000D02*
G01*
X93714000Y-95516000D01*
X93714000Y-93714000D01*
X95516000Y-93714000D01*
X95516000Y-95516000D01*
X95516000Y-95516000D01*
G37*
G36*
X97265443Y-93720519D02*
G01*
X97331627Y-93727037D01*
X97501466Y-93778557D01*
X97657991Y-93862222D01*
X97693729Y-93891552D01*
X97795186Y-93974814D01*
X97878448Y-94076271D01*
X97907778Y-94112009D01*
X97991443Y-94268534D01*
X98042963Y-94438373D01*
X98060359Y-94615000D01*
X98042963Y-94791627D01*
X97991443Y-94961466D01*
X97907778Y-95117991D01*
X97878448Y-95153729D01*
X97795186Y-95255186D01*
X97693729Y-95338448D01*
X97657991Y-95367778D01*
X97501466Y-95451443D01*
X97331627Y-95502963D01*
X97265443Y-95509481D01*
X97199260Y-95516000D01*
X97110740Y-95516000D01*
X97044557Y-95509481D01*
X96978373Y-95502963D01*
X96808534Y-95451443D01*
X96652009Y-95367778D01*
X96616271Y-95338448D01*
X96514814Y-95255186D01*
X96431552Y-95153729D01*
X96402222Y-95117991D01*
X96318557Y-94961466D01*
X96267037Y-94791627D01*
X96249641Y-94615000D01*
X96267037Y-94438373D01*
X96318557Y-94268534D01*
X96402222Y-94112009D01*
X96431552Y-94076271D01*
X96514814Y-93974814D01*
X96616271Y-93891552D01*
X96652009Y-93862222D01*
X96808534Y-93778557D01*
X96978373Y-93727037D01*
X97044557Y-93720519D01*
X97110740Y-93714000D01*
X97199260Y-93714000D01*
X97265443Y-93720519D01*
X97265443Y-93720519D01*
G37*
G36*
X104885443Y-93720519D02*
G01*
X104951627Y-93727037D01*
X105121466Y-93778557D01*
X105277991Y-93862222D01*
X105313729Y-93891552D01*
X105415186Y-93974814D01*
X105498448Y-94076271D01*
X105527778Y-94112009D01*
X105611443Y-94268534D01*
X105662963Y-94438373D01*
X105680359Y-94615000D01*
X105662963Y-94791627D01*
X105611443Y-94961466D01*
X105527778Y-95117991D01*
X105498448Y-95153729D01*
X105415186Y-95255186D01*
X105313729Y-95338448D01*
X105277991Y-95367778D01*
X105121466Y-95451443D01*
X104951627Y-95502963D01*
X104885443Y-95509481D01*
X104819260Y-95516000D01*
X104730740Y-95516000D01*
X104664557Y-95509481D01*
X104598373Y-95502963D01*
X104428534Y-95451443D01*
X104272009Y-95367778D01*
X104236271Y-95338448D01*
X104134814Y-95255186D01*
X104051552Y-95153729D01*
X104022222Y-95117991D01*
X103938557Y-94961466D01*
X103887037Y-94791627D01*
X103869641Y-94615000D01*
X103887037Y-94438373D01*
X103938557Y-94268534D01*
X104022222Y-94112009D01*
X104051552Y-94076271D01*
X104134814Y-93974814D01*
X104236271Y-93891552D01*
X104272009Y-93862222D01*
X104428534Y-93778557D01*
X104598373Y-93727037D01*
X104664557Y-93720519D01*
X104730740Y-93714000D01*
X104819260Y-93714000D01*
X104885443Y-93720519D01*
X104885443Y-93720519D01*
G37*
G36*
X107425443Y-93720519D02*
G01*
X107491627Y-93727037D01*
X107661466Y-93778557D01*
X107817991Y-93862222D01*
X107853729Y-93891552D01*
X107955186Y-93974814D01*
X108038448Y-94076271D01*
X108067778Y-94112009D01*
X108151443Y-94268534D01*
X108202963Y-94438373D01*
X108220359Y-94615000D01*
X108202963Y-94791627D01*
X108151443Y-94961466D01*
X108067778Y-95117991D01*
X108038448Y-95153729D01*
X107955186Y-95255186D01*
X107853729Y-95338448D01*
X107817991Y-95367778D01*
X107661466Y-95451443D01*
X107491627Y-95502963D01*
X107425443Y-95509481D01*
X107359260Y-95516000D01*
X107270740Y-95516000D01*
X107204557Y-95509481D01*
X107138373Y-95502963D01*
X106968534Y-95451443D01*
X106812009Y-95367778D01*
X106776271Y-95338448D01*
X106674814Y-95255186D01*
X106591552Y-95153729D01*
X106562222Y-95117991D01*
X106478557Y-94961466D01*
X106427037Y-94791627D01*
X106409641Y-94615000D01*
X106427037Y-94438373D01*
X106478557Y-94268534D01*
X106562222Y-94112009D01*
X106591552Y-94076271D01*
X106674814Y-93974814D01*
X106776271Y-93891552D01*
X106812009Y-93862222D01*
X106968534Y-93778557D01*
X107138373Y-93727037D01*
X107204557Y-93720519D01*
X107270740Y-93714000D01*
X107359260Y-93714000D01*
X107425443Y-93720519D01*
X107425443Y-93720519D01*
G37*
G36*
X109965443Y-93720519D02*
G01*
X110031627Y-93727037D01*
X110201466Y-93778557D01*
X110357991Y-93862222D01*
X110393729Y-93891552D01*
X110495186Y-93974814D01*
X110578448Y-94076271D01*
X110607778Y-94112009D01*
X110691443Y-94268534D01*
X110742963Y-94438373D01*
X110760359Y-94615000D01*
X110742963Y-94791627D01*
X110691443Y-94961466D01*
X110607778Y-95117991D01*
X110578448Y-95153729D01*
X110495186Y-95255186D01*
X110393729Y-95338448D01*
X110357991Y-95367778D01*
X110201466Y-95451443D01*
X110031627Y-95502963D01*
X109965443Y-95509481D01*
X109899260Y-95516000D01*
X109810740Y-95516000D01*
X109744557Y-95509481D01*
X109678373Y-95502963D01*
X109508534Y-95451443D01*
X109352009Y-95367778D01*
X109316271Y-95338448D01*
X109214814Y-95255186D01*
X109131552Y-95153729D01*
X109102222Y-95117991D01*
X109018557Y-94961466D01*
X108967037Y-94791627D01*
X108949641Y-94615000D01*
X108967037Y-94438373D01*
X109018557Y-94268534D01*
X109102222Y-94112009D01*
X109131552Y-94076271D01*
X109214814Y-93974814D01*
X109316271Y-93891552D01*
X109352009Y-93862222D01*
X109508534Y-93778557D01*
X109678373Y-93727037D01*
X109744557Y-93720519D01*
X109810740Y-93714000D01*
X109899260Y-93714000D01*
X109965443Y-93720519D01*
X109965443Y-93720519D01*
G37*
G36*
X112505443Y-93720519D02*
G01*
X112571627Y-93727037D01*
X112741466Y-93778557D01*
X112897991Y-93862222D01*
X112933729Y-93891552D01*
X113035186Y-93974814D01*
X113118448Y-94076271D01*
X113147778Y-94112009D01*
X113231443Y-94268534D01*
X113282963Y-94438373D01*
X113300359Y-94615000D01*
X113282963Y-94791627D01*
X113231443Y-94961466D01*
X113147778Y-95117991D01*
X113118448Y-95153729D01*
X113035186Y-95255186D01*
X112933729Y-95338448D01*
X112897991Y-95367778D01*
X112741466Y-95451443D01*
X112571627Y-95502963D01*
X112505443Y-95509481D01*
X112439260Y-95516000D01*
X112350740Y-95516000D01*
X112284557Y-95509481D01*
X112218373Y-95502963D01*
X112048534Y-95451443D01*
X111892009Y-95367778D01*
X111856271Y-95338448D01*
X111754814Y-95255186D01*
X111671552Y-95153729D01*
X111642222Y-95117991D01*
X111558557Y-94961466D01*
X111507037Y-94791627D01*
X111489641Y-94615000D01*
X111507037Y-94438373D01*
X111558557Y-94268534D01*
X111642222Y-94112009D01*
X111671552Y-94076271D01*
X111754814Y-93974814D01*
X111856271Y-93891552D01*
X111892009Y-93862222D01*
X112048534Y-93778557D01*
X112218373Y-93727037D01*
X112284557Y-93720519D01*
X112350740Y-93714000D01*
X112439260Y-93714000D01*
X112505443Y-93720519D01*
X112505443Y-93720519D01*
G37*
G36*
X118376000Y-90436000D02*
G01*
X116574000Y-90436000D01*
X116574000Y-88634000D01*
X118376000Y-88634000D01*
X118376000Y-90436000D01*
X118376000Y-90436000D01*
G37*
G36*
X117585442Y-86100518D02*
G01*
X117651627Y-86107037D01*
X117821466Y-86158557D01*
X117977991Y-86242222D01*
X118013729Y-86271552D01*
X118115186Y-86354814D01*
X118198448Y-86456271D01*
X118227778Y-86492009D01*
X118311443Y-86648534D01*
X118362963Y-86818373D01*
X118380359Y-86995000D01*
X118362963Y-87171627D01*
X118311443Y-87341466D01*
X118227778Y-87497991D01*
X118198448Y-87533729D01*
X118115186Y-87635186D01*
X118013729Y-87718448D01*
X117977991Y-87747778D01*
X117821466Y-87831443D01*
X117651627Y-87882963D01*
X117585443Y-87889481D01*
X117519260Y-87896000D01*
X117430740Y-87896000D01*
X117364557Y-87889481D01*
X117298373Y-87882963D01*
X117128534Y-87831443D01*
X116972009Y-87747778D01*
X116936271Y-87718448D01*
X116834814Y-87635186D01*
X116751552Y-87533729D01*
X116722222Y-87497991D01*
X116638557Y-87341466D01*
X116587037Y-87171627D01*
X116569641Y-86995000D01*
X116587037Y-86818373D01*
X116638557Y-86648534D01*
X116722222Y-86492009D01*
X116751552Y-86456271D01*
X116834814Y-86354814D01*
X116936271Y-86271552D01*
X116972009Y-86242222D01*
X117128534Y-86158557D01*
X117298373Y-86107037D01*
X117364558Y-86100518D01*
X117430740Y-86094000D01*
X117519260Y-86094000D01*
X117585442Y-86100518D01*
X117585442Y-86100518D01*
G37*
G36*
X117585443Y-83560519D02*
G01*
X117651627Y-83567037D01*
X117821466Y-83618557D01*
X117977991Y-83702222D01*
X118013729Y-83731552D01*
X118115186Y-83814814D01*
X118198448Y-83916271D01*
X118227778Y-83952009D01*
X118311443Y-84108534D01*
X118362963Y-84278373D01*
X118380359Y-84455000D01*
X118362963Y-84631627D01*
X118311443Y-84801466D01*
X118227778Y-84957991D01*
X118198448Y-84993729D01*
X118115186Y-85095186D01*
X118013729Y-85178448D01*
X117977991Y-85207778D01*
X117821466Y-85291443D01*
X117651627Y-85342963D01*
X117585442Y-85349482D01*
X117519260Y-85356000D01*
X117430740Y-85356000D01*
X117364558Y-85349482D01*
X117298373Y-85342963D01*
X117128534Y-85291443D01*
X116972009Y-85207778D01*
X116936271Y-85178448D01*
X116834814Y-85095186D01*
X116751552Y-84993729D01*
X116722222Y-84957991D01*
X116638557Y-84801466D01*
X116587037Y-84631627D01*
X116569641Y-84455000D01*
X116587037Y-84278373D01*
X116638557Y-84108534D01*
X116722222Y-83952009D01*
X116751552Y-83916271D01*
X116834814Y-83814814D01*
X116936271Y-83731552D01*
X116972009Y-83702222D01*
X117128534Y-83618557D01*
X117298373Y-83567037D01*
X117364557Y-83560519D01*
X117430740Y-83554000D01*
X117519260Y-83554000D01*
X117585443Y-83560519D01*
X117585443Y-83560519D01*
G37*
G36*
X126631000Y-85356000D02*
G01*
X124829000Y-85356000D01*
X124829000Y-83554000D01*
X126631000Y-83554000D01*
X126631000Y-85356000D01*
X126631000Y-85356000D01*
G37*
G36*
X117585442Y-81020518D02*
G01*
X117651627Y-81027037D01*
X117821466Y-81078557D01*
X117977991Y-81162222D01*
X118013729Y-81191552D01*
X118115186Y-81274814D01*
X118198448Y-81376271D01*
X118227778Y-81412009D01*
X118311443Y-81568534D01*
X118362963Y-81738373D01*
X118380359Y-81915000D01*
X118362963Y-82091627D01*
X118311443Y-82261466D01*
X118227778Y-82417991D01*
X118198448Y-82453729D01*
X118115186Y-82555186D01*
X118013729Y-82638448D01*
X117977991Y-82667778D01*
X117821466Y-82751443D01*
X117651627Y-82802963D01*
X117585442Y-82809482D01*
X117519260Y-82816000D01*
X117430740Y-82816000D01*
X117364558Y-82809482D01*
X117298373Y-82802963D01*
X117128534Y-82751443D01*
X116972009Y-82667778D01*
X116936271Y-82638448D01*
X116834814Y-82555186D01*
X116751552Y-82453729D01*
X116722222Y-82417991D01*
X116638557Y-82261466D01*
X116587037Y-82091627D01*
X116569641Y-81915000D01*
X116587037Y-81738373D01*
X116638557Y-81568534D01*
X116722222Y-81412009D01*
X116751552Y-81376271D01*
X116834814Y-81274814D01*
X116936271Y-81191552D01*
X116972009Y-81162222D01*
X117128534Y-81078557D01*
X117298373Y-81027037D01*
X117364558Y-81020518D01*
X117430740Y-81014000D01*
X117519260Y-81014000D01*
X117585442Y-81020518D01*
X117585442Y-81020518D01*
G37*
G36*
X125840442Y-81020518D02*
G01*
X125906627Y-81027037D01*
X126076466Y-81078557D01*
X126232991Y-81162222D01*
X126268729Y-81191552D01*
X126370186Y-81274814D01*
X126453448Y-81376271D01*
X126482778Y-81412009D01*
X126566443Y-81568534D01*
X126617963Y-81738373D01*
X126635359Y-81915000D01*
X126617963Y-82091627D01*
X126566443Y-82261466D01*
X126482778Y-82417991D01*
X126453448Y-82453729D01*
X126370186Y-82555186D01*
X126268729Y-82638448D01*
X126232991Y-82667778D01*
X126076466Y-82751443D01*
X125906627Y-82802963D01*
X125840442Y-82809482D01*
X125774260Y-82816000D01*
X125685740Y-82816000D01*
X125619558Y-82809482D01*
X125553373Y-82802963D01*
X125383534Y-82751443D01*
X125227009Y-82667778D01*
X125191271Y-82638448D01*
X125089814Y-82555186D01*
X125006552Y-82453729D01*
X124977222Y-82417991D01*
X124893557Y-82261466D01*
X124842037Y-82091627D01*
X124824641Y-81915000D01*
X124842037Y-81738373D01*
X124893557Y-81568534D01*
X124977222Y-81412009D01*
X125006552Y-81376271D01*
X125089814Y-81274814D01*
X125191271Y-81191552D01*
X125227009Y-81162222D01*
X125383534Y-81078557D01*
X125553373Y-81027037D01*
X125619558Y-81020518D01*
X125685740Y-81014000D01*
X125774260Y-81014000D01*
X125840442Y-81020518D01*
X125840442Y-81020518D01*
G37*
G36*
X117585442Y-78480518D02*
G01*
X117651627Y-78487037D01*
X117821466Y-78538557D01*
X117977991Y-78622222D01*
X118013729Y-78651552D01*
X118115186Y-78734814D01*
X118198448Y-78836271D01*
X118227778Y-78872009D01*
X118311443Y-79028534D01*
X118362963Y-79198373D01*
X118380359Y-79375000D01*
X118362963Y-79551627D01*
X118311443Y-79721466D01*
X118227778Y-79877991D01*
X118198448Y-79913729D01*
X118115186Y-80015186D01*
X118013729Y-80098448D01*
X117977991Y-80127778D01*
X117821466Y-80211443D01*
X117651627Y-80262963D01*
X117585442Y-80269482D01*
X117519260Y-80276000D01*
X117430740Y-80276000D01*
X117364558Y-80269482D01*
X117298373Y-80262963D01*
X117128534Y-80211443D01*
X116972009Y-80127778D01*
X116936271Y-80098448D01*
X116834814Y-80015186D01*
X116751552Y-79913729D01*
X116722222Y-79877991D01*
X116638557Y-79721466D01*
X116587037Y-79551627D01*
X116569641Y-79375000D01*
X116587037Y-79198373D01*
X116638557Y-79028534D01*
X116722222Y-78872009D01*
X116751552Y-78836271D01*
X116834814Y-78734814D01*
X116936271Y-78651552D01*
X116972009Y-78622222D01*
X117128534Y-78538557D01*
X117298373Y-78487037D01*
X117364558Y-78480518D01*
X117430740Y-78474000D01*
X117519260Y-78474000D01*
X117585442Y-78480518D01*
X117585442Y-78480518D01*
G37*
G36*
X125840442Y-78480518D02*
G01*
X125906627Y-78487037D01*
X126076466Y-78538557D01*
X126232991Y-78622222D01*
X126268729Y-78651552D01*
X126370186Y-78734814D01*
X126453448Y-78836271D01*
X126482778Y-78872009D01*
X126566443Y-79028534D01*
X126617963Y-79198373D01*
X126635359Y-79375000D01*
X126617963Y-79551627D01*
X126566443Y-79721466D01*
X126482778Y-79877991D01*
X126453448Y-79913729D01*
X126370186Y-80015186D01*
X126268729Y-80098448D01*
X126232991Y-80127778D01*
X126076466Y-80211443D01*
X125906627Y-80262963D01*
X125840442Y-80269482D01*
X125774260Y-80276000D01*
X125685740Y-80276000D01*
X125619558Y-80269482D01*
X125553373Y-80262963D01*
X125383534Y-80211443D01*
X125227009Y-80127778D01*
X125191271Y-80098448D01*
X125089814Y-80015186D01*
X125006552Y-79913729D01*
X124977222Y-79877991D01*
X124893557Y-79721466D01*
X124842037Y-79551627D01*
X124824641Y-79375000D01*
X124842037Y-79198373D01*
X124893557Y-79028534D01*
X124977222Y-78872009D01*
X125006552Y-78836271D01*
X125089814Y-78734814D01*
X125191271Y-78651552D01*
X125227009Y-78622222D01*
X125383534Y-78538557D01*
X125553373Y-78487037D01*
X125619558Y-78480518D01*
X125685740Y-78474000D01*
X125774260Y-78474000D01*
X125840442Y-78480518D01*
X125840442Y-78480518D01*
G37*
G36*
X117585442Y-75940518D02*
G01*
X117651627Y-75947037D01*
X117821466Y-75998557D01*
X117977991Y-76082222D01*
X118013729Y-76111552D01*
X118115186Y-76194814D01*
X118198448Y-76296271D01*
X118227778Y-76332009D01*
X118311443Y-76488534D01*
X118362963Y-76658373D01*
X118380359Y-76835000D01*
X118362963Y-77011627D01*
X118311443Y-77181466D01*
X118227778Y-77337991D01*
X118198448Y-77373729D01*
X118115186Y-77475186D01*
X118013729Y-77558448D01*
X117977991Y-77587778D01*
X117821466Y-77671443D01*
X117651627Y-77722963D01*
X117585443Y-77729481D01*
X117519260Y-77736000D01*
X117430740Y-77736000D01*
X117364557Y-77729481D01*
X117298373Y-77722963D01*
X117128534Y-77671443D01*
X116972009Y-77587778D01*
X116936271Y-77558448D01*
X116834814Y-77475186D01*
X116751552Y-77373729D01*
X116722222Y-77337991D01*
X116638557Y-77181466D01*
X116587037Y-77011627D01*
X116569641Y-76835000D01*
X116587037Y-76658373D01*
X116638557Y-76488534D01*
X116722222Y-76332009D01*
X116751552Y-76296271D01*
X116834814Y-76194814D01*
X116936271Y-76111552D01*
X116972009Y-76082222D01*
X117128534Y-75998557D01*
X117298373Y-75947037D01*
X117364558Y-75940518D01*
X117430740Y-75934000D01*
X117519260Y-75934000D01*
X117585442Y-75940518D01*
X117585442Y-75940518D01*
G37*
G36*
X125840442Y-75940518D02*
G01*
X125906627Y-75947037D01*
X126076466Y-75998557D01*
X126232991Y-76082222D01*
X126268729Y-76111552D01*
X126370186Y-76194814D01*
X126453448Y-76296271D01*
X126482778Y-76332009D01*
X126566443Y-76488534D01*
X126617963Y-76658373D01*
X126635359Y-76835000D01*
X126617963Y-77011627D01*
X126566443Y-77181466D01*
X126482778Y-77337991D01*
X126453448Y-77373729D01*
X126370186Y-77475186D01*
X126268729Y-77558448D01*
X126232991Y-77587778D01*
X126076466Y-77671443D01*
X125906627Y-77722963D01*
X125840443Y-77729481D01*
X125774260Y-77736000D01*
X125685740Y-77736000D01*
X125619557Y-77729481D01*
X125553373Y-77722963D01*
X125383534Y-77671443D01*
X125227009Y-77587778D01*
X125191271Y-77558448D01*
X125089814Y-77475186D01*
X125006552Y-77373729D01*
X124977222Y-77337991D01*
X124893557Y-77181466D01*
X124842037Y-77011627D01*
X124824641Y-76835000D01*
X124842037Y-76658373D01*
X124893557Y-76488534D01*
X124977222Y-76332009D01*
X125006552Y-76296271D01*
X125089814Y-76194814D01*
X125191271Y-76111552D01*
X125227009Y-76082222D01*
X125383534Y-75998557D01*
X125553373Y-75947037D01*
X125619558Y-75940518D01*
X125685740Y-75934000D01*
X125774260Y-75934000D01*
X125840442Y-75940518D01*
X125840442Y-75940518D01*
G37*
G36*
X117585443Y-73400519D02*
G01*
X117651627Y-73407037D01*
X117821466Y-73458557D01*
X117977991Y-73542222D01*
X118013729Y-73571552D01*
X118115186Y-73654814D01*
X118198448Y-73756271D01*
X118227778Y-73792009D01*
X118311443Y-73948534D01*
X118362963Y-74118373D01*
X118380359Y-74295000D01*
X118362963Y-74471627D01*
X118311443Y-74641466D01*
X118227778Y-74797991D01*
X118198448Y-74833729D01*
X118115186Y-74935186D01*
X118013729Y-75018448D01*
X117977991Y-75047778D01*
X117821466Y-75131443D01*
X117651627Y-75182963D01*
X117585442Y-75189482D01*
X117519260Y-75196000D01*
X117430740Y-75196000D01*
X117364558Y-75189482D01*
X117298373Y-75182963D01*
X117128534Y-75131443D01*
X116972009Y-75047778D01*
X116936271Y-75018448D01*
X116834814Y-74935186D01*
X116751552Y-74833729D01*
X116722222Y-74797991D01*
X116638557Y-74641466D01*
X116587037Y-74471627D01*
X116569641Y-74295000D01*
X116587037Y-74118373D01*
X116638557Y-73948534D01*
X116722222Y-73792009D01*
X116751552Y-73756271D01*
X116834814Y-73654814D01*
X116936271Y-73571552D01*
X116972009Y-73542222D01*
X117128534Y-73458557D01*
X117298373Y-73407037D01*
X117364557Y-73400519D01*
X117430740Y-73394000D01*
X117519260Y-73394000D01*
X117585443Y-73400519D01*
X117585443Y-73400519D01*
G37*
G36*
X125840443Y-73400519D02*
G01*
X125906627Y-73407037D01*
X126076466Y-73458557D01*
X126232991Y-73542222D01*
X126268729Y-73571552D01*
X126370186Y-73654814D01*
X126453448Y-73756271D01*
X126482778Y-73792009D01*
X126566443Y-73948534D01*
X126617963Y-74118373D01*
X126635359Y-74295000D01*
X126617963Y-74471627D01*
X126566443Y-74641466D01*
X126482778Y-74797991D01*
X126453448Y-74833729D01*
X126370186Y-74935186D01*
X126268729Y-75018448D01*
X126232991Y-75047778D01*
X126076466Y-75131443D01*
X125906627Y-75182963D01*
X125840442Y-75189482D01*
X125774260Y-75196000D01*
X125685740Y-75196000D01*
X125619558Y-75189482D01*
X125553373Y-75182963D01*
X125383534Y-75131443D01*
X125227009Y-75047778D01*
X125191271Y-75018448D01*
X125089814Y-74935186D01*
X125006552Y-74833729D01*
X124977222Y-74797991D01*
X124893557Y-74641466D01*
X124842037Y-74471627D01*
X124824641Y-74295000D01*
X124842037Y-74118373D01*
X124893557Y-73948534D01*
X124977222Y-73792009D01*
X125006552Y-73756271D01*
X125089814Y-73654814D01*
X125191271Y-73571552D01*
X125227009Y-73542222D01*
X125383534Y-73458557D01*
X125553373Y-73407037D01*
X125619557Y-73400519D01*
X125685740Y-73394000D01*
X125774260Y-73394000D01*
X125840443Y-73400519D01*
X125840443Y-73400519D01*
G37*
G36*
X117585442Y-70860518D02*
G01*
X117651627Y-70867037D01*
X117821466Y-70918557D01*
X117977991Y-71002222D01*
X118013729Y-71031552D01*
X118115186Y-71114814D01*
X118198448Y-71216271D01*
X118227778Y-71252009D01*
X118311443Y-71408534D01*
X118362963Y-71578373D01*
X118380359Y-71755000D01*
X118362963Y-71931627D01*
X118311443Y-72101466D01*
X118227778Y-72257991D01*
X118198448Y-72293729D01*
X118115186Y-72395186D01*
X118013729Y-72478448D01*
X117977991Y-72507778D01*
X117821466Y-72591443D01*
X117651627Y-72642963D01*
X117585443Y-72649481D01*
X117519260Y-72656000D01*
X117430740Y-72656000D01*
X117364557Y-72649481D01*
X117298373Y-72642963D01*
X117128534Y-72591443D01*
X116972009Y-72507778D01*
X116936271Y-72478448D01*
X116834814Y-72395186D01*
X116751552Y-72293729D01*
X116722222Y-72257991D01*
X116638557Y-72101466D01*
X116587037Y-71931627D01*
X116569641Y-71755000D01*
X116587037Y-71578373D01*
X116638557Y-71408534D01*
X116722222Y-71252009D01*
X116751552Y-71216271D01*
X116834814Y-71114814D01*
X116936271Y-71031552D01*
X116972009Y-71002222D01*
X117128534Y-70918557D01*
X117298373Y-70867037D01*
X117364558Y-70860518D01*
X117430740Y-70854000D01*
X117519260Y-70854000D01*
X117585442Y-70860518D01*
X117585442Y-70860518D01*
G37*
G36*
X125840442Y-70860518D02*
G01*
X125906627Y-70867037D01*
X126076466Y-70918557D01*
X126232991Y-71002222D01*
X126268729Y-71031552D01*
X126370186Y-71114814D01*
X126453448Y-71216271D01*
X126482778Y-71252009D01*
X126566443Y-71408534D01*
X126617963Y-71578373D01*
X126635359Y-71755000D01*
X126617963Y-71931627D01*
X126566443Y-72101466D01*
X126482778Y-72257991D01*
X126453448Y-72293729D01*
X126370186Y-72395186D01*
X126268729Y-72478448D01*
X126232991Y-72507778D01*
X126076466Y-72591443D01*
X125906627Y-72642963D01*
X125840443Y-72649481D01*
X125774260Y-72656000D01*
X125685740Y-72656000D01*
X125619557Y-72649481D01*
X125553373Y-72642963D01*
X125383534Y-72591443D01*
X125227009Y-72507778D01*
X125191271Y-72478448D01*
X125089814Y-72395186D01*
X125006552Y-72293729D01*
X124977222Y-72257991D01*
X124893557Y-72101466D01*
X124842037Y-71931627D01*
X124824641Y-71755000D01*
X124842037Y-71578373D01*
X124893557Y-71408534D01*
X124977222Y-71252009D01*
X125006552Y-71216271D01*
X125089814Y-71114814D01*
X125191271Y-71031552D01*
X125227009Y-71002222D01*
X125383534Y-70918557D01*
X125553373Y-70867037D01*
X125619558Y-70860518D01*
X125685740Y-70854000D01*
X125774260Y-70854000D01*
X125840442Y-70860518D01*
X125840442Y-70860518D01*
G37*
G36*
X113296000Y-67576000D02*
G01*
X111494000Y-67576000D01*
X111494000Y-65774000D01*
X113296000Y-65774000D01*
X113296000Y-67576000D01*
X113296000Y-67576000D01*
G37*
G36*
X109965443Y-65780519D02*
G01*
X110031627Y-65787037D01*
X110201466Y-65838557D01*
X110357991Y-65922222D01*
X110393729Y-65951552D01*
X110495186Y-66034814D01*
X110578448Y-66136271D01*
X110607778Y-66172009D01*
X110691443Y-66328534D01*
X110742963Y-66498373D01*
X110760359Y-66675000D01*
X110742963Y-66851627D01*
X110691443Y-67021466D01*
X110607778Y-67177991D01*
X110578448Y-67213729D01*
X110495186Y-67315186D01*
X110393729Y-67398448D01*
X110357991Y-67427778D01*
X110201466Y-67511443D01*
X110031627Y-67562963D01*
X109965443Y-67569481D01*
X109899260Y-67576000D01*
X109810740Y-67576000D01*
X109744557Y-67569481D01*
X109678373Y-67562963D01*
X109508534Y-67511443D01*
X109352009Y-67427778D01*
X109316271Y-67398448D01*
X109214814Y-67315186D01*
X109131552Y-67213729D01*
X109102222Y-67177991D01*
X109018557Y-67021466D01*
X108967037Y-66851627D01*
X108949641Y-66675000D01*
X108967037Y-66498373D01*
X109018557Y-66328534D01*
X109102222Y-66172009D01*
X109131552Y-66136271D01*
X109214814Y-66034814D01*
X109316271Y-65951552D01*
X109352009Y-65922222D01*
X109508534Y-65838557D01*
X109678373Y-65787037D01*
X109744557Y-65780519D01*
X109810740Y-65774000D01*
X109899260Y-65774000D01*
X109965443Y-65780519D01*
X109965443Y-65780519D01*
G37*
G36*
X107425443Y-65780519D02*
G01*
X107491627Y-65787037D01*
X107661466Y-65838557D01*
X107817991Y-65922222D01*
X107853729Y-65951552D01*
X107955186Y-66034814D01*
X108038448Y-66136271D01*
X108067778Y-66172009D01*
X108151443Y-66328534D01*
X108202963Y-66498373D01*
X108220359Y-66675000D01*
X108202963Y-66851627D01*
X108151443Y-67021466D01*
X108067778Y-67177991D01*
X108038448Y-67213729D01*
X107955186Y-67315186D01*
X107853729Y-67398448D01*
X107817991Y-67427778D01*
X107661466Y-67511443D01*
X107491627Y-67562963D01*
X107425443Y-67569481D01*
X107359260Y-67576000D01*
X107270740Y-67576000D01*
X107204557Y-67569481D01*
X107138373Y-67562963D01*
X106968534Y-67511443D01*
X106812009Y-67427778D01*
X106776271Y-67398448D01*
X106674814Y-67315186D01*
X106591552Y-67213729D01*
X106562222Y-67177991D01*
X106478557Y-67021466D01*
X106427037Y-66851627D01*
X106409641Y-66675000D01*
X106427037Y-66498373D01*
X106478557Y-66328534D01*
X106562222Y-66172009D01*
X106591552Y-66136271D01*
X106674814Y-66034814D01*
X106776271Y-65951552D01*
X106812009Y-65922222D01*
X106968534Y-65838557D01*
X107138373Y-65787037D01*
X107204557Y-65780519D01*
X107270740Y-65774000D01*
X107359260Y-65774000D01*
X107425443Y-65780519D01*
X107425443Y-65780519D01*
G37*
G36*
X104885443Y-65780519D02*
G01*
X104951627Y-65787037D01*
X105121466Y-65838557D01*
X105277991Y-65922222D01*
X105313729Y-65951552D01*
X105415186Y-66034814D01*
X105498448Y-66136271D01*
X105527778Y-66172009D01*
X105611443Y-66328534D01*
X105662963Y-66498373D01*
X105680359Y-66675000D01*
X105662963Y-66851627D01*
X105611443Y-67021466D01*
X105527778Y-67177991D01*
X105498448Y-67213729D01*
X105415186Y-67315186D01*
X105313729Y-67398448D01*
X105277991Y-67427778D01*
X105121466Y-67511443D01*
X104951627Y-67562963D01*
X104885443Y-67569481D01*
X104819260Y-67576000D01*
X104730740Y-67576000D01*
X104664557Y-67569481D01*
X104598373Y-67562963D01*
X104428534Y-67511443D01*
X104272009Y-67427778D01*
X104236271Y-67398448D01*
X104134814Y-67315186D01*
X104051552Y-67213729D01*
X104022222Y-67177991D01*
X103938557Y-67021466D01*
X103887037Y-66851627D01*
X103869641Y-66675000D01*
X103887037Y-66498373D01*
X103938557Y-66328534D01*
X104022222Y-66172009D01*
X104051552Y-66136271D01*
X104134814Y-66034814D01*
X104236271Y-65951552D01*
X104272009Y-65922222D01*
X104428534Y-65838557D01*
X104598373Y-65787037D01*
X104664557Y-65780519D01*
X104730740Y-65774000D01*
X104819260Y-65774000D01*
X104885443Y-65780519D01*
X104885443Y-65780519D01*
G37*
G36*
X102345443Y-65780519D02*
G01*
X102411627Y-65787037D01*
X102581466Y-65838557D01*
X102737991Y-65922222D01*
X102773729Y-65951552D01*
X102875186Y-66034814D01*
X102958448Y-66136271D01*
X102987778Y-66172009D01*
X103071443Y-66328534D01*
X103122963Y-66498373D01*
X103140359Y-66675000D01*
X103122963Y-66851627D01*
X103071443Y-67021466D01*
X102987778Y-67177991D01*
X102958448Y-67213729D01*
X102875186Y-67315186D01*
X102773729Y-67398448D01*
X102737991Y-67427778D01*
X102581466Y-67511443D01*
X102411627Y-67562963D01*
X102345443Y-67569481D01*
X102279260Y-67576000D01*
X102190740Y-67576000D01*
X102124557Y-67569481D01*
X102058373Y-67562963D01*
X101888534Y-67511443D01*
X101732009Y-67427778D01*
X101696271Y-67398448D01*
X101594814Y-67315186D01*
X101511552Y-67213729D01*
X101482222Y-67177991D01*
X101398557Y-67021466D01*
X101347037Y-66851627D01*
X101329641Y-66675000D01*
X101347037Y-66498373D01*
X101398557Y-66328534D01*
X101482222Y-66172009D01*
X101511552Y-66136271D01*
X101594814Y-66034814D01*
X101696271Y-65951552D01*
X101732009Y-65922222D01*
X101888534Y-65838557D01*
X102058373Y-65787037D01*
X102124557Y-65780519D01*
X102190740Y-65774000D01*
X102279260Y-65774000D01*
X102345443Y-65780519D01*
X102345443Y-65780519D01*
G37*
G36*
X99805443Y-65780519D02*
G01*
X99871627Y-65787037D01*
X100041466Y-65838557D01*
X100197991Y-65922222D01*
X100233729Y-65951552D01*
X100335186Y-66034814D01*
X100418448Y-66136271D01*
X100447778Y-66172009D01*
X100531443Y-66328534D01*
X100582963Y-66498373D01*
X100600359Y-66675000D01*
X100582963Y-66851627D01*
X100531443Y-67021466D01*
X100447778Y-67177991D01*
X100418448Y-67213729D01*
X100335186Y-67315186D01*
X100233729Y-67398448D01*
X100197991Y-67427778D01*
X100041466Y-67511443D01*
X99871627Y-67562963D01*
X99805443Y-67569481D01*
X99739260Y-67576000D01*
X99650740Y-67576000D01*
X99584557Y-67569481D01*
X99518373Y-67562963D01*
X99348534Y-67511443D01*
X99192009Y-67427778D01*
X99156271Y-67398448D01*
X99054814Y-67315186D01*
X98971552Y-67213729D01*
X98942222Y-67177991D01*
X98858557Y-67021466D01*
X98807037Y-66851627D01*
X98789641Y-66675000D01*
X98807037Y-66498373D01*
X98858557Y-66328534D01*
X98942222Y-66172009D01*
X98971552Y-66136271D01*
X99054814Y-66034814D01*
X99156271Y-65951552D01*
X99192009Y-65922222D01*
X99348534Y-65838557D01*
X99518373Y-65787037D01*
X99584557Y-65780519D01*
X99650740Y-65774000D01*
X99739260Y-65774000D01*
X99805443Y-65780519D01*
X99805443Y-65780519D01*
G37*
G36*
X97265443Y-65780519D02*
G01*
X97331627Y-65787037D01*
X97501466Y-65838557D01*
X97657991Y-65922222D01*
X97693729Y-65951552D01*
X97795186Y-66034814D01*
X97878448Y-66136271D01*
X97907778Y-66172009D01*
X97991443Y-66328534D01*
X98042963Y-66498373D01*
X98060359Y-66675000D01*
X98042963Y-66851627D01*
X97991443Y-67021466D01*
X97907778Y-67177991D01*
X97878448Y-67213729D01*
X97795186Y-67315186D01*
X97693729Y-67398448D01*
X97657991Y-67427778D01*
X97501466Y-67511443D01*
X97331627Y-67562963D01*
X97265443Y-67569481D01*
X97199260Y-67576000D01*
X97110740Y-67576000D01*
X97044557Y-67569481D01*
X96978373Y-67562963D01*
X96808534Y-67511443D01*
X96652009Y-67427778D01*
X96616271Y-67398448D01*
X96514814Y-67315186D01*
X96431552Y-67213729D01*
X96402222Y-67177991D01*
X96318557Y-67021466D01*
X96267037Y-66851627D01*
X96249641Y-66675000D01*
X96267037Y-66498373D01*
X96318557Y-66328534D01*
X96402222Y-66172009D01*
X96431552Y-66136271D01*
X96514814Y-66034814D01*
X96616271Y-65951552D01*
X96652009Y-65922222D01*
X96808534Y-65838557D01*
X96978373Y-65787037D01*
X97044557Y-65780519D01*
X97110740Y-65774000D01*
X97199260Y-65774000D01*
X97265443Y-65780519D01*
X97265443Y-65780519D01*
G37*
G36*
X81390443Y-65780519D02*
G01*
X81456627Y-65787037D01*
X81626466Y-65838557D01*
X81782991Y-65922222D01*
X81818729Y-65951552D01*
X81920186Y-66034814D01*
X82003448Y-66136271D01*
X82032778Y-66172009D01*
X82116443Y-66328534D01*
X82167963Y-66498373D01*
X82185359Y-66675000D01*
X82167963Y-66851627D01*
X82116443Y-67021466D01*
X82032778Y-67177991D01*
X82003448Y-67213729D01*
X81920186Y-67315186D01*
X81818729Y-67398448D01*
X81782991Y-67427778D01*
X81626466Y-67511443D01*
X81456627Y-67562963D01*
X81390443Y-67569481D01*
X81324260Y-67576000D01*
X81235740Y-67576000D01*
X81169557Y-67569481D01*
X81103373Y-67562963D01*
X80933534Y-67511443D01*
X80777009Y-67427778D01*
X80741271Y-67398448D01*
X80639814Y-67315186D01*
X80556552Y-67213729D01*
X80527222Y-67177991D01*
X80443557Y-67021466D01*
X80392037Y-66851627D01*
X80374641Y-66675000D01*
X80392037Y-66498373D01*
X80443557Y-66328534D01*
X80527222Y-66172009D01*
X80556552Y-66136271D01*
X80639814Y-66034814D01*
X80741271Y-65951552D01*
X80777009Y-65922222D01*
X80933534Y-65838557D01*
X81103373Y-65787037D01*
X81169557Y-65780519D01*
X81235740Y-65774000D01*
X81324260Y-65774000D01*
X81390443Y-65780519D01*
X81390443Y-65780519D01*
G37*
G36*
X83930443Y-65780519D02*
G01*
X83996627Y-65787037D01*
X84166466Y-65838557D01*
X84322991Y-65922222D01*
X84358729Y-65951552D01*
X84460186Y-66034814D01*
X84543448Y-66136271D01*
X84572778Y-66172009D01*
X84656443Y-66328534D01*
X84707963Y-66498373D01*
X84725359Y-66675000D01*
X84707963Y-66851627D01*
X84656443Y-67021466D01*
X84572778Y-67177991D01*
X84543448Y-67213729D01*
X84460186Y-67315186D01*
X84358729Y-67398448D01*
X84322991Y-67427778D01*
X84166466Y-67511443D01*
X83996627Y-67562963D01*
X83930443Y-67569481D01*
X83864260Y-67576000D01*
X83775740Y-67576000D01*
X83709557Y-67569481D01*
X83643373Y-67562963D01*
X83473534Y-67511443D01*
X83317009Y-67427778D01*
X83281271Y-67398448D01*
X83179814Y-67315186D01*
X83096552Y-67213729D01*
X83067222Y-67177991D01*
X82983557Y-67021466D01*
X82932037Y-66851627D01*
X82914641Y-66675000D01*
X82932037Y-66498373D01*
X82983557Y-66328534D01*
X83067222Y-66172009D01*
X83096552Y-66136271D01*
X83179814Y-66034814D01*
X83281271Y-65951552D01*
X83317009Y-65922222D01*
X83473534Y-65838557D01*
X83643373Y-65787037D01*
X83709557Y-65780519D01*
X83775740Y-65774000D01*
X83864260Y-65774000D01*
X83930443Y-65780519D01*
X83930443Y-65780519D01*
G37*
G36*
X86470443Y-65780519D02*
G01*
X86536627Y-65787037D01*
X86706466Y-65838557D01*
X86862991Y-65922222D01*
X86898729Y-65951552D01*
X87000186Y-66034814D01*
X87083448Y-66136271D01*
X87112778Y-66172009D01*
X87196443Y-66328534D01*
X87247963Y-66498373D01*
X87265359Y-66675000D01*
X87247963Y-66851627D01*
X87196443Y-67021466D01*
X87112778Y-67177991D01*
X87083448Y-67213729D01*
X87000186Y-67315186D01*
X86898729Y-67398448D01*
X86862991Y-67427778D01*
X86706466Y-67511443D01*
X86536627Y-67562963D01*
X86470443Y-67569481D01*
X86404260Y-67576000D01*
X86315740Y-67576000D01*
X86249557Y-67569481D01*
X86183373Y-67562963D01*
X86013534Y-67511443D01*
X85857009Y-67427778D01*
X85821271Y-67398448D01*
X85719814Y-67315186D01*
X85636552Y-67213729D01*
X85607222Y-67177991D01*
X85523557Y-67021466D01*
X85472037Y-66851627D01*
X85454641Y-66675000D01*
X85472037Y-66498373D01*
X85523557Y-66328534D01*
X85607222Y-66172009D01*
X85636552Y-66136271D01*
X85719814Y-66034814D01*
X85821271Y-65951552D01*
X85857009Y-65922222D01*
X86013534Y-65838557D01*
X86183373Y-65787037D01*
X86249557Y-65780519D01*
X86315740Y-65774000D01*
X86404260Y-65774000D01*
X86470443Y-65780519D01*
X86470443Y-65780519D01*
G37*
G36*
X89801000Y-67576000D02*
G01*
X87999000Y-67576000D01*
X87999000Y-65774000D01*
X89801000Y-65774000D01*
X89801000Y-67576000D01*
X89801000Y-67576000D01*
G37*
G36*
X94725443Y-65780519D02*
G01*
X94791627Y-65787037D01*
X94961466Y-65838557D01*
X95117991Y-65922222D01*
X95153729Y-65951552D01*
X95255186Y-66034814D01*
X95338448Y-66136271D01*
X95367778Y-66172009D01*
X95451443Y-66328534D01*
X95502963Y-66498373D01*
X95520359Y-66675000D01*
X95502963Y-66851627D01*
X95451443Y-67021466D01*
X95367778Y-67177991D01*
X95338448Y-67213729D01*
X95255186Y-67315186D01*
X95153729Y-67398448D01*
X95117991Y-67427778D01*
X94961466Y-67511443D01*
X94791627Y-67562963D01*
X94725443Y-67569481D01*
X94659260Y-67576000D01*
X94570740Y-67576000D01*
X94504557Y-67569481D01*
X94438373Y-67562963D01*
X94268534Y-67511443D01*
X94112009Y-67427778D01*
X94076271Y-67398448D01*
X93974814Y-67315186D01*
X93891552Y-67213729D01*
X93862222Y-67177991D01*
X93778557Y-67021466D01*
X93727037Y-66851627D01*
X93709641Y-66675000D01*
X93727037Y-66498373D01*
X93778557Y-66328534D01*
X93862222Y-66172009D01*
X93891552Y-66136271D01*
X93974814Y-66034814D01*
X94076271Y-65951552D01*
X94112009Y-65922222D01*
X94268534Y-65838557D01*
X94438373Y-65787037D01*
X94504557Y-65780519D01*
X94570740Y-65774000D01*
X94659260Y-65774000D01*
X94725443Y-65780519D01*
X94725443Y-65780519D01*
G37*
M02*
